G04 #@! TF.FileFunction,Copper,L1,Top,Signal*
%FSLAX46Y46*%
G04 Gerber Fmt 4.6, Leading zero omitted, Abs format (unit mm)*
G04 Created by KiCad (PCBNEW no-vcs-found-product) date Mo 29 Aug 2016 16:25:23 CEST*
%MOMM*%
G01*
G04 APERTURE LIST*
%ADD10C,0.100000*%
%ADD11R,1.900000X2.000000*%
%ADD12C,1.900000*%
%ADD13C,1.998980*%
%ADD14O,2.900000X4.500000*%
%ADD15R,1.727200X1.727200*%
%ADD16O,1.727200X1.727200*%
%ADD17R,2.032000X1.727200*%
%ADD18O,2.032000X1.727200*%
%ADD19C,0.500000*%
G04 APERTURE END LIST*
D10*
D11*
X86250000Y-120000000D03*
D12*
X88790000Y-120000000D03*
D11*
X31250000Y-50000000D03*
D12*
X33790000Y-50000000D03*
D11*
X31250000Y-70000000D03*
D12*
X33790000Y-70000000D03*
D11*
X31250000Y-90000000D03*
D12*
X33790000Y-90000000D03*
D11*
X31250000Y-120000000D03*
D12*
X33790000Y-120000000D03*
D11*
X138750000Y-50000000D03*
D12*
X141290000Y-50000000D03*
D11*
X138750000Y-70000000D03*
D12*
X141290000Y-70000000D03*
D11*
X138750000Y-90000000D03*
D12*
X141290000Y-90000000D03*
D11*
X148750000Y-120000000D03*
D12*
X151290000Y-120000000D03*
D11*
X211250000Y-120000000D03*
D12*
X213790000Y-120000000D03*
D11*
X266250000Y-120000000D03*
D12*
X268790000Y-120000000D03*
D13*
X104500000Y-120000000D03*
X94340000Y-120000000D03*
X50000000Y-50000000D03*
X39840000Y-50000000D03*
X49500000Y-70000000D03*
X39340000Y-70000000D03*
X49500000Y-90000000D03*
X39340000Y-90000000D03*
X49500000Y-120000000D03*
X39340000Y-120000000D03*
X150000000Y-60000000D03*
X150000000Y-49840000D03*
X149750000Y-80000000D03*
X149750000Y-69840000D03*
X150000000Y-100250000D03*
X150000000Y-90090000D03*
X141000000Y-112000000D03*
X151160000Y-112000000D03*
X203750000Y-112000000D03*
X213910000Y-112000000D03*
X257250000Y-111750000D03*
X267410000Y-111750000D03*
D14*
X162000000Y-50000000D03*
X158000000Y-50000000D03*
X162000000Y-70000000D03*
X158000000Y-70000000D03*
X162000000Y-90000000D03*
X158000000Y-90000000D03*
D15*
X72250000Y-102500000D03*
D16*
X72250000Y-99960000D03*
X74790000Y-102500000D03*
X74790000Y-99960000D03*
X77330000Y-102500000D03*
X77330000Y-99960000D03*
X79870000Y-102500000D03*
X79870000Y-99960000D03*
X82410000Y-102500000D03*
X82410000Y-99960000D03*
X84950000Y-102500000D03*
X84950000Y-99960000D03*
X87490000Y-102500000D03*
X87490000Y-99960000D03*
X90030000Y-102500000D03*
X90030000Y-99960000D03*
X92570000Y-102500000D03*
X92570000Y-99960000D03*
X95110000Y-102500000D03*
X95110000Y-99960000D03*
X97650000Y-102500000D03*
X97650000Y-99960000D03*
X100190000Y-102500000D03*
X100190000Y-99960000D03*
X102730000Y-102500000D03*
X102730000Y-99960000D03*
D17*
X193750000Y-74000000D03*
D18*
X193750000Y-71460000D03*
X193750000Y-68920000D03*
X193750000Y-66380000D03*
D17*
X247000000Y-89000000D03*
D18*
X247000000Y-86460000D03*
X247000000Y-83920000D03*
X247000000Y-81380000D03*
D17*
X66750000Y-74000000D03*
D18*
X66750000Y-71460000D03*
X66750000Y-68920000D03*
X66750000Y-66380000D03*
D19*
X88790000Y-120000000D02*
X94340000Y-120000000D01*
X33790000Y-50000000D02*
X39840000Y-50000000D01*
X33790000Y-70000000D02*
X39340000Y-70000000D01*
X39340000Y-90000000D02*
X33790000Y-90000000D01*
X33790000Y-120000000D02*
X39340000Y-120000000D01*
X141290000Y-50000000D02*
X149840000Y-50000000D01*
X149840000Y-50000000D02*
X150000000Y-49840000D01*
X141290000Y-70000000D02*
X149590000Y-70000000D01*
X149590000Y-70000000D02*
X149750000Y-69840000D01*
X149910000Y-90000000D02*
X150000000Y-90090000D01*
X141290000Y-90000000D02*
X149910000Y-90000000D01*
X151160000Y-112000000D02*
X151160000Y-119870000D01*
X151160000Y-119870000D02*
X151290000Y-120000000D01*
X213910000Y-112000000D02*
X213910000Y-119880000D01*
X213910000Y-119880000D02*
X213790000Y-120000000D01*
X267410000Y-111750000D02*
X267410000Y-114660000D01*
X268790000Y-116040000D02*
X268790000Y-120000000D01*
X267410000Y-114660000D02*
X268790000Y-116040000D01*
X82410000Y-99960000D02*
X82410000Y-99660000D01*
X82410000Y-99660000D02*
X63500000Y-80750000D01*
X63500000Y-80750000D02*
X63500000Y-69630000D01*
X63500000Y-69630000D02*
X66750000Y-66380000D01*
X84950000Y-99960000D02*
X84950000Y-98950000D01*
X70750000Y-75460000D02*
X66750000Y-71460000D01*
X70750000Y-84750000D02*
X70750000Y-75460000D01*
X84950000Y-98950000D02*
X70750000Y-84750000D01*
X90030000Y-99960000D02*
X90030000Y-94220000D01*
X162000000Y-53750000D02*
X162000000Y-50000000D01*
X159750000Y-56000000D02*
X162000000Y-53750000D01*
X128250000Y-56000000D02*
X159750000Y-56000000D01*
X90030000Y-94220000D02*
X128250000Y-56000000D01*
X137000000Y-105000000D02*
X178000000Y-105000000D01*
X92570000Y-109070000D02*
X94000000Y-110500000D01*
X94000000Y-110500000D02*
X95000000Y-110500000D01*
X92570000Y-102500000D02*
X92570000Y-108570000D01*
X131500000Y-110500000D02*
X137000000Y-105000000D01*
X95000000Y-110500000D02*
X131500000Y-110500000D01*
X92570000Y-108570000D02*
X92570000Y-109070000D01*
X191040000Y-71460000D02*
X193750000Y-71460000D01*
X189750000Y-72750000D02*
X191040000Y-71460000D01*
X189750000Y-93250000D02*
X189750000Y-72750000D01*
X178000000Y-105000000D02*
X189750000Y-93250000D01*
X135500000Y-103000000D02*
X176250000Y-103000000D01*
X95110000Y-108390000D02*
X95720000Y-109000000D01*
X95720000Y-109000000D02*
X129500000Y-109000000D01*
X129500000Y-109000000D02*
X135500000Y-103000000D01*
X95110000Y-102500000D02*
X95110000Y-108390000D01*
X188120000Y-66380000D02*
X193750000Y-66380000D01*
X187250000Y-67250000D02*
X188120000Y-66380000D01*
X187250000Y-92000000D02*
X187250000Y-67250000D01*
X176250000Y-103000000D02*
X187250000Y-92000000D01*
X95110000Y-99960000D02*
X95110000Y-94860000D01*
X162000000Y-73250000D02*
X162000000Y-70000000D01*
X159250000Y-76000000D02*
X162000000Y-73250000D01*
X113970000Y-76000000D02*
X159250000Y-76000000D01*
X95110000Y-94860000D02*
X113970000Y-76000000D01*
X137500000Y-98250000D02*
X176500000Y-98250000D01*
X242710000Y-86460000D02*
X247000000Y-86460000D01*
X238500000Y-82250000D02*
X242710000Y-86460000D01*
X238500000Y-56250000D02*
X238500000Y-82250000D01*
X184000000Y-56250000D02*
X238500000Y-56250000D01*
X184000000Y-90750000D02*
X184000000Y-56250000D01*
X176500000Y-98250000D02*
X184000000Y-90750000D01*
X97650000Y-102500000D02*
X97650000Y-106650000D01*
X128250000Y-107500000D02*
X137500000Y-98250000D01*
X137500000Y-98250000D02*
X137750000Y-98000000D01*
X98500000Y-107500000D02*
X128250000Y-107500000D01*
X97650000Y-106650000D02*
X98500000Y-107500000D01*
X247000000Y-81380000D02*
X240750000Y-81380000D01*
X240750000Y-54000000D02*
X181500000Y-54000000D01*
X181500000Y-54000000D02*
X181500000Y-90250000D01*
X181500000Y-90250000D02*
X176250000Y-95500000D01*
X176250000Y-95500000D02*
X137000000Y-95500000D01*
X132750000Y-99750000D02*
X137000000Y-95500000D01*
X100190000Y-105190000D02*
X101000000Y-106000000D01*
X101000000Y-106000000D02*
X126500000Y-106000000D01*
X126500000Y-106000000D02*
X132750000Y-99750000D01*
X100190000Y-105190000D02*
X100190000Y-102500000D01*
X240750000Y-81380000D02*
X240750000Y-54000000D01*
X100190000Y-99960000D02*
X100190000Y-95810000D01*
X162000000Y-93250000D02*
X162000000Y-90000000D01*
X161750000Y-93500000D02*
X162000000Y-93250000D01*
X102500000Y-93500000D02*
X161750000Y-93500000D01*
X100190000Y-95810000D02*
X102500000Y-93500000D01*
X77330000Y-102500000D02*
X77330000Y-111080000D01*
X77330000Y-111080000D02*
X86250000Y-120000000D01*
X31250000Y-50000000D02*
X31250000Y-53250000D01*
X72660000Y-92750000D02*
X79870000Y-99960000D01*
X62750000Y-92750000D02*
X72660000Y-92750000D01*
X45250000Y-75250000D02*
X62750000Y-92750000D01*
X45250000Y-67250000D02*
X45250000Y-75250000D01*
X31250000Y-53250000D02*
X45250000Y-67250000D01*
X31250000Y-70000000D02*
X31250000Y-76250000D01*
X71870000Y-94500000D02*
X77330000Y-99960000D01*
X49500000Y-94500000D02*
X71870000Y-94500000D01*
X31250000Y-76250000D02*
X49500000Y-94500000D01*
X31250000Y-90000000D02*
X31250000Y-92000000D01*
X71080000Y-96250000D02*
X74790000Y-99960000D01*
X35500000Y-96250000D02*
X71080000Y-96250000D01*
X31250000Y-92000000D02*
X35500000Y-96250000D01*
X31250000Y-120000000D02*
X31250000Y-116000000D01*
X66290000Y-111000000D02*
X74790000Y-102500000D01*
X36250000Y-111000000D02*
X66290000Y-111000000D01*
X31250000Y-116000000D02*
X36250000Y-111000000D01*
X87490000Y-99960000D02*
X87490000Y-93510000D01*
X131000000Y-50000000D02*
X138750000Y-50000000D01*
X87490000Y-93510000D02*
X131000000Y-50000000D01*
X92570000Y-99960000D02*
X92570000Y-94680000D01*
X117250000Y-70000000D02*
X138750000Y-70000000D01*
X92570000Y-94680000D02*
X117250000Y-70000000D01*
X97650000Y-99960000D02*
X97650000Y-95650000D01*
X103300000Y-90000000D02*
X138750000Y-90000000D01*
X97650000Y-95650000D02*
X103300000Y-90000000D01*
X79870000Y-102500000D02*
X79870000Y-109370000D01*
X128500000Y-120000000D02*
X148750000Y-120000000D01*
X123500000Y-115000000D02*
X128500000Y-120000000D01*
X85500000Y-115000000D02*
X123500000Y-115000000D01*
X79870000Y-109370000D02*
X85500000Y-115000000D01*
X82410000Y-102500000D02*
X82410000Y-108660000D01*
X205000000Y-120000000D02*
X211250000Y-120000000D01*
X194000000Y-109000000D02*
X205000000Y-120000000D01*
X139000000Y-109000000D02*
X194000000Y-109000000D01*
X134500000Y-113500000D02*
X139000000Y-109000000D01*
X87250000Y-113500000D02*
X134500000Y-113500000D01*
X82410000Y-108660000D02*
X87250000Y-113500000D01*
X243750000Y-107000000D02*
X239750000Y-103000000D01*
X84950000Y-107950000D02*
X89000000Y-112000000D01*
X89000000Y-112000000D02*
X133000000Y-112000000D01*
X133000000Y-112000000D02*
X138000000Y-107000000D01*
X243750000Y-107000000D02*
X256750000Y-120000000D01*
X266250000Y-120000000D02*
X256750000Y-120000000D01*
X84950000Y-107950000D02*
X84950000Y-102500000D01*
X179250000Y-107000000D02*
X138000000Y-107000000D01*
X187750000Y-98500000D02*
X179250000Y-107000000D01*
X235250000Y-98500000D02*
X187750000Y-98500000D01*
X239750000Y-103000000D02*
X235250000Y-98500000D01*
X49500000Y-120000000D02*
X79500000Y-120000000D01*
X101750000Y-122750000D02*
X104500000Y-120000000D01*
X82250000Y-122750000D02*
X101750000Y-122750000D01*
X79500000Y-120000000D02*
X82250000Y-122750000D01*
M02*
