M48
;DRILL file {KiCad no-vcs-found-product} date Mo 29 Aug 2016 16:25:28 CEST
;FORMAT={-:-/ absolute / inch / decimal}
FMAT,2
INCH,TZ
T1C0.039
T2C0.040
T3C0.091
T4C0.118
%
G90
G05
M72
T1
X1.2303Y-1.9685
X1.2303Y-2.7559
X1.2303Y-3.5433
X1.2303Y-4.7244
X1.3303Y-1.9685
X1.3303Y-2.7559
X1.3303Y-3.5433
X1.3303Y-4.7244
X1.5488Y-2.7559
X1.5488Y-3.5433
X1.5488Y-4.7244
X1.5685Y-1.9685
X1.9488Y-2.7559
X1.9488Y-3.5433
X1.9488Y-4.7244
X1.9685Y-1.9685
X3.3957Y-4.7244
X3.4957Y-4.7244
X3.7142Y-4.7244
X4.1142Y-4.7244
X5.4626Y-1.9685
X5.4626Y-2.7559
X5.4626Y-3.5433
X5.5512Y-4.4094
X5.5626Y-1.9685
X5.5626Y-2.7559
X5.5626Y-3.5433
X5.8563Y-4.7244
X5.8957Y-2.7496
X5.8957Y-3.1496
X5.9055Y-1.9622
X5.9055Y-2.3622
X5.9055Y-3.5469
X5.9055Y-3.9469
X5.9512Y-4.4094
X5.9563Y-4.7244
X8.0217Y-4.4094
X8.3169Y-4.7244
X8.4169Y-4.7244
X8.4217Y-4.4094
X10.128Y-4.3996
X10.4823Y-4.7244
X10.528Y-4.3996
X10.5823Y-4.7244
T2
X2.628Y-2.6134
X2.628Y-2.7134
X2.628Y-2.8134
X2.628Y-2.9134
X2.8445Y-3.9354
X2.8445Y-4.0354
X2.9445Y-3.9354
X2.9445Y-4.0354
X3.0445Y-3.9354
X3.0445Y-4.0354
X3.1445Y-3.9354
X3.1445Y-4.0354
X3.2445Y-3.9354
X3.2445Y-4.0354
X3.3445Y-3.9354
X3.3445Y-4.0354
X3.4445Y-3.9354
X3.4445Y-4.0354
X3.5445Y-3.9354
X3.5445Y-4.0354
X3.6445Y-3.9354
X3.6445Y-4.0354
X3.7445Y-3.9354
X3.7445Y-4.0354
X3.8445Y-3.9354
X3.8445Y-4.0354
X3.9445Y-3.9354
X3.9445Y-4.0354
X4.0445Y-3.9354
X4.0445Y-4.0354
X7.628Y-2.6134
X7.628Y-2.7134
X7.628Y-2.8134
X7.628Y-2.9134
X9.7244Y-3.2039
X9.7244Y-3.3039
X9.7244Y-3.4039
X9.7244Y-3.5039
T3
X6.2205Y-1.9685
X6.2205Y-2.7559
X6.2205Y-3.5433
X6.378Y-1.9685
X6.378Y-2.7559
X6.378Y-3.5433
T4
X0.9449Y-2.3228
X0.9449Y-4.1339
X8.3661Y-1.9685
X8.3661Y-4.1339
T0
M30
