G04 #@! TF.FileFunction,Soldermask,Top*
%FSLAX46Y46*%
G04 Gerber Fmt 4.6, Leading zero omitted, Abs format (unit mm)*
G04 Created by KiCad (PCBNEW no-vcs-found-product) date Mo 29 Aug 2016 16:25:23 CEST*
%MOMM*%
G01*
G04 APERTURE LIST*
%ADD10C,0.100000*%
%ADD11R,2.300000X2.400000*%
%ADD12C,2.300000*%
%ADD13C,2.398980*%
%ADD14O,3.300000X4.900000*%
%ADD15R,2.127200X2.127200*%
%ADD16O,2.127200X2.127200*%
%ADD17R,2.432000X2.127200*%
%ADD18O,2.432000X2.127200*%
G04 APERTURE END LIST*
D10*
D11*
X86250000Y-120000000D03*
D12*
X88790000Y-120000000D03*
D11*
X31250000Y-50000000D03*
D12*
X33790000Y-50000000D03*
D11*
X31250000Y-70000000D03*
D12*
X33790000Y-70000000D03*
D11*
X31250000Y-90000000D03*
D12*
X33790000Y-90000000D03*
D11*
X31250000Y-120000000D03*
D12*
X33790000Y-120000000D03*
D11*
X138750000Y-50000000D03*
D12*
X141290000Y-50000000D03*
D11*
X138750000Y-70000000D03*
D12*
X141290000Y-70000000D03*
D11*
X138750000Y-90000000D03*
D12*
X141290000Y-90000000D03*
D11*
X148750000Y-120000000D03*
D12*
X151290000Y-120000000D03*
D11*
X211250000Y-120000000D03*
D12*
X213790000Y-120000000D03*
D11*
X266250000Y-120000000D03*
D12*
X268790000Y-120000000D03*
D13*
X104500000Y-120000000D03*
X94340000Y-120000000D03*
X50000000Y-50000000D03*
X39840000Y-50000000D03*
X49500000Y-70000000D03*
X39340000Y-70000000D03*
X49500000Y-90000000D03*
X39340000Y-90000000D03*
X49500000Y-120000000D03*
X39340000Y-120000000D03*
X150000000Y-60000000D03*
X150000000Y-49840000D03*
X149750000Y-80000000D03*
X149750000Y-69840000D03*
X150000000Y-100250000D03*
X150000000Y-90090000D03*
X141000000Y-112000000D03*
X151160000Y-112000000D03*
X203750000Y-112000000D03*
X213910000Y-112000000D03*
X257250000Y-111750000D03*
X267410000Y-111750000D03*
D14*
X162000000Y-50000000D03*
X158000000Y-50000000D03*
X162000000Y-70000000D03*
X158000000Y-70000000D03*
X162000000Y-90000000D03*
X158000000Y-90000000D03*
D15*
X72250000Y-102500000D03*
D16*
X72250000Y-99960000D03*
X74790000Y-102500000D03*
X74790000Y-99960000D03*
X77330000Y-102500000D03*
X77330000Y-99960000D03*
X79870000Y-102500000D03*
X79870000Y-99960000D03*
X82410000Y-102500000D03*
X82410000Y-99960000D03*
X84950000Y-102500000D03*
X84950000Y-99960000D03*
X87490000Y-102500000D03*
X87490000Y-99960000D03*
X90030000Y-102500000D03*
X90030000Y-99960000D03*
X92570000Y-102500000D03*
X92570000Y-99960000D03*
X95110000Y-102500000D03*
X95110000Y-99960000D03*
X97650000Y-102500000D03*
X97650000Y-99960000D03*
X100190000Y-102500000D03*
X100190000Y-99960000D03*
X102730000Y-102500000D03*
X102730000Y-99960000D03*
D17*
X193750000Y-74000000D03*
D18*
X193750000Y-71460000D03*
X193750000Y-68920000D03*
X193750000Y-66380000D03*
D17*
X247000000Y-89000000D03*
D18*
X247000000Y-86460000D03*
X247000000Y-83920000D03*
X247000000Y-81380000D03*
D17*
X66750000Y-74000000D03*
D18*
X66750000Y-71460000D03*
X66750000Y-68920000D03*
X66750000Y-66380000D03*
M02*
