G04 #@! TF.FileFunction,Legend,Top*
%FSLAX46Y46*%
G04 Gerber Fmt 4.6, Leading zero omitted, Abs format (unit mm)*
G04 Created by KiCad (PCBNEW no-vcs-found-product) date Mo 29 Aug 2016 16:25:23 CEST*
%MOMM*%
G01*
G04 APERTURE LIST*
%ADD10C,0.100000*%
%ADD11C,0.300000*%
%ADD12C,0.150000*%
G04 APERTURE END LIST*
D10*
D11*
X212107143Y-88528571D02*
X212107143Y-87028571D01*
X212678571Y-87028571D01*
X212821429Y-87100000D01*
X212892857Y-87171429D01*
X212964286Y-87314286D01*
X212964286Y-87528571D01*
X212892857Y-87671429D01*
X212821429Y-87742857D01*
X212678571Y-87814286D01*
X212107143Y-87814286D01*
X213607143Y-88528571D02*
X213607143Y-87528571D01*
X213607143Y-87814286D02*
X213678571Y-87671429D01*
X213750000Y-87600000D01*
X213892857Y-87528571D01*
X214035714Y-87528571D01*
X214535714Y-88528571D02*
X214535714Y-87528571D01*
X214535714Y-87028571D02*
X214464285Y-87100000D01*
X214535714Y-87171429D01*
X214607142Y-87100000D01*
X214535714Y-87028571D01*
X214535714Y-87171429D01*
X215250000Y-87528571D02*
X215250000Y-88528571D01*
X215250000Y-87671429D02*
X215321428Y-87600000D01*
X215464286Y-87528571D01*
X215678571Y-87528571D01*
X215821428Y-87600000D01*
X215892857Y-87742857D01*
X215892857Y-88528571D01*
X217250000Y-88457143D02*
X217107143Y-88528571D01*
X216821429Y-88528571D01*
X216678571Y-88457143D01*
X216607143Y-88385714D01*
X216535714Y-88242857D01*
X216535714Y-87814286D01*
X216607143Y-87671429D01*
X216678571Y-87600000D01*
X216821429Y-87528571D01*
X217107143Y-87528571D01*
X217250000Y-87600000D01*
X218464285Y-88457143D02*
X218321428Y-88528571D01*
X218035714Y-88528571D01*
X217892857Y-88457143D01*
X217821428Y-88314286D01*
X217821428Y-87742857D01*
X217892857Y-87600000D01*
X218035714Y-87528571D01*
X218321428Y-87528571D01*
X218464285Y-87600000D01*
X218535714Y-87742857D01*
X218535714Y-87885714D01*
X217821428Y-88028571D01*
X218964285Y-87528571D02*
X219535714Y-87528571D01*
X219178571Y-87028571D02*
X219178571Y-88314286D01*
X219249999Y-88457143D01*
X219392857Y-88528571D01*
X219535714Y-88528571D01*
X220250000Y-88528571D02*
X220107142Y-88457143D01*
X220035714Y-88385714D01*
X219964285Y-88242857D01*
X219964285Y-87814286D01*
X220035714Y-87671429D01*
X220107142Y-87600000D01*
X220250000Y-87528571D01*
X220464285Y-87528571D01*
X220607142Y-87600000D01*
X220678571Y-87671429D01*
X220750000Y-87814286D01*
X220750000Y-88242857D01*
X220678571Y-88385714D01*
X220607142Y-88457143D01*
X220464285Y-88528571D01*
X220250000Y-88528571D01*
X221392857Y-87528571D02*
X221392857Y-88528571D01*
X221392857Y-87671429D02*
X221464285Y-87600000D01*
X221607143Y-87528571D01*
X221821428Y-87528571D01*
X221964285Y-87600000D01*
X222035714Y-87742857D01*
X222035714Y-88528571D01*
X212392857Y-90214286D02*
X212392857Y-90928571D01*
X211892857Y-89428571D02*
X212392857Y-90214286D01*
X212892857Y-89428571D01*
X213321428Y-90500000D02*
X214035714Y-90500000D01*
X213178571Y-90928571D02*
X213678571Y-89428571D01*
X214178571Y-90928571D01*
X214678571Y-90928571D02*
X214678571Y-89428571D01*
X215892857Y-90142857D02*
X216107143Y-90214286D01*
X216178571Y-90285714D01*
X216250000Y-90428571D01*
X216250000Y-90642857D01*
X216178571Y-90785714D01*
X216107143Y-90857143D01*
X215964285Y-90928571D01*
X215392857Y-90928571D01*
X215392857Y-89428571D01*
X215892857Y-89428571D01*
X216035714Y-89500000D01*
X216107143Y-89571429D01*
X216178571Y-89714286D01*
X216178571Y-89857143D01*
X216107143Y-90000000D01*
X216035714Y-90071429D01*
X215892857Y-90142857D01*
X215392857Y-90142857D01*
X218535714Y-90142857D02*
X218035714Y-90142857D01*
X218035714Y-90928571D02*
X218035714Y-89428571D01*
X218750000Y-89428571D01*
X219321428Y-90928571D02*
X219321428Y-89928571D01*
X219321428Y-90214286D02*
X219392856Y-90071429D01*
X219464285Y-90000000D01*
X219607142Y-89928571D01*
X219749999Y-89928571D01*
X220464285Y-90928571D02*
X220321427Y-90857143D01*
X220249999Y-90785714D01*
X220178570Y-90642857D01*
X220178570Y-90214286D01*
X220249999Y-90071429D01*
X220321427Y-90000000D01*
X220464285Y-89928571D01*
X220678570Y-89928571D01*
X220821427Y-90000000D01*
X220892856Y-90071429D01*
X220964285Y-90214286D01*
X220964285Y-90642857D01*
X220892856Y-90785714D01*
X220821427Y-90857143D01*
X220678570Y-90928571D01*
X220464285Y-90928571D01*
X221607142Y-89928571D02*
X221607142Y-90928571D01*
X221607142Y-90071429D02*
X221678570Y-90000000D01*
X221821428Y-89928571D01*
X222035713Y-89928571D01*
X222178570Y-90000000D01*
X222249999Y-90142857D01*
X222249999Y-90928571D01*
X222749999Y-89928571D02*
X223321428Y-89928571D01*
X222964285Y-89428571D02*
X222964285Y-90714286D01*
X223035713Y-90857143D01*
X223178571Y-90928571D01*
X223321428Y-90928571D01*
X223821428Y-89928571D02*
X223821428Y-91428571D01*
X223821428Y-90000000D02*
X223964285Y-89928571D01*
X224249999Y-89928571D01*
X224392856Y-90000000D01*
X224464285Y-90071429D01*
X224535714Y-90214286D01*
X224535714Y-90642857D01*
X224464285Y-90785714D01*
X224392856Y-90857143D01*
X224249999Y-90928571D01*
X223964285Y-90928571D01*
X223821428Y-90857143D01*
X225821428Y-90928571D02*
X225821428Y-90142857D01*
X225749999Y-90000000D01*
X225607142Y-89928571D01*
X225321428Y-89928571D01*
X225178571Y-90000000D01*
X225821428Y-90857143D02*
X225678571Y-90928571D01*
X225321428Y-90928571D01*
X225178571Y-90857143D01*
X225107142Y-90714286D01*
X225107142Y-90571429D01*
X225178571Y-90428571D01*
X225321428Y-90357143D01*
X225678571Y-90357143D01*
X225821428Y-90285714D01*
X226535714Y-89928571D02*
X226535714Y-90928571D01*
X226535714Y-90071429D02*
X226607142Y-90000000D01*
X226750000Y-89928571D01*
X226964285Y-89928571D01*
X227107142Y-90000000D01*
X227178571Y-90142857D01*
X227178571Y-90928571D01*
X228464285Y-90857143D02*
X228321428Y-90928571D01*
X228035714Y-90928571D01*
X227892857Y-90857143D01*
X227821428Y-90714286D01*
X227821428Y-90142857D01*
X227892857Y-90000000D01*
X228035714Y-89928571D01*
X228321428Y-89928571D01*
X228464285Y-90000000D01*
X228535714Y-90142857D01*
X228535714Y-90285714D01*
X227821428Y-90428571D01*
X229392857Y-90928571D02*
X229249999Y-90857143D01*
X229178571Y-90714286D01*
X229178571Y-89428571D01*
X212964286Y-93328571D02*
X212464286Y-92614286D01*
X212107143Y-93328571D02*
X212107143Y-91828571D01*
X212678571Y-91828571D01*
X212821429Y-91900000D01*
X212892857Y-91971429D01*
X212964286Y-92114286D01*
X212964286Y-92328571D01*
X212892857Y-92471429D01*
X212821429Y-92542857D01*
X212678571Y-92614286D01*
X212107143Y-92614286D01*
X214178571Y-93257143D02*
X214035714Y-93328571D01*
X213750000Y-93328571D01*
X213607143Y-93257143D01*
X213535714Y-93114286D01*
X213535714Y-92542857D01*
X213607143Y-92400000D01*
X213750000Y-92328571D01*
X214035714Y-92328571D01*
X214178571Y-92400000D01*
X214250000Y-92542857D01*
X214250000Y-92685714D01*
X213535714Y-92828571D01*
X214750000Y-92328571D02*
X215107143Y-93328571D01*
X215464285Y-92328571D01*
X217107142Y-91971429D02*
X217178571Y-91900000D01*
X217321428Y-91828571D01*
X217678571Y-91828571D01*
X217821428Y-91900000D01*
X217892857Y-91971429D01*
X217964285Y-92114286D01*
X217964285Y-92257143D01*
X217892857Y-92471429D01*
X217035714Y-93328571D01*
X217964285Y-93328571D01*
D12*
X47460000Y-51270000D02*
X42380000Y-51270000D01*
X42380000Y-51270000D02*
X42380000Y-48730000D01*
X42380000Y-48730000D02*
X47460000Y-48730000D01*
X47460000Y-48730000D02*
X47460000Y-51270000D01*
X47460000Y-50000000D02*
X48730000Y-50000000D01*
X42380000Y-50000000D02*
X41110000Y-50000000D01*
X46960000Y-71270000D02*
X41880000Y-71270000D01*
X41880000Y-71270000D02*
X41880000Y-68730000D01*
X41880000Y-68730000D02*
X46960000Y-68730000D01*
X46960000Y-68730000D02*
X46960000Y-71270000D01*
X46960000Y-70000000D02*
X48230000Y-70000000D01*
X41880000Y-70000000D02*
X40610000Y-70000000D01*
X46960000Y-91270000D02*
X41880000Y-91270000D01*
X41880000Y-91270000D02*
X41880000Y-88730000D01*
X41880000Y-88730000D02*
X46960000Y-88730000D01*
X46960000Y-88730000D02*
X46960000Y-91270000D01*
X46960000Y-90000000D02*
X48230000Y-90000000D01*
X41880000Y-90000000D02*
X40610000Y-90000000D01*
X46960000Y-121270000D02*
X41880000Y-121270000D01*
X41880000Y-121270000D02*
X41880000Y-118730000D01*
X41880000Y-118730000D02*
X46960000Y-118730000D01*
X46960000Y-118730000D02*
X46960000Y-121270000D01*
X46960000Y-120000000D02*
X48230000Y-120000000D01*
X41880000Y-120000000D02*
X40610000Y-120000000D01*
X148730000Y-57460000D02*
X148730000Y-52380000D01*
X148730000Y-52380000D02*
X151270000Y-52380000D01*
X151270000Y-52380000D02*
X151270000Y-57460000D01*
X151270000Y-57460000D02*
X148730000Y-57460000D01*
X150000000Y-57460000D02*
X150000000Y-58730000D01*
X150000000Y-52380000D02*
X150000000Y-51110000D01*
X148480000Y-77460000D02*
X148480000Y-72380000D01*
X148480000Y-72380000D02*
X151020000Y-72380000D01*
X151020000Y-72380000D02*
X151020000Y-77460000D01*
X151020000Y-77460000D02*
X148480000Y-77460000D01*
X149750000Y-77460000D02*
X149750000Y-78730000D01*
X149750000Y-72380000D02*
X149750000Y-71110000D01*
X148730000Y-97710000D02*
X148730000Y-92630000D01*
X148730000Y-92630000D02*
X151270000Y-92630000D01*
X151270000Y-92630000D02*
X151270000Y-97710000D01*
X151270000Y-97710000D02*
X148730000Y-97710000D01*
X150000000Y-97710000D02*
X150000000Y-98980000D01*
X150000000Y-92630000D02*
X150000000Y-91360000D01*
X143540000Y-110730000D02*
X148620000Y-110730000D01*
X148620000Y-110730000D02*
X148620000Y-113270000D01*
X148620000Y-113270000D02*
X143540000Y-113270000D01*
X143540000Y-113270000D02*
X143540000Y-110730000D01*
X143540000Y-112000000D02*
X142270000Y-112000000D01*
X148620000Y-112000000D02*
X149890000Y-112000000D01*
X206290000Y-110730000D02*
X211370000Y-110730000D01*
X211370000Y-110730000D02*
X211370000Y-113270000D01*
X211370000Y-113270000D02*
X206290000Y-113270000D01*
X206290000Y-113270000D02*
X206290000Y-110730000D01*
X206290000Y-112000000D02*
X205020000Y-112000000D01*
X211370000Y-112000000D02*
X212640000Y-112000000D01*
X259790000Y-110480000D02*
X264870000Y-110480000D01*
X264870000Y-110480000D02*
X264870000Y-113020000D01*
X264870000Y-113020000D02*
X259790000Y-113020000D01*
X259790000Y-113020000D02*
X259790000Y-110480000D01*
X259790000Y-111750000D02*
X258520000Y-111750000D01*
X264870000Y-111750000D02*
X266140000Y-111750000D01*
X70980000Y-98690000D02*
X104000000Y-98690000D01*
X73520000Y-103770000D02*
X104000000Y-103770000D01*
X104000000Y-98690000D02*
X104000000Y-103770000D01*
X70980000Y-98690000D02*
X70980000Y-101230000D01*
X70700000Y-102500000D02*
X70700000Y-104050000D01*
X70980000Y-101230000D02*
X73520000Y-101230000D01*
X73520000Y-101230000D02*
X73520000Y-103770000D01*
X70700000Y-104050000D02*
X72250000Y-104050000D01*
X195020000Y-72730000D02*
X195020000Y-65110000D01*
X192480000Y-72730000D02*
X192480000Y-65110000D01*
X192200000Y-75550000D02*
X192200000Y-74000000D01*
X195020000Y-65110000D02*
X192480000Y-65110000D01*
X192480000Y-72730000D02*
X195020000Y-72730000D01*
X195300000Y-74000000D02*
X195300000Y-75550000D01*
X195300000Y-75550000D02*
X192200000Y-75550000D01*
X248270000Y-87730000D02*
X248270000Y-80110000D01*
X245730000Y-87730000D02*
X245730000Y-80110000D01*
X245450000Y-90550000D02*
X245450000Y-89000000D01*
X248270000Y-80110000D02*
X245730000Y-80110000D01*
X245730000Y-87730000D02*
X248270000Y-87730000D01*
X248550000Y-89000000D02*
X248550000Y-90550000D01*
X248550000Y-90550000D02*
X245450000Y-90550000D01*
X68020000Y-72730000D02*
X68020000Y-65110000D01*
X65480000Y-72730000D02*
X65480000Y-65110000D01*
X65200000Y-75550000D02*
X65200000Y-74000000D01*
X68020000Y-65110000D02*
X65480000Y-65110000D01*
X65480000Y-72730000D02*
X68020000Y-72730000D01*
X68300000Y-74000000D02*
X68300000Y-75550000D01*
X68300000Y-75550000D02*
X65200000Y-75550000D01*
X204750380Y-85000480D02*
X198849960Y-90900900D01*
X199149680Y-89600420D02*
X199650060Y-89100040D01*
X203749620Y-88000220D02*
X203449900Y-88299940D01*
X201750640Y-90999960D02*
X201948760Y-90799300D01*
X200749880Y-86001240D02*
X200950540Y-85800580D01*
X200249500Y-86499080D02*
X199850720Y-86900400D01*
X201250260Y-86499080D02*
X201549980Y-86199360D01*
X202251020Y-86499080D02*
X202748860Y-86001240D01*
X204250000Y-84500100D02*
X204450660Y-84299440D01*
X204750380Y-85000480D02*
X205050100Y-84700760D01*
X204750380Y-86001240D02*
X205250760Y-85500860D01*
X206248980Y-86499080D02*
X206350580Y-86400020D01*
X205250760Y-86499080D02*
X205649540Y-86100300D01*
X207750120Y-86001240D02*
X208049840Y-85698980D01*
X208250500Y-86499080D02*
X208550220Y-86199360D01*
X200249500Y-91500340D02*
X199949780Y-91800060D01*
X201750640Y-89999200D02*
X202050360Y-89699480D01*
X199650060Y-93999700D02*
X199449400Y-94200360D01*
X201750640Y-92000720D02*
X202251020Y-91500340D01*
X200249500Y-94500080D02*
X200048840Y-94700740D01*
X202251020Y-92501100D02*
X202748860Y-92000720D01*
X202251020Y-93499320D02*
X202649800Y-93100540D01*
X207750120Y-89000980D02*
X208250500Y-88500600D01*
X208250500Y-89498820D02*
X208550220Y-89199100D01*
X207750120Y-92998940D02*
X208148900Y-92600160D01*
X209749100Y-89999200D02*
X210150420Y-89600420D01*
X208250500Y-93499320D02*
X207249740Y-94500080D01*
X207750120Y-92998940D02*
X206749360Y-93999700D01*
X209749100Y-89999200D02*
X205751140Y-93999700D01*
X209251260Y-89498820D02*
X205751140Y-92998940D01*
X208250500Y-89498820D02*
X205250760Y-92501100D01*
X202251020Y-93499320D02*
X201750640Y-93999700D01*
X202251020Y-92501100D02*
X200249500Y-94500080D01*
X201750640Y-92000720D02*
X199749120Y-93999700D01*
X201750640Y-90999960D02*
X200249500Y-92501100D01*
X201750640Y-89999200D02*
X200249500Y-91500340D01*
X204250000Y-84500100D02*
X203249240Y-85500860D01*
X200749880Y-86001240D02*
X200249500Y-86499080D01*
X201250260Y-86499080D02*
X200249500Y-87499840D01*
X199248740Y-89498820D02*
X198250520Y-90499580D01*
X202251020Y-86499080D02*
X199749120Y-89000980D01*
X204750380Y-86001240D02*
X199749120Y-90999960D01*
X207750120Y-89000980D02*
X206248980Y-90499580D01*
X207750120Y-88000220D02*
X206248980Y-89498820D01*
X205250760Y-86499080D02*
X203749620Y-88000220D01*
X208250500Y-86499080D02*
X205751140Y-89000980D01*
X207750120Y-86001240D02*
X205250760Y-88500600D01*
X206248980Y-86499080D02*
X204750380Y-88000220D01*
X209050600Y-98299920D02*
X209050600Y-98899360D01*
X207549460Y-97200100D02*
X208349560Y-100499560D01*
X208349560Y-100499560D02*
X208550220Y-100499560D01*
X208550220Y-100499560D02*
X208949000Y-99100020D01*
X208949000Y-99100020D02*
X209050600Y-99100020D01*
X209050600Y-99100020D02*
X209550980Y-100499560D01*
X209550980Y-100499560D02*
X209650040Y-100499560D01*
X209650040Y-100499560D02*
X210450140Y-97299160D01*
X210450140Y-97299160D02*
X210249480Y-97299160D01*
X210249480Y-97299160D02*
X209550980Y-99900120D01*
X209550980Y-99900120D02*
X209149660Y-98099260D01*
X209149660Y-98099260D02*
X208949000Y-98099260D01*
X208949000Y-98099260D02*
X208349560Y-99900120D01*
X208349560Y-99900120D02*
X207750120Y-97200100D01*
X207750120Y-97200100D02*
X207549460Y-97200100D01*
X204849440Y-98701240D02*
X206350580Y-98701240D01*
X206350580Y-98701240D02*
X206350580Y-98899360D01*
X206350580Y-98899360D02*
X204951040Y-98899360D01*
X206449640Y-97299160D02*
X206449640Y-100499560D01*
X206449640Y-100499560D02*
X206650300Y-100499560D01*
X206650300Y-100499560D02*
X206650300Y-97299160D01*
X206650300Y-97299160D02*
X206449640Y-97299160D01*
X204951040Y-97200100D02*
X204849440Y-97200100D01*
X204750380Y-97200100D02*
X204750380Y-100499560D01*
X204750380Y-100499560D02*
X204951040Y-100499560D01*
X204951040Y-100499560D02*
X204951040Y-97200100D01*
X203851220Y-97499820D02*
X203749620Y-97400760D01*
X203749620Y-97400760D02*
X203350840Y-97299160D01*
X203350840Y-97299160D02*
X202850460Y-97200100D01*
X202850460Y-97200100D02*
X202149420Y-97400760D01*
X202149420Y-97400760D02*
X201849700Y-97700480D01*
X201849700Y-97700480D02*
X201750640Y-98200860D01*
X201750640Y-98200860D02*
X201849700Y-98599640D01*
X201849700Y-98599640D02*
X202251020Y-98899360D01*
X202251020Y-98899360D02*
X202748860Y-99100020D01*
X202748860Y-99100020D02*
X203150180Y-99199080D01*
X203150180Y-99199080D02*
X203350840Y-99399740D01*
X203350840Y-99399740D02*
X203449900Y-99699460D01*
X203449900Y-99699460D02*
X203350840Y-99999180D01*
X203350840Y-99999180D02*
X203051120Y-100199840D01*
X203051120Y-100199840D02*
X202649800Y-100199840D01*
X202649800Y-100199840D02*
X202149420Y-100199840D01*
X202149420Y-100199840D02*
X201849700Y-100100780D01*
X201849700Y-100100780D02*
X201649040Y-100199840D01*
X201649040Y-100199840D02*
X201948760Y-100400500D01*
X201948760Y-100400500D02*
X202550740Y-100499560D01*
X202550740Y-100499560D02*
X203150180Y-100499560D01*
X203150180Y-100499560D02*
X203548960Y-100199840D01*
X203548960Y-100199840D02*
X203650560Y-99699460D01*
X203650560Y-99699460D02*
X203650560Y-99399740D01*
X203650560Y-99399740D02*
X203449900Y-99100020D01*
X203449900Y-99100020D02*
X202949520Y-98899360D01*
X202949520Y-98899360D02*
X202449140Y-98701240D01*
X202449140Y-98701240D02*
X202050360Y-98398980D01*
X202050360Y-98398980D02*
X201948760Y-98099260D01*
X201948760Y-98099260D02*
X202149420Y-97799540D01*
X202149420Y-97799540D02*
X202550740Y-97499820D01*
X202550740Y-97499820D02*
X203150180Y-97499820D01*
X203150180Y-97499820D02*
X203548960Y-97598880D01*
X203548960Y-97598880D02*
X203851220Y-97700480D01*
X199749120Y-97598880D02*
X199449400Y-97598880D01*
X199449400Y-97598880D02*
X199050620Y-97901140D01*
X199050620Y-97901140D02*
X198949020Y-98398980D01*
X198949020Y-98398980D02*
X198949020Y-99199080D01*
X198949020Y-99199080D02*
X199050620Y-99699460D01*
X199050620Y-99699460D02*
X199248740Y-99999180D01*
X199248740Y-99999180D02*
X199650060Y-100199840D01*
X199650060Y-100199840D02*
X200048840Y-100199840D01*
X200048840Y-100199840D02*
X200450160Y-99900120D01*
X200450160Y-99900120D02*
X200650820Y-99199080D01*
X200650820Y-99199080D02*
X200650820Y-98398980D01*
X200650820Y-98398980D02*
X200450160Y-98000200D01*
X200450160Y-98000200D02*
X200249500Y-97799540D01*
X200249500Y-97799540D02*
X199850720Y-97598880D01*
X199749120Y-97299160D02*
X199350340Y-97400760D01*
X199350340Y-97400760D02*
X199050620Y-97499820D01*
X199050620Y-97499820D02*
X198750900Y-98000200D01*
X198750900Y-98000200D02*
X198649300Y-98599640D01*
X198649300Y-98599640D02*
X198750900Y-99699460D01*
X198750900Y-99699460D02*
X199050620Y-100298900D01*
X199050620Y-100298900D02*
X199650060Y-100499560D01*
X199650060Y-100499560D02*
X200351100Y-100400500D01*
X200351100Y-100400500D02*
X200749880Y-99801060D01*
X200749880Y-99801060D02*
X200848940Y-99100020D01*
X200848940Y-99100020D02*
X200848940Y-98398980D01*
X200848940Y-98398980D02*
X200650820Y-97799540D01*
X200650820Y-97799540D02*
X200249500Y-97400760D01*
X200249500Y-97400760D02*
X199749120Y-97299160D01*
X203150180Y-92201380D02*
X202649800Y-91800060D01*
X202649800Y-91800060D02*
X202251020Y-91299680D01*
X202251020Y-91299680D02*
X202050360Y-90799300D01*
X202050360Y-90799300D02*
X202050360Y-90100800D01*
X202050360Y-90100800D02*
X202151960Y-89501360D01*
X202151960Y-89501360D02*
X202550740Y-88899380D01*
X202550740Y-88899380D02*
X203350840Y-88299940D01*
X203350840Y-88299940D02*
X204150940Y-88200880D01*
X204150940Y-88200880D02*
X204851980Y-88200880D01*
X204851980Y-88200880D02*
X205550480Y-88701260D01*
X205550480Y-88701260D02*
X206050860Y-89399760D01*
X206050860Y-89399760D02*
X206251520Y-89999200D01*
X206251520Y-89999200D02*
X206251520Y-90700240D01*
X206251520Y-90700240D02*
X205951800Y-91500340D01*
X205951800Y-91500340D02*
X205451420Y-92000720D01*
X205451420Y-92000720D02*
X205151700Y-92201380D01*
X205151700Y-92300440D02*
X205901000Y-94550880D01*
X205901000Y-94550880D02*
X206751900Y-94101300D01*
X206751900Y-94101300D02*
X208049840Y-95099520D01*
X208049840Y-95099520D02*
X209050600Y-93999700D01*
X209050600Y-93999700D02*
X208151440Y-92699220D01*
X208151440Y-92699220D02*
X208651820Y-91401280D01*
X208651820Y-91401280D02*
X208651820Y-91200620D01*
X208651820Y-91200620D02*
X210252020Y-90900900D01*
X210252020Y-90900900D02*
X210252020Y-89399760D01*
X210252020Y-89399760D02*
X208651820Y-89201640D01*
X208651820Y-89201640D02*
X208049840Y-87799560D01*
X208049840Y-87799560D02*
X208951540Y-86400020D01*
X208951540Y-86400020D02*
X207851720Y-85399260D01*
X207851720Y-85399260D02*
X206551240Y-86300960D01*
X206551240Y-86300960D02*
X205349820Y-85800580D01*
X205349820Y-85800580D02*
X204951040Y-84200380D01*
X204951040Y-84200380D02*
X203449900Y-84200380D01*
X203449900Y-84200380D02*
X203150180Y-85800580D01*
X203150180Y-85800580D02*
X201849700Y-86300960D01*
X201849700Y-86300960D02*
X200450160Y-85300200D01*
X200450160Y-85300200D02*
X199350340Y-86400020D01*
X199350340Y-86400020D02*
X200351100Y-87700500D01*
X200351100Y-87700500D02*
X199650060Y-89201640D01*
X199650060Y-89201640D02*
X198049860Y-89399760D01*
X198049860Y-89399760D02*
X197950800Y-90799300D01*
X197950800Y-90799300D02*
X199551000Y-91101560D01*
X199551000Y-91101560D02*
X200150440Y-92699220D01*
X200150440Y-92699220D02*
X199251280Y-93999700D01*
X199251280Y-93999700D02*
X200252040Y-95099520D01*
X200252040Y-95099520D02*
X201549980Y-94200360D01*
X201549980Y-94200360D02*
X202251020Y-94500080D01*
X202251020Y-94500080D02*
X203150180Y-92201380D01*
X44504414Y-53952501D02*
X44171080Y-53476310D01*
X43932985Y-53952501D02*
X43932985Y-52952501D01*
X44313938Y-52952501D01*
X44409176Y-53000120D01*
X44456795Y-53047739D01*
X44504414Y-53142977D01*
X44504414Y-53285834D01*
X44456795Y-53381072D01*
X44409176Y-53428691D01*
X44313938Y-53476310D01*
X43932985Y-53476310D01*
X44885366Y-53047739D02*
X44932985Y-53000120D01*
X45028223Y-52952501D01*
X45266319Y-52952501D01*
X45361557Y-53000120D01*
X45409176Y-53047739D01*
X45456795Y-53142977D01*
X45456795Y-53238215D01*
X45409176Y-53381072D01*
X44837747Y-53952501D01*
X45456795Y-53952501D01*
X44004414Y-73952501D02*
X43671080Y-73476310D01*
X43432985Y-73952501D02*
X43432985Y-72952501D01*
X43813938Y-72952501D01*
X43909176Y-73000120D01*
X43956795Y-73047739D01*
X44004414Y-73142977D01*
X44004414Y-73285834D01*
X43956795Y-73381072D01*
X43909176Y-73428691D01*
X43813938Y-73476310D01*
X43432985Y-73476310D01*
X44337747Y-72952501D02*
X44956795Y-72952501D01*
X44623461Y-73333453D01*
X44766319Y-73333453D01*
X44861557Y-73381072D01*
X44909176Y-73428691D01*
X44956795Y-73523930D01*
X44956795Y-73762025D01*
X44909176Y-73857263D01*
X44861557Y-73904882D01*
X44766319Y-73952501D01*
X44480604Y-73952501D01*
X44385366Y-73904882D01*
X44337747Y-73857263D01*
X44004414Y-93952501D02*
X43671080Y-93476310D01*
X43432985Y-93952501D02*
X43432985Y-92952501D01*
X43813938Y-92952501D01*
X43909176Y-93000120D01*
X43956795Y-93047739D01*
X44004414Y-93142977D01*
X44004414Y-93285834D01*
X43956795Y-93381072D01*
X43909176Y-93428691D01*
X43813938Y-93476310D01*
X43432985Y-93476310D01*
X44861557Y-93285834D02*
X44861557Y-93952501D01*
X44623461Y-92904882D02*
X44385366Y-93619168D01*
X45004414Y-93619168D01*
X44004414Y-123952501D02*
X43671080Y-123476310D01*
X43432985Y-123952501D02*
X43432985Y-122952501D01*
X43813938Y-122952501D01*
X43909176Y-123000120D01*
X43956795Y-123047739D01*
X44004414Y-123142977D01*
X44004414Y-123285834D01*
X43956795Y-123381072D01*
X43909176Y-123428691D01*
X43813938Y-123476310D01*
X43432985Y-123476310D01*
X44909176Y-122952501D02*
X44432985Y-122952501D01*
X44385366Y-123428691D01*
X44432985Y-123381072D01*
X44528223Y-123333453D01*
X44766319Y-123333453D01*
X44861557Y-123381072D01*
X44909176Y-123428691D01*
X44956795Y-123523930D01*
X44956795Y-123762025D01*
X44909176Y-123857263D01*
X44861557Y-123904882D01*
X44766319Y-123952501D01*
X44528223Y-123952501D01*
X44432985Y-123904882D01*
X44385366Y-123857263D01*
X146952261Y-54837746D02*
X146476070Y-55171080D01*
X146952261Y-55409175D02*
X145952261Y-55409175D01*
X145952261Y-55028222D01*
X145999880Y-54932984D01*
X146047499Y-54885365D01*
X146142737Y-54837746D01*
X146285594Y-54837746D01*
X146380832Y-54885365D01*
X146428451Y-54932984D01*
X146476070Y-55028222D01*
X146476070Y-55409175D01*
X145952261Y-53980603D02*
X145952261Y-54171080D01*
X145999880Y-54266318D01*
X146047499Y-54313937D01*
X146190356Y-54409175D01*
X146380832Y-54456794D01*
X146761785Y-54456794D01*
X146857023Y-54409175D01*
X146904642Y-54361556D01*
X146952261Y-54266318D01*
X146952261Y-54075841D01*
X146904642Y-53980603D01*
X146857023Y-53932984D01*
X146761785Y-53885365D01*
X146523690Y-53885365D01*
X146428451Y-53932984D01*
X146380832Y-53980603D01*
X146333213Y-54075841D01*
X146333213Y-54266318D01*
X146380832Y-54361556D01*
X146428451Y-54409175D01*
X146523690Y-54456794D01*
X146702261Y-74837746D02*
X146226070Y-75171080D01*
X146702261Y-75409175D02*
X145702261Y-75409175D01*
X145702261Y-75028222D01*
X145749880Y-74932984D01*
X145797499Y-74885365D01*
X145892737Y-74837746D01*
X146035594Y-74837746D01*
X146130832Y-74885365D01*
X146178451Y-74932984D01*
X146226070Y-75028222D01*
X146226070Y-75409175D01*
X145702261Y-74504413D02*
X145702261Y-73837746D01*
X146702261Y-74266318D01*
X146952261Y-95087746D02*
X146476070Y-95421080D01*
X146952261Y-95659175D02*
X145952261Y-95659175D01*
X145952261Y-95278222D01*
X145999880Y-95182984D01*
X146047499Y-95135365D01*
X146142737Y-95087746D01*
X146285594Y-95087746D01*
X146380832Y-95135365D01*
X146428451Y-95182984D01*
X146476070Y-95278222D01*
X146476070Y-95659175D01*
X146380832Y-94516318D02*
X146333213Y-94611556D01*
X146285594Y-94659175D01*
X146190356Y-94706794D01*
X146142737Y-94706794D01*
X146047499Y-94659175D01*
X145999880Y-94611556D01*
X145952261Y-94516318D01*
X145952261Y-94325841D01*
X145999880Y-94230603D01*
X146047499Y-94182984D01*
X146142737Y-94135365D01*
X146190356Y-94135365D01*
X146285594Y-94182984D01*
X146333213Y-94230603D01*
X146380832Y-94325841D01*
X146380832Y-94516318D01*
X146428451Y-94611556D01*
X146476070Y-94659175D01*
X146571309Y-94706794D01*
X146761785Y-94706794D01*
X146857023Y-94659175D01*
X146904642Y-94611556D01*
X146952261Y-94516318D01*
X146952261Y-94325841D01*
X146904642Y-94230603D01*
X146857023Y-94182984D01*
X146761785Y-94135365D01*
X146571309Y-94135365D01*
X146476070Y-94182984D01*
X146428451Y-94230603D01*
X146380832Y-94325841D01*
X146162254Y-108952261D02*
X145828920Y-108476070D01*
X145590825Y-108952261D02*
X145590825Y-107952261D01*
X145971778Y-107952261D01*
X146067016Y-107999880D01*
X146114635Y-108047499D01*
X146162254Y-108142737D01*
X146162254Y-108285594D01*
X146114635Y-108380832D01*
X146067016Y-108428451D01*
X145971778Y-108476070D01*
X145590825Y-108476070D01*
X146638444Y-108952261D02*
X146828920Y-108952261D01*
X146924159Y-108904642D01*
X146971778Y-108857023D01*
X147067016Y-108714166D01*
X147114635Y-108523690D01*
X147114635Y-108142737D01*
X147067016Y-108047499D01*
X147019397Y-107999880D01*
X146924159Y-107952261D01*
X146733682Y-107952261D01*
X146638444Y-107999880D01*
X146590825Y-108047499D01*
X146543206Y-108142737D01*
X146543206Y-108380832D01*
X146590825Y-108476070D01*
X146638444Y-108523690D01*
X146733682Y-108571309D01*
X146924159Y-108571309D01*
X147019397Y-108523690D01*
X147067016Y-108476070D01*
X147114635Y-108380832D01*
X208436063Y-108952261D02*
X208102729Y-108476070D01*
X207864634Y-108952261D02*
X207864634Y-107952261D01*
X208245587Y-107952261D01*
X208340825Y-107999880D01*
X208388444Y-108047499D01*
X208436063Y-108142737D01*
X208436063Y-108285594D01*
X208388444Y-108380832D01*
X208340825Y-108428451D01*
X208245587Y-108476070D01*
X207864634Y-108476070D01*
X209388444Y-108952261D02*
X208817015Y-108952261D01*
X209102729Y-108952261D02*
X209102729Y-107952261D01*
X209007491Y-108095118D01*
X208912253Y-108190356D01*
X208817015Y-108237975D01*
X210007491Y-107952261D02*
X210102730Y-107952261D01*
X210197968Y-107999880D01*
X210245587Y-108047499D01*
X210293206Y-108142737D01*
X210340825Y-108333213D01*
X210340825Y-108571309D01*
X210293206Y-108761785D01*
X210245587Y-108857023D01*
X210197968Y-108904642D01*
X210102730Y-108952261D01*
X210007491Y-108952261D01*
X209912253Y-108904642D01*
X209864634Y-108857023D01*
X209817015Y-108761785D01*
X209769396Y-108571309D01*
X209769396Y-108333213D01*
X209817015Y-108142737D01*
X209864634Y-108047499D01*
X209912253Y-107999880D01*
X210007491Y-107952261D01*
X261936063Y-108702261D02*
X261602729Y-108226070D01*
X261364634Y-108702261D02*
X261364634Y-107702261D01*
X261745587Y-107702261D01*
X261840825Y-107749880D01*
X261888444Y-107797499D01*
X261936063Y-107892737D01*
X261936063Y-108035594D01*
X261888444Y-108130832D01*
X261840825Y-108178451D01*
X261745587Y-108226070D01*
X261364634Y-108226070D01*
X262888444Y-108702261D02*
X262317015Y-108702261D01*
X262602729Y-108702261D02*
X262602729Y-107702261D01*
X262507491Y-107845118D01*
X262412253Y-107940356D01*
X262317015Y-107987975D01*
X263840825Y-108702261D02*
X263269396Y-108702261D01*
X263555110Y-108702261D02*
X263555110Y-107702261D01*
X263459872Y-107845118D01*
X263364634Y-107940356D01*
X263269396Y-107987975D01*
X67602381Y-103238095D02*
X66602381Y-103238095D01*
X66602381Y-102857142D01*
X66650000Y-102761904D01*
X66697619Y-102714285D01*
X66792857Y-102666666D01*
X66935714Y-102666666D01*
X67030952Y-102714285D01*
X67078571Y-102761904D01*
X67126190Y-102857142D01*
X67126190Y-103238095D01*
X67602381Y-101714285D02*
X67602381Y-102285714D01*
X67602381Y-102000000D02*
X66602381Y-102000000D01*
X66745238Y-102095238D01*
X66840476Y-102190476D01*
X66888095Y-102285714D01*
X193011905Y-79552381D02*
X193011905Y-78552381D01*
X193392858Y-78552381D01*
X193488096Y-78600000D01*
X193535715Y-78647619D01*
X193583334Y-78742857D01*
X193583334Y-78885714D01*
X193535715Y-78980952D01*
X193488096Y-79028571D01*
X193392858Y-79076190D01*
X193011905Y-79076190D01*
X193964286Y-78647619D02*
X194011905Y-78600000D01*
X194107143Y-78552381D01*
X194345239Y-78552381D01*
X194440477Y-78600000D01*
X194488096Y-78647619D01*
X194535715Y-78742857D01*
X194535715Y-78838095D01*
X194488096Y-78980952D01*
X193916667Y-79552381D01*
X194535715Y-79552381D01*
X246261905Y-94552381D02*
X246261905Y-93552381D01*
X246642858Y-93552381D01*
X246738096Y-93600000D01*
X246785715Y-93647619D01*
X246833334Y-93742857D01*
X246833334Y-93885714D01*
X246785715Y-93980952D01*
X246738096Y-94028571D01*
X246642858Y-94076190D01*
X246261905Y-94076190D01*
X247166667Y-93552381D02*
X247785715Y-93552381D01*
X247452381Y-93933333D01*
X247595239Y-93933333D01*
X247690477Y-93980952D01*
X247738096Y-94028571D01*
X247785715Y-94123810D01*
X247785715Y-94361905D01*
X247738096Y-94457143D01*
X247690477Y-94504762D01*
X247595239Y-94552381D01*
X247309524Y-94552381D01*
X247214286Y-94504762D01*
X247166667Y-94457143D01*
X66011905Y-79552381D02*
X66011905Y-78552381D01*
X66392858Y-78552381D01*
X66488096Y-78600000D01*
X66535715Y-78647619D01*
X66583334Y-78742857D01*
X66583334Y-78885714D01*
X66535715Y-78980952D01*
X66488096Y-79028571D01*
X66392858Y-79076190D01*
X66011905Y-79076190D01*
X67440477Y-78885714D02*
X67440477Y-79552381D01*
X67202381Y-78504762D02*
X66964286Y-79219048D01*
X67583334Y-79219048D01*
M02*
