G04 #@! TF.FileFunction,Copper,L1,Top,Signal*
%FSLAX46Y46*%
G04 Gerber Fmt 4.6, Leading zero omitted, Abs format (unit mm)*
G04 Created by KiCad (PCBNEW no-vcs-found-product) date So 28 Aug 2016 22:52:49 CEST*
%MOMM*%
G01*
G04 APERTURE LIST*
%ADD10C,0.100000*%
%ADD11C,1.998980*%
%ADD12R,1.900000X2.000000*%
%ADD13C,1.900000*%
%ADD14R,1.727200X1.727200*%
%ADD15O,1.727200X1.727200*%
%ADD16O,2.499360X4.000500*%
%ADD17C,1.501140*%
%ADD18C,2.999740*%
%ADD19C,2.300000*%
%ADD20C,2.390000*%
%ADD21C,3.000000*%
%ADD22R,2.032000X1.727200*%
%ADD23O,2.032000X1.727200*%
%ADD24C,1.727200*%
%ADD25C,1.727000*%
%ADD26R,2.200000X3.500000*%
%ADD27C,1.524000*%
%ADD28C,0.600000*%
%ADD29C,0.250000*%
%ADD30C,0.750000*%
%ADD31C,0.500000*%
%ADD32C,0.254000*%
G04 APERTURE END LIST*
D10*
D11*
X144780000Y-55880000D03*
X154940000Y-55880000D03*
D12*
X217000000Y-55000000D03*
D13*
X214460000Y-55000000D03*
D14*
X132080000Y-77470000D03*
D15*
X134620000Y-77470000D03*
X132080000Y-80010000D03*
X134620000Y-80010000D03*
X132080000Y-82550000D03*
X134620000Y-82550000D03*
X132080000Y-85090000D03*
X134620000Y-85090000D03*
X132080000Y-87630000D03*
X134620000Y-87630000D03*
X132080000Y-90170000D03*
X134620000Y-90170000D03*
X132080000Y-92710000D03*
X134620000Y-92710000D03*
X132080000Y-95250000D03*
X134620000Y-95250000D03*
X132080000Y-97790000D03*
X134620000Y-97790000D03*
X132080000Y-100330000D03*
X134620000Y-100330000D03*
X132080000Y-102870000D03*
X134620000Y-102870000D03*
X132080000Y-105410000D03*
X134620000Y-105410000D03*
X132080000Y-107950000D03*
X134620000Y-107950000D03*
D16*
X177800000Y-55450740D03*
X177800000Y-33449260D03*
X165100000Y-33449260D03*
X165100000Y-55450740D03*
D17*
X143255140Y-45722120D03*
X145795140Y-45722120D03*
X147827140Y-45722120D03*
X150367140Y-45722120D03*
D18*
X140207140Y-43055120D03*
X153923140Y-43055120D03*
D19*
X196850000Y-45720000D03*
X204350000Y-45720000D03*
X189350000Y-45720000D03*
X191850000Y-48210000D03*
X201850000Y-48210000D03*
X199350000Y-35710000D03*
X194350000Y-35710000D03*
D20*
X204350000Y-40720000D03*
X189350000Y-40720000D03*
D21*
X228600000Y-68200000D03*
X228600000Y-84200000D03*
D22*
X119380000Y-38100000D03*
D23*
X119380000Y-40640000D03*
X119380000Y-43180000D03*
X119380000Y-45720000D03*
X119380000Y-48260000D03*
X119380000Y-50800000D03*
D22*
X217170000Y-36830000D03*
D23*
X217170000Y-39370000D03*
X217170000Y-41910000D03*
X217170000Y-44450000D03*
D11*
X154940000Y-50800000D03*
X144780000Y-50800000D03*
X123952000Y-78994000D03*
X113792000Y-78994000D03*
X123952000Y-82296000D03*
X113792000Y-82296000D03*
X123952000Y-85598000D03*
X113792000Y-85598000D03*
X123952000Y-88900000D03*
X113792000Y-88900000D03*
X123952000Y-92202000D03*
X113792000Y-92202000D03*
X220920000Y-55000000D03*
X231080000Y-55000000D03*
X139446000Y-100076000D03*
X149606000Y-100076000D03*
D24*
X173990000Y-90170000D03*
D25*
X176530000Y-90170000D03*
X179070000Y-90170000D03*
D24*
X181610000Y-90170000D03*
D25*
X173990000Y-87630000D03*
X176530000Y-87630000D03*
X179070000Y-87630000D03*
X181610000Y-87630000D03*
X208980000Y-74230000D03*
D10*
G36*
X194340000Y-94170000D02*
X194340000Y-91970000D01*
X197840000Y-91970000D01*
X197840000Y-94170000D01*
X194340000Y-94170000D01*
X194340000Y-94170000D01*
G37*
G36*
X194340000Y-67170000D02*
X194340000Y-64970000D01*
X197840000Y-64970000D01*
X197840000Y-67170000D01*
X194340000Y-67170000D01*
X194340000Y-67170000D01*
G37*
D26*
X170090000Y-79570000D03*
X222090000Y-79570000D03*
D14*
X205232000Y-114173000D03*
D15*
X205232000Y-116713000D03*
X202692000Y-114173000D03*
X202692000Y-116713000D03*
X200152000Y-114173000D03*
X200152000Y-116713000D03*
X197612000Y-114173000D03*
X197612000Y-116713000D03*
X195072000Y-114173000D03*
X195072000Y-116713000D03*
X192532000Y-114173000D03*
X192532000Y-116713000D03*
X189992000Y-114173000D03*
X189992000Y-116713000D03*
X187452000Y-114173000D03*
X187452000Y-116713000D03*
X184912000Y-114173000D03*
X184912000Y-116713000D03*
X182372000Y-114173000D03*
X182372000Y-116713000D03*
X179832000Y-114173000D03*
X179832000Y-116713000D03*
X177292000Y-114173000D03*
X177292000Y-116713000D03*
X174752000Y-114173000D03*
X174752000Y-116713000D03*
D27*
X188722000Y-106680000D03*
X188722000Y-109220000D03*
X188722000Y-104140000D03*
X199390000Y-106680000D03*
X199390000Y-109220000D03*
X199390000Y-104140000D03*
X204724000Y-106680000D03*
X204724000Y-109220000D03*
X204724000Y-104140000D03*
X194056000Y-106680000D03*
X194056000Y-109220000D03*
X194056000Y-104140000D03*
X209804000Y-106934000D03*
X209804000Y-109474000D03*
X209804000Y-104394000D03*
X149860000Y-116840000D03*
X149860000Y-119380000D03*
X149860000Y-114300000D03*
X156464000Y-76200000D03*
X159004000Y-76200000D03*
X153924000Y-76200000D03*
X145034000Y-116840000D03*
X145034000Y-119380000D03*
X145034000Y-114300000D03*
X156464000Y-87884000D03*
X159004000Y-87884000D03*
X153924000Y-87884000D03*
X156464000Y-82296000D03*
X159004000Y-82296000D03*
X153924000Y-82296000D03*
X156464000Y-70358000D03*
X159004000Y-70358000D03*
X153924000Y-70358000D03*
X156464000Y-99060000D03*
X159004000Y-99060000D03*
X153924000Y-99060000D03*
X156464000Y-93472000D03*
X159004000Y-93472000D03*
X153924000Y-93472000D03*
D14*
X112776000Y-40640000D03*
D15*
X110236000Y-40640000D03*
X112776000Y-38100000D03*
X110236000Y-38100000D03*
D14*
X102616000Y-77470000D03*
D15*
X105156000Y-77470000D03*
X102616000Y-80010000D03*
X105156000Y-80010000D03*
X102616000Y-82550000D03*
X105156000Y-82550000D03*
X102616000Y-85090000D03*
X105156000Y-85090000D03*
X102616000Y-87630000D03*
X105156000Y-87630000D03*
X102616000Y-90170000D03*
X105156000Y-90170000D03*
X102616000Y-92710000D03*
X105156000Y-92710000D03*
X102616000Y-95250000D03*
X105156000Y-95250000D03*
X102616000Y-97790000D03*
X105156000Y-97790000D03*
X102616000Y-100330000D03*
X105156000Y-100330000D03*
X102616000Y-102870000D03*
X105156000Y-102870000D03*
X102616000Y-105410000D03*
X105156000Y-105410000D03*
X102616000Y-107950000D03*
X105156000Y-107950000D03*
D11*
X174498000Y-106680000D03*
X184658000Y-106680000D03*
X188722000Y-100584000D03*
X198882000Y-100584000D03*
X196850000Y-97028000D03*
X207010000Y-97028000D03*
X183642000Y-97028000D03*
X193802000Y-97028000D03*
X201930000Y-100584000D03*
X212090000Y-100584000D03*
X123952000Y-95504000D03*
X113792000Y-95504000D03*
X139446000Y-80264000D03*
X149606000Y-80264000D03*
X123952000Y-98806000D03*
X113792000Y-98806000D03*
X139446000Y-86868000D03*
X149606000Y-86868000D03*
X139446000Y-83566000D03*
X149606000Y-83566000D03*
X139446000Y-76962000D03*
X149606000Y-76962000D03*
X139446000Y-93472000D03*
X149606000Y-93472000D03*
X139446000Y-90170000D03*
X149606000Y-90170000D03*
D28*
X176530000Y-60960000D03*
X189738000Y-60960000D03*
X130048000Y-60960000D03*
X128270000Y-75184000D03*
X139446000Y-74168000D03*
X177292000Y-103886000D03*
X156464000Y-106426000D03*
X127762000Y-80010000D03*
X128778000Y-82550000D03*
X156464000Y-105410000D03*
X180848000Y-101346000D03*
X179832000Y-95504000D03*
X159766000Y-102616000D03*
X131064000Y-61976000D03*
X122428000Y-59944000D03*
X122428000Y-66548000D03*
X156718000Y-113792000D03*
X113538000Y-109982000D03*
X168148000Y-107696000D03*
X156464000Y-107442000D03*
X156718000Y-115316000D03*
X167386000Y-108712000D03*
X156464000Y-108712000D03*
X160528000Y-121412000D03*
X166370000Y-76200000D03*
X161544000Y-93472000D03*
X165354000Y-70358000D03*
X162560000Y-87884000D03*
X127000000Y-121158000D03*
X125476000Y-120142000D03*
D29*
X189738000Y-60960000D02*
X208500000Y-60960000D01*
X175006000Y-60960000D02*
X176530000Y-60960000D01*
X208500000Y-60960000D02*
X214460000Y-55000000D01*
X140970000Y-60960000D02*
X130048000Y-60960000D01*
X173990000Y-85852000D02*
X175006000Y-84836000D01*
X173990000Y-86106000D02*
X173990000Y-87630000D01*
X140970000Y-60960000D02*
X173990000Y-60960000D01*
X175006000Y-60960000D02*
X173990000Y-60960000D01*
X175006000Y-84836000D02*
X175006000Y-60960000D01*
X173990000Y-86106000D02*
X173990000Y-85852000D01*
X130048000Y-60960000D02*
X130048000Y-60960000D01*
X136144000Y-77470000D02*
X134620000Y-77470000D01*
X139446000Y-74168000D02*
X136144000Y-77470000D01*
X134112000Y-76962000D02*
X134112000Y-75184000D01*
X134112000Y-75184000D02*
X128270000Y-75184000D01*
X128270000Y-75184000D02*
X117602000Y-75184000D01*
X117602000Y-75184000D02*
X113792000Y-78994000D01*
X134112000Y-76962000D02*
X134620000Y-77470000D01*
X113792000Y-88900000D02*
X113792000Y-92202000D01*
X113792000Y-85598000D02*
X113792000Y-88900000D01*
X113792000Y-82296000D02*
X113792000Y-85598000D01*
X113792000Y-78994000D02*
X113792000Y-82296000D01*
X171958000Y-104902000D02*
X171958000Y-106426000D01*
X172720000Y-104140000D02*
X171958000Y-104902000D01*
X177038000Y-104140000D02*
X172720000Y-104140000D01*
X177292000Y-103886000D02*
X177038000Y-104140000D01*
X171958000Y-106426000D02*
X169164000Y-106426000D01*
X156464000Y-106426000D02*
X169164000Y-106426000D01*
X169164000Y-106426000D02*
X169418000Y-106426000D01*
X132080000Y-80010000D02*
X127762000Y-80010000D01*
X127762000Y-80010000D02*
X124968000Y-80010000D01*
X124968000Y-80010000D02*
X123952000Y-78994000D01*
X134620000Y-80010000D02*
X136398000Y-80010000D01*
X136398000Y-80010000D02*
X139446000Y-76962000D01*
X171196000Y-105410000D02*
X171196000Y-101346000D01*
X171196000Y-105410000D02*
X156464000Y-105410000D01*
X171196000Y-101346000D02*
X180848000Y-101346000D01*
X132080000Y-82550000D02*
X128778000Y-82550000D01*
X128778000Y-82550000D02*
X124206000Y-82550000D01*
X124206000Y-82550000D02*
X123952000Y-82296000D01*
X134620000Y-82550000D02*
X137160000Y-82550000D01*
X137160000Y-82550000D02*
X139446000Y-80264000D01*
X134620000Y-82550000D02*
X135382000Y-82550000D01*
X128016000Y-114300000D02*
X119380000Y-114300000D01*
X162560000Y-120396000D02*
X162560000Y-119380000D01*
X162560000Y-119380000D02*
X153416000Y-119380000D01*
X153416000Y-119380000D02*
X153416000Y-108204000D01*
X153416000Y-108204000D02*
X138938000Y-108204000D01*
X138938000Y-108204000D02*
X138938000Y-114300000D01*
X138938000Y-114300000D02*
X128016000Y-114300000D01*
X187452000Y-116713000D02*
X187452000Y-120396000D01*
X187452000Y-120396000D02*
X164846000Y-120396000D01*
X164846000Y-120396000D02*
X162560000Y-120396000D01*
X119380000Y-89916000D02*
X123698000Y-85598000D01*
X119380000Y-114300000D02*
X119380000Y-89916000D01*
X123698000Y-85598000D02*
X123952000Y-85598000D01*
X132080000Y-85090000D02*
X124460000Y-85090000D01*
X124460000Y-85090000D02*
X123952000Y-85598000D01*
X134620000Y-85090000D02*
X137922000Y-85090000D01*
X137922000Y-85090000D02*
X139446000Y-83566000D01*
X127000000Y-113284000D02*
X120650000Y-113284000D01*
X154432000Y-118364000D02*
X154432000Y-107442000D01*
X154432000Y-107442000D02*
X138176000Y-107442000D01*
X138176000Y-107442000D02*
X138176000Y-113284000D01*
X138176000Y-113284000D02*
X129032000Y-113284000D01*
X129032000Y-113284000D02*
X127000000Y-113284000D01*
X164846000Y-119380000D02*
X163322000Y-119380000D01*
X182372000Y-119380000D02*
X164846000Y-119380000D01*
X182372000Y-116713000D02*
X182372000Y-119380000D01*
X163322000Y-118364000D02*
X158242000Y-118364000D01*
X163322000Y-119380000D02*
X163322000Y-118364000D01*
X158242000Y-118364000D02*
X154432000Y-118364000D01*
X120650000Y-92710000D02*
X123952000Y-89408000D01*
X120650000Y-94488000D02*
X120650000Y-92710000D01*
X120650000Y-113284000D02*
X120650000Y-94488000D01*
X123952000Y-89408000D02*
X123952000Y-88900000D01*
X132080000Y-87630000D02*
X125222000Y-87630000D01*
X125222000Y-87630000D02*
X123952000Y-88900000D01*
X134620000Y-87630000D02*
X138684000Y-87630000D01*
X138684000Y-87630000D02*
X139446000Y-86868000D01*
X121920000Y-112268000D02*
X121920000Y-94234000D01*
X177292000Y-118364000D02*
X164338000Y-118364000D01*
X164338000Y-118364000D02*
X164338000Y-117348000D01*
X164338000Y-117348000D02*
X155448000Y-117348000D01*
X155448000Y-117348000D02*
X155448000Y-106680000D01*
X155448000Y-106680000D02*
X137414000Y-106680000D01*
X137414000Y-106680000D02*
X137160000Y-106934000D01*
X137160000Y-106934000D02*
X137160000Y-112268000D01*
X137160000Y-112268000D02*
X121920000Y-112268000D01*
X177292000Y-116713000D02*
X177292000Y-118364000D01*
X121920000Y-94234000D02*
X123952000Y-92202000D01*
X132080000Y-90170000D02*
X125984000Y-90170000D01*
X125984000Y-90170000D02*
X123952000Y-92202000D01*
X134620000Y-90170000D02*
X139446000Y-90170000D01*
X123952000Y-95504000D02*
X129286000Y-95504000D01*
X129286000Y-95504000D02*
X132080000Y-92710000D01*
X139446000Y-93472000D02*
X135382000Y-93472000D01*
X135382000Y-93472000D02*
X134620000Y-92710000D01*
X123952000Y-98806000D02*
X125730000Y-97028000D01*
X130302000Y-97028000D02*
X132080000Y-95250000D01*
X125730000Y-97028000D02*
X130302000Y-97028000D01*
X179070000Y-96266000D02*
X179832000Y-95504000D01*
X173736000Y-96266000D02*
X175260000Y-96266000D01*
X137160000Y-95250000D02*
X138176000Y-96266000D01*
X138176000Y-96266000D02*
X173736000Y-96266000D01*
X137160000Y-95250000D02*
X134620000Y-95250000D01*
X175260000Y-96266000D02*
X179070000Y-96266000D01*
X159766000Y-102616000D02*
X141732000Y-102616000D01*
X139446000Y-100330000D02*
X141732000Y-102616000D01*
X139446000Y-100076000D02*
X139446000Y-99822000D01*
X139446000Y-99822000D02*
X137414000Y-97790000D01*
X137414000Y-97790000D02*
X134620000Y-97790000D01*
X139446000Y-100330000D02*
X139446000Y-100076000D01*
X231080000Y-55000000D02*
X231080000Y-53080000D01*
X231080000Y-53080000D02*
X231000000Y-53000000D01*
X222090000Y-79570000D02*
X222090000Y-81910000D01*
X222090000Y-81910000D02*
X222000000Y-82000000D01*
D30*
X165100000Y-55450740D02*
X165100000Y-52070000D01*
X211074000Y-44450000D02*
X217170000Y-44450000D01*
X203708000Y-51816000D02*
X211074000Y-44450000D01*
X165354000Y-51816000D02*
X203708000Y-51816000D01*
X165100000Y-52070000D02*
X165354000Y-51816000D01*
X217170000Y-44450000D02*
X219710000Y-44450000D01*
X219710000Y-39370000D02*
X217170000Y-39370000D01*
X219710000Y-44450000D02*
X219710000Y-39370000D01*
D29*
X137160000Y-61976000D02*
X131064000Y-61976000D01*
X176530000Y-90932000D02*
X175514000Y-91948000D01*
X137160000Y-61976000D02*
X173736000Y-61976000D01*
X173736000Y-84328000D02*
X173736000Y-61976000D01*
X172212000Y-91948000D02*
X172212000Y-85852000D01*
X175514000Y-91948000D02*
X172212000Y-91948000D01*
X172212000Y-85852000D02*
X173736000Y-84328000D01*
X176530000Y-90170000D02*
X176530000Y-90932000D01*
X102870000Y-87630000D02*
X100330000Y-87630000D01*
X100330000Y-87630000D02*
X99568000Y-86868000D01*
X99568000Y-86868000D02*
X99568000Y-62992000D01*
X99568000Y-62992000D02*
X119380000Y-43180000D01*
X105410000Y-87630000D02*
X108458000Y-87630000D01*
X108458000Y-87630000D02*
X108712000Y-87376000D01*
X108712000Y-87376000D02*
X108712000Y-56388000D01*
X108712000Y-56388000D02*
X119380000Y-45720000D01*
X176530000Y-87630000D02*
X176530000Y-86868000D01*
X176530000Y-86868000D02*
X177800000Y-85598000D01*
X177800000Y-85598000D02*
X177800000Y-59944000D01*
X177800000Y-59944000D02*
X176530000Y-59944000D01*
X122428000Y-59944000D02*
X122428000Y-59944000D01*
X152400000Y-59944000D02*
X122428000Y-59944000D01*
X176530000Y-59944000D02*
X152400000Y-59944000D01*
X176530000Y-87630000D02*
X176530000Y-86868000D01*
X176530000Y-92964000D02*
X179070000Y-90424000D01*
X176530000Y-92964000D02*
X171196000Y-92964000D01*
X171196000Y-92964000D02*
X171196000Y-84836000D01*
X171196000Y-84836000D02*
X172720000Y-83312000D01*
X172720000Y-83312000D02*
X172720000Y-66548000D01*
X122428000Y-66548000D02*
X172720000Y-66548000D01*
X179070000Y-90170000D02*
X179070000Y-90424000D01*
X156718000Y-110236000D02*
X168910000Y-110236000D01*
X156718000Y-110236000D02*
X156718000Y-113792000D01*
X113538000Y-109982000D02*
X113284000Y-110236000D01*
X113284000Y-110236000D02*
X100330000Y-110236000D01*
X100330000Y-110236000D02*
X100330000Y-99568000D01*
X102108000Y-97790000D02*
X100330000Y-99568000D01*
X173990000Y-107696000D02*
X174498000Y-107188000D01*
X169672000Y-107696000D02*
X173990000Y-107696000D01*
X169672000Y-109474000D02*
X169672000Y-107696000D01*
X168910000Y-110236000D02*
X169672000Y-109474000D01*
X174498000Y-107188000D02*
X174498000Y-106680000D01*
X102108000Y-97790000D02*
X102616000Y-97790000D01*
X156718000Y-107696000D02*
X168148000Y-107696000D01*
X156464000Y-107442000D02*
X156718000Y-107696000D01*
X175768000Y-108966000D02*
X175768000Y-108204000D01*
X168656000Y-111252000D02*
X168910000Y-110998000D01*
X168910000Y-110998000D02*
X169672000Y-110998000D01*
X169672000Y-110998000D02*
X170688000Y-109982000D01*
X170688000Y-109982000D02*
X170688000Y-108966000D01*
X170688000Y-108966000D02*
X175768000Y-108966000D01*
X168656000Y-115316000D02*
X156718000Y-115316000D01*
X168656000Y-115316000D02*
X168656000Y-111252000D01*
X175768000Y-108204000D02*
X183388000Y-100584000D01*
X183388000Y-100584000D02*
X183642000Y-100584000D01*
X188722000Y-100584000D02*
X183642000Y-100584000D01*
X183642000Y-100584000D02*
X183388000Y-100584000D01*
X167386000Y-108712000D02*
X156464000Y-108712000D01*
X179070000Y-87630000D02*
X179070000Y-60960000D01*
X157988000Y-59182000D02*
X154940000Y-56134000D01*
X179070000Y-59182000D02*
X157988000Y-59182000D01*
X179070000Y-60960000D02*
X179070000Y-59182000D01*
X154940000Y-56134000D02*
X154940000Y-55880000D01*
X154940000Y-50800000D02*
X154940000Y-55880000D01*
X209804000Y-109474000D02*
X207518000Y-109474000D01*
X205105000Y-111760000D02*
X202692000Y-114173000D01*
X205232000Y-111760000D02*
X205105000Y-111760000D01*
X207518000Y-109474000D02*
X205232000Y-111760000D01*
X202692000Y-121412000D02*
X202692000Y-122428000D01*
X202692000Y-122428000D02*
X201676000Y-123444000D01*
X201676000Y-123444000D02*
X151638000Y-123444000D01*
X145034000Y-119380000D02*
X151638000Y-123444000D01*
X202692000Y-121412000D02*
X202692000Y-116713000D01*
X204724000Y-109220000D02*
X204724000Y-109601000D01*
X204724000Y-109601000D02*
X200152000Y-114173000D01*
X199390000Y-109220000D02*
X199390000Y-112395000D01*
X199390000Y-112395000D02*
X197612000Y-114173000D01*
X197612000Y-121412000D02*
X197612000Y-122428000D01*
X197612000Y-122428000D02*
X155702000Y-122428000D01*
X149860000Y-119634000D02*
X155702000Y-122428000D01*
X197612000Y-121412000D02*
X197612000Y-116713000D01*
X149860000Y-119634000D02*
X149860000Y-119380000D01*
X194056000Y-109220000D02*
X194056000Y-113157000D01*
X194056000Y-113157000D02*
X195072000Y-114173000D01*
X188722000Y-109220000D02*
X190246000Y-109220000D01*
X192532000Y-111506000D02*
X192532000Y-114173000D01*
X190246000Y-109220000D02*
X192532000Y-111506000D01*
X189992000Y-116713000D02*
X189992000Y-121412000D01*
X189992000Y-121412000D02*
X168402000Y-121412000D01*
X168402000Y-121412000D02*
X160528000Y-121412000D01*
X166370000Y-76200000D02*
X159004000Y-76200000D01*
X185166000Y-113919000D02*
X184912000Y-114173000D01*
X161544000Y-93472000D02*
X159004000Y-93472000D01*
X159004000Y-70358000D02*
X165354000Y-70358000D01*
X180086000Y-113919000D02*
X179832000Y-114173000D01*
X162560000Y-87884000D02*
X159004000Y-87884000D01*
D31*
X177800000Y-55450740D02*
X180926740Y-55450740D01*
X180926740Y-55450740D02*
X181610000Y-56134000D01*
X181610000Y-56134000D02*
X181610000Y-87630000D01*
D29*
X188722000Y-106680000D02*
X184658000Y-106680000D01*
X199390000Y-106680000D02*
X198120000Y-106680000D01*
X197612000Y-101854000D02*
X198882000Y-100584000D01*
X197612000Y-106172000D02*
X197612000Y-101854000D01*
X198120000Y-106680000D02*
X197612000Y-106172000D01*
X204724000Y-106680000D02*
X206756000Y-106680000D01*
X207010000Y-106426000D02*
X207010000Y-97028000D01*
X206756000Y-106680000D02*
X207010000Y-106426000D01*
X194056000Y-106680000D02*
X194564000Y-106680000D01*
X194564000Y-106680000D02*
X196088000Y-105156000D01*
X196088000Y-105156000D02*
X196088000Y-99314000D01*
X196088000Y-99314000D02*
X193802000Y-97028000D01*
X209804000Y-106934000D02*
X211328000Y-106934000D01*
X212090000Y-106172000D02*
X212090000Y-100584000D01*
X211328000Y-106934000D02*
X212090000Y-106172000D01*
X111252000Y-95504000D02*
X111252000Y-101346000D01*
X111252000Y-101346000D02*
X114808000Y-101346000D01*
X114808000Y-101346000D02*
X116840000Y-103378000D01*
X116840000Y-103378000D02*
X116840000Y-120904000D01*
X116840000Y-120904000D02*
X117094000Y-121158000D01*
X111252000Y-95504000D02*
X113792000Y-95504000D01*
X127000000Y-121158000D02*
X117094000Y-121158000D01*
X118872000Y-116840000D02*
X122174000Y-120142000D01*
X118364000Y-116332000D02*
X118872000Y-116840000D01*
X118364000Y-103124000D02*
X118364000Y-116332000D01*
X114046000Y-98806000D02*
X118364000Y-103124000D01*
X122174000Y-120142000D02*
X125476000Y-120142000D01*
X113792000Y-98806000D02*
X114046000Y-98806000D01*
D32*
G36*
X234036000Y-54855309D02*
X232719148Y-55095546D01*
X232701341Y-54614623D01*
X232498965Y-54126042D01*
X232232163Y-54027443D01*
X231259605Y-55000000D01*
X231273748Y-55014143D01*
X231094143Y-55193748D01*
X231080000Y-55179605D01*
X231065858Y-55193748D01*
X230886253Y-55014143D01*
X230900395Y-55000000D01*
X229927837Y-54027443D01*
X229661035Y-54126042D01*
X229434599Y-54735582D01*
X229458659Y-55385377D01*
X229576113Y-55668937D01*
X212022777Y-58871235D01*
X214066265Y-56827747D01*
X214092595Y-56838680D01*
X214824195Y-56839318D01*
X215384653Y-56607742D01*
X215400274Y-56632017D01*
X215697353Y-56835003D01*
X216050000Y-56906416D01*
X217950000Y-56906416D01*
X218279444Y-56844427D01*
X218582017Y-56649726D01*
X218785003Y-56352647D01*
X218856416Y-56000000D01*
X218856416Y-55373996D01*
X219031183Y-55373996D01*
X219318082Y-56068346D01*
X219848859Y-56600051D01*
X220542708Y-56888162D01*
X221293996Y-56888817D01*
X221988346Y-56601918D01*
X222520051Y-56071141D01*
X222808162Y-55377292D01*
X222808817Y-54626004D01*
X222521918Y-53931654D01*
X222438248Y-53847837D01*
X230107443Y-53847837D01*
X231080000Y-54820395D01*
X232052557Y-53847837D01*
X231953958Y-53581035D01*
X231344418Y-53354599D01*
X230694623Y-53378659D01*
X230206042Y-53581035D01*
X230107443Y-53847837D01*
X222438248Y-53847837D01*
X221991141Y-53399949D01*
X221297292Y-53111838D01*
X220546004Y-53111183D01*
X219851654Y-53398082D01*
X219319949Y-53928859D01*
X219031838Y-54622708D01*
X219031183Y-55373996D01*
X218856416Y-55373996D01*
X218856416Y-54000000D01*
X218794427Y-53670556D01*
X218599726Y-53367983D01*
X218302647Y-53164997D01*
X217950000Y-53093584D01*
X216050000Y-53093584D01*
X215720556Y-53155573D01*
X215417983Y-53350274D01*
X215388030Y-53394112D01*
X214827405Y-53161320D01*
X214095805Y-53160682D01*
X213419651Y-53440063D01*
X212901881Y-53956930D01*
X212621320Y-54632595D01*
X212620682Y-55364195D01*
X212632702Y-55393286D01*
X208514781Y-59511207D01*
X206131473Y-59946000D01*
X190396492Y-59946000D01*
X189975544Y-59771207D01*
X189502531Y-59770794D01*
X189065365Y-59951427D01*
X188730603Y-60285606D01*
X188549207Y-60722456D01*
X188548794Y-61195469D01*
X188729427Y-61632635D01*
X189063606Y-61967397D01*
X189500456Y-62148793D01*
X189973469Y-62149206D01*
X190397501Y-61974000D01*
X196977000Y-61974000D01*
X196977000Y-64322560D01*
X196217000Y-64322560D01*
X196217000Y-65943000D01*
X196237000Y-65943000D01*
X196237000Y-66197000D01*
X196217000Y-66197000D01*
X196217000Y-67817440D01*
X196977000Y-67817440D01*
X196977000Y-80772000D01*
X196987006Y-80821410D01*
X197015447Y-80863035D01*
X197062278Y-80891951D01*
X208746278Y-84955951D01*
X208796233Y-84962733D01*
X208838028Y-84952731D01*
X211489964Y-83816187D01*
X226457277Y-83816187D01*
X226473503Y-84665387D01*
X226767261Y-85374582D01*
X227086030Y-85534365D01*
X228420395Y-84200000D01*
X228779605Y-84200000D01*
X230113970Y-85534365D01*
X230432739Y-85374582D01*
X230742723Y-84583813D01*
X230726497Y-83734613D01*
X230432739Y-83025418D01*
X230113970Y-82865635D01*
X228779605Y-84200000D01*
X228420395Y-84200000D01*
X227086030Y-82865635D01*
X226767261Y-83025418D01*
X226457277Y-83816187D01*
X211489964Y-83816187D01*
X214126997Y-82686030D01*
X227265635Y-82686030D01*
X228600000Y-84020395D01*
X229934365Y-82686030D01*
X229774582Y-82367261D01*
X228983813Y-82057277D01*
X228134613Y-82073503D01*
X227425418Y-82367261D01*
X227265635Y-82686030D01*
X214126997Y-82686030D01*
X219482067Y-80391000D01*
X220355000Y-80391000D01*
X220355000Y-81446310D01*
X220451673Y-81679699D01*
X220630302Y-81858327D01*
X220863691Y-81955000D01*
X221804250Y-81955000D01*
X221963000Y-81796250D01*
X221963000Y-80391000D01*
X222217000Y-80391000D01*
X222217000Y-81796250D01*
X222375750Y-81955000D01*
X223316309Y-81955000D01*
X223549698Y-81858327D01*
X223728327Y-81679699D01*
X223825000Y-81446310D01*
X223825000Y-80391000D01*
X231521000Y-80391000D01*
X231521000Y-86741000D01*
X222504000Y-86741000D01*
X222454590Y-86751006D01*
X222412965Y-86779447D01*
X222385685Y-86821841D01*
X222377000Y-86868000D01*
X222377000Y-124036000D01*
X202518012Y-124036000D01*
X203409006Y-123145006D01*
X203628814Y-122816041D01*
X203706000Y-122428000D01*
X203706000Y-118137134D01*
X203931275Y-117986610D01*
X203962000Y-117940627D01*
X203992725Y-117986610D01*
X204561309Y-118366526D01*
X205232000Y-118499935D01*
X205902691Y-118366526D01*
X206471275Y-117986610D01*
X206851191Y-117418026D01*
X206984600Y-116747335D01*
X206984600Y-116678665D01*
X206851191Y-116007974D01*
X206519164Y-115511061D01*
X206633927Y-115396298D01*
X206730600Y-115162909D01*
X206730600Y-114458750D01*
X206571850Y-114300000D01*
X205359000Y-114300000D01*
X205359000Y-114320000D01*
X205105000Y-114320000D01*
X205105000Y-114300000D01*
X205085000Y-114300000D01*
X205085000Y-114046000D01*
X205105000Y-114046000D01*
X205105000Y-114026000D01*
X205359000Y-114026000D01*
X205359000Y-114046000D01*
X206571850Y-114046000D01*
X206730600Y-113887250D01*
X206730600Y-113183091D01*
X206633927Y-112949702D01*
X206455299Y-112771073D01*
X206221910Y-112674400D01*
X205653586Y-112674400D01*
X205949006Y-112477006D01*
X207938012Y-110488000D01*
X208483400Y-110488000D01*
X208867563Y-110872834D01*
X209474155Y-111124713D01*
X210130963Y-111125286D01*
X210737995Y-110874466D01*
X211202834Y-110410437D01*
X211454713Y-109803845D01*
X211455286Y-109147037D01*
X211204466Y-108540005D01*
X210868868Y-108203821D01*
X211125136Y-107948000D01*
X211328000Y-107948000D01*
X211716041Y-107870814D01*
X212045006Y-107651006D01*
X212807006Y-106889006D01*
X213026814Y-106560041D01*
X213104000Y-106172000D01*
X213104000Y-102208373D01*
X213158346Y-102185918D01*
X213690051Y-101655141D01*
X213978162Y-100961292D01*
X213978817Y-100210004D01*
X213691918Y-99515654D01*
X213161141Y-98983949D01*
X212467292Y-98695838D01*
X211716004Y-98695183D01*
X211021654Y-98982082D01*
X210489949Y-99512859D01*
X210201838Y-100206708D01*
X210201183Y-100957996D01*
X210488082Y-101652346D01*
X211018859Y-102184051D01*
X211076000Y-102207778D01*
X211076000Y-103782609D01*
X211026397Y-103662857D01*
X210784213Y-103593392D01*
X209983605Y-104394000D01*
X210784213Y-105194608D01*
X211026397Y-105125143D01*
X211076000Y-104986108D01*
X211076000Y-105751988D01*
X211016389Y-105811599D01*
X210740437Y-105535166D01*
X210577811Y-105467638D01*
X210604608Y-105374213D01*
X209804000Y-104573605D01*
X209003392Y-105374213D01*
X209030114Y-105467378D01*
X208870005Y-105533534D01*
X208405166Y-105997563D01*
X208153287Y-106604155D01*
X208152714Y-107260963D01*
X208403534Y-107867995D01*
X208739132Y-108204179D01*
X208482864Y-108460000D01*
X207518000Y-108460000D01*
X207129959Y-108537186D01*
X206800994Y-108756994D01*
X206375033Y-109182955D01*
X206375286Y-108893037D01*
X206124466Y-108286005D01*
X205788868Y-107949821D01*
X206045136Y-107694000D01*
X206756000Y-107694000D01*
X207144041Y-107616814D01*
X207473006Y-107397006D01*
X207727006Y-107143006D01*
X207946814Y-106814041D01*
X207949615Y-106799959D01*
X208024000Y-106426000D01*
X208024000Y-104186302D01*
X208394856Y-104186302D01*
X208422638Y-104741368D01*
X208581603Y-105125143D01*
X208823787Y-105194608D01*
X209624395Y-104394000D01*
X208823787Y-103593392D01*
X208581603Y-103662857D01*
X208394856Y-104186302D01*
X208024000Y-104186302D01*
X208024000Y-103413787D01*
X209003392Y-103413787D01*
X209804000Y-104214395D01*
X210604608Y-103413787D01*
X210535143Y-103171603D01*
X210011698Y-102984856D01*
X209456632Y-103012638D01*
X209072857Y-103171603D01*
X209003392Y-103413787D01*
X208024000Y-103413787D01*
X208024000Y-98652373D01*
X208078346Y-98629918D01*
X208610051Y-98099141D01*
X208898162Y-97405292D01*
X208898817Y-96654004D01*
X208611918Y-95959654D01*
X208081141Y-95427949D01*
X207387292Y-95139838D01*
X206636004Y-95139183D01*
X205941654Y-95426082D01*
X205409949Y-95956859D01*
X205121838Y-96650708D01*
X205121183Y-97401996D01*
X205408082Y-98096346D01*
X205938859Y-98628051D01*
X205996000Y-98651778D01*
X205996000Y-103528609D01*
X205946397Y-103408857D01*
X205704213Y-103339392D01*
X204903605Y-104140000D01*
X205704213Y-104940608D01*
X205946397Y-104871143D01*
X205996000Y-104732108D01*
X205996000Y-105617315D01*
X205660437Y-105281166D01*
X205497811Y-105213638D01*
X205524608Y-105120213D01*
X204724000Y-104319605D01*
X203923392Y-105120213D01*
X203950114Y-105213378D01*
X203790005Y-105279534D01*
X203325166Y-105743563D01*
X203073287Y-106350155D01*
X203072714Y-107006963D01*
X203323534Y-107613995D01*
X203659132Y-107950179D01*
X203325166Y-108283563D01*
X203073287Y-108890155D01*
X203072714Y-109546963D01*
X203152040Y-109738947D01*
X200446369Y-112444619D01*
X200396118Y-112434623D01*
X200404000Y-112395000D01*
X200404000Y-110540600D01*
X200788834Y-110156437D01*
X201040713Y-109549845D01*
X201041286Y-108893037D01*
X200790466Y-108286005D01*
X200454868Y-107949821D01*
X200788834Y-107616437D01*
X201040713Y-107009845D01*
X201041286Y-106353037D01*
X200790466Y-105746005D01*
X200326437Y-105281166D01*
X200163811Y-105213638D01*
X200190608Y-105120213D01*
X199390000Y-104319605D01*
X199375858Y-104333748D01*
X199196253Y-104154143D01*
X199210395Y-104140000D01*
X199569605Y-104140000D01*
X200370213Y-104940608D01*
X200612397Y-104871143D01*
X200799144Y-104347698D01*
X200778353Y-103932302D01*
X203314856Y-103932302D01*
X203342638Y-104487368D01*
X203501603Y-104871143D01*
X203743787Y-104940608D01*
X204544395Y-104140000D01*
X203743787Y-103339392D01*
X203501603Y-103408857D01*
X203314856Y-103932302D01*
X200778353Y-103932302D01*
X200771362Y-103792632D01*
X200612397Y-103408857D01*
X200370213Y-103339392D01*
X199569605Y-104140000D01*
X199210395Y-104140000D01*
X199196253Y-104125858D01*
X199375858Y-103946253D01*
X199390000Y-103960395D01*
X200190608Y-103159787D01*
X203923392Y-103159787D01*
X204724000Y-103960395D01*
X205524608Y-103159787D01*
X205455143Y-102917603D01*
X204931698Y-102730856D01*
X204376632Y-102758638D01*
X203992857Y-102917603D01*
X203923392Y-103159787D01*
X200190608Y-103159787D01*
X200121143Y-102917603D01*
X199597698Y-102730856D01*
X199042632Y-102758638D01*
X198658857Y-102917603D01*
X198626000Y-103032156D01*
X198626000Y-102472268D01*
X199255996Y-102472817D01*
X199950346Y-102185918D01*
X200406330Y-101730730D01*
X200858859Y-102184051D01*
X201552708Y-102472162D01*
X202303996Y-102472817D01*
X202998346Y-102185918D01*
X203530051Y-101655141D01*
X203818162Y-100961292D01*
X203818817Y-100210004D01*
X203531918Y-99515654D01*
X203001141Y-98983949D01*
X202307292Y-98695838D01*
X201556004Y-98695183D01*
X200861654Y-98982082D01*
X200405670Y-99437270D01*
X199953141Y-98983949D01*
X199259292Y-98695838D01*
X198508004Y-98695183D01*
X197813654Y-98982082D01*
X197281949Y-99512859D01*
X197102000Y-99946225D01*
X197102000Y-99314000D01*
X197024814Y-98925959D01*
X197018586Y-98916638D01*
X197223996Y-98916817D01*
X197918346Y-98629918D01*
X198450051Y-98099141D01*
X198738162Y-97405292D01*
X198738817Y-96654004D01*
X198451918Y-95959654D01*
X197921141Y-95427949D01*
X197227292Y-95139838D01*
X196476004Y-95139183D01*
X195781654Y-95426082D01*
X195325670Y-95881270D01*
X194873141Y-95427949D01*
X194179292Y-95139838D01*
X193428004Y-95139183D01*
X192733654Y-95426082D01*
X192201949Y-95956859D01*
X191913838Y-96650708D01*
X191913183Y-97401996D01*
X192200082Y-98096346D01*
X192730859Y-98628051D01*
X193424708Y-98916162D01*
X194175996Y-98916817D01*
X194233178Y-98893190D01*
X195074000Y-99734012D01*
X195074000Y-103350230D01*
X195036213Y-103339392D01*
X194235605Y-104140000D01*
X194249748Y-104154143D01*
X194070143Y-104333748D01*
X194056000Y-104319605D01*
X193255392Y-105120213D01*
X193282114Y-105213378D01*
X193122005Y-105279534D01*
X192657166Y-105743563D01*
X192405287Y-106350155D01*
X192404714Y-107006963D01*
X192655534Y-107613995D01*
X192991132Y-107950179D01*
X192657166Y-108283563D01*
X192405287Y-108890155D01*
X192404714Y-109546963D01*
X192655534Y-110153995D01*
X193042000Y-110541136D01*
X193042000Y-110581988D01*
X190963006Y-108502994D01*
X190634041Y-108283186D01*
X190246000Y-108206000D01*
X190042600Y-108206000D01*
X189786868Y-107949821D01*
X190120834Y-107616437D01*
X190372713Y-107009845D01*
X190373286Y-106353037D01*
X190122466Y-105746005D01*
X189658437Y-105281166D01*
X189495811Y-105213638D01*
X189522608Y-105120213D01*
X188722000Y-104319605D01*
X187921392Y-105120213D01*
X187948114Y-105213378D01*
X187788005Y-105279534D01*
X187400864Y-105666000D01*
X186282373Y-105666000D01*
X186259918Y-105611654D01*
X185729141Y-105079949D01*
X185035292Y-104791838D01*
X184284004Y-104791183D01*
X183589654Y-105078082D01*
X183057949Y-105608859D01*
X182769838Y-106302708D01*
X182769183Y-107053996D01*
X183056082Y-107748346D01*
X183586859Y-108280051D01*
X184280708Y-108568162D01*
X185031996Y-108568817D01*
X185726346Y-108281918D01*
X186258051Y-107751141D01*
X186281778Y-107694000D01*
X187401400Y-107694000D01*
X187657132Y-107950179D01*
X187323166Y-108283563D01*
X187071287Y-108890155D01*
X187070714Y-109546963D01*
X187321534Y-110153995D01*
X187785563Y-110618834D01*
X188392155Y-110870713D01*
X189048963Y-110871286D01*
X189655995Y-110620466D01*
X189934467Y-110342479D01*
X191518000Y-111926012D01*
X191518000Y-112748866D01*
X191292725Y-112899390D01*
X191262000Y-112945373D01*
X191231275Y-112899390D01*
X190662691Y-112519474D01*
X189992000Y-112386065D01*
X189321309Y-112519474D01*
X188752725Y-112899390D01*
X188722000Y-112945373D01*
X188691275Y-112899390D01*
X188122691Y-112519474D01*
X187452000Y-112386065D01*
X186781309Y-112519474D01*
X186212725Y-112899390D01*
X186182000Y-112945373D01*
X186151275Y-112899390D01*
X185582691Y-112519474D01*
X184912000Y-112386065D01*
X184241309Y-112519474D01*
X183672725Y-112899390D01*
X183642000Y-112945373D01*
X183611275Y-112899390D01*
X183042691Y-112519474D01*
X182372000Y-112386065D01*
X181701309Y-112519474D01*
X181132725Y-112899390D01*
X181102000Y-112945373D01*
X181071275Y-112899390D01*
X180502691Y-112519474D01*
X179832000Y-112386065D01*
X179161309Y-112519474D01*
X178592725Y-112899390D01*
X178562000Y-112945373D01*
X178531275Y-112899390D01*
X177962691Y-112519474D01*
X177292000Y-112386065D01*
X176621309Y-112519474D01*
X176052725Y-112899390D01*
X176022000Y-112945373D01*
X175991275Y-112899390D01*
X175422691Y-112519474D01*
X174752000Y-112386065D01*
X174081309Y-112519474D01*
X173512725Y-112899390D01*
X173132809Y-113467974D01*
X172999400Y-114138665D01*
X172999400Y-114207335D01*
X173132809Y-114878026D01*
X173512725Y-115446610D01*
X173770497Y-115618848D01*
X173545179Y-115824510D01*
X173297032Y-116353973D01*
X173417531Y-116586000D01*
X174625000Y-116586000D01*
X174625000Y-116566000D01*
X174879000Y-116566000D01*
X174879000Y-116586000D01*
X174899000Y-116586000D01*
X174899000Y-116840000D01*
X174879000Y-116840000D01*
X174879000Y-116860000D01*
X174625000Y-116860000D01*
X174625000Y-116840000D01*
X173417531Y-116840000D01*
X173297032Y-117072027D01*
X173427311Y-117350000D01*
X165352000Y-117350000D01*
X165352000Y-117348000D01*
X165274814Y-116959959D01*
X165055006Y-116630994D01*
X164726041Y-116411186D01*
X164338000Y-116334000D01*
X157367820Y-116334000D01*
X157377501Y-116330000D01*
X168656000Y-116330000D01*
X169044041Y-116252814D01*
X169373006Y-116033006D01*
X169592814Y-115704041D01*
X169670000Y-115316000D01*
X169670000Y-112012000D01*
X169672000Y-112012000D01*
X170060041Y-111934814D01*
X170389006Y-111715006D01*
X171405006Y-110699006D01*
X171624814Y-110370041D01*
X171702000Y-109982000D01*
X171702000Y-109980000D01*
X175768000Y-109980000D01*
X176156041Y-109902814D01*
X176485006Y-109683006D01*
X176704814Y-109354041D01*
X176782000Y-108966000D01*
X176782000Y-108624012D01*
X181473710Y-103932302D01*
X187312856Y-103932302D01*
X187340638Y-104487368D01*
X187499603Y-104871143D01*
X187741787Y-104940608D01*
X188542395Y-104140000D01*
X188901605Y-104140000D01*
X189702213Y-104940608D01*
X189944397Y-104871143D01*
X190131144Y-104347698D01*
X190110353Y-103932302D01*
X192646856Y-103932302D01*
X192674638Y-104487368D01*
X192833603Y-104871143D01*
X193075787Y-104940608D01*
X193876395Y-104140000D01*
X193075787Y-103339392D01*
X192833603Y-103408857D01*
X192646856Y-103932302D01*
X190110353Y-103932302D01*
X190103362Y-103792632D01*
X189944397Y-103408857D01*
X189702213Y-103339392D01*
X188901605Y-104140000D01*
X188542395Y-104140000D01*
X187741787Y-103339392D01*
X187499603Y-103408857D01*
X187312856Y-103932302D01*
X181473710Y-103932302D01*
X182246225Y-103159787D01*
X187921392Y-103159787D01*
X188722000Y-103960395D01*
X189522608Y-103159787D01*
X193255392Y-103159787D01*
X194056000Y-103960395D01*
X194856608Y-103159787D01*
X194787143Y-102917603D01*
X194263698Y-102730856D01*
X193708632Y-102758638D01*
X193324857Y-102917603D01*
X193255392Y-103159787D01*
X189522608Y-103159787D01*
X189453143Y-102917603D01*
X188929698Y-102730856D01*
X188374632Y-102758638D01*
X187990857Y-102917603D01*
X187921392Y-103159787D01*
X182246225Y-103159787D01*
X183808013Y-101598000D01*
X187097627Y-101598000D01*
X187120082Y-101652346D01*
X187650859Y-102184051D01*
X188344708Y-102472162D01*
X189095996Y-102472817D01*
X189790346Y-102185918D01*
X190322051Y-101655141D01*
X190610162Y-100961292D01*
X190610817Y-100210004D01*
X190323918Y-99515654D01*
X189793141Y-98983949D01*
X189099292Y-98695838D01*
X188348004Y-98695183D01*
X187653654Y-98982082D01*
X187121949Y-99512859D01*
X187098222Y-99570000D01*
X183388000Y-99570000D01*
X182999959Y-99647186D01*
X182670993Y-99866994D01*
X181858926Y-100679061D01*
X181856573Y-100673365D01*
X181522394Y-100338603D01*
X181085544Y-100157207D01*
X180612531Y-100156794D01*
X180188499Y-100332000D01*
X171196000Y-100332000D01*
X170807959Y-100409186D01*
X170478994Y-100628994D01*
X170259186Y-100957959D01*
X170182000Y-101346000D01*
X170182000Y-104396000D01*
X157122492Y-104396000D01*
X156701544Y-104221207D01*
X156228531Y-104220794D01*
X155791365Y-104401427D01*
X155456603Y-104735606D01*
X155275207Y-105172456D01*
X155274794Y-105645469D01*
X155283277Y-105666000D01*
X137414000Y-105666000D01*
X137025959Y-105743186D01*
X136696994Y-105962994D01*
X136442994Y-106216994D01*
X136223186Y-106545959D01*
X136146000Y-106934000D01*
X136146000Y-111254000D01*
X122934000Y-111254000D01*
X122934000Y-108309026D01*
X130625042Y-108309026D01*
X130797312Y-108724947D01*
X131191510Y-109156821D01*
X131720973Y-109404968D01*
X131953000Y-109284469D01*
X131953000Y-108077000D01*
X132207000Y-108077000D01*
X132207000Y-109284469D01*
X132439027Y-109404968D01*
X132968490Y-109156821D01*
X133350000Y-108738848D01*
X133731510Y-109156821D01*
X134260973Y-109404968D01*
X134493000Y-109284469D01*
X134493000Y-108077000D01*
X134747000Y-108077000D01*
X134747000Y-109284469D01*
X134979027Y-109404968D01*
X135508490Y-109156821D01*
X135902688Y-108724947D01*
X136074958Y-108309026D01*
X135953817Y-108077000D01*
X134747000Y-108077000D01*
X134493000Y-108077000D01*
X132207000Y-108077000D01*
X131953000Y-108077000D01*
X130746183Y-108077000D01*
X130625042Y-108309026D01*
X122934000Y-108309026D01*
X122934000Y-100428117D01*
X123574708Y-100694162D01*
X124325996Y-100694817D01*
X125020346Y-100407918D01*
X125552051Y-99877141D01*
X125840162Y-99183292D01*
X125840817Y-98432004D01*
X125817190Y-98374822D01*
X126150012Y-98042000D01*
X130302000Y-98042000D01*
X130341623Y-98034118D01*
X130426474Y-98460691D01*
X130806390Y-99029275D01*
X130852373Y-99060000D01*
X130806390Y-99090725D01*
X130426474Y-99659309D01*
X130293065Y-100330000D01*
X130426474Y-101000691D01*
X130806390Y-101569275D01*
X130852373Y-101600000D01*
X130806390Y-101630725D01*
X130426474Y-102199309D01*
X130293065Y-102870000D01*
X130426474Y-103540691D01*
X130806390Y-104109275D01*
X130852373Y-104140000D01*
X130806390Y-104170725D01*
X130426474Y-104739309D01*
X130293065Y-105410000D01*
X130426474Y-106080691D01*
X130806390Y-106649275D01*
X131098853Y-106844692D01*
X130797312Y-107175053D01*
X130625042Y-107590974D01*
X130746183Y-107823000D01*
X131953000Y-107823000D01*
X131953000Y-107803000D01*
X132207000Y-107803000D01*
X132207000Y-107823000D01*
X134493000Y-107823000D01*
X134493000Y-107803000D01*
X134747000Y-107803000D01*
X134747000Y-107823000D01*
X135953817Y-107823000D01*
X136074958Y-107590974D01*
X135902688Y-107175053D01*
X135601147Y-106844692D01*
X135893610Y-106649275D01*
X136273526Y-106080691D01*
X136406935Y-105410000D01*
X136273526Y-104739309D01*
X135893610Y-104170725D01*
X135847627Y-104140000D01*
X135893610Y-104109275D01*
X136273526Y-103540691D01*
X136406935Y-102870000D01*
X136273526Y-102199309D01*
X135893610Y-101630725D01*
X135847627Y-101600000D01*
X135893610Y-101569275D01*
X136273526Y-101000691D01*
X136406935Y-100330000D01*
X136273526Y-99659309D01*
X135893610Y-99090725D01*
X135847627Y-99060000D01*
X135893610Y-99029275D01*
X136044134Y-98804000D01*
X136993988Y-98804000D01*
X137654913Y-99464925D01*
X137557838Y-99698708D01*
X137557183Y-100449996D01*
X137844082Y-101144346D01*
X138374859Y-101676051D01*
X139068708Y-101964162D01*
X139646654Y-101964666D01*
X141014994Y-103333006D01*
X141343959Y-103552814D01*
X141732000Y-103630000D01*
X159107508Y-103630000D01*
X159528456Y-103804793D01*
X160001469Y-103805206D01*
X160438635Y-103624573D01*
X160773397Y-103290394D01*
X160954793Y-102853544D01*
X160955206Y-102380531D01*
X160774573Y-101943365D01*
X160440394Y-101608603D01*
X160003544Y-101427207D01*
X159530531Y-101426794D01*
X159106499Y-101602000D01*
X150750397Y-101602000D01*
X151206051Y-101147141D01*
X151494162Y-100453292D01*
X151494522Y-100040213D01*
X153123392Y-100040213D01*
X153192857Y-100282397D01*
X153716302Y-100469144D01*
X154271368Y-100441362D01*
X154655143Y-100282397D01*
X154724608Y-100040213D01*
X153924000Y-99239605D01*
X153123392Y-100040213D01*
X151494522Y-100040213D01*
X151494817Y-99702004D01*
X151207918Y-99007654D01*
X151052838Y-98852302D01*
X152514856Y-98852302D01*
X152542638Y-99407368D01*
X152701603Y-99791143D01*
X152943787Y-99860608D01*
X153744395Y-99060000D01*
X154103605Y-99060000D01*
X154904213Y-99860608D01*
X154997378Y-99833886D01*
X155063534Y-99993995D01*
X155527563Y-100458834D01*
X156134155Y-100710713D01*
X156790963Y-100711286D01*
X157397995Y-100460466D01*
X157734179Y-100124868D01*
X158067563Y-100458834D01*
X158674155Y-100710713D01*
X159330963Y-100711286D01*
X159937995Y-100460466D01*
X160402834Y-99996437D01*
X160654713Y-99389845D01*
X160655286Y-98733037D01*
X160404466Y-98126005D01*
X159940437Y-97661166D01*
X159333845Y-97409287D01*
X158677037Y-97408714D01*
X158070005Y-97659534D01*
X157733821Y-97995132D01*
X157400437Y-97661166D01*
X156793845Y-97409287D01*
X156137037Y-97408714D01*
X155530005Y-97659534D01*
X155065166Y-98123563D01*
X154997638Y-98286189D01*
X154904213Y-98259392D01*
X154103605Y-99060000D01*
X153744395Y-99060000D01*
X152943787Y-98259392D01*
X152701603Y-98328857D01*
X152514856Y-98852302D01*
X151052838Y-98852302D01*
X150677141Y-98475949D01*
X149983292Y-98187838D01*
X149232004Y-98187183D01*
X148537654Y-98474082D01*
X148005949Y-99004859D01*
X147717838Y-99698708D01*
X147717183Y-100449996D01*
X148004082Y-101144346D01*
X148460937Y-101602000D01*
X142152012Y-101602000D01*
X141237087Y-100687075D01*
X141334162Y-100453292D01*
X141334817Y-99702004D01*
X141047918Y-99007654D01*
X140517141Y-98475949D01*
X139823292Y-98187838D01*
X139245346Y-98187334D01*
X139137799Y-98079787D01*
X153123392Y-98079787D01*
X153924000Y-98880395D01*
X154724608Y-98079787D01*
X154655143Y-97837603D01*
X154131698Y-97650856D01*
X153576632Y-97678638D01*
X153192857Y-97837603D01*
X153123392Y-98079787D01*
X139137799Y-98079787D01*
X138460008Y-97401996D01*
X181753183Y-97401996D01*
X182040082Y-98096346D01*
X182570859Y-98628051D01*
X183264708Y-98916162D01*
X184015996Y-98916817D01*
X184710346Y-98629918D01*
X185242051Y-98099141D01*
X185530162Y-97405292D01*
X185530817Y-96654004D01*
X185243918Y-95959654D01*
X184713141Y-95427949D01*
X184019292Y-95139838D01*
X183268004Y-95139183D01*
X182573654Y-95426082D01*
X182041949Y-95956859D01*
X181753838Y-96650708D01*
X181753183Y-97401996D01*
X138460008Y-97401996D01*
X138338012Y-97280000D01*
X179070000Y-97280000D01*
X179458041Y-97202814D01*
X179787006Y-96983006D01*
X180083380Y-96686632D01*
X180504635Y-96512573D01*
X180839397Y-96178394D01*
X181020793Y-95741544D01*
X181021206Y-95268531D01*
X180840573Y-94831365D01*
X180506394Y-94496603D01*
X180069544Y-94315207D01*
X179596531Y-94314794D01*
X179159365Y-94495427D01*
X178824603Y-94829606D01*
X178649210Y-95252000D01*
X150243354Y-95252000D01*
X150674346Y-95073918D01*
X151206051Y-94543141D01*
X151243807Y-94452213D01*
X153123392Y-94452213D01*
X153192857Y-94694397D01*
X153716302Y-94881144D01*
X154271368Y-94853362D01*
X154655143Y-94694397D01*
X154724608Y-94452213D01*
X153924000Y-93651605D01*
X153123392Y-94452213D01*
X151243807Y-94452213D01*
X151494162Y-93849292D01*
X151494672Y-93264302D01*
X152514856Y-93264302D01*
X152542638Y-93819368D01*
X152701603Y-94203143D01*
X152943787Y-94272608D01*
X153744395Y-93472000D01*
X154103605Y-93472000D01*
X154904213Y-94272608D01*
X154997378Y-94245886D01*
X155063534Y-94405995D01*
X155527563Y-94870834D01*
X156134155Y-95122713D01*
X156790963Y-95123286D01*
X157397995Y-94872466D01*
X157734179Y-94536868D01*
X158067563Y-94870834D01*
X158674155Y-95122713D01*
X159330963Y-95123286D01*
X159937995Y-94872466D01*
X160325136Y-94486000D01*
X160885508Y-94486000D01*
X161306456Y-94660793D01*
X161779469Y-94661206D01*
X162216635Y-94480573D01*
X162551397Y-94146394D01*
X162732793Y-93709544D01*
X162733206Y-93236531D01*
X162552573Y-92799365D01*
X162218394Y-92464603D01*
X161781544Y-92283207D01*
X161308531Y-92282794D01*
X160884499Y-92458000D01*
X160324600Y-92458000D01*
X159940437Y-92073166D01*
X159333845Y-91821287D01*
X158677037Y-91820714D01*
X158070005Y-92071534D01*
X157733821Y-92407132D01*
X157400437Y-92073166D01*
X156793845Y-91821287D01*
X156137037Y-91820714D01*
X155530005Y-92071534D01*
X155065166Y-92535563D01*
X154997638Y-92698189D01*
X154904213Y-92671392D01*
X154103605Y-93472000D01*
X153744395Y-93472000D01*
X152943787Y-92671392D01*
X152701603Y-92740857D01*
X152514856Y-93264302D01*
X151494672Y-93264302D01*
X151494817Y-93098004D01*
X151244334Y-92491787D01*
X153123392Y-92491787D01*
X153924000Y-93292395D01*
X154724608Y-92491787D01*
X154655143Y-92249603D01*
X154131698Y-92062856D01*
X153576632Y-92090638D01*
X153192857Y-92249603D01*
X153123392Y-92491787D01*
X151244334Y-92491787D01*
X151207918Y-92403654D01*
X150677141Y-91871949D01*
X150554999Y-91821231D01*
X150674346Y-91771918D01*
X151206051Y-91241141D01*
X151494162Y-90547292D01*
X151494817Y-89796004D01*
X151207918Y-89101654D01*
X150970892Y-88864213D01*
X153123392Y-88864213D01*
X153192857Y-89106397D01*
X153716302Y-89293144D01*
X154271368Y-89265362D01*
X154655143Y-89106397D01*
X154724608Y-88864213D01*
X153924000Y-88063605D01*
X153123392Y-88864213D01*
X150970892Y-88864213D01*
X150677141Y-88569949D01*
X150554999Y-88519231D01*
X150674346Y-88469918D01*
X151206051Y-87939141D01*
X151315191Y-87676302D01*
X152514856Y-87676302D01*
X152542638Y-88231368D01*
X152701603Y-88615143D01*
X152943787Y-88684608D01*
X153744395Y-87884000D01*
X154103605Y-87884000D01*
X154904213Y-88684608D01*
X154997378Y-88657886D01*
X155063534Y-88817995D01*
X155527563Y-89282834D01*
X156134155Y-89534713D01*
X156790963Y-89535286D01*
X157397995Y-89284466D01*
X157734179Y-88948868D01*
X158067563Y-89282834D01*
X158674155Y-89534713D01*
X159330963Y-89535286D01*
X159937995Y-89284466D01*
X160325136Y-88898000D01*
X161901508Y-88898000D01*
X162322456Y-89072793D01*
X162795469Y-89073206D01*
X163232635Y-88892573D01*
X163567397Y-88558394D01*
X163748793Y-88121544D01*
X163749206Y-87648531D01*
X163568573Y-87211365D01*
X163234394Y-86876603D01*
X162797544Y-86695207D01*
X162324531Y-86694794D01*
X161900499Y-86870000D01*
X160324600Y-86870000D01*
X159940437Y-86485166D01*
X159333845Y-86233287D01*
X158677037Y-86232714D01*
X158070005Y-86483534D01*
X157733821Y-86819132D01*
X157400437Y-86485166D01*
X156793845Y-86233287D01*
X156137037Y-86232714D01*
X155530005Y-86483534D01*
X155065166Y-86947563D01*
X154997638Y-87110189D01*
X154904213Y-87083392D01*
X154103605Y-87884000D01*
X153744395Y-87884000D01*
X152943787Y-87083392D01*
X152701603Y-87152857D01*
X152514856Y-87676302D01*
X151315191Y-87676302D01*
X151494162Y-87245292D01*
X151494459Y-86903787D01*
X153123392Y-86903787D01*
X153924000Y-87704395D01*
X154724608Y-86903787D01*
X154655143Y-86661603D01*
X154131698Y-86474856D01*
X153576632Y-86502638D01*
X153192857Y-86661603D01*
X153123392Y-86903787D01*
X151494459Y-86903787D01*
X151494817Y-86494004D01*
X151207918Y-85799654D01*
X150677141Y-85267949D01*
X150554999Y-85217231D01*
X150674346Y-85167918D01*
X151206051Y-84637141D01*
X151494162Y-83943292D01*
X151494743Y-83276213D01*
X153123392Y-83276213D01*
X153192857Y-83518397D01*
X153716302Y-83705144D01*
X154271368Y-83677362D01*
X154655143Y-83518397D01*
X154724608Y-83276213D01*
X153924000Y-82475605D01*
X153123392Y-83276213D01*
X151494743Y-83276213D01*
X151494817Y-83192004D01*
X151207918Y-82497654D01*
X150799281Y-82088302D01*
X152514856Y-82088302D01*
X152542638Y-82643368D01*
X152701603Y-83027143D01*
X152943787Y-83096608D01*
X153744395Y-82296000D01*
X154103605Y-82296000D01*
X154904213Y-83096608D01*
X154997378Y-83069886D01*
X155063534Y-83229995D01*
X155527563Y-83694834D01*
X156134155Y-83946713D01*
X156790963Y-83947286D01*
X157397995Y-83696466D01*
X157734179Y-83360868D01*
X158067563Y-83694834D01*
X158674155Y-83946713D01*
X159330963Y-83947286D01*
X159937995Y-83696466D01*
X160402834Y-83232437D01*
X160654713Y-82625845D01*
X160655286Y-81969037D01*
X160404466Y-81362005D01*
X159940437Y-80897166D01*
X159333845Y-80645287D01*
X158677037Y-80644714D01*
X158070005Y-80895534D01*
X157733821Y-81231132D01*
X157400437Y-80897166D01*
X156793845Y-80645287D01*
X156137037Y-80644714D01*
X155530005Y-80895534D01*
X155065166Y-81359563D01*
X154997638Y-81522189D01*
X154904213Y-81495392D01*
X154103605Y-82296000D01*
X153744395Y-82296000D01*
X152943787Y-81495392D01*
X152701603Y-81564857D01*
X152514856Y-82088302D01*
X150799281Y-82088302D01*
X150677141Y-81965949D01*
X150554999Y-81915231D01*
X150674346Y-81865918D01*
X151206051Y-81335141D01*
X151214087Y-81315787D01*
X153123392Y-81315787D01*
X153924000Y-82116395D01*
X154724608Y-81315787D01*
X154655143Y-81073603D01*
X154131698Y-80886856D01*
X153576632Y-80914638D01*
X153192857Y-81073603D01*
X153123392Y-81315787D01*
X151214087Y-81315787D01*
X151494162Y-80641292D01*
X151494817Y-79890004D01*
X151480664Y-79855750D01*
X168355000Y-79855750D01*
X168355000Y-81446310D01*
X168451673Y-81679699D01*
X168630302Y-81858327D01*
X168863691Y-81955000D01*
X169804250Y-81955000D01*
X169963000Y-81796250D01*
X169963000Y-79697000D01*
X168513750Y-79697000D01*
X168355000Y-79855750D01*
X151480664Y-79855750D01*
X151207918Y-79195654D01*
X150677141Y-78663949D01*
X150554999Y-78613231D01*
X150674346Y-78563918D01*
X151206051Y-78033141D01*
X151494162Y-77339292D01*
X151494300Y-77180213D01*
X153123392Y-77180213D01*
X153192857Y-77422397D01*
X153716302Y-77609144D01*
X154271368Y-77581362D01*
X154655143Y-77422397D01*
X154724608Y-77180213D01*
X153924000Y-76379605D01*
X153123392Y-77180213D01*
X151494300Y-77180213D01*
X151494817Y-76588004D01*
X151248679Y-75992302D01*
X152514856Y-75992302D01*
X152542638Y-76547368D01*
X152701603Y-76931143D01*
X152943787Y-77000608D01*
X153744395Y-76200000D01*
X154103605Y-76200000D01*
X154904213Y-77000608D01*
X154997378Y-76973886D01*
X155063534Y-77133995D01*
X155527563Y-77598834D01*
X156134155Y-77850713D01*
X156790963Y-77851286D01*
X157397995Y-77600466D01*
X157734179Y-77264868D01*
X158067563Y-77598834D01*
X158674155Y-77850713D01*
X159330963Y-77851286D01*
X159712375Y-77693690D01*
X168355000Y-77693690D01*
X168355000Y-79284250D01*
X168513750Y-79443000D01*
X169963000Y-79443000D01*
X169963000Y-77343750D01*
X169804250Y-77185000D01*
X168863691Y-77185000D01*
X168630302Y-77281673D01*
X168451673Y-77460301D01*
X168355000Y-77693690D01*
X159712375Y-77693690D01*
X159937995Y-77600466D01*
X160325136Y-77214000D01*
X165711508Y-77214000D01*
X166132456Y-77388793D01*
X166605469Y-77389206D01*
X167042635Y-77208573D01*
X167377397Y-76874394D01*
X167558793Y-76437544D01*
X167559206Y-75964531D01*
X167378573Y-75527365D01*
X167044394Y-75192603D01*
X166607544Y-75011207D01*
X166134531Y-75010794D01*
X165710499Y-75186000D01*
X160324600Y-75186000D01*
X159940437Y-74801166D01*
X159333845Y-74549287D01*
X158677037Y-74548714D01*
X158070005Y-74799534D01*
X157733821Y-75135132D01*
X157400437Y-74801166D01*
X156793845Y-74549287D01*
X156137037Y-74548714D01*
X155530005Y-74799534D01*
X155065166Y-75263563D01*
X154997638Y-75426189D01*
X154904213Y-75399392D01*
X154103605Y-76200000D01*
X153744395Y-76200000D01*
X152943787Y-75399392D01*
X152701603Y-75468857D01*
X152514856Y-75992302D01*
X151248679Y-75992302D01*
X151207918Y-75893654D01*
X150677141Y-75361949D01*
X150334777Y-75219787D01*
X153123392Y-75219787D01*
X153924000Y-76020395D01*
X154724608Y-75219787D01*
X154655143Y-74977603D01*
X154131698Y-74790856D01*
X153576632Y-74818638D01*
X153192857Y-74977603D01*
X153123392Y-75219787D01*
X150334777Y-75219787D01*
X149983292Y-75073838D01*
X149232004Y-75073183D01*
X148537654Y-75360082D01*
X148005949Y-75890859D01*
X147717838Y-76584708D01*
X147717183Y-77335996D01*
X148004082Y-78030346D01*
X148534859Y-78562051D01*
X148657001Y-78612769D01*
X148537654Y-78662082D01*
X148005949Y-79192859D01*
X147717838Y-79886708D01*
X147717183Y-80637996D01*
X148004082Y-81332346D01*
X148534859Y-81864051D01*
X148657001Y-81914769D01*
X148537654Y-81964082D01*
X148005949Y-82494859D01*
X147717838Y-83188708D01*
X147717183Y-83939996D01*
X148004082Y-84634346D01*
X148534859Y-85166051D01*
X148657001Y-85216769D01*
X148537654Y-85266082D01*
X148005949Y-85796859D01*
X147717838Y-86490708D01*
X147717183Y-87241996D01*
X148004082Y-87936346D01*
X148534859Y-88468051D01*
X148657001Y-88518769D01*
X148537654Y-88568082D01*
X148005949Y-89098859D01*
X147717838Y-89792708D01*
X147717183Y-90543996D01*
X148004082Y-91238346D01*
X148534859Y-91770051D01*
X148657001Y-91820769D01*
X148537654Y-91870082D01*
X148005949Y-92400859D01*
X147717838Y-93094708D01*
X147717183Y-93845996D01*
X148004082Y-94540346D01*
X148534859Y-95072051D01*
X148968225Y-95252000D01*
X140083354Y-95252000D01*
X140514346Y-95073918D01*
X141046051Y-94543141D01*
X141334162Y-93849292D01*
X141334817Y-93098004D01*
X141047918Y-92403654D01*
X140517141Y-91871949D01*
X140394999Y-91821231D01*
X140514346Y-91771918D01*
X141046051Y-91241141D01*
X141334162Y-90547292D01*
X141334817Y-89796004D01*
X141047918Y-89101654D01*
X140517141Y-88569949D01*
X140394999Y-88519231D01*
X140514346Y-88469918D01*
X141046051Y-87939141D01*
X141334162Y-87245292D01*
X141334817Y-86494004D01*
X141047918Y-85799654D01*
X140517141Y-85267949D01*
X140394999Y-85217231D01*
X140514346Y-85167918D01*
X141046051Y-84637141D01*
X141334162Y-83943292D01*
X141334817Y-83192004D01*
X141047918Y-82497654D01*
X140517141Y-81965949D01*
X140394999Y-81915231D01*
X140514346Y-81865918D01*
X141046051Y-81335141D01*
X141334162Y-80641292D01*
X141334817Y-79890004D01*
X141047918Y-79195654D01*
X140517141Y-78663949D01*
X140394999Y-78613231D01*
X140514346Y-78563918D01*
X141046051Y-78033141D01*
X141334162Y-77339292D01*
X141334817Y-76588004D01*
X141047918Y-75893654D01*
X140517141Y-75361949D01*
X140094611Y-75186499D01*
X140118635Y-75176573D01*
X140453397Y-74842394D01*
X140634793Y-74405544D01*
X140635206Y-73932531D01*
X140454573Y-73495365D01*
X140120394Y-73160603D01*
X139683544Y-72979207D01*
X139210531Y-72978794D01*
X138773365Y-73159427D01*
X138438603Y-73493606D01*
X138262657Y-73917331D01*
X135915901Y-76264087D01*
X135893610Y-76230725D01*
X135325026Y-75850809D01*
X135126000Y-75811220D01*
X135126000Y-75184000D01*
X135048814Y-74795959D01*
X134829006Y-74466994D01*
X134500041Y-74247186D01*
X134112000Y-74170000D01*
X128928492Y-74170000D01*
X128507544Y-73995207D01*
X128034531Y-73994794D01*
X127610499Y-74170000D01*
X117602000Y-74170000D01*
X117213959Y-74247186D01*
X116884994Y-74466993D01*
X114223599Y-77128388D01*
X114169292Y-77105838D01*
X113418004Y-77105183D01*
X112723654Y-77392082D01*
X112191949Y-77922859D01*
X111903838Y-78616708D01*
X111903183Y-79367996D01*
X112190082Y-80062346D01*
X112720859Y-80594051D01*
X112778000Y-80617778D01*
X112778000Y-80671627D01*
X112723654Y-80694082D01*
X112191949Y-81224859D01*
X111903838Y-81918708D01*
X111903183Y-82669996D01*
X112190082Y-83364346D01*
X112720859Y-83896051D01*
X112778000Y-83919778D01*
X112778000Y-83973627D01*
X112723654Y-83996082D01*
X112191949Y-84526859D01*
X111903838Y-85220708D01*
X111903183Y-85971996D01*
X112190082Y-86666346D01*
X112720859Y-87198051D01*
X112778000Y-87221778D01*
X112778000Y-87275627D01*
X112723654Y-87298082D01*
X112191949Y-87828859D01*
X111903838Y-88522708D01*
X111903183Y-89273996D01*
X112190082Y-89968346D01*
X112720859Y-90500051D01*
X112778000Y-90523778D01*
X112778000Y-90577627D01*
X112723654Y-90600082D01*
X112191949Y-91130859D01*
X111903838Y-91824708D01*
X111903183Y-92575996D01*
X112190082Y-93270346D01*
X112720859Y-93802051D01*
X112843001Y-93852769D01*
X112723654Y-93902082D01*
X112191949Y-94432859D01*
X112168222Y-94490000D01*
X111252000Y-94490000D01*
X110863959Y-94567186D01*
X110534994Y-94786994D01*
X110315186Y-95115959D01*
X110238000Y-95504000D01*
X110238000Y-101346000D01*
X110315186Y-101734041D01*
X110534994Y-102063006D01*
X110863959Y-102282814D01*
X111252000Y-102360000D01*
X114387988Y-102360000D01*
X115826000Y-103798012D01*
X115826000Y-120904000D01*
X115903186Y-121292041D01*
X116122994Y-121621006D01*
X116376994Y-121875006D01*
X116705959Y-122094814D01*
X117094000Y-122172000D01*
X126341508Y-122172000D01*
X126762456Y-122346793D01*
X127235469Y-122347206D01*
X127672635Y-122166573D01*
X128007397Y-121832394D01*
X128188793Y-121395544D01*
X128189206Y-120922531D01*
X128008573Y-120485365D01*
X127674394Y-120150603D01*
X127237544Y-119969207D01*
X126764531Y-119968794D01*
X126665116Y-120009871D01*
X126665206Y-119906531D01*
X126484573Y-119469365D01*
X126150394Y-119134603D01*
X125713544Y-118953207D01*
X125240531Y-118952794D01*
X124816499Y-119128000D01*
X122594012Y-119128000D01*
X119589008Y-116122996D01*
X119589006Y-116122993D01*
X119378000Y-115911987D01*
X119378000Y-115313602D01*
X119380000Y-115314000D01*
X138938000Y-115314000D01*
X139326041Y-115236814D01*
X139655006Y-115017006D01*
X139874814Y-114688041D01*
X139952000Y-114300000D01*
X139952000Y-114092302D01*
X143624856Y-114092302D01*
X143652638Y-114647368D01*
X143811603Y-115031143D01*
X144053787Y-115100608D01*
X144854395Y-114300000D01*
X145213605Y-114300000D01*
X146014213Y-115100608D01*
X146256397Y-115031143D01*
X146443144Y-114507698D01*
X146422353Y-114092302D01*
X148450856Y-114092302D01*
X148478638Y-114647368D01*
X148637603Y-115031143D01*
X148879787Y-115100608D01*
X149680395Y-114300000D01*
X150039605Y-114300000D01*
X150840213Y-115100608D01*
X151082397Y-115031143D01*
X151269144Y-114507698D01*
X151241362Y-113952632D01*
X151082397Y-113568857D01*
X150840213Y-113499392D01*
X150039605Y-114300000D01*
X149680395Y-114300000D01*
X148879787Y-113499392D01*
X148637603Y-113568857D01*
X148450856Y-114092302D01*
X146422353Y-114092302D01*
X146415362Y-113952632D01*
X146256397Y-113568857D01*
X146014213Y-113499392D01*
X145213605Y-114300000D01*
X144854395Y-114300000D01*
X144053787Y-113499392D01*
X143811603Y-113568857D01*
X143624856Y-114092302D01*
X139952000Y-114092302D01*
X139952000Y-113319787D01*
X144233392Y-113319787D01*
X145034000Y-114120395D01*
X145834608Y-113319787D01*
X149059392Y-113319787D01*
X149860000Y-114120395D01*
X150660608Y-113319787D01*
X150591143Y-113077603D01*
X150067698Y-112890856D01*
X149512632Y-112918638D01*
X149128857Y-113077603D01*
X149059392Y-113319787D01*
X145834608Y-113319787D01*
X145765143Y-113077603D01*
X145241698Y-112890856D01*
X144686632Y-112918638D01*
X144302857Y-113077603D01*
X144233392Y-113319787D01*
X139952000Y-113319787D01*
X139952000Y-109218000D01*
X152402000Y-109218000D01*
X152402000Y-119380000D01*
X152478002Y-119762086D01*
X151511071Y-119299641D01*
X151511286Y-119053037D01*
X151260466Y-118446005D01*
X150924868Y-118109821D01*
X151258834Y-117776437D01*
X151510713Y-117169845D01*
X151511286Y-116513037D01*
X151260466Y-115906005D01*
X150796437Y-115441166D01*
X150633811Y-115373638D01*
X150660608Y-115280213D01*
X149860000Y-114479605D01*
X149059392Y-115280213D01*
X149086114Y-115373378D01*
X148926005Y-115439534D01*
X148461166Y-115903563D01*
X148209287Y-116510155D01*
X148208714Y-117166963D01*
X148459534Y-117773995D01*
X148795132Y-118110179D01*
X148461166Y-118443563D01*
X148209287Y-119050155D01*
X148208714Y-119706963D01*
X148450340Y-120291745D01*
X146685153Y-119205475D01*
X146685286Y-119053037D01*
X146434466Y-118446005D01*
X146098868Y-118109821D01*
X146432834Y-117776437D01*
X146684713Y-117169845D01*
X146685286Y-116513037D01*
X146434466Y-115906005D01*
X145970437Y-115441166D01*
X145807811Y-115373638D01*
X145834608Y-115280213D01*
X145034000Y-114479605D01*
X144233392Y-115280213D01*
X144260114Y-115373378D01*
X144100005Y-115439534D01*
X143635166Y-115903563D01*
X143383287Y-116510155D01*
X143382714Y-117166963D01*
X143633534Y-117773995D01*
X143969132Y-118110179D01*
X143635166Y-118443563D01*
X143383287Y-119050155D01*
X143382714Y-119706963D01*
X143633534Y-120313995D01*
X144097563Y-120778834D01*
X144704155Y-121030713D01*
X145360963Y-121031286D01*
X145613214Y-120927058D01*
X150665246Y-124036000D01*
X94964000Y-124036000D01*
X94964000Y-116473117D01*
X100610586Y-116473117D01*
X100973524Y-117351492D01*
X101644973Y-118024114D01*
X102522714Y-118388584D01*
X103473117Y-118389414D01*
X104351492Y-118026476D01*
X105024114Y-117355027D01*
X105388584Y-116477286D01*
X105389414Y-115526883D01*
X105026476Y-114648508D01*
X104355027Y-113975886D01*
X103477286Y-113611416D01*
X102526883Y-113610586D01*
X101648508Y-113973524D01*
X100975886Y-114644973D01*
X100611416Y-115522714D01*
X100610586Y-116473117D01*
X94964000Y-116473117D01*
X94964000Y-62992000D01*
X98554000Y-62992000D01*
X98554000Y-86868000D01*
X98631186Y-87256041D01*
X98850994Y-87585006D01*
X99612994Y-88347006D01*
X99941959Y-88566814D01*
X100330000Y-88644000D01*
X101191866Y-88644000D01*
X101342390Y-88869275D01*
X101388373Y-88900000D01*
X101342390Y-88930725D01*
X100962474Y-89499309D01*
X100829065Y-90170000D01*
X100962474Y-90840691D01*
X101342390Y-91409275D01*
X101388373Y-91440000D01*
X101342390Y-91470725D01*
X100962474Y-92039309D01*
X100829065Y-92710000D01*
X100962474Y-93380691D01*
X101342390Y-93949275D01*
X101388373Y-93980000D01*
X101342390Y-94010725D01*
X100962474Y-94579309D01*
X100829065Y-95250000D01*
X100962474Y-95920691D01*
X101342390Y-96489275D01*
X101388373Y-96520000D01*
X101342390Y-96550725D01*
X100962474Y-97119309D01*
X100867571Y-97596417D01*
X99612994Y-98850994D01*
X99393186Y-99179959D01*
X99316000Y-99568000D01*
X99316000Y-110236000D01*
X99393186Y-110624041D01*
X99612994Y-110953006D01*
X99941959Y-111172814D01*
X100330000Y-111250000D01*
X113284000Y-111250000D01*
X113672041Y-111172814D01*
X113674577Y-111171120D01*
X113773469Y-111171206D01*
X114210635Y-110990573D01*
X114545397Y-110656394D01*
X114726793Y-110219544D01*
X114727206Y-109746531D01*
X114546573Y-109309365D01*
X114212394Y-108974603D01*
X113775544Y-108793207D01*
X113302531Y-108792794D01*
X112865365Y-108973427D01*
X112616358Y-109222000D01*
X105905420Y-109222000D01*
X106044490Y-109156821D01*
X106438688Y-108724947D01*
X106610958Y-108309026D01*
X106489817Y-108077000D01*
X105283000Y-108077000D01*
X105283000Y-108097000D01*
X105029000Y-108097000D01*
X105029000Y-108077000D01*
X102743000Y-108077000D01*
X102743000Y-108097000D01*
X102489000Y-108097000D01*
X102489000Y-108077000D01*
X102469000Y-108077000D01*
X102469000Y-107823000D01*
X102489000Y-107823000D01*
X102489000Y-107803000D01*
X102743000Y-107803000D01*
X102743000Y-107823000D01*
X105029000Y-107823000D01*
X105029000Y-107803000D01*
X105283000Y-107803000D01*
X105283000Y-107823000D01*
X106489817Y-107823000D01*
X106610958Y-107590974D01*
X106438688Y-107175053D01*
X106137147Y-106844692D01*
X106429610Y-106649275D01*
X106809526Y-106080691D01*
X106942935Y-105410000D01*
X106809526Y-104739309D01*
X106429610Y-104170725D01*
X106383627Y-104140000D01*
X106429610Y-104109275D01*
X106809526Y-103540691D01*
X106942935Y-102870000D01*
X106809526Y-102199309D01*
X106429610Y-101630725D01*
X106383627Y-101600000D01*
X106429610Y-101569275D01*
X106809526Y-101000691D01*
X106942935Y-100330000D01*
X106809526Y-99659309D01*
X106429610Y-99090725D01*
X106383627Y-99060000D01*
X106429610Y-99029275D01*
X106809526Y-98460691D01*
X106942935Y-97790000D01*
X106809526Y-97119309D01*
X106429610Y-96550725D01*
X106383627Y-96520000D01*
X106429610Y-96489275D01*
X106809526Y-95920691D01*
X106942935Y-95250000D01*
X106809526Y-94579309D01*
X106429610Y-94010725D01*
X106383627Y-93980000D01*
X106429610Y-93949275D01*
X106809526Y-93380691D01*
X106942935Y-92710000D01*
X106809526Y-92039309D01*
X106429610Y-91470725D01*
X106383627Y-91440000D01*
X106429610Y-91409275D01*
X106809526Y-90840691D01*
X106942935Y-90170000D01*
X106809526Y-89499309D01*
X106429610Y-88930725D01*
X106383627Y-88900000D01*
X106429610Y-88869275D01*
X106580134Y-88644000D01*
X108458000Y-88644000D01*
X108846041Y-88566814D01*
X109175006Y-88347006D01*
X109429006Y-88093006D01*
X109648814Y-87764041D01*
X109684426Y-87585006D01*
X109726000Y-87376000D01*
X109726000Y-71338213D01*
X153123392Y-71338213D01*
X153192857Y-71580397D01*
X153716302Y-71767144D01*
X154271368Y-71739362D01*
X154655143Y-71580397D01*
X154724608Y-71338213D01*
X153924000Y-70537605D01*
X153123392Y-71338213D01*
X109726000Y-71338213D01*
X109726000Y-70150302D01*
X152514856Y-70150302D01*
X152542638Y-70705368D01*
X152701603Y-71089143D01*
X152943787Y-71158608D01*
X153744395Y-70358000D01*
X154103605Y-70358000D01*
X154904213Y-71158608D01*
X154997378Y-71131886D01*
X155063534Y-71291995D01*
X155527563Y-71756834D01*
X156134155Y-72008713D01*
X156790963Y-72009286D01*
X157397995Y-71758466D01*
X157734179Y-71422868D01*
X158067563Y-71756834D01*
X158674155Y-72008713D01*
X159330963Y-72009286D01*
X159937995Y-71758466D01*
X160325136Y-71372000D01*
X164695508Y-71372000D01*
X165116456Y-71546793D01*
X165589469Y-71547206D01*
X166026635Y-71366573D01*
X166361397Y-71032394D01*
X166542793Y-70595544D01*
X166543206Y-70122531D01*
X166362573Y-69685365D01*
X166028394Y-69350603D01*
X165591544Y-69169207D01*
X165118531Y-69168794D01*
X164694499Y-69344000D01*
X160324600Y-69344000D01*
X159940437Y-68959166D01*
X159333845Y-68707287D01*
X158677037Y-68706714D01*
X158070005Y-68957534D01*
X157733821Y-69293132D01*
X157400437Y-68959166D01*
X156793845Y-68707287D01*
X156137037Y-68706714D01*
X155530005Y-68957534D01*
X155065166Y-69421563D01*
X154997638Y-69584189D01*
X154904213Y-69557392D01*
X154103605Y-70358000D01*
X153744395Y-70358000D01*
X152943787Y-69557392D01*
X152701603Y-69626857D01*
X152514856Y-70150302D01*
X109726000Y-70150302D01*
X109726000Y-69377787D01*
X153123392Y-69377787D01*
X153924000Y-70178395D01*
X154724608Y-69377787D01*
X154655143Y-69135603D01*
X154131698Y-68948856D01*
X153576632Y-68976638D01*
X153192857Y-69135603D01*
X153123392Y-69377787D01*
X109726000Y-69377787D01*
X109726000Y-60179469D01*
X121238794Y-60179469D01*
X121419427Y-60616635D01*
X121753606Y-60951397D01*
X122190456Y-61132793D01*
X122663469Y-61133206D01*
X123087501Y-60958000D01*
X128859001Y-60958000D01*
X128858794Y-61195469D01*
X129039427Y-61632635D01*
X129373606Y-61967397D01*
X129810456Y-62148793D01*
X129874849Y-62148849D01*
X129874794Y-62211469D01*
X130055427Y-62648635D01*
X130389606Y-62983397D01*
X130826456Y-63164793D01*
X131299469Y-63165206D01*
X131723501Y-62990000D01*
X172722000Y-62990000D01*
X172722000Y-65534398D01*
X172720000Y-65534000D01*
X123086492Y-65534000D01*
X122665544Y-65359207D01*
X122192531Y-65358794D01*
X121755365Y-65539427D01*
X121420603Y-65873606D01*
X121239207Y-66310456D01*
X121238794Y-66783469D01*
X121419427Y-67220635D01*
X121753606Y-67555397D01*
X122190456Y-67736793D01*
X122663469Y-67737206D01*
X123087501Y-67562000D01*
X171706000Y-67562000D01*
X171706000Y-77437974D01*
X171549698Y-77281673D01*
X171316309Y-77185000D01*
X170375750Y-77185000D01*
X170217000Y-77343750D01*
X170217000Y-79443000D01*
X170237000Y-79443000D01*
X170237000Y-79697000D01*
X170217000Y-79697000D01*
X170217000Y-81796250D01*
X170375750Y-81955000D01*
X171316309Y-81955000D01*
X171549698Y-81858327D01*
X171706000Y-81702026D01*
X171706000Y-82891987D01*
X170478994Y-84118994D01*
X170259186Y-84447959D01*
X170182000Y-84836000D01*
X170182000Y-92964000D01*
X170259186Y-93352041D01*
X170478994Y-93681006D01*
X170807959Y-93900814D01*
X171196000Y-93978000D01*
X176530000Y-93978000D01*
X176918041Y-93900814D01*
X177247006Y-93681006D01*
X177731012Y-93197000D01*
X193692560Y-93197000D01*
X193692560Y-94170000D01*
X193736838Y-94405317D01*
X193875910Y-94621441D01*
X194088110Y-94766431D01*
X194340000Y-94817440D01*
X195963000Y-94817440D01*
X195963000Y-93197000D01*
X196217000Y-93197000D01*
X196217000Y-94817440D01*
X197840000Y-94817440D01*
X198075317Y-94773162D01*
X198291441Y-94634090D01*
X198436431Y-94421890D01*
X198487440Y-94170000D01*
X198487440Y-93197000D01*
X196217000Y-93197000D01*
X195963000Y-93197000D01*
X193692560Y-93197000D01*
X177731012Y-93197000D01*
X178958012Y-91970000D01*
X193692560Y-91970000D01*
X193692560Y-92943000D01*
X195963000Y-92943000D01*
X195963000Y-91322560D01*
X196217000Y-91322560D01*
X196217000Y-92943000D01*
X198487440Y-92943000D01*
X198487440Y-91970000D01*
X198443162Y-91734683D01*
X198304090Y-91518559D01*
X198091890Y-91373569D01*
X197840000Y-91322560D01*
X196217000Y-91322560D01*
X195963000Y-91322560D01*
X194340000Y-91322560D01*
X194104683Y-91366838D01*
X193888559Y-91505910D01*
X193743569Y-91718110D01*
X193692560Y-91970000D01*
X178958012Y-91970000D01*
X179005568Y-91922445D01*
X179417065Y-91922804D01*
X180061415Y-91656564D01*
X180494929Y-91223805D01*
X180735800Y-91223805D01*
X180817741Y-91476516D01*
X181378030Y-91680248D01*
X181973635Y-91654058D01*
X182402259Y-91476516D01*
X182484200Y-91223805D01*
X181610000Y-90349605D01*
X180735800Y-91223805D01*
X180494929Y-91223805D01*
X180554831Y-91164008D01*
X180638938Y-90961457D01*
X181430395Y-90170000D01*
X181789605Y-90170000D01*
X182663805Y-91044200D01*
X182916516Y-90962259D01*
X183120248Y-90401970D01*
X183094058Y-89806365D01*
X182916516Y-89377741D01*
X182663805Y-89295800D01*
X181789605Y-90170000D01*
X181430395Y-90170000D01*
X180639359Y-89378964D01*
X180556564Y-89178585D01*
X180278411Y-88899946D01*
X180340054Y-88838411D01*
X180615992Y-89114831D01*
X180818543Y-89198938D01*
X181610000Y-89990395D01*
X182401036Y-89199359D01*
X182601415Y-89116564D01*
X183094831Y-88624008D01*
X183362196Y-87980123D01*
X183362804Y-87282935D01*
X183096564Y-86638585D01*
X182749000Y-86290414D01*
X182749000Y-85713970D01*
X227265635Y-85713970D01*
X227425418Y-86032739D01*
X228216187Y-86342723D01*
X229065387Y-86326497D01*
X229774582Y-86032739D01*
X229934365Y-85713970D01*
X228600000Y-84379605D01*
X227265635Y-85713970D01*
X182749000Y-85713970D01*
X182749000Y-66197000D01*
X193692560Y-66197000D01*
X193692560Y-67170000D01*
X193736838Y-67405317D01*
X193875910Y-67621441D01*
X194088110Y-67766431D01*
X194340000Y-67817440D01*
X195963000Y-67817440D01*
X195963000Y-66197000D01*
X193692560Y-66197000D01*
X182749000Y-66197000D01*
X182749000Y-64970000D01*
X193692560Y-64970000D01*
X193692560Y-65943000D01*
X195963000Y-65943000D01*
X195963000Y-64322560D01*
X194340000Y-64322560D01*
X194104683Y-64366838D01*
X193888559Y-64505910D01*
X193743569Y-64718110D01*
X193692560Y-64970000D01*
X182749000Y-64970000D01*
X182749000Y-56134005D01*
X182749001Y-56134000D01*
X182662299Y-55698123D01*
X182474454Y-55416994D01*
X182415395Y-55328605D01*
X182415392Y-55328603D01*
X181732135Y-54645345D01*
X181362617Y-54398441D01*
X180926740Y-54311739D01*
X180926735Y-54311740D01*
X179872676Y-54311740D01*
X179775883Y-53825129D01*
X179312275Y-53131291D01*
X179235513Y-53080000D01*
X203708000Y-53080000D01*
X204191712Y-52983784D01*
X204601783Y-52709783D01*
X211597566Y-45714000D01*
X215778008Y-45714000D01*
X216309588Y-46069191D01*
X216980279Y-46202600D01*
X217359721Y-46202600D01*
X218030412Y-46069191D01*
X218561992Y-45714000D01*
X219710000Y-45714000D01*
X220193712Y-45617784D01*
X220603783Y-45343783D01*
X220877784Y-44933712D01*
X220974000Y-44450000D01*
X220974000Y-39370000D01*
X220877784Y-38886288D01*
X220603783Y-38476217D01*
X220193712Y-38202216D01*
X219710000Y-38106000D01*
X218671626Y-38106000D01*
X218724327Y-38053299D01*
X218821000Y-37819910D01*
X218821000Y-37115750D01*
X218662250Y-36957000D01*
X217297000Y-36957000D01*
X217297000Y-36977000D01*
X217043000Y-36977000D01*
X217043000Y-36957000D01*
X215677750Y-36957000D01*
X215519000Y-37115750D01*
X215519000Y-37819910D01*
X215615673Y-38053299D01*
X215721816Y-38159442D01*
X215361088Y-38699309D01*
X215227679Y-39370000D01*
X215361088Y-40040691D01*
X215741004Y-40609275D01*
X215786987Y-40640000D01*
X215741004Y-40670725D01*
X215361088Y-41239309D01*
X215227679Y-41910000D01*
X215361088Y-42580691D01*
X215741004Y-43149275D01*
X215786987Y-43180000D01*
X215778008Y-43186000D01*
X211074000Y-43186000D01*
X210590288Y-43282216D01*
X210180217Y-43556217D01*
X203184434Y-50552000D01*
X165354000Y-50552000D01*
X164870288Y-50648216D01*
X164460217Y-50922217D01*
X164206217Y-51176217D01*
X163932216Y-51586288D01*
X163836000Y-52070000D01*
X163836000Y-52965399D01*
X163587725Y-53131291D01*
X163124117Y-53825129D01*
X162961320Y-54643566D01*
X162961320Y-56257914D01*
X163124117Y-57076351D01*
X163587725Y-57770189D01*
X164183091Y-58168000D01*
X158408012Y-58168000D01*
X156731087Y-56491075D01*
X156828162Y-56257292D01*
X156828817Y-55506004D01*
X156541918Y-54811654D01*
X156011141Y-54279949D01*
X155954000Y-54256222D01*
X155954000Y-52424373D01*
X156008346Y-52401918D01*
X156540051Y-51871141D01*
X156828162Y-51177292D01*
X156828817Y-50426004D01*
X156541918Y-49731654D01*
X156011141Y-49199949D01*
X155317292Y-48911838D01*
X154566004Y-48911183D01*
X153871654Y-49198082D01*
X153339949Y-49728859D01*
X153051838Y-50422708D01*
X153051183Y-51173996D01*
X153338082Y-51868346D01*
X153868859Y-52400051D01*
X153926000Y-52423778D01*
X153926000Y-54255627D01*
X153871654Y-54278082D01*
X153339949Y-54808859D01*
X153051838Y-55502708D01*
X153051183Y-56253996D01*
X153338082Y-56948346D01*
X153868859Y-57480051D01*
X154562708Y-57768162D01*
X155140654Y-57768666D01*
X156301988Y-58930000D01*
X123086492Y-58930000D01*
X122665544Y-58755207D01*
X122192531Y-58754794D01*
X121755365Y-58935427D01*
X121420603Y-59269606D01*
X121239207Y-59706456D01*
X121238794Y-60179469D01*
X109726000Y-60179469D01*
X109726000Y-57032163D01*
X143807443Y-57032163D01*
X143906042Y-57298965D01*
X144515582Y-57525401D01*
X145165377Y-57501341D01*
X145653958Y-57298965D01*
X145752557Y-57032163D01*
X144780000Y-56059605D01*
X143807443Y-57032163D01*
X109726000Y-57032163D01*
X109726000Y-56808012D01*
X110918430Y-55615582D01*
X143134599Y-55615582D01*
X143158659Y-56265377D01*
X143361035Y-56753958D01*
X143627837Y-56852557D01*
X144600395Y-55880000D01*
X144959605Y-55880000D01*
X145932163Y-56852557D01*
X146198965Y-56753958D01*
X146425401Y-56144418D01*
X146401341Y-55494623D01*
X146198965Y-55006042D01*
X145932163Y-54907443D01*
X144959605Y-55880000D01*
X144600395Y-55880000D01*
X143627837Y-54907443D01*
X143361035Y-55006042D01*
X143134599Y-55615582D01*
X110918430Y-55615582D01*
X111806175Y-54727837D01*
X143807443Y-54727837D01*
X144780000Y-55700395D01*
X145752557Y-54727837D01*
X145653958Y-54461035D01*
X145044418Y-54234599D01*
X144394623Y-54258659D01*
X143906042Y-54461035D01*
X143807443Y-54727837D01*
X111806175Y-54727837D01*
X115374986Y-51159026D01*
X117772642Y-51159026D01*
X117775291Y-51174791D01*
X118029268Y-51702036D01*
X118465680Y-52091954D01*
X119018087Y-52285184D01*
X119253000Y-52140924D01*
X119253000Y-50927000D01*
X119507000Y-50927000D01*
X119507000Y-52140924D01*
X119741913Y-52285184D01*
X120294320Y-52091954D01*
X120730732Y-51702036D01*
X120984709Y-51174791D01*
X120984842Y-51173996D01*
X142891183Y-51173996D01*
X143178082Y-51868346D01*
X143708859Y-52400051D01*
X144402708Y-52688162D01*
X145153996Y-52688817D01*
X145848346Y-52401918D01*
X146380051Y-51871141D01*
X146668162Y-51177292D01*
X146668817Y-50426004D01*
X146381918Y-49731654D01*
X145851141Y-49199949D01*
X145157292Y-48911838D01*
X144406004Y-48911183D01*
X143711654Y-49198082D01*
X143179949Y-49728859D01*
X142891838Y-50422708D01*
X142891183Y-51173996D01*
X120984842Y-51173996D01*
X120987358Y-51159026D01*
X120866217Y-50927000D01*
X119507000Y-50927000D01*
X119253000Y-50927000D01*
X117893783Y-50927000D01*
X117772642Y-51159026D01*
X115374986Y-51159026D01*
X117583999Y-48950013D01*
X117951004Y-49499275D01*
X118251082Y-49699781D01*
X118029268Y-49897964D01*
X117775291Y-50425209D01*
X117772642Y-50440974D01*
X117893783Y-50673000D01*
X119253000Y-50673000D01*
X119253000Y-50653000D01*
X119507000Y-50653000D01*
X119507000Y-50673000D01*
X120866217Y-50673000D01*
X120987358Y-50440974D01*
X120984709Y-50425209D01*
X120730732Y-49897964D01*
X120508918Y-49699781D01*
X120808996Y-49499275D01*
X121188912Y-48930691D01*
X121322321Y-48260000D01*
X121188912Y-47589309D01*
X120808996Y-47020725D01*
X120763013Y-46990000D01*
X120808996Y-46959275D01*
X120986213Y-46694050D01*
X142462815Y-46694050D01*
X142530875Y-46935051D01*
X143050174Y-47119887D01*
X143600678Y-47091925D01*
X143979405Y-46935051D01*
X144047465Y-46694050D01*
X143255140Y-45901725D01*
X142462815Y-46694050D01*
X120986213Y-46694050D01*
X121188912Y-46390691D01*
X121322321Y-45720000D01*
X121281973Y-45517154D01*
X141857373Y-45517154D01*
X141885335Y-46067658D01*
X142042209Y-46446385D01*
X142283210Y-46514445D01*
X143075535Y-45722120D01*
X143434745Y-45722120D01*
X144227070Y-46514445D01*
X144335816Y-46483735D01*
X144404370Y-46649648D01*
X144865186Y-47111269D01*
X145467579Y-47361405D01*
X146119840Y-47361974D01*
X146722668Y-47112890D01*
X146810890Y-47024822D01*
X146897186Y-47111269D01*
X147499579Y-47361405D01*
X148151840Y-47361974D01*
X148754668Y-47112890D01*
X149097333Y-46770822D01*
X149437186Y-47111269D01*
X150039579Y-47361405D01*
X150691840Y-47361974D01*
X151294668Y-47112890D01*
X151756289Y-46652074D01*
X151975646Y-46123803D01*
X187310647Y-46123803D01*
X187620412Y-46873492D01*
X188193491Y-47447572D01*
X188942639Y-47758645D01*
X189753803Y-47759353D01*
X189844971Y-47721683D01*
X189811355Y-47802639D01*
X189810647Y-48613803D01*
X190120412Y-49363492D01*
X190693491Y-49937572D01*
X191442639Y-50248645D01*
X192253803Y-50249353D01*
X193003492Y-49939588D01*
X193577572Y-49366509D01*
X193888645Y-48617361D01*
X193888648Y-48613803D01*
X199810647Y-48613803D01*
X200120412Y-49363492D01*
X200693491Y-49937572D01*
X201442639Y-50248645D01*
X202253803Y-50249353D01*
X203003492Y-49939588D01*
X203577572Y-49366509D01*
X203888645Y-48617361D01*
X203889353Y-47806197D01*
X203854600Y-47722088D01*
X203942639Y-47758645D01*
X204753803Y-47759353D01*
X205503492Y-47449588D01*
X206077572Y-46876509D01*
X206388645Y-46127361D01*
X206389353Y-45316197D01*
X206079588Y-44566508D01*
X205506509Y-43992428D01*
X204757361Y-43681355D01*
X203946197Y-43680647D01*
X203196508Y-43990412D01*
X202622428Y-44563491D01*
X202311355Y-45312639D01*
X202310647Y-46123803D01*
X202345400Y-46207912D01*
X202257361Y-46171355D01*
X201446197Y-46170647D01*
X200696508Y-46480412D01*
X200122428Y-47053491D01*
X199811355Y-47802639D01*
X199810647Y-48613803D01*
X193888648Y-48613803D01*
X193889353Y-47806197D01*
X193579588Y-47056508D01*
X193504237Y-46981025D01*
X195768581Y-46981025D01*
X195885601Y-47263446D01*
X196549663Y-47515018D01*
X197259448Y-47493314D01*
X197814399Y-47263446D01*
X197931419Y-46981025D01*
X196850000Y-45899605D01*
X195768581Y-46981025D01*
X193504237Y-46981025D01*
X193006509Y-46482428D01*
X192257361Y-46171355D01*
X191446197Y-46170647D01*
X191355029Y-46208317D01*
X191388645Y-46127361D01*
X191389262Y-45419663D01*
X195054982Y-45419663D01*
X195076686Y-46129448D01*
X195306554Y-46684399D01*
X195588975Y-46801419D01*
X196670395Y-45720000D01*
X197029605Y-45720000D01*
X198111025Y-46801419D01*
X198393446Y-46684399D01*
X198645018Y-46020337D01*
X198623314Y-45310552D01*
X198393446Y-44755601D01*
X198111025Y-44638581D01*
X197029605Y-45720000D01*
X196670395Y-45720000D01*
X195588975Y-44638581D01*
X195306554Y-44755601D01*
X195054982Y-45419663D01*
X191389262Y-45419663D01*
X191389353Y-45316197D01*
X191079588Y-44566508D01*
X190972243Y-44458975D01*
X195768581Y-44458975D01*
X196850000Y-45540395D01*
X197931419Y-44458975D01*
X197814399Y-44176554D01*
X197150337Y-43924982D01*
X196440552Y-43946686D01*
X195885601Y-44176554D01*
X195768581Y-44458975D01*
X190972243Y-44458975D01*
X190506509Y-43992428D01*
X189757361Y-43681355D01*
X188946197Y-43680647D01*
X188196508Y-43990412D01*
X187622428Y-44563491D01*
X187311355Y-45312639D01*
X187310647Y-46123803D01*
X151975646Y-46123803D01*
X152006425Y-46049681D01*
X152006994Y-45397420D01*
X151757910Y-44794592D01*
X151532709Y-44568997D01*
X152588868Y-44568997D01*
X152748635Y-44887752D01*
X153539357Y-45197715D01*
X154388506Y-45181487D01*
X155097645Y-44887752D01*
X155257412Y-44568997D01*
X153923140Y-43234725D01*
X152588868Y-44568997D01*
X151532709Y-44568997D01*
X151297094Y-44332971D01*
X150694701Y-44082835D01*
X150042440Y-44082266D01*
X149439612Y-44331350D01*
X149096947Y-44673418D01*
X148757094Y-44332971D01*
X148154701Y-44082835D01*
X147502440Y-44082266D01*
X146899612Y-44331350D01*
X146811390Y-44419418D01*
X146725094Y-44332971D01*
X146122701Y-44082835D01*
X145470440Y-44082266D01*
X144867612Y-44331350D01*
X144405991Y-44792166D01*
X144336061Y-44960575D01*
X144227070Y-44929795D01*
X143434745Y-45722120D01*
X143075535Y-45722120D01*
X142283210Y-44929795D01*
X142042209Y-44997855D01*
X141857373Y-45517154D01*
X121281973Y-45517154D01*
X121188912Y-45049309D01*
X120867978Y-44568997D01*
X138872868Y-44568997D01*
X139032635Y-44887752D01*
X139823357Y-45197715D01*
X140672506Y-45181487D01*
X141381645Y-44887752D01*
X141450594Y-44750190D01*
X142462815Y-44750190D01*
X143255140Y-45542515D01*
X144047465Y-44750190D01*
X143979405Y-44509189D01*
X143460106Y-44324353D01*
X142909602Y-44352315D01*
X142530875Y-44509189D01*
X142462815Y-44750190D01*
X141450594Y-44750190D01*
X141541412Y-44568997D01*
X140207140Y-43234725D01*
X138872868Y-44568997D01*
X120867978Y-44568997D01*
X120808996Y-44480725D01*
X120763013Y-44450000D01*
X120808996Y-44419275D01*
X121188912Y-43850691D01*
X121322321Y-43180000D01*
X121221142Y-42671337D01*
X138064545Y-42671337D01*
X138080773Y-43520486D01*
X138374508Y-44229625D01*
X138693263Y-44389392D01*
X140027535Y-43055120D01*
X140386745Y-43055120D01*
X141721017Y-44389392D01*
X142039772Y-44229625D01*
X142349735Y-43438903D01*
X142335067Y-42671337D01*
X151780545Y-42671337D01*
X151796773Y-43520486D01*
X152090508Y-44229625D01*
X152409263Y-44389392D01*
X153743535Y-43055120D01*
X154102745Y-43055120D01*
X155437017Y-44389392D01*
X155755772Y-44229625D01*
X156065735Y-43438903D01*
X156049507Y-42589754D01*
X155755772Y-41880615D01*
X155437017Y-41720848D01*
X154102745Y-43055120D01*
X153743535Y-43055120D01*
X152409263Y-41720848D01*
X152090508Y-41880615D01*
X151780545Y-42671337D01*
X142335067Y-42671337D01*
X142333507Y-42589754D01*
X142039772Y-41880615D01*
X141721017Y-41720848D01*
X140386745Y-43055120D01*
X140027535Y-43055120D01*
X138693263Y-41720848D01*
X138374508Y-41880615D01*
X138064545Y-42671337D01*
X121221142Y-42671337D01*
X121188912Y-42509309D01*
X120808996Y-41940725D01*
X120508918Y-41740219D01*
X120730732Y-41542036D01*
X120731113Y-41541243D01*
X138872868Y-41541243D01*
X140207140Y-42875515D01*
X141541412Y-41541243D01*
X152588868Y-41541243D01*
X153923140Y-42875515D01*
X155257412Y-41541243D01*
X155097645Y-41222488D01*
X154868633Y-41132715D01*
X187265639Y-41132715D01*
X187582241Y-41898949D01*
X188167967Y-42485699D01*
X188933648Y-42803637D01*
X189762715Y-42804361D01*
X190528949Y-42487759D01*
X191115699Y-41902033D01*
X191433637Y-41136352D01*
X191433640Y-41132715D01*
X202265639Y-41132715D01*
X202582241Y-41898949D01*
X203167967Y-42485699D01*
X203933648Y-42803637D01*
X204762715Y-42804361D01*
X205528949Y-42487759D01*
X206115699Y-41902033D01*
X206433637Y-41136352D01*
X206434361Y-40307285D01*
X206117759Y-39541051D01*
X205532033Y-38954301D01*
X204766352Y-38636363D01*
X203937285Y-38635639D01*
X203171051Y-38952241D01*
X202584301Y-39537967D01*
X202266363Y-40303648D01*
X202265639Y-41132715D01*
X191433640Y-41132715D01*
X191434361Y-40307285D01*
X191117759Y-39541051D01*
X190532033Y-38954301D01*
X189766352Y-38636363D01*
X188937285Y-38635639D01*
X188171051Y-38952241D01*
X187584301Y-39537967D01*
X187266363Y-40303648D01*
X187265639Y-41132715D01*
X154868633Y-41132715D01*
X154306923Y-40912525D01*
X153457774Y-40928753D01*
X152748635Y-41222488D01*
X152588868Y-41541243D01*
X141541412Y-41541243D01*
X141381645Y-41222488D01*
X140590923Y-40912525D01*
X139741774Y-40928753D01*
X139032635Y-41222488D01*
X138872868Y-41541243D01*
X120731113Y-41541243D01*
X120984709Y-41014791D01*
X120987358Y-40999026D01*
X120866217Y-40767000D01*
X119507000Y-40767000D01*
X119507000Y-40787000D01*
X119253000Y-40787000D01*
X119253000Y-40767000D01*
X117893783Y-40767000D01*
X117772642Y-40999026D01*
X117775291Y-41014791D01*
X118029268Y-41542036D01*
X118251082Y-41740219D01*
X117951004Y-41940725D01*
X117571088Y-42509309D01*
X117437679Y-43180000D01*
X117522013Y-43603975D01*
X98850994Y-62274994D01*
X98631186Y-62603959D01*
X98554000Y-62992000D01*
X94964000Y-62992000D01*
X94964000Y-40999026D01*
X108781042Y-40999026D01*
X108953312Y-41414947D01*
X109347510Y-41846821D01*
X109876973Y-42094968D01*
X110109000Y-41974469D01*
X110109000Y-40767000D01*
X108902183Y-40767000D01*
X108781042Y-40999026D01*
X94964000Y-40999026D01*
X94964000Y-38459026D01*
X108781042Y-38459026D01*
X108953312Y-38874947D01*
X109347510Y-39306821D01*
X109482313Y-39370000D01*
X109347510Y-39433179D01*
X108953312Y-39865053D01*
X108781042Y-40280974D01*
X108902183Y-40513000D01*
X110109000Y-40513000D01*
X110109000Y-38227000D01*
X108902183Y-38227000D01*
X108781042Y-38459026D01*
X94964000Y-38459026D01*
X94964000Y-37740974D01*
X108781042Y-37740974D01*
X108902183Y-37973000D01*
X110109000Y-37973000D01*
X110109000Y-36765531D01*
X110363000Y-36765531D01*
X110363000Y-37973000D01*
X110383000Y-37973000D01*
X110383000Y-38227000D01*
X110363000Y-38227000D01*
X110363000Y-40513000D01*
X110383000Y-40513000D01*
X110383000Y-40767000D01*
X110363000Y-40767000D01*
X110363000Y-41974469D01*
X110595027Y-42094968D01*
X111087880Y-41863979D01*
X111262674Y-42135617D01*
X111559753Y-42338603D01*
X111912400Y-42410016D01*
X113639600Y-42410016D01*
X113969044Y-42348027D01*
X114271617Y-42153326D01*
X114474603Y-41856247D01*
X114546016Y-41503600D01*
X114546016Y-39776400D01*
X114484027Y-39446956D01*
X114289326Y-39144383D01*
X114214153Y-39093019D01*
X114429526Y-38770691D01*
X114562935Y-38100000D01*
X114429526Y-37429309D01*
X114300629Y-37236400D01*
X117457584Y-37236400D01*
X117457584Y-38963600D01*
X117519573Y-39293044D01*
X117714274Y-39595617D01*
X118002855Y-39792796D01*
X117775291Y-40265209D01*
X117772642Y-40280974D01*
X117893783Y-40513000D01*
X119253000Y-40513000D01*
X119253000Y-40493000D01*
X119507000Y-40493000D01*
X119507000Y-40513000D01*
X120866217Y-40513000D01*
X120987358Y-40280974D01*
X120984709Y-40265209D01*
X120755244Y-39788851D01*
X121028017Y-39613326D01*
X121231003Y-39316247D01*
X121302416Y-38963600D01*
X121302416Y-37236400D01*
X121252483Y-36971025D01*
X193268581Y-36971025D01*
X193385601Y-37253446D01*
X194049663Y-37505018D01*
X194759448Y-37483314D01*
X195314399Y-37253446D01*
X195431419Y-36971025D01*
X198268581Y-36971025D01*
X198385601Y-37253446D01*
X199049663Y-37505018D01*
X199759448Y-37483314D01*
X200314399Y-37253446D01*
X200431419Y-36971025D01*
X199350000Y-35889605D01*
X198268581Y-36971025D01*
X195431419Y-36971025D01*
X194350000Y-35889605D01*
X193268581Y-36971025D01*
X121252483Y-36971025D01*
X121240427Y-36906956D01*
X121045726Y-36604383D01*
X120748647Y-36401397D01*
X120396000Y-36329984D01*
X118364000Y-36329984D01*
X118034556Y-36391973D01*
X117731983Y-36586674D01*
X117528997Y-36883753D01*
X117457584Y-37236400D01*
X114300629Y-37236400D01*
X114049610Y-36860725D01*
X113481026Y-36480809D01*
X112810335Y-36347400D01*
X112741665Y-36347400D01*
X112070974Y-36480809D01*
X111502390Y-36860725D01*
X111330152Y-37118497D01*
X111124490Y-36893179D01*
X110595027Y-36645032D01*
X110363000Y-36765531D01*
X110109000Y-36765531D01*
X109876973Y-36645032D01*
X109347510Y-36893179D01*
X108953312Y-37325053D01*
X108781042Y-37740974D01*
X94964000Y-37740974D01*
X94964000Y-32473117D01*
X100610586Y-32473117D01*
X100973524Y-33351492D01*
X101644973Y-34024114D01*
X102522714Y-34388584D01*
X103473117Y-34389414D01*
X104351492Y-34026476D01*
X105024114Y-33355027D01*
X105320153Y-32642086D01*
X162961320Y-32642086D01*
X162961320Y-34256434D01*
X163124117Y-35074871D01*
X163587725Y-35768709D01*
X164281563Y-36232317D01*
X165100000Y-36395114D01*
X165918437Y-36232317D01*
X166612275Y-35768709D01*
X167075883Y-35074871D01*
X167238680Y-34256434D01*
X167238680Y-32642086D01*
X175661320Y-32642086D01*
X175661320Y-34256434D01*
X175824117Y-35074871D01*
X176287725Y-35768709D01*
X176981563Y-36232317D01*
X177800000Y-36395114D01*
X178618437Y-36232317D01*
X179312275Y-35768709D01*
X179552182Y-35409663D01*
X192554982Y-35409663D01*
X192576686Y-36119448D01*
X192806554Y-36674399D01*
X193088975Y-36791419D01*
X194170395Y-35710000D01*
X194529605Y-35710000D01*
X195611025Y-36791419D01*
X195893446Y-36674399D01*
X196145018Y-36010337D01*
X196126651Y-35409663D01*
X197554982Y-35409663D01*
X197576686Y-36119448D01*
X197806554Y-36674399D01*
X198088975Y-36791419D01*
X199170395Y-35710000D01*
X199529605Y-35710000D01*
X200611025Y-36791419D01*
X200893446Y-36674399D01*
X201145018Y-36010337D01*
X201139813Y-35840090D01*
X215519000Y-35840090D01*
X215519000Y-36544250D01*
X215677750Y-36703000D01*
X217043000Y-36703000D01*
X217043000Y-35490150D01*
X217297000Y-35490150D01*
X217297000Y-36703000D01*
X218662250Y-36703000D01*
X218821000Y-36544250D01*
X218821000Y-35840090D01*
X218724327Y-35606701D01*
X218545698Y-35428073D01*
X218312309Y-35331400D01*
X217455750Y-35331400D01*
X217297000Y-35490150D01*
X217043000Y-35490150D01*
X216884250Y-35331400D01*
X216027691Y-35331400D01*
X215794302Y-35428073D01*
X215615673Y-35606701D01*
X215519000Y-35840090D01*
X201139813Y-35840090D01*
X201123314Y-35300552D01*
X200893446Y-34745601D01*
X200611025Y-34628581D01*
X199529605Y-35710000D01*
X199170395Y-35710000D01*
X198088975Y-34628581D01*
X197806554Y-34745601D01*
X197554982Y-35409663D01*
X196126651Y-35409663D01*
X196123314Y-35300552D01*
X195893446Y-34745601D01*
X195611025Y-34628581D01*
X194529605Y-35710000D01*
X194170395Y-35710000D01*
X193088975Y-34628581D01*
X192806554Y-34745601D01*
X192554982Y-35409663D01*
X179552182Y-35409663D01*
X179775883Y-35074871D01*
X179900381Y-34448975D01*
X193268581Y-34448975D01*
X194350000Y-35530395D01*
X195431419Y-34448975D01*
X198268581Y-34448975D01*
X199350000Y-35530395D01*
X200431419Y-34448975D01*
X200314399Y-34166554D01*
X199650337Y-33914982D01*
X198940552Y-33936686D01*
X198385601Y-34166554D01*
X198268581Y-34448975D01*
X195431419Y-34448975D01*
X195314399Y-34166554D01*
X194650337Y-33914982D01*
X193940552Y-33936686D01*
X193385601Y-34166554D01*
X193268581Y-34448975D01*
X179900381Y-34448975D01*
X179938680Y-34256434D01*
X179938680Y-32642086D01*
X179905071Y-32473117D01*
X225610586Y-32473117D01*
X225973524Y-33351492D01*
X226644973Y-34024114D01*
X227522714Y-34388584D01*
X228473117Y-34389414D01*
X229351492Y-34026476D01*
X230024114Y-33355027D01*
X230388584Y-32477286D01*
X230389414Y-31526883D01*
X230026476Y-30648508D01*
X229355027Y-29975886D01*
X228477286Y-29611416D01*
X227526883Y-29610586D01*
X226648508Y-29973524D01*
X225975886Y-30644973D01*
X225611416Y-31522714D01*
X225610586Y-32473117D01*
X179905071Y-32473117D01*
X179775883Y-31823649D01*
X179312275Y-31129811D01*
X178618437Y-30666203D01*
X177800000Y-30503406D01*
X176981563Y-30666203D01*
X176287725Y-31129811D01*
X175824117Y-31823649D01*
X175661320Y-32642086D01*
X167238680Y-32642086D01*
X167075883Y-31823649D01*
X166612275Y-31129811D01*
X165918437Y-30666203D01*
X165100000Y-30503406D01*
X164281563Y-30666203D01*
X163587725Y-31129811D01*
X163124117Y-31823649D01*
X162961320Y-32642086D01*
X105320153Y-32642086D01*
X105388584Y-32477286D01*
X105389414Y-31526883D01*
X105026476Y-30648508D01*
X104355027Y-29975886D01*
X103477286Y-29611416D01*
X102526883Y-29610586D01*
X101648508Y-29973524D01*
X100975886Y-30644973D01*
X100611416Y-31522714D01*
X100610586Y-32473117D01*
X94964000Y-32473117D01*
X94964000Y-28964000D01*
X234036000Y-28964000D01*
X234036000Y-54855309D01*
X234036000Y-54855309D01*
G37*
X234036000Y-54855309D02*
X232719148Y-55095546D01*
X232701341Y-54614623D01*
X232498965Y-54126042D01*
X232232163Y-54027443D01*
X231259605Y-55000000D01*
X231273748Y-55014143D01*
X231094143Y-55193748D01*
X231080000Y-55179605D01*
X231065858Y-55193748D01*
X230886253Y-55014143D01*
X230900395Y-55000000D01*
X229927837Y-54027443D01*
X229661035Y-54126042D01*
X229434599Y-54735582D01*
X229458659Y-55385377D01*
X229576113Y-55668937D01*
X212022777Y-58871235D01*
X214066265Y-56827747D01*
X214092595Y-56838680D01*
X214824195Y-56839318D01*
X215384653Y-56607742D01*
X215400274Y-56632017D01*
X215697353Y-56835003D01*
X216050000Y-56906416D01*
X217950000Y-56906416D01*
X218279444Y-56844427D01*
X218582017Y-56649726D01*
X218785003Y-56352647D01*
X218856416Y-56000000D01*
X218856416Y-55373996D01*
X219031183Y-55373996D01*
X219318082Y-56068346D01*
X219848859Y-56600051D01*
X220542708Y-56888162D01*
X221293996Y-56888817D01*
X221988346Y-56601918D01*
X222520051Y-56071141D01*
X222808162Y-55377292D01*
X222808817Y-54626004D01*
X222521918Y-53931654D01*
X222438248Y-53847837D01*
X230107443Y-53847837D01*
X231080000Y-54820395D01*
X232052557Y-53847837D01*
X231953958Y-53581035D01*
X231344418Y-53354599D01*
X230694623Y-53378659D01*
X230206042Y-53581035D01*
X230107443Y-53847837D01*
X222438248Y-53847837D01*
X221991141Y-53399949D01*
X221297292Y-53111838D01*
X220546004Y-53111183D01*
X219851654Y-53398082D01*
X219319949Y-53928859D01*
X219031838Y-54622708D01*
X219031183Y-55373996D01*
X218856416Y-55373996D01*
X218856416Y-54000000D01*
X218794427Y-53670556D01*
X218599726Y-53367983D01*
X218302647Y-53164997D01*
X217950000Y-53093584D01*
X216050000Y-53093584D01*
X215720556Y-53155573D01*
X215417983Y-53350274D01*
X215388030Y-53394112D01*
X214827405Y-53161320D01*
X214095805Y-53160682D01*
X213419651Y-53440063D01*
X212901881Y-53956930D01*
X212621320Y-54632595D01*
X212620682Y-55364195D01*
X212632702Y-55393286D01*
X208514781Y-59511207D01*
X206131473Y-59946000D01*
X190396492Y-59946000D01*
X189975544Y-59771207D01*
X189502531Y-59770794D01*
X189065365Y-59951427D01*
X188730603Y-60285606D01*
X188549207Y-60722456D01*
X188548794Y-61195469D01*
X188729427Y-61632635D01*
X189063606Y-61967397D01*
X189500456Y-62148793D01*
X189973469Y-62149206D01*
X190397501Y-61974000D01*
X196977000Y-61974000D01*
X196977000Y-64322560D01*
X196217000Y-64322560D01*
X196217000Y-65943000D01*
X196237000Y-65943000D01*
X196237000Y-66197000D01*
X196217000Y-66197000D01*
X196217000Y-67817440D01*
X196977000Y-67817440D01*
X196977000Y-80772000D01*
X196987006Y-80821410D01*
X197015447Y-80863035D01*
X197062278Y-80891951D01*
X208746278Y-84955951D01*
X208796233Y-84962733D01*
X208838028Y-84952731D01*
X211489964Y-83816187D01*
X226457277Y-83816187D01*
X226473503Y-84665387D01*
X226767261Y-85374582D01*
X227086030Y-85534365D01*
X228420395Y-84200000D01*
X228779605Y-84200000D01*
X230113970Y-85534365D01*
X230432739Y-85374582D01*
X230742723Y-84583813D01*
X230726497Y-83734613D01*
X230432739Y-83025418D01*
X230113970Y-82865635D01*
X228779605Y-84200000D01*
X228420395Y-84200000D01*
X227086030Y-82865635D01*
X226767261Y-83025418D01*
X226457277Y-83816187D01*
X211489964Y-83816187D01*
X214126997Y-82686030D01*
X227265635Y-82686030D01*
X228600000Y-84020395D01*
X229934365Y-82686030D01*
X229774582Y-82367261D01*
X228983813Y-82057277D01*
X228134613Y-82073503D01*
X227425418Y-82367261D01*
X227265635Y-82686030D01*
X214126997Y-82686030D01*
X219482067Y-80391000D01*
X220355000Y-80391000D01*
X220355000Y-81446310D01*
X220451673Y-81679699D01*
X220630302Y-81858327D01*
X220863691Y-81955000D01*
X221804250Y-81955000D01*
X221963000Y-81796250D01*
X221963000Y-80391000D01*
X222217000Y-80391000D01*
X222217000Y-81796250D01*
X222375750Y-81955000D01*
X223316309Y-81955000D01*
X223549698Y-81858327D01*
X223728327Y-81679699D01*
X223825000Y-81446310D01*
X223825000Y-80391000D01*
X231521000Y-80391000D01*
X231521000Y-86741000D01*
X222504000Y-86741000D01*
X222454590Y-86751006D01*
X222412965Y-86779447D01*
X222385685Y-86821841D01*
X222377000Y-86868000D01*
X222377000Y-124036000D01*
X202518012Y-124036000D01*
X203409006Y-123145006D01*
X203628814Y-122816041D01*
X203706000Y-122428000D01*
X203706000Y-118137134D01*
X203931275Y-117986610D01*
X203962000Y-117940627D01*
X203992725Y-117986610D01*
X204561309Y-118366526D01*
X205232000Y-118499935D01*
X205902691Y-118366526D01*
X206471275Y-117986610D01*
X206851191Y-117418026D01*
X206984600Y-116747335D01*
X206984600Y-116678665D01*
X206851191Y-116007974D01*
X206519164Y-115511061D01*
X206633927Y-115396298D01*
X206730600Y-115162909D01*
X206730600Y-114458750D01*
X206571850Y-114300000D01*
X205359000Y-114300000D01*
X205359000Y-114320000D01*
X205105000Y-114320000D01*
X205105000Y-114300000D01*
X205085000Y-114300000D01*
X205085000Y-114046000D01*
X205105000Y-114046000D01*
X205105000Y-114026000D01*
X205359000Y-114026000D01*
X205359000Y-114046000D01*
X206571850Y-114046000D01*
X206730600Y-113887250D01*
X206730600Y-113183091D01*
X206633927Y-112949702D01*
X206455299Y-112771073D01*
X206221910Y-112674400D01*
X205653586Y-112674400D01*
X205949006Y-112477006D01*
X207938012Y-110488000D01*
X208483400Y-110488000D01*
X208867563Y-110872834D01*
X209474155Y-111124713D01*
X210130963Y-111125286D01*
X210737995Y-110874466D01*
X211202834Y-110410437D01*
X211454713Y-109803845D01*
X211455286Y-109147037D01*
X211204466Y-108540005D01*
X210868868Y-108203821D01*
X211125136Y-107948000D01*
X211328000Y-107948000D01*
X211716041Y-107870814D01*
X212045006Y-107651006D01*
X212807006Y-106889006D01*
X213026814Y-106560041D01*
X213104000Y-106172000D01*
X213104000Y-102208373D01*
X213158346Y-102185918D01*
X213690051Y-101655141D01*
X213978162Y-100961292D01*
X213978817Y-100210004D01*
X213691918Y-99515654D01*
X213161141Y-98983949D01*
X212467292Y-98695838D01*
X211716004Y-98695183D01*
X211021654Y-98982082D01*
X210489949Y-99512859D01*
X210201838Y-100206708D01*
X210201183Y-100957996D01*
X210488082Y-101652346D01*
X211018859Y-102184051D01*
X211076000Y-102207778D01*
X211076000Y-103782609D01*
X211026397Y-103662857D01*
X210784213Y-103593392D01*
X209983605Y-104394000D01*
X210784213Y-105194608D01*
X211026397Y-105125143D01*
X211076000Y-104986108D01*
X211076000Y-105751988D01*
X211016389Y-105811599D01*
X210740437Y-105535166D01*
X210577811Y-105467638D01*
X210604608Y-105374213D01*
X209804000Y-104573605D01*
X209003392Y-105374213D01*
X209030114Y-105467378D01*
X208870005Y-105533534D01*
X208405166Y-105997563D01*
X208153287Y-106604155D01*
X208152714Y-107260963D01*
X208403534Y-107867995D01*
X208739132Y-108204179D01*
X208482864Y-108460000D01*
X207518000Y-108460000D01*
X207129959Y-108537186D01*
X206800994Y-108756994D01*
X206375033Y-109182955D01*
X206375286Y-108893037D01*
X206124466Y-108286005D01*
X205788868Y-107949821D01*
X206045136Y-107694000D01*
X206756000Y-107694000D01*
X207144041Y-107616814D01*
X207473006Y-107397006D01*
X207727006Y-107143006D01*
X207946814Y-106814041D01*
X207949615Y-106799959D01*
X208024000Y-106426000D01*
X208024000Y-104186302D01*
X208394856Y-104186302D01*
X208422638Y-104741368D01*
X208581603Y-105125143D01*
X208823787Y-105194608D01*
X209624395Y-104394000D01*
X208823787Y-103593392D01*
X208581603Y-103662857D01*
X208394856Y-104186302D01*
X208024000Y-104186302D01*
X208024000Y-103413787D01*
X209003392Y-103413787D01*
X209804000Y-104214395D01*
X210604608Y-103413787D01*
X210535143Y-103171603D01*
X210011698Y-102984856D01*
X209456632Y-103012638D01*
X209072857Y-103171603D01*
X209003392Y-103413787D01*
X208024000Y-103413787D01*
X208024000Y-98652373D01*
X208078346Y-98629918D01*
X208610051Y-98099141D01*
X208898162Y-97405292D01*
X208898817Y-96654004D01*
X208611918Y-95959654D01*
X208081141Y-95427949D01*
X207387292Y-95139838D01*
X206636004Y-95139183D01*
X205941654Y-95426082D01*
X205409949Y-95956859D01*
X205121838Y-96650708D01*
X205121183Y-97401996D01*
X205408082Y-98096346D01*
X205938859Y-98628051D01*
X205996000Y-98651778D01*
X205996000Y-103528609D01*
X205946397Y-103408857D01*
X205704213Y-103339392D01*
X204903605Y-104140000D01*
X205704213Y-104940608D01*
X205946397Y-104871143D01*
X205996000Y-104732108D01*
X205996000Y-105617315D01*
X205660437Y-105281166D01*
X205497811Y-105213638D01*
X205524608Y-105120213D01*
X204724000Y-104319605D01*
X203923392Y-105120213D01*
X203950114Y-105213378D01*
X203790005Y-105279534D01*
X203325166Y-105743563D01*
X203073287Y-106350155D01*
X203072714Y-107006963D01*
X203323534Y-107613995D01*
X203659132Y-107950179D01*
X203325166Y-108283563D01*
X203073287Y-108890155D01*
X203072714Y-109546963D01*
X203152040Y-109738947D01*
X200446369Y-112444619D01*
X200396118Y-112434623D01*
X200404000Y-112395000D01*
X200404000Y-110540600D01*
X200788834Y-110156437D01*
X201040713Y-109549845D01*
X201041286Y-108893037D01*
X200790466Y-108286005D01*
X200454868Y-107949821D01*
X200788834Y-107616437D01*
X201040713Y-107009845D01*
X201041286Y-106353037D01*
X200790466Y-105746005D01*
X200326437Y-105281166D01*
X200163811Y-105213638D01*
X200190608Y-105120213D01*
X199390000Y-104319605D01*
X199375858Y-104333748D01*
X199196253Y-104154143D01*
X199210395Y-104140000D01*
X199569605Y-104140000D01*
X200370213Y-104940608D01*
X200612397Y-104871143D01*
X200799144Y-104347698D01*
X200778353Y-103932302D01*
X203314856Y-103932302D01*
X203342638Y-104487368D01*
X203501603Y-104871143D01*
X203743787Y-104940608D01*
X204544395Y-104140000D01*
X203743787Y-103339392D01*
X203501603Y-103408857D01*
X203314856Y-103932302D01*
X200778353Y-103932302D01*
X200771362Y-103792632D01*
X200612397Y-103408857D01*
X200370213Y-103339392D01*
X199569605Y-104140000D01*
X199210395Y-104140000D01*
X199196253Y-104125858D01*
X199375858Y-103946253D01*
X199390000Y-103960395D01*
X200190608Y-103159787D01*
X203923392Y-103159787D01*
X204724000Y-103960395D01*
X205524608Y-103159787D01*
X205455143Y-102917603D01*
X204931698Y-102730856D01*
X204376632Y-102758638D01*
X203992857Y-102917603D01*
X203923392Y-103159787D01*
X200190608Y-103159787D01*
X200121143Y-102917603D01*
X199597698Y-102730856D01*
X199042632Y-102758638D01*
X198658857Y-102917603D01*
X198626000Y-103032156D01*
X198626000Y-102472268D01*
X199255996Y-102472817D01*
X199950346Y-102185918D01*
X200406330Y-101730730D01*
X200858859Y-102184051D01*
X201552708Y-102472162D01*
X202303996Y-102472817D01*
X202998346Y-102185918D01*
X203530051Y-101655141D01*
X203818162Y-100961292D01*
X203818817Y-100210004D01*
X203531918Y-99515654D01*
X203001141Y-98983949D01*
X202307292Y-98695838D01*
X201556004Y-98695183D01*
X200861654Y-98982082D01*
X200405670Y-99437270D01*
X199953141Y-98983949D01*
X199259292Y-98695838D01*
X198508004Y-98695183D01*
X197813654Y-98982082D01*
X197281949Y-99512859D01*
X197102000Y-99946225D01*
X197102000Y-99314000D01*
X197024814Y-98925959D01*
X197018586Y-98916638D01*
X197223996Y-98916817D01*
X197918346Y-98629918D01*
X198450051Y-98099141D01*
X198738162Y-97405292D01*
X198738817Y-96654004D01*
X198451918Y-95959654D01*
X197921141Y-95427949D01*
X197227292Y-95139838D01*
X196476004Y-95139183D01*
X195781654Y-95426082D01*
X195325670Y-95881270D01*
X194873141Y-95427949D01*
X194179292Y-95139838D01*
X193428004Y-95139183D01*
X192733654Y-95426082D01*
X192201949Y-95956859D01*
X191913838Y-96650708D01*
X191913183Y-97401996D01*
X192200082Y-98096346D01*
X192730859Y-98628051D01*
X193424708Y-98916162D01*
X194175996Y-98916817D01*
X194233178Y-98893190D01*
X195074000Y-99734012D01*
X195074000Y-103350230D01*
X195036213Y-103339392D01*
X194235605Y-104140000D01*
X194249748Y-104154143D01*
X194070143Y-104333748D01*
X194056000Y-104319605D01*
X193255392Y-105120213D01*
X193282114Y-105213378D01*
X193122005Y-105279534D01*
X192657166Y-105743563D01*
X192405287Y-106350155D01*
X192404714Y-107006963D01*
X192655534Y-107613995D01*
X192991132Y-107950179D01*
X192657166Y-108283563D01*
X192405287Y-108890155D01*
X192404714Y-109546963D01*
X192655534Y-110153995D01*
X193042000Y-110541136D01*
X193042000Y-110581988D01*
X190963006Y-108502994D01*
X190634041Y-108283186D01*
X190246000Y-108206000D01*
X190042600Y-108206000D01*
X189786868Y-107949821D01*
X190120834Y-107616437D01*
X190372713Y-107009845D01*
X190373286Y-106353037D01*
X190122466Y-105746005D01*
X189658437Y-105281166D01*
X189495811Y-105213638D01*
X189522608Y-105120213D01*
X188722000Y-104319605D01*
X187921392Y-105120213D01*
X187948114Y-105213378D01*
X187788005Y-105279534D01*
X187400864Y-105666000D01*
X186282373Y-105666000D01*
X186259918Y-105611654D01*
X185729141Y-105079949D01*
X185035292Y-104791838D01*
X184284004Y-104791183D01*
X183589654Y-105078082D01*
X183057949Y-105608859D01*
X182769838Y-106302708D01*
X182769183Y-107053996D01*
X183056082Y-107748346D01*
X183586859Y-108280051D01*
X184280708Y-108568162D01*
X185031996Y-108568817D01*
X185726346Y-108281918D01*
X186258051Y-107751141D01*
X186281778Y-107694000D01*
X187401400Y-107694000D01*
X187657132Y-107950179D01*
X187323166Y-108283563D01*
X187071287Y-108890155D01*
X187070714Y-109546963D01*
X187321534Y-110153995D01*
X187785563Y-110618834D01*
X188392155Y-110870713D01*
X189048963Y-110871286D01*
X189655995Y-110620466D01*
X189934467Y-110342479D01*
X191518000Y-111926012D01*
X191518000Y-112748866D01*
X191292725Y-112899390D01*
X191262000Y-112945373D01*
X191231275Y-112899390D01*
X190662691Y-112519474D01*
X189992000Y-112386065D01*
X189321309Y-112519474D01*
X188752725Y-112899390D01*
X188722000Y-112945373D01*
X188691275Y-112899390D01*
X188122691Y-112519474D01*
X187452000Y-112386065D01*
X186781309Y-112519474D01*
X186212725Y-112899390D01*
X186182000Y-112945373D01*
X186151275Y-112899390D01*
X185582691Y-112519474D01*
X184912000Y-112386065D01*
X184241309Y-112519474D01*
X183672725Y-112899390D01*
X183642000Y-112945373D01*
X183611275Y-112899390D01*
X183042691Y-112519474D01*
X182372000Y-112386065D01*
X181701309Y-112519474D01*
X181132725Y-112899390D01*
X181102000Y-112945373D01*
X181071275Y-112899390D01*
X180502691Y-112519474D01*
X179832000Y-112386065D01*
X179161309Y-112519474D01*
X178592725Y-112899390D01*
X178562000Y-112945373D01*
X178531275Y-112899390D01*
X177962691Y-112519474D01*
X177292000Y-112386065D01*
X176621309Y-112519474D01*
X176052725Y-112899390D01*
X176022000Y-112945373D01*
X175991275Y-112899390D01*
X175422691Y-112519474D01*
X174752000Y-112386065D01*
X174081309Y-112519474D01*
X173512725Y-112899390D01*
X173132809Y-113467974D01*
X172999400Y-114138665D01*
X172999400Y-114207335D01*
X173132809Y-114878026D01*
X173512725Y-115446610D01*
X173770497Y-115618848D01*
X173545179Y-115824510D01*
X173297032Y-116353973D01*
X173417531Y-116586000D01*
X174625000Y-116586000D01*
X174625000Y-116566000D01*
X174879000Y-116566000D01*
X174879000Y-116586000D01*
X174899000Y-116586000D01*
X174899000Y-116840000D01*
X174879000Y-116840000D01*
X174879000Y-116860000D01*
X174625000Y-116860000D01*
X174625000Y-116840000D01*
X173417531Y-116840000D01*
X173297032Y-117072027D01*
X173427311Y-117350000D01*
X165352000Y-117350000D01*
X165352000Y-117348000D01*
X165274814Y-116959959D01*
X165055006Y-116630994D01*
X164726041Y-116411186D01*
X164338000Y-116334000D01*
X157367820Y-116334000D01*
X157377501Y-116330000D01*
X168656000Y-116330000D01*
X169044041Y-116252814D01*
X169373006Y-116033006D01*
X169592814Y-115704041D01*
X169670000Y-115316000D01*
X169670000Y-112012000D01*
X169672000Y-112012000D01*
X170060041Y-111934814D01*
X170389006Y-111715006D01*
X171405006Y-110699006D01*
X171624814Y-110370041D01*
X171702000Y-109982000D01*
X171702000Y-109980000D01*
X175768000Y-109980000D01*
X176156041Y-109902814D01*
X176485006Y-109683006D01*
X176704814Y-109354041D01*
X176782000Y-108966000D01*
X176782000Y-108624012D01*
X181473710Y-103932302D01*
X187312856Y-103932302D01*
X187340638Y-104487368D01*
X187499603Y-104871143D01*
X187741787Y-104940608D01*
X188542395Y-104140000D01*
X188901605Y-104140000D01*
X189702213Y-104940608D01*
X189944397Y-104871143D01*
X190131144Y-104347698D01*
X190110353Y-103932302D01*
X192646856Y-103932302D01*
X192674638Y-104487368D01*
X192833603Y-104871143D01*
X193075787Y-104940608D01*
X193876395Y-104140000D01*
X193075787Y-103339392D01*
X192833603Y-103408857D01*
X192646856Y-103932302D01*
X190110353Y-103932302D01*
X190103362Y-103792632D01*
X189944397Y-103408857D01*
X189702213Y-103339392D01*
X188901605Y-104140000D01*
X188542395Y-104140000D01*
X187741787Y-103339392D01*
X187499603Y-103408857D01*
X187312856Y-103932302D01*
X181473710Y-103932302D01*
X182246225Y-103159787D01*
X187921392Y-103159787D01*
X188722000Y-103960395D01*
X189522608Y-103159787D01*
X193255392Y-103159787D01*
X194056000Y-103960395D01*
X194856608Y-103159787D01*
X194787143Y-102917603D01*
X194263698Y-102730856D01*
X193708632Y-102758638D01*
X193324857Y-102917603D01*
X193255392Y-103159787D01*
X189522608Y-103159787D01*
X189453143Y-102917603D01*
X188929698Y-102730856D01*
X188374632Y-102758638D01*
X187990857Y-102917603D01*
X187921392Y-103159787D01*
X182246225Y-103159787D01*
X183808013Y-101598000D01*
X187097627Y-101598000D01*
X187120082Y-101652346D01*
X187650859Y-102184051D01*
X188344708Y-102472162D01*
X189095996Y-102472817D01*
X189790346Y-102185918D01*
X190322051Y-101655141D01*
X190610162Y-100961292D01*
X190610817Y-100210004D01*
X190323918Y-99515654D01*
X189793141Y-98983949D01*
X189099292Y-98695838D01*
X188348004Y-98695183D01*
X187653654Y-98982082D01*
X187121949Y-99512859D01*
X187098222Y-99570000D01*
X183388000Y-99570000D01*
X182999959Y-99647186D01*
X182670993Y-99866994D01*
X181858926Y-100679061D01*
X181856573Y-100673365D01*
X181522394Y-100338603D01*
X181085544Y-100157207D01*
X180612531Y-100156794D01*
X180188499Y-100332000D01*
X171196000Y-100332000D01*
X170807959Y-100409186D01*
X170478994Y-100628994D01*
X170259186Y-100957959D01*
X170182000Y-101346000D01*
X170182000Y-104396000D01*
X157122492Y-104396000D01*
X156701544Y-104221207D01*
X156228531Y-104220794D01*
X155791365Y-104401427D01*
X155456603Y-104735606D01*
X155275207Y-105172456D01*
X155274794Y-105645469D01*
X155283277Y-105666000D01*
X137414000Y-105666000D01*
X137025959Y-105743186D01*
X136696994Y-105962994D01*
X136442994Y-106216994D01*
X136223186Y-106545959D01*
X136146000Y-106934000D01*
X136146000Y-111254000D01*
X122934000Y-111254000D01*
X122934000Y-108309026D01*
X130625042Y-108309026D01*
X130797312Y-108724947D01*
X131191510Y-109156821D01*
X131720973Y-109404968D01*
X131953000Y-109284469D01*
X131953000Y-108077000D01*
X132207000Y-108077000D01*
X132207000Y-109284469D01*
X132439027Y-109404968D01*
X132968490Y-109156821D01*
X133350000Y-108738848D01*
X133731510Y-109156821D01*
X134260973Y-109404968D01*
X134493000Y-109284469D01*
X134493000Y-108077000D01*
X134747000Y-108077000D01*
X134747000Y-109284469D01*
X134979027Y-109404968D01*
X135508490Y-109156821D01*
X135902688Y-108724947D01*
X136074958Y-108309026D01*
X135953817Y-108077000D01*
X134747000Y-108077000D01*
X134493000Y-108077000D01*
X132207000Y-108077000D01*
X131953000Y-108077000D01*
X130746183Y-108077000D01*
X130625042Y-108309026D01*
X122934000Y-108309026D01*
X122934000Y-100428117D01*
X123574708Y-100694162D01*
X124325996Y-100694817D01*
X125020346Y-100407918D01*
X125552051Y-99877141D01*
X125840162Y-99183292D01*
X125840817Y-98432004D01*
X125817190Y-98374822D01*
X126150012Y-98042000D01*
X130302000Y-98042000D01*
X130341623Y-98034118D01*
X130426474Y-98460691D01*
X130806390Y-99029275D01*
X130852373Y-99060000D01*
X130806390Y-99090725D01*
X130426474Y-99659309D01*
X130293065Y-100330000D01*
X130426474Y-101000691D01*
X130806390Y-101569275D01*
X130852373Y-101600000D01*
X130806390Y-101630725D01*
X130426474Y-102199309D01*
X130293065Y-102870000D01*
X130426474Y-103540691D01*
X130806390Y-104109275D01*
X130852373Y-104140000D01*
X130806390Y-104170725D01*
X130426474Y-104739309D01*
X130293065Y-105410000D01*
X130426474Y-106080691D01*
X130806390Y-106649275D01*
X131098853Y-106844692D01*
X130797312Y-107175053D01*
X130625042Y-107590974D01*
X130746183Y-107823000D01*
X131953000Y-107823000D01*
X131953000Y-107803000D01*
X132207000Y-107803000D01*
X132207000Y-107823000D01*
X134493000Y-107823000D01*
X134493000Y-107803000D01*
X134747000Y-107803000D01*
X134747000Y-107823000D01*
X135953817Y-107823000D01*
X136074958Y-107590974D01*
X135902688Y-107175053D01*
X135601147Y-106844692D01*
X135893610Y-106649275D01*
X136273526Y-106080691D01*
X136406935Y-105410000D01*
X136273526Y-104739309D01*
X135893610Y-104170725D01*
X135847627Y-104140000D01*
X135893610Y-104109275D01*
X136273526Y-103540691D01*
X136406935Y-102870000D01*
X136273526Y-102199309D01*
X135893610Y-101630725D01*
X135847627Y-101600000D01*
X135893610Y-101569275D01*
X136273526Y-101000691D01*
X136406935Y-100330000D01*
X136273526Y-99659309D01*
X135893610Y-99090725D01*
X135847627Y-99060000D01*
X135893610Y-99029275D01*
X136044134Y-98804000D01*
X136993988Y-98804000D01*
X137654913Y-99464925D01*
X137557838Y-99698708D01*
X137557183Y-100449996D01*
X137844082Y-101144346D01*
X138374859Y-101676051D01*
X139068708Y-101964162D01*
X139646654Y-101964666D01*
X141014994Y-103333006D01*
X141343959Y-103552814D01*
X141732000Y-103630000D01*
X159107508Y-103630000D01*
X159528456Y-103804793D01*
X160001469Y-103805206D01*
X160438635Y-103624573D01*
X160773397Y-103290394D01*
X160954793Y-102853544D01*
X160955206Y-102380531D01*
X160774573Y-101943365D01*
X160440394Y-101608603D01*
X160003544Y-101427207D01*
X159530531Y-101426794D01*
X159106499Y-101602000D01*
X150750397Y-101602000D01*
X151206051Y-101147141D01*
X151494162Y-100453292D01*
X151494522Y-100040213D01*
X153123392Y-100040213D01*
X153192857Y-100282397D01*
X153716302Y-100469144D01*
X154271368Y-100441362D01*
X154655143Y-100282397D01*
X154724608Y-100040213D01*
X153924000Y-99239605D01*
X153123392Y-100040213D01*
X151494522Y-100040213D01*
X151494817Y-99702004D01*
X151207918Y-99007654D01*
X151052838Y-98852302D01*
X152514856Y-98852302D01*
X152542638Y-99407368D01*
X152701603Y-99791143D01*
X152943787Y-99860608D01*
X153744395Y-99060000D01*
X154103605Y-99060000D01*
X154904213Y-99860608D01*
X154997378Y-99833886D01*
X155063534Y-99993995D01*
X155527563Y-100458834D01*
X156134155Y-100710713D01*
X156790963Y-100711286D01*
X157397995Y-100460466D01*
X157734179Y-100124868D01*
X158067563Y-100458834D01*
X158674155Y-100710713D01*
X159330963Y-100711286D01*
X159937995Y-100460466D01*
X160402834Y-99996437D01*
X160654713Y-99389845D01*
X160655286Y-98733037D01*
X160404466Y-98126005D01*
X159940437Y-97661166D01*
X159333845Y-97409287D01*
X158677037Y-97408714D01*
X158070005Y-97659534D01*
X157733821Y-97995132D01*
X157400437Y-97661166D01*
X156793845Y-97409287D01*
X156137037Y-97408714D01*
X155530005Y-97659534D01*
X155065166Y-98123563D01*
X154997638Y-98286189D01*
X154904213Y-98259392D01*
X154103605Y-99060000D01*
X153744395Y-99060000D01*
X152943787Y-98259392D01*
X152701603Y-98328857D01*
X152514856Y-98852302D01*
X151052838Y-98852302D01*
X150677141Y-98475949D01*
X149983292Y-98187838D01*
X149232004Y-98187183D01*
X148537654Y-98474082D01*
X148005949Y-99004859D01*
X147717838Y-99698708D01*
X147717183Y-100449996D01*
X148004082Y-101144346D01*
X148460937Y-101602000D01*
X142152012Y-101602000D01*
X141237087Y-100687075D01*
X141334162Y-100453292D01*
X141334817Y-99702004D01*
X141047918Y-99007654D01*
X140517141Y-98475949D01*
X139823292Y-98187838D01*
X139245346Y-98187334D01*
X139137799Y-98079787D01*
X153123392Y-98079787D01*
X153924000Y-98880395D01*
X154724608Y-98079787D01*
X154655143Y-97837603D01*
X154131698Y-97650856D01*
X153576632Y-97678638D01*
X153192857Y-97837603D01*
X153123392Y-98079787D01*
X139137799Y-98079787D01*
X138460008Y-97401996D01*
X181753183Y-97401996D01*
X182040082Y-98096346D01*
X182570859Y-98628051D01*
X183264708Y-98916162D01*
X184015996Y-98916817D01*
X184710346Y-98629918D01*
X185242051Y-98099141D01*
X185530162Y-97405292D01*
X185530817Y-96654004D01*
X185243918Y-95959654D01*
X184713141Y-95427949D01*
X184019292Y-95139838D01*
X183268004Y-95139183D01*
X182573654Y-95426082D01*
X182041949Y-95956859D01*
X181753838Y-96650708D01*
X181753183Y-97401996D01*
X138460008Y-97401996D01*
X138338012Y-97280000D01*
X179070000Y-97280000D01*
X179458041Y-97202814D01*
X179787006Y-96983006D01*
X180083380Y-96686632D01*
X180504635Y-96512573D01*
X180839397Y-96178394D01*
X181020793Y-95741544D01*
X181021206Y-95268531D01*
X180840573Y-94831365D01*
X180506394Y-94496603D01*
X180069544Y-94315207D01*
X179596531Y-94314794D01*
X179159365Y-94495427D01*
X178824603Y-94829606D01*
X178649210Y-95252000D01*
X150243354Y-95252000D01*
X150674346Y-95073918D01*
X151206051Y-94543141D01*
X151243807Y-94452213D01*
X153123392Y-94452213D01*
X153192857Y-94694397D01*
X153716302Y-94881144D01*
X154271368Y-94853362D01*
X154655143Y-94694397D01*
X154724608Y-94452213D01*
X153924000Y-93651605D01*
X153123392Y-94452213D01*
X151243807Y-94452213D01*
X151494162Y-93849292D01*
X151494672Y-93264302D01*
X152514856Y-93264302D01*
X152542638Y-93819368D01*
X152701603Y-94203143D01*
X152943787Y-94272608D01*
X153744395Y-93472000D01*
X154103605Y-93472000D01*
X154904213Y-94272608D01*
X154997378Y-94245886D01*
X155063534Y-94405995D01*
X155527563Y-94870834D01*
X156134155Y-95122713D01*
X156790963Y-95123286D01*
X157397995Y-94872466D01*
X157734179Y-94536868D01*
X158067563Y-94870834D01*
X158674155Y-95122713D01*
X159330963Y-95123286D01*
X159937995Y-94872466D01*
X160325136Y-94486000D01*
X160885508Y-94486000D01*
X161306456Y-94660793D01*
X161779469Y-94661206D01*
X162216635Y-94480573D01*
X162551397Y-94146394D01*
X162732793Y-93709544D01*
X162733206Y-93236531D01*
X162552573Y-92799365D01*
X162218394Y-92464603D01*
X161781544Y-92283207D01*
X161308531Y-92282794D01*
X160884499Y-92458000D01*
X160324600Y-92458000D01*
X159940437Y-92073166D01*
X159333845Y-91821287D01*
X158677037Y-91820714D01*
X158070005Y-92071534D01*
X157733821Y-92407132D01*
X157400437Y-92073166D01*
X156793845Y-91821287D01*
X156137037Y-91820714D01*
X155530005Y-92071534D01*
X155065166Y-92535563D01*
X154997638Y-92698189D01*
X154904213Y-92671392D01*
X154103605Y-93472000D01*
X153744395Y-93472000D01*
X152943787Y-92671392D01*
X152701603Y-92740857D01*
X152514856Y-93264302D01*
X151494672Y-93264302D01*
X151494817Y-93098004D01*
X151244334Y-92491787D01*
X153123392Y-92491787D01*
X153924000Y-93292395D01*
X154724608Y-92491787D01*
X154655143Y-92249603D01*
X154131698Y-92062856D01*
X153576632Y-92090638D01*
X153192857Y-92249603D01*
X153123392Y-92491787D01*
X151244334Y-92491787D01*
X151207918Y-92403654D01*
X150677141Y-91871949D01*
X150554999Y-91821231D01*
X150674346Y-91771918D01*
X151206051Y-91241141D01*
X151494162Y-90547292D01*
X151494817Y-89796004D01*
X151207918Y-89101654D01*
X150970892Y-88864213D01*
X153123392Y-88864213D01*
X153192857Y-89106397D01*
X153716302Y-89293144D01*
X154271368Y-89265362D01*
X154655143Y-89106397D01*
X154724608Y-88864213D01*
X153924000Y-88063605D01*
X153123392Y-88864213D01*
X150970892Y-88864213D01*
X150677141Y-88569949D01*
X150554999Y-88519231D01*
X150674346Y-88469918D01*
X151206051Y-87939141D01*
X151315191Y-87676302D01*
X152514856Y-87676302D01*
X152542638Y-88231368D01*
X152701603Y-88615143D01*
X152943787Y-88684608D01*
X153744395Y-87884000D01*
X154103605Y-87884000D01*
X154904213Y-88684608D01*
X154997378Y-88657886D01*
X155063534Y-88817995D01*
X155527563Y-89282834D01*
X156134155Y-89534713D01*
X156790963Y-89535286D01*
X157397995Y-89284466D01*
X157734179Y-88948868D01*
X158067563Y-89282834D01*
X158674155Y-89534713D01*
X159330963Y-89535286D01*
X159937995Y-89284466D01*
X160325136Y-88898000D01*
X161901508Y-88898000D01*
X162322456Y-89072793D01*
X162795469Y-89073206D01*
X163232635Y-88892573D01*
X163567397Y-88558394D01*
X163748793Y-88121544D01*
X163749206Y-87648531D01*
X163568573Y-87211365D01*
X163234394Y-86876603D01*
X162797544Y-86695207D01*
X162324531Y-86694794D01*
X161900499Y-86870000D01*
X160324600Y-86870000D01*
X159940437Y-86485166D01*
X159333845Y-86233287D01*
X158677037Y-86232714D01*
X158070005Y-86483534D01*
X157733821Y-86819132D01*
X157400437Y-86485166D01*
X156793845Y-86233287D01*
X156137037Y-86232714D01*
X155530005Y-86483534D01*
X155065166Y-86947563D01*
X154997638Y-87110189D01*
X154904213Y-87083392D01*
X154103605Y-87884000D01*
X153744395Y-87884000D01*
X152943787Y-87083392D01*
X152701603Y-87152857D01*
X152514856Y-87676302D01*
X151315191Y-87676302D01*
X151494162Y-87245292D01*
X151494459Y-86903787D01*
X153123392Y-86903787D01*
X153924000Y-87704395D01*
X154724608Y-86903787D01*
X154655143Y-86661603D01*
X154131698Y-86474856D01*
X153576632Y-86502638D01*
X153192857Y-86661603D01*
X153123392Y-86903787D01*
X151494459Y-86903787D01*
X151494817Y-86494004D01*
X151207918Y-85799654D01*
X150677141Y-85267949D01*
X150554999Y-85217231D01*
X150674346Y-85167918D01*
X151206051Y-84637141D01*
X151494162Y-83943292D01*
X151494743Y-83276213D01*
X153123392Y-83276213D01*
X153192857Y-83518397D01*
X153716302Y-83705144D01*
X154271368Y-83677362D01*
X154655143Y-83518397D01*
X154724608Y-83276213D01*
X153924000Y-82475605D01*
X153123392Y-83276213D01*
X151494743Y-83276213D01*
X151494817Y-83192004D01*
X151207918Y-82497654D01*
X150799281Y-82088302D01*
X152514856Y-82088302D01*
X152542638Y-82643368D01*
X152701603Y-83027143D01*
X152943787Y-83096608D01*
X153744395Y-82296000D01*
X154103605Y-82296000D01*
X154904213Y-83096608D01*
X154997378Y-83069886D01*
X155063534Y-83229995D01*
X155527563Y-83694834D01*
X156134155Y-83946713D01*
X156790963Y-83947286D01*
X157397995Y-83696466D01*
X157734179Y-83360868D01*
X158067563Y-83694834D01*
X158674155Y-83946713D01*
X159330963Y-83947286D01*
X159937995Y-83696466D01*
X160402834Y-83232437D01*
X160654713Y-82625845D01*
X160655286Y-81969037D01*
X160404466Y-81362005D01*
X159940437Y-80897166D01*
X159333845Y-80645287D01*
X158677037Y-80644714D01*
X158070005Y-80895534D01*
X157733821Y-81231132D01*
X157400437Y-80897166D01*
X156793845Y-80645287D01*
X156137037Y-80644714D01*
X155530005Y-80895534D01*
X155065166Y-81359563D01*
X154997638Y-81522189D01*
X154904213Y-81495392D01*
X154103605Y-82296000D01*
X153744395Y-82296000D01*
X152943787Y-81495392D01*
X152701603Y-81564857D01*
X152514856Y-82088302D01*
X150799281Y-82088302D01*
X150677141Y-81965949D01*
X150554999Y-81915231D01*
X150674346Y-81865918D01*
X151206051Y-81335141D01*
X151214087Y-81315787D01*
X153123392Y-81315787D01*
X153924000Y-82116395D01*
X154724608Y-81315787D01*
X154655143Y-81073603D01*
X154131698Y-80886856D01*
X153576632Y-80914638D01*
X153192857Y-81073603D01*
X153123392Y-81315787D01*
X151214087Y-81315787D01*
X151494162Y-80641292D01*
X151494817Y-79890004D01*
X151480664Y-79855750D01*
X168355000Y-79855750D01*
X168355000Y-81446310D01*
X168451673Y-81679699D01*
X168630302Y-81858327D01*
X168863691Y-81955000D01*
X169804250Y-81955000D01*
X169963000Y-81796250D01*
X169963000Y-79697000D01*
X168513750Y-79697000D01*
X168355000Y-79855750D01*
X151480664Y-79855750D01*
X151207918Y-79195654D01*
X150677141Y-78663949D01*
X150554999Y-78613231D01*
X150674346Y-78563918D01*
X151206051Y-78033141D01*
X151494162Y-77339292D01*
X151494300Y-77180213D01*
X153123392Y-77180213D01*
X153192857Y-77422397D01*
X153716302Y-77609144D01*
X154271368Y-77581362D01*
X154655143Y-77422397D01*
X154724608Y-77180213D01*
X153924000Y-76379605D01*
X153123392Y-77180213D01*
X151494300Y-77180213D01*
X151494817Y-76588004D01*
X151248679Y-75992302D01*
X152514856Y-75992302D01*
X152542638Y-76547368D01*
X152701603Y-76931143D01*
X152943787Y-77000608D01*
X153744395Y-76200000D01*
X154103605Y-76200000D01*
X154904213Y-77000608D01*
X154997378Y-76973886D01*
X155063534Y-77133995D01*
X155527563Y-77598834D01*
X156134155Y-77850713D01*
X156790963Y-77851286D01*
X157397995Y-77600466D01*
X157734179Y-77264868D01*
X158067563Y-77598834D01*
X158674155Y-77850713D01*
X159330963Y-77851286D01*
X159712375Y-77693690D01*
X168355000Y-77693690D01*
X168355000Y-79284250D01*
X168513750Y-79443000D01*
X169963000Y-79443000D01*
X169963000Y-77343750D01*
X169804250Y-77185000D01*
X168863691Y-77185000D01*
X168630302Y-77281673D01*
X168451673Y-77460301D01*
X168355000Y-77693690D01*
X159712375Y-77693690D01*
X159937995Y-77600466D01*
X160325136Y-77214000D01*
X165711508Y-77214000D01*
X166132456Y-77388793D01*
X166605469Y-77389206D01*
X167042635Y-77208573D01*
X167377397Y-76874394D01*
X167558793Y-76437544D01*
X167559206Y-75964531D01*
X167378573Y-75527365D01*
X167044394Y-75192603D01*
X166607544Y-75011207D01*
X166134531Y-75010794D01*
X165710499Y-75186000D01*
X160324600Y-75186000D01*
X159940437Y-74801166D01*
X159333845Y-74549287D01*
X158677037Y-74548714D01*
X158070005Y-74799534D01*
X157733821Y-75135132D01*
X157400437Y-74801166D01*
X156793845Y-74549287D01*
X156137037Y-74548714D01*
X155530005Y-74799534D01*
X155065166Y-75263563D01*
X154997638Y-75426189D01*
X154904213Y-75399392D01*
X154103605Y-76200000D01*
X153744395Y-76200000D01*
X152943787Y-75399392D01*
X152701603Y-75468857D01*
X152514856Y-75992302D01*
X151248679Y-75992302D01*
X151207918Y-75893654D01*
X150677141Y-75361949D01*
X150334777Y-75219787D01*
X153123392Y-75219787D01*
X153924000Y-76020395D01*
X154724608Y-75219787D01*
X154655143Y-74977603D01*
X154131698Y-74790856D01*
X153576632Y-74818638D01*
X153192857Y-74977603D01*
X153123392Y-75219787D01*
X150334777Y-75219787D01*
X149983292Y-75073838D01*
X149232004Y-75073183D01*
X148537654Y-75360082D01*
X148005949Y-75890859D01*
X147717838Y-76584708D01*
X147717183Y-77335996D01*
X148004082Y-78030346D01*
X148534859Y-78562051D01*
X148657001Y-78612769D01*
X148537654Y-78662082D01*
X148005949Y-79192859D01*
X147717838Y-79886708D01*
X147717183Y-80637996D01*
X148004082Y-81332346D01*
X148534859Y-81864051D01*
X148657001Y-81914769D01*
X148537654Y-81964082D01*
X148005949Y-82494859D01*
X147717838Y-83188708D01*
X147717183Y-83939996D01*
X148004082Y-84634346D01*
X148534859Y-85166051D01*
X148657001Y-85216769D01*
X148537654Y-85266082D01*
X148005949Y-85796859D01*
X147717838Y-86490708D01*
X147717183Y-87241996D01*
X148004082Y-87936346D01*
X148534859Y-88468051D01*
X148657001Y-88518769D01*
X148537654Y-88568082D01*
X148005949Y-89098859D01*
X147717838Y-89792708D01*
X147717183Y-90543996D01*
X148004082Y-91238346D01*
X148534859Y-91770051D01*
X148657001Y-91820769D01*
X148537654Y-91870082D01*
X148005949Y-92400859D01*
X147717838Y-93094708D01*
X147717183Y-93845996D01*
X148004082Y-94540346D01*
X148534859Y-95072051D01*
X148968225Y-95252000D01*
X140083354Y-95252000D01*
X140514346Y-95073918D01*
X141046051Y-94543141D01*
X141334162Y-93849292D01*
X141334817Y-93098004D01*
X141047918Y-92403654D01*
X140517141Y-91871949D01*
X140394999Y-91821231D01*
X140514346Y-91771918D01*
X141046051Y-91241141D01*
X141334162Y-90547292D01*
X141334817Y-89796004D01*
X141047918Y-89101654D01*
X140517141Y-88569949D01*
X140394999Y-88519231D01*
X140514346Y-88469918D01*
X141046051Y-87939141D01*
X141334162Y-87245292D01*
X141334817Y-86494004D01*
X141047918Y-85799654D01*
X140517141Y-85267949D01*
X140394999Y-85217231D01*
X140514346Y-85167918D01*
X141046051Y-84637141D01*
X141334162Y-83943292D01*
X141334817Y-83192004D01*
X141047918Y-82497654D01*
X140517141Y-81965949D01*
X140394999Y-81915231D01*
X140514346Y-81865918D01*
X141046051Y-81335141D01*
X141334162Y-80641292D01*
X141334817Y-79890004D01*
X141047918Y-79195654D01*
X140517141Y-78663949D01*
X140394999Y-78613231D01*
X140514346Y-78563918D01*
X141046051Y-78033141D01*
X141334162Y-77339292D01*
X141334817Y-76588004D01*
X141047918Y-75893654D01*
X140517141Y-75361949D01*
X140094611Y-75186499D01*
X140118635Y-75176573D01*
X140453397Y-74842394D01*
X140634793Y-74405544D01*
X140635206Y-73932531D01*
X140454573Y-73495365D01*
X140120394Y-73160603D01*
X139683544Y-72979207D01*
X139210531Y-72978794D01*
X138773365Y-73159427D01*
X138438603Y-73493606D01*
X138262657Y-73917331D01*
X135915901Y-76264087D01*
X135893610Y-76230725D01*
X135325026Y-75850809D01*
X135126000Y-75811220D01*
X135126000Y-75184000D01*
X135048814Y-74795959D01*
X134829006Y-74466994D01*
X134500041Y-74247186D01*
X134112000Y-74170000D01*
X128928492Y-74170000D01*
X128507544Y-73995207D01*
X128034531Y-73994794D01*
X127610499Y-74170000D01*
X117602000Y-74170000D01*
X117213959Y-74247186D01*
X116884994Y-74466993D01*
X114223599Y-77128388D01*
X114169292Y-77105838D01*
X113418004Y-77105183D01*
X112723654Y-77392082D01*
X112191949Y-77922859D01*
X111903838Y-78616708D01*
X111903183Y-79367996D01*
X112190082Y-80062346D01*
X112720859Y-80594051D01*
X112778000Y-80617778D01*
X112778000Y-80671627D01*
X112723654Y-80694082D01*
X112191949Y-81224859D01*
X111903838Y-81918708D01*
X111903183Y-82669996D01*
X112190082Y-83364346D01*
X112720859Y-83896051D01*
X112778000Y-83919778D01*
X112778000Y-83973627D01*
X112723654Y-83996082D01*
X112191949Y-84526859D01*
X111903838Y-85220708D01*
X111903183Y-85971996D01*
X112190082Y-86666346D01*
X112720859Y-87198051D01*
X112778000Y-87221778D01*
X112778000Y-87275627D01*
X112723654Y-87298082D01*
X112191949Y-87828859D01*
X111903838Y-88522708D01*
X111903183Y-89273996D01*
X112190082Y-89968346D01*
X112720859Y-90500051D01*
X112778000Y-90523778D01*
X112778000Y-90577627D01*
X112723654Y-90600082D01*
X112191949Y-91130859D01*
X111903838Y-91824708D01*
X111903183Y-92575996D01*
X112190082Y-93270346D01*
X112720859Y-93802051D01*
X112843001Y-93852769D01*
X112723654Y-93902082D01*
X112191949Y-94432859D01*
X112168222Y-94490000D01*
X111252000Y-94490000D01*
X110863959Y-94567186D01*
X110534994Y-94786994D01*
X110315186Y-95115959D01*
X110238000Y-95504000D01*
X110238000Y-101346000D01*
X110315186Y-101734041D01*
X110534994Y-102063006D01*
X110863959Y-102282814D01*
X111252000Y-102360000D01*
X114387988Y-102360000D01*
X115826000Y-103798012D01*
X115826000Y-120904000D01*
X115903186Y-121292041D01*
X116122994Y-121621006D01*
X116376994Y-121875006D01*
X116705959Y-122094814D01*
X117094000Y-122172000D01*
X126341508Y-122172000D01*
X126762456Y-122346793D01*
X127235469Y-122347206D01*
X127672635Y-122166573D01*
X128007397Y-121832394D01*
X128188793Y-121395544D01*
X128189206Y-120922531D01*
X128008573Y-120485365D01*
X127674394Y-120150603D01*
X127237544Y-119969207D01*
X126764531Y-119968794D01*
X126665116Y-120009871D01*
X126665206Y-119906531D01*
X126484573Y-119469365D01*
X126150394Y-119134603D01*
X125713544Y-118953207D01*
X125240531Y-118952794D01*
X124816499Y-119128000D01*
X122594012Y-119128000D01*
X119589008Y-116122996D01*
X119589006Y-116122993D01*
X119378000Y-115911987D01*
X119378000Y-115313602D01*
X119380000Y-115314000D01*
X138938000Y-115314000D01*
X139326041Y-115236814D01*
X139655006Y-115017006D01*
X139874814Y-114688041D01*
X139952000Y-114300000D01*
X139952000Y-114092302D01*
X143624856Y-114092302D01*
X143652638Y-114647368D01*
X143811603Y-115031143D01*
X144053787Y-115100608D01*
X144854395Y-114300000D01*
X145213605Y-114300000D01*
X146014213Y-115100608D01*
X146256397Y-115031143D01*
X146443144Y-114507698D01*
X146422353Y-114092302D01*
X148450856Y-114092302D01*
X148478638Y-114647368D01*
X148637603Y-115031143D01*
X148879787Y-115100608D01*
X149680395Y-114300000D01*
X150039605Y-114300000D01*
X150840213Y-115100608D01*
X151082397Y-115031143D01*
X151269144Y-114507698D01*
X151241362Y-113952632D01*
X151082397Y-113568857D01*
X150840213Y-113499392D01*
X150039605Y-114300000D01*
X149680395Y-114300000D01*
X148879787Y-113499392D01*
X148637603Y-113568857D01*
X148450856Y-114092302D01*
X146422353Y-114092302D01*
X146415362Y-113952632D01*
X146256397Y-113568857D01*
X146014213Y-113499392D01*
X145213605Y-114300000D01*
X144854395Y-114300000D01*
X144053787Y-113499392D01*
X143811603Y-113568857D01*
X143624856Y-114092302D01*
X139952000Y-114092302D01*
X139952000Y-113319787D01*
X144233392Y-113319787D01*
X145034000Y-114120395D01*
X145834608Y-113319787D01*
X149059392Y-113319787D01*
X149860000Y-114120395D01*
X150660608Y-113319787D01*
X150591143Y-113077603D01*
X150067698Y-112890856D01*
X149512632Y-112918638D01*
X149128857Y-113077603D01*
X149059392Y-113319787D01*
X145834608Y-113319787D01*
X145765143Y-113077603D01*
X145241698Y-112890856D01*
X144686632Y-112918638D01*
X144302857Y-113077603D01*
X144233392Y-113319787D01*
X139952000Y-113319787D01*
X139952000Y-109218000D01*
X152402000Y-109218000D01*
X152402000Y-119380000D01*
X152478002Y-119762086D01*
X151511071Y-119299641D01*
X151511286Y-119053037D01*
X151260466Y-118446005D01*
X150924868Y-118109821D01*
X151258834Y-117776437D01*
X151510713Y-117169845D01*
X151511286Y-116513037D01*
X151260466Y-115906005D01*
X150796437Y-115441166D01*
X150633811Y-115373638D01*
X150660608Y-115280213D01*
X149860000Y-114479605D01*
X149059392Y-115280213D01*
X149086114Y-115373378D01*
X148926005Y-115439534D01*
X148461166Y-115903563D01*
X148209287Y-116510155D01*
X148208714Y-117166963D01*
X148459534Y-117773995D01*
X148795132Y-118110179D01*
X148461166Y-118443563D01*
X148209287Y-119050155D01*
X148208714Y-119706963D01*
X148450340Y-120291745D01*
X146685153Y-119205475D01*
X146685286Y-119053037D01*
X146434466Y-118446005D01*
X146098868Y-118109821D01*
X146432834Y-117776437D01*
X146684713Y-117169845D01*
X146685286Y-116513037D01*
X146434466Y-115906005D01*
X145970437Y-115441166D01*
X145807811Y-115373638D01*
X145834608Y-115280213D01*
X145034000Y-114479605D01*
X144233392Y-115280213D01*
X144260114Y-115373378D01*
X144100005Y-115439534D01*
X143635166Y-115903563D01*
X143383287Y-116510155D01*
X143382714Y-117166963D01*
X143633534Y-117773995D01*
X143969132Y-118110179D01*
X143635166Y-118443563D01*
X143383287Y-119050155D01*
X143382714Y-119706963D01*
X143633534Y-120313995D01*
X144097563Y-120778834D01*
X144704155Y-121030713D01*
X145360963Y-121031286D01*
X145613214Y-120927058D01*
X150665246Y-124036000D01*
X94964000Y-124036000D01*
X94964000Y-116473117D01*
X100610586Y-116473117D01*
X100973524Y-117351492D01*
X101644973Y-118024114D01*
X102522714Y-118388584D01*
X103473117Y-118389414D01*
X104351492Y-118026476D01*
X105024114Y-117355027D01*
X105388584Y-116477286D01*
X105389414Y-115526883D01*
X105026476Y-114648508D01*
X104355027Y-113975886D01*
X103477286Y-113611416D01*
X102526883Y-113610586D01*
X101648508Y-113973524D01*
X100975886Y-114644973D01*
X100611416Y-115522714D01*
X100610586Y-116473117D01*
X94964000Y-116473117D01*
X94964000Y-62992000D01*
X98554000Y-62992000D01*
X98554000Y-86868000D01*
X98631186Y-87256041D01*
X98850994Y-87585006D01*
X99612994Y-88347006D01*
X99941959Y-88566814D01*
X100330000Y-88644000D01*
X101191866Y-88644000D01*
X101342390Y-88869275D01*
X101388373Y-88900000D01*
X101342390Y-88930725D01*
X100962474Y-89499309D01*
X100829065Y-90170000D01*
X100962474Y-90840691D01*
X101342390Y-91409275D01*
X101388373Y-91440000D01*
X101342390Y-91470725D01*
X100962474Y-92039309D01*
X100829065Y-92710000D01*
X100962474Y-93380691D01*
X101342390Y-93949275D01*
X101388373Y-93980000D01*
X101342390Y-94010725D01*
X100962474Y-94579309D01*
X100829065Y-95250000D01*
X100962474Y-95920691D01*
X101342390Y-96489275D01*
X101388373Y-96520000D01*
X101342390Y-96550725D01*
X100962474Y-97119309D01*
X100867571Y-97596417D01*
X99612994Y-98850994D01*
X99393186Y-99179959D01*
X99316000Y-99568000D01*
X99316000Y-110236000D01*
X99393186Y-110624041D01*
X99612994Y-110953006D01*
X99941959Y-111172814D01*
X100330000Y-111250000D01*
X113284000Y-111250000D01*
X113672041Y-111172814D01*
X113674577Y-111171120D01*
X113773469Y-111171206D01*
X114210635Y-110990573D01*
X114545397Y-110656394D01*
X114726793Y-110219544D01*
X114727206Y-109746531D01*
X114546573Y-109309365D01*
X114212394Y-108974603D01*
X113775544Y-108793207D01*
X113302531Y-108792794D01*
X112865365Y-108973427D01*
X112616358Y-109222000D01*
X105905420Y-109222000D01*
X106044490Y-109156821D01*
X106438688Y-108724947D01*
X106610958Y-108309026D01*
X106489817Y-108077000D01*
X105283000Y-108077000D01*
X105283000Y-108097000D01*
X105029000Y-108097000D01*
X105029000Y-108077000D01*
X102743000Y-108077000D01*
X102743000Y-108097000D01*
X102489000Y-108097000D01*
X102489000Y-108077000D01*
X102469000Y-108077000D01*
X102469000Y-107823000D01*
X102489000Y-107823000D01*
X102489000Y-107803000D01*
X102743000Y-107803000D01*
X102743000Y-107823000D01*
X105029000Y-107823000D01*
X105029000Y-107803000D01*
X105283000Y-107803000D01*
X105283000Y-107823000D01*
X106489817Y-107823000D01*
X106610958Y-107590974D01*
X106438688Y-107175053D01*
X106137147Y-106844692D01*
X106429610Y-106649275D01*
X106809526Y-106080691D01*
X106942935Y-105410000D01*
X106809526Y-104739309D01*
X106429610Y-104170725D01*
X106383627Y-104140000D01*
X106429610Y-104109275D01*
X106809526Y-103540691D01*
X106942935Y-102870000D01*
X106809526Y-102199309D01*
X106429610Y-101630725D01*
X106383627Y-101600000D01*
X106429610Y-101569275D01*
X106809526Y-101000691D01*
X106942935Y-100330000D01*
X106809526Y-99659309D01*
X106429610Y-99090725D01*
X106383627Y-99060000D01*
X106429610Y-99029275D01*
X106809526Y-98460691D01*
X106942935Y-97790000D01*
X106809526Y-97119309D01*
X106429610Y-96550725D01*
X106383627Y-96520000D01*
X106429610Y-96489275D01*
X106809526Y-95920691D01*
X106942935Y-95250000D01*
X106809526Y-94579309D01*
X106429610Y-94010725D01*
X106383627Y-93980000D01*
X106429610Y-93949275D01*
X106809526Y-93380691D01*
X106942935Y-92710000D01*
X106809526Y-92039309D01*
X106429610Y-91470725D01*
X106383627Y-91440000D01*
X106429610Y-91409275D01*
X106809526Y-90840691D01*
X106942935Y-90170000D01*
X106809526Y-89499309D01*
X106429610Y-88930725D01*
X106383627Y-88900000D01*
X106429610Y-88869275D01*
X106580134Y-88644000D01*
X108458000Y-88644000D01*
X108846041Y-88566814D01*
X109175006Y-88347006D01*
X109429006Y-88093006D01*
X109648814Y-87764041D01*
X109684426Y-87585006D01*
X109726000Y-87376000D01*
X109726000Y-71338213D01*
X153123392Y-71338213D01*
X153192857Y-71580397D01*
X153716302Y-71767144D01*
X154271368Y-71739362D01*
X154655143Y-71580397D01*
X154724608Y-71338213D01*
X153924000Y-70537605D01*
X153123392Y-71338213D01*
X109726000Y-71338213D01*
X109726000Y-70150302D01*
X152514856Y-70150302D01*
X152542638Y-70705368D01*
X152701603Y-71089143D01*
X152943787Y-71158608D01*
X153744395Y-70358000D01*
X154103605Y-70358000D01*
X154904213Y-71158608D01*
X154997378Y-71131886D01*
X155063534Y-71291995D01*
X155527563Y-71756834D01*
X156134155Y-72008713D01*
X156790963Y-72009286D01*
X157397995Y-71758466D01*
X157734179Y-71422868D01*
X158067563Y-71756834D01*
X158674155Y-72008713D01*
X159330963Y-72009286D01*
X159937995Y-71758466D01*
X160325136Y-71372000D01*
X164695508Y-71372000D01*
X165116456Y-71546793D01*
X165589469Y-71547206D01*
X166026635Y-71366573D01*
X166361397Y-71032394D01*
X166542793Y-70595544D01*
X166543206Y-70122531D01*
X166362573Y-69685365D01*
X166028394Y-69350603D01*
X165591544Y-69169207D01*
X165118531Y-69168794D01*
X164694499Y-69344000D01*
X160324600Y-69344000D01*
X159940437Y-68959166D01*
X159333845Y-68707287D01*
X158677037Y-68706714D01*
X158070005Y-68957534D01*
X157733821Y-69293132D01*
X157400437Y-68959166D01*
X156793845Y-68707287D01*
X156137037Y-68706714D01*
X155530005Y-68957534D01*
X155065166Y-69421563D01*
X154997638Y-69584189D01*
X154904213Y-69557392D01*
X154103605Y-70358000D01*
X153744395Y-70358000D01*
X152943787Y-69557392D01*
X152701603Y-69626857D01*
X152514856Y-70150302D01*
X109726000Y-70150302D01*
X109726000Y-69377787D01*
X153123392Y-69377787D01*
X153924000Y-70178395D01*
X154724608Y-69377787D01*
X154655143Y-69135603D01*
X154131698Y-68948856D01*
X153576632Y-68976638D01*
X153192857Y-69135603D01*
X153123392Y-69377787D01*
X109726000Y-69377787D01*
X109726000Y-60179469D01*
X121238794Y-60179469D01*
X121419427Y-60616635D01*
X121753606Y-60951397D01*
X122190456Y-61132793D01*
X122663469Y-61133206D01*
X123087501Y-60958000D01*
X128859001Y-60958000D01*
X128858794Y-61195469D01*
X129039427Y-61632635D01*
X129373606Y-61967397D01*
X129810456Y-62148793D01*
X129874849Y-62148849D01*
X129874794Y-62211469D01*
X130055427Y-62648635D01*
X130389606Y-62983397D01*
X130826456Y-63164793D01*
X131299469Y-63165206D01*
X131723501Y-62990000D01*
X172722000Y-62990000D01*
X172722000Y-65534398D01*
X172720000Y-65534000D01*
X123086492Y-65534000D01*
X122665544Y-65359207D01*
X122192531Y-65358794D01*
X121755365Y-65539427D01*
X121420603Y-65873606D01*
X121239207Y-66310456D01*
X121238794Y-66783469D01*
X121419427Y-67220635D01*
X121753606Y-67555397D01*
X122190456Y-67736793D01*
X122663469Y-67737206D01*
X123087501Y-67562000D01*
X171706000Y-67562000D01*
X171706000Y-77437974D01*
X171549698Y-77281673D01*
X171316309Y-77185000D01*
X170375750Y-77185000D01*
X170217000Y-77343750D01*
X170217000Y-79443000D01*
X170237000Y-79443000D01*
X170237000Y-79697000D01*
X170217000Y-79697000D01*
X170217000Y-81796250D01*
X170375750Y-81955000D01*
X171316309Y-81955000D01*
X171549698Y-81858327D01*
X171706000Y-81702026D01*
X171706000Y-82891987D01*
X170478994Y-84118994D01*
X170259186Y-84447959D01*
X170182000Y-84836000D01*
X170182000Y-92964000D01*
X170259186Y-93352041D01*
X170478994Y-93681006D01*
X170807959Y-93900814D01*
X171196000Y-93978000D01*
X176530000Y-93978000D01*
X176918041Y-93900814D01*
X177247006Y-93681006D01*
X177731012Y-93197000D01*
X193692560Y-93197000D01*
X193692560Y-94170000D01*
X193736838Y-94405317D01*
X193875910Y-94621441D01*
X194088110Y-94766431D01*
X194340000Y-94817440D01*
X195963000Y-94817440D01*
X195963000Y-93197000D01*
X196217000Y-93197000D01*
X196217000Y-94817440D01*
X197840000Y-94817440D01*
X198075317Y-94773162D01*
X198291441Y-94634090D01*
X198436431Y-94421890D01*
X198487440Y-94170000D01*
X198487440Y-93197000D01*
X196217000Y-93197000D01*
X195963000Y-93197000D01*
X193692560Y-93197000D01*
X177731012Y-93197000D01*
X178958012Y-91970000D01*
X193692560Y-91970000D01*
X193692560Y-92943000D01*
X195963000Y-92943000D01*
X195963000Y-91322560D01*
X196217000Y-91322560D01*
X196217000Y-92943000D01*
X198487440Y-92943000D01*
X198487440Y-91970000D01*
X198443162Y-91734683D01*
X198304090Y-91518559D01*
X198091890Y-91373569D01*
X197840000Y-91322560D01*
X196217000Y-91322560D01*
X195963000Y-91322560D01*
X194340000Y-91322560D01*
X194104683Y-91366838D01*
X193888559Y-91505910D01*
X193743569Y-91718110D01*
X193692560Y-91970000D01*
X178958012Y-91970000D01*
X179005568Y-91922445D01*
X179417065Y-91922804D01*
X180061415Y-91656564D01*
X180494929Y-91223805D01*
X180735800Y-91223805D01*
X180817741Y-91476516D01*
X181378030Y-91680248D01*
X181973635Y-91654058D01*
X182402259Y-91476516D01*
X182484200Y-91223805D01*
X181610000Y-90349605D01*
X180735800Y-91223805D01*
X180494929Y-91223805D01*
X180554831Y-91164008D01*
X180638938Y-90961457D01*
X181430395Y-90170000D01*
X181789605Y-90170000D01*
X182663805Y-91044200D01*
X182916516Y-90962259D01*
X183120248Y-90401970D01*
X183094058Y-89806365D01*
X182916516Y-89377741D01*
X182663805Y-89295800D01*
X181789605Y-90170000D01*
X181430395Y-90170000D01*
X180639359Y-89378964D01*
X180556564Y-89178585D01*
X180278411Y-88899946D01*
X180340054Y-88838411D01*
X180615992Y-89114831D01*
X180818543Y-89198938D01*
X181610000Y-89990395D01*
X182401036Y-89199359D01*
X182601415Y-89116564D01*
X183094831Y-88624008D01*
X183362196Y-87980123D01*
X183362804Y-87282935D01*
X183096564Y-86638585D01*
X182749000Y-86290414D01*
X182749000Y-85713970D01*
X227265635Y-85713970D01*
X227425418Y-86032739D01*
X228216187Y-86342723D01*
X229065387Y-86326497D01*
X229774582Y-86032739D01*
X229934365Y-85713970D01*
X228600000Y-84379605D01*
X227265635Y-85713970D01*
X182749000Y-85713970D01*
X182749000Y-66197000D01*
X193692560Y-66197000D01*
X193692560Y-67170000D01*
X193736838Y-67405317D01*
X193875910Y-67621441D01*
X194088110Y-67766431D01*
X194340000Y-67817440D01*
X195963000Y-67817440D01*
X195963000Y-66197000D01*
X193692560Y-66197000D01*
X182749000Y-66197000D01*
X182749000Y-64970000D01*
X193692560Y-64970000D01*
X193692560Y-65943000D01*
X195963000Y-65943000D01*
X195963000Y-64322560D01*
X194340000Y-64322560D01*
X194104683Y-64366838D01*
X193888559Y-64505910D01*
X193743569Y-64718110D01*
X193692560Y-64970000D01*
X182749000Y-64970000D01*
X182749000Y-56134005D01*
X182749001Y-56134000D01*
X182662299Y-55698123D01*
X182474454Y-55416994D01*
X182415395Y-55328605D01*
X182415392Y-55328603D01*
X181732135Y-54645345D01*
X181362617Y-54398441D01*
X180926740Y-54311739D01*
X180926735Y-54311740D01*
X179872676Y-54311740D01*
X179775883Y-53825129D01*
X179312275Y-53131291D01*
X179235513Y-53080000D01*
X203708000Y-53080000D01*
X204191712Y-52983784D01*
X204601783Y-52709783D01*
X211597566Y-45714000D01*
X215778008Y-45714000D01*
X216309588Y-46069191D01*
X216980279Y-46202600D01*
X217359721Y-46202600D01*
X218030412Y-46069191D01*
X218561992Y-45714000D01*
X219710000Y-45714000D01*
X220193712Y-45617784D01*
X220603783Y-45343783D01*
X220877784Y-44933712D01*
X220974000Y-44450000D01*
X220974000Y-39370000D01*
X220877784Y-38886288D01*
X220603783Y-38476217D01*
X220193712Y-38202216D01*
X219710000Y-38106000D01*
X218671626Y-38106000D01*
X218724327Y-38053299D01*
X218821000Y-37819910D01*
X218821000Y-37115750D01*
X218662250Y-36957000D01*
X217297000Y-36957000D01*
X217297000Y-36977000D01*
X217043000Y-36977000D01*
X217043000Y-36957000D01*
X215677750Y-36957000D01*
X215519000Y-37115750D01*
X215519000Y-37819910D01*
X215615673Y-38053299D01*
X215721816Y-38159442D01*
X215361088Y-38699309D01*
X215227679Y-39370000D01*
X215361088Y-40040691D01*
X215741004Y-40609275D01*
X215786987Y-40640000D01*
X215741004Y-40670725D01*
X215361088Y-41239309D01*
X215227679Y-41910000D01*
X215361088Y-42580691D01*
X215741004Y-43149275D01*
X215786987Y-43180000D01*
X215778008Y-43186000D01*
X211074000Y-43186000D01*
X210590288Y-43282216D01*
X210180217Y-43556217D01*
X203184434Y-50552000D01*
X165354000Y-50552000D01*
X164870288Y-50648216D01*
X164460217Y-50922217D01*
X164206217Y-51176217D01*
X163932216Y-51586288D01*
X163836000Y-52070000D01*
X163836000Y-52965399D01*
X163587725Y-53131291D01*
X163124117Y-53825129D01*
X162961320Y-54643566D01*
X162961320Y-56257914D01*
X163124117Y-57076351D01*
X163587725Y-57770189D01*
X164183091Y-58168000D01*
X158408012Y-58168000D01*
X156731087Y-56491075D01*
X156828162Y-56257292D01*
X156828817Y-55506004D01*
X156541918Y-54811654D01*
X156011141Y-54279949D01*
X155954000Y-54256222D01*
X155954000Y-52424373D01*
X156008346Y-52401918D01*
X156540051Y-51871141D01*
X156828162Y-51177292D01*
X156828817Y-50426004D01*
X156541918Y-49731654D01*
X156011141Y-49199949D01*
X155317292Y-48911838D01*
X154566004Y-48911183D01*
X153871654Y-49198082D01*
X153339949Y-49728859D01*
X153051838Y-50422708D01*
X153051183Y-51173996D01*
X153338082Y-51868346D01*
X153868859Y-52400051D01*
X153926000Y-52423778D01*
X153926000Y-54255627D01*
X153871654Y-54278082D01*
X153339949Y-54808859D01*
X153051838Y-55502708D01*
X153051183Y-56253996D01*
X153338082Y-56948346D01*
X153868859Y-57480051D01*
X154562708Y-57768162D01*
X155140654Y-57768666D01*
X156301988Y-58930000D01*
X123086492Y-58930000D01*
X122665544Y-58755207D01*
X122192531Y-58754794D01*
X121755365Y-58935427D01*
X121420603Y-59269606D01*
X121239207Y-59706456D01*
X121238794Y-60179469D01*
X109726000Y-60179469D01*
X109726000Y-57032163D01*
X143807443Y-57032163D01*
X143906042Y-57298965D01*
X144515582Y-57525401D01*
X145165377Y-57501341D01*
X145653958Y-57298965D01*
X145752557Y-57032163D01*
X144780000Y-56059605D01*
X143807443Y-57032163D01*
X109726000Y-57032163D01*
X109726000Y-56808012D01*
X110918430Y-55615582D01*
X143134599Y-55615582D01*
X143158659Y-56265377D01*
X143361035Y-56753958D01*
X143627837Y-56852557D01*
X144600395Y-55880000D01*
X144959605Y-55880000D01*
X145932163Y-56852557D01*
X146198965Y-56753958D01*
X146425401Y-56144418D01*
X146401341Y-55494623D01*
X146198965Y-55006042D01*
X145932163Y-54907443D01*
X144959605Y-55880000D01*
X144600395Y-55880000D01*
X143627837Y-54907443D01*
X143361035Y-55006042D01*
X143134599Y-55615582D01*
X110918430Y-55615582D01*
X111806175Y-54727837D01*
X143807443Y-54727837D01*
X144780000Y-55700395D01*
X145752557Y-54727837D01*
X145653958Y-54461035D01*
X145044418Y-54234599D01*
X144394623Y-54258659D01*
X143906042Y-54461035D01*
X143807443Y-54727837D01*
X111806175Y-54727837D01*
X115374986Y-51159026D01*
X117772642Y-51159026D01*
X117775291Y-51174791D01*
X118029268Y-51702036D01*
X118465680Y-52091954D01*
X119018087Y-52285184D01*
X119253000Y-52140924D01*
X119253000Y-50927000D01*
X119507000Y-50927000D01*
X119507000Y-52140924D01*
X119741913Y-52285184D01*
X120294320Y-52091954D01*
X120730732Y-51702036D01*
X120984709Y-51174791D01*
X120984842Y-51173996D01*
X142891183Y-51173996D01*
X143178082Y-51868346D01*
X143708859Y-52400051D01*
X144402708Y-52688162D01*
X145153996Y-52688817D01*
X145848346Y-52401918D01*
X146380051Y-51871141D01*
X146668162Y-51177292D01*
X146668817Y-50426004D01*
X146381918Y-49731654D01*
X145851141Y-49199949D01*
X145157292Y-48911838D01*
X144406004Y-48911183D01*
X143711654Y-49198082D01*
X143179949Y-49728859D01*
X142891838Y-50422708D01*
X142891183Y-51173996D01*
X120984842Y-51173996D01*
X120987358Y-51159026D01*
X120866217Y-50927000D01*
X119507000Y-50927000D01*
X119253000Y-50927000D01*
X117893783Y-50927000D01*
X117772642Y-51159026D01*
X115374986Y-51159026D01*
X117583999Y-48950013D01*
X117951004Y-49499275D01*
X118251082Y-49699781D01*
X118029268Y-49897964D01*
X117775291Y-50425209D01*
X117772642Y-50440974D01*
X117893783Y-50673000D01*
X119253000Y-50673000D01*
X119253000Y-50653000D01*
X119507000Y-50653000D01*
X119507000Y-50673000D01*
X120866217Y-50673000D01*
X120987358Y-50440974D01*
X120984709Y-50425209D01*
X120730732Y-49897964D01*
X120508918Y-49699781D01*
X120808996Y-49499275D01*
X121188912Y-48930691D01*
X121322321Y-48260000D01*
X121188912Y-47589309D01*
X120808996Y-47020725D01*
X120763013Y-46990000D01*
X120808996Y-46959275D01*
X120986213Y-46694050D01*
X142462815Y-46694050D01*
X142530875Y-46935051D01*
X143050174Y-47119887D01*
X143600678Y-47091925D01*
X143979405Y-46935051D01*
X144047465Y-46694050D01*
X143255140Y-45901725D01*
X142462815Y-46694050D01*
X120986213Y-46694050D01*
X121188912Y-46390691D01*
X121322321Y-45720000D01*
X121281973Y-45517154D01*
X141857373Y-45517154D01*
X141885335Y-46067658D01*
X142042209Y-46446385D01*
X142283210Y-46514445D01*
X143075535Y-45722120D01*
X143434745Y-45722120D01*
X144227070Y-46514445D01*
X144335816Y-46483735D01*
X144404370Y-46649648D01*
X144865186Y-47111269D01*
X145467579Y-47361405D01*
X146119840Y-47361974D01*
X146722668Y-47112890D01*
X146810890Y-47024822D01*
X146897186Y-47111269D01*
X147499579Y-47361405D01*
X148151840Y-47361974D01*
X148754668Y-47112890D01*
X149097333Y-46770822D01*
X149437186Y-47111269D01*
X150039579Y-47361405D01*
X150691840Y-47361974D01*
X151294668Y-47112890D01*
X151756289Y-46652074D01*
X151975646Y-46123803D01*
X187310647Y-46123803D01*
X187620412Y-46873492D01*
X188193491Y-47447572D01*
X188942639Y-47758645D01*
X189753803Y-47759353D01*
X189844971Y-47721683D01*
X189811355Y-47802639D01*
X189810647Y-48613803D01*
X190120412Y-49363492D01*
X190693491Y-49937572D01*
X191442639Y-50248645D01*
X192253803Y-50249353D01*
X193003492Y-49939588D01*
X193577572Y-49366509D01*
X193888645Y-48617361D01*
X193888648Y-48613803D01*
X199810647Y-48613803D01*
X200120412Y-49363492D01*
X200693491Y-49937572D01*
X201442639Y-50248645D01*
X202253803Y-50249353D01*
X203003492Y-49939588D01*
X203577572Y-49366509D01*
X203888645Y-48617361D01*
X203889353Y-47806197D01*
X203854600Y-47722088D01*
X203942639Y-47758645D01*
X204753803Y-47759353D01*
X205503492Y-47449588D01*
X206077572Y-46876509D01*
X206388645Y-46127361D01*
X206389353Y-45316197D01*
X206079588Y-44566508D01*
X205506509Y-43992428D01*
X204757361Y-43681355D01*
X203946197Y-43680647D01*
X203196508Y-43990412D01*
X202622428Y-44563491D01*
X202311355Y-45312639D01*
X202310647Y-46123803D01*
X202345400Y-46207912D01*
X202257361Y-46171355D01*
X201446197Y-46170647D01*
X200696508Y-46480412D01*
X200122428Y-47053491D01*
X199811355Y-47802639D01*
X199810647Y-48613803D01*
X193888648Y-48613803D01*
X193889353Y-47806197D01*
X193579588Y-47056508D01*
X193504237Y-46981025D01*
X195768581Y-46981025D01*
X195885601Y-47263446D01*
X196549663Y-47515018D01*
X197259448Y-47493314D01*
X197814399Y-47263446D01*
X197931419Y-46981025D01*
X196850000Y-45899605D01*
X195768581Y-46981025D01*
X193504237Y-46981025D01*
X193006509Y-46482428D01*
X192257361Y-46171355D01*
X191446197Y-46170647D01*
X191355029Y-46208317D01*
X191388645Y-46127361D01*
X191389262Y-45419663D01*
X195054982Y-45419663D01*
X195076686Y-46129448D01*
X195306554Y-46684399D01*
X195588975Y-46801419D01*
X196670395Y-45720000D01*
X197029605Y-45720000D01*
X198111025Y-46801419D01*
X198393446Y-46684399D01*
X198645018Y-46020337D01*
X198623314Y-45310552D01*
X198393446Y-44755601D01*
X198111025Y-44638581D01*
X197029605Y-45720000D01*
X196670395Y-45720000D01*
X195588975Y-44638581D01*
X195306554Y-44755601D01*
X195054982Y-45419663D01*
X191389262Y-45419663D01*
X191389353Y-45316197D01*
X191079588Y-44566508D01*
X190972243Y-44458975D01*
X195768581Y-44458975D01*
X196850000Y-45540395D01*
X197931419Y-44458975D01*
X197814399Y-44176554D01*
X197150337Y-43924982D01*
X196440552Y-43946686D01*
X195885601Y-44176554D01*
X195768581Y-44458975D01*
X190972243Y-44458975D01*
X190506509Y-43992428D01*
X189757361Y-43681355D01*
X188946197Y-43680647D01*
X188196508Y-43990412D01*
X187622428Y-44563491D01*
X187311355Y-45312639D01*
X187310647Y-46123803D01*
X151975646Y-46123803D01*
X152006425Y-46049681D01*
X152006994Y-45397420D01*
X151757910Y-44794592D01*
X151532709Y-44568997D01*
X152588868Y-44568997D01*
X152748635Y-44887752D01*
X153539357Y-45197715D01*
X154388506Y-45181487D01*
X155097645Y-44887752D01*
X155257412Y-44568997D01*
X153923140Y-43234725D01*
X152588868Y-44568997D01*
X151532709Y-44568997D01*
X151297094Y-44332971D01*
X150694701Y-44082835D01*
X150042440Y-44082266D01*
X149439612Y-44331350D01*
X149096947Y-44673418D01*
X148757094Y-44332971D01*
X148154701Y-44082835D01*
X147502440Y-44082266D01*
X146899612Y-44331350D01*
X146811390Y-44419418D01*
X146725094Y-44332971D01*
X146122701Y-44082835D01*
X145470440Y-44082266D01*
X144867612Y-44331350D01*
X144405991Y-44792166D01*
X144336061Y-44960575D01*
X144227070Y-44929795D01*
X143434745Y-45722120D01*
X143075535Y-45722120D01*
X142283210Y-44929795D01*
X142042209Y-44997855D01*
X141857373Y-45517154D01*
X121281973Y-45517154D01*
X121188912Y-45049309D01*
X120867978Y-44568997D01*
X138872868Y-44568997D01*
X139032635Y-44887752D01*
X139823357Y-45197715D01*
X140672506Y-45181487D01*
X141381645Y-44887752D01*
X141450594Y-44750190D01*
X142462815Y-44750190D01*
X143255140Y-45542515D01*
X144047465Y-44750190D01*
X143979405Y-44509189D01*
X143460106Y-44324353D01*
X142909602Y-44352315D01*
X142530875Y-44509189D01*
X142462815Y-44750190D01*
X141450594Y-44750190D01*
X141541412Y-44568997D01*
X140207140Y-43234725D01*
X138872868Y-44568997D01*
X120867978Y-44568997D01*
X120808996Y-44480725D01*
X120763013Y-44450000D01*
X120808996Y-44419275D01*
X121188912Y-43850691D01*
X121322321Y-43180000D01*
X121221142Y-42671337D01*
X138064545Y-42671337D01*
X138080773Y-43520486D01*
X138374508Y-44229625D01*
X138693263Y-44389392D01*
X140027535Y-43055120D01*
X140386745Y-43055120D01*
X141721017Y-44389392D01*
X142039772Y-44229625D01*
X142349735Y-43438903D01*
X142335067Y-42671337D01*
X151780545Y-42671337D01*
X151796773Y-43520486D01*
X152090508Y-44229625D01*
X152409263Y-44389392D01*
X153743535Y-43055120D01*
X154102745Y-43055120D01*
X155437017Y-44389392D01*
X155755772Y-44229625D01*
X156065735Y-43438903D01*
X156049507Y-42589754D01*
X155755772Y-41880615D01*
X155437017Y-41720848D01*
X154102745Y-43055120D01*
X153743535Y-43055120D01*
X152409263Y-41720848D01*
X152090508Y-41880615D01*
X151780545Y-42671337D01*
X142335067Y-42671337D01*
X142333507Y-42589754D01*
X142039772Y-41880615D01*
X141721017Y-41720848D01*
X140386745Y-43055120D01*
X140027535Y-43055120D01*
X138693263Y-41720848D01*
X138374508Y-41880615D01*
X138064545Y-42671337D01*
X121221142Y-42671337D01*
X121188912Y-42509309D01*
X120808996Y-41940725D01*
X120508918Y-41740219D01*
X120730732Y-41542036D01*
X120731113Y-41541243D01*
X138872868Y-41541243D01*
X140207140Y-42875515D01*
X141541412Y-41541243D01*
X152588868Y-41541243D01*
X153923140Y-42875515D01*
X155257412Y-41541243D01*
X155097645Y-41222488D01*
X154868633Y-41132715D01*
X187265639Y-41132715D01*
X187582241Y-41898949D01*
X188167967Y-42485699D01*
X188933648Y-42803637D01*
X189762715Y-42804361D01*
X190528949Y-42487759D01*
X191115699Y-41902033D01*
X191433637Y-41136352D01*
X191433640Y-41132715D01*
X202265639Y-41132715D01*
X202582241Y-41898949D01*
X203167967Y-42485699D01*
X203933648Y-42803637D01*
X204762715Y-42804361D01*
X205528949Y-42487759D01*
X206115699Y-41902033D01*
X206433637Y-41136352D01*
X206434361Y-40307285D01*
X206117759Y-39541051D01*
X205532033Y-38954301D01*
X204766352Y-38636363D01*
X203937285Y-38635639D01*
X203171051Y-38952241D01*
X202584301Y-39537967D01*
X202266363Y-40303648D01*
X202265639Y-41132715D01*
X191433640Y-41132715D01*
X191434361Y-40307285D01*
X191117759Y-39541051D01*
X190532033Y-38954301D01*
X189766352Y-38636363D01*
X188937285Y-38635639D01*
X188171051Y-38952241D01*
X187584301Y-39537967D01*
X187266363Y-40303648D01*
X187265639Y-41132715D01*
X154868633Y-41132715D01*
X154306923Y-40912525D01*
X153457774Y-40928753D01*
X152748635Y-41222488D01*
X152588868Y-41541243D01*
X141541412Y-41541243D01*
X141381645Y-41222488D01*
X140590923Y-40912525D01*
X139741774Y-40928753D01*
X139032635Y-41222488D01*
X138872868Y-41541243D01*
X120731113Y-41541243D01*
X120984709Y-41014791D01*
X120987358Y-40999026D01*
X120866217Y-40767000D01*
X119507000Y-40767000D01*
X119507000Y-40787000D01*
X119253000Y-40787000D01*
X119253000Y-40767000D01*
X117893783Y-40767000D01*
X117772642Y-40999026D01*
X117775291Y-41014791D01*
X118029268Y-41542036D01*
X118251082Y-41740219D01*
X117951004Y-41940725D01*
X117571088Y-42509309D01*
X117437679Y-43180000D01*
X117522013Y-43603975D01*
X98850994Y-62274994D01*
X98631186Y-62603959D01*
X98554000Y-62992000D01*
X94964000Y-62992000D01*
X94964000Y-40999026D01*
X108781042Y-40999026D01*
X108953312Y-41414947D01*
X109347510Y-41846821D01*
X109876973Y-42094968D01*
X110109000Y-41974469D01*
X110109000Y-40767000D01*
X108902183Y-40767000D01*
X108781042Y-40999026D01*
X94964000Y-40999026D01*
X94964000Y-38459026D01*
X108781042Y-38459026D01*
X108953312Y-38874947D01*
X109347510Y-39306821D01*
X109482313Y-39370000D01*
X109347510Y-39433179D01*
X108953312Y-39865053D01*
X108781042Y-40280974D01*
X108902183Y-40513000D01*
X110109000Y-40513000D01*
X110109000Y-38227000D01*
X108902183Y-38227000D01*
X108781042Y-38459026D01*
X94964000Y-38459026D01*
X94964000Y-37740974D01*
X108781042Y-37740974D01*
X108902183Y-37973000D01*
X110109000Y-37973000D01*
X110109000Y-36765531D01*
X110363000Y-36765531D01*
X110363000Y-37973000D01*
X110383000Y-37973000D01*
X110383000Y-38227000D01*
X110363000Y-38227000D01*
X110363000Y-40513000D01*
X110383000Y-40513000D01*
X110383000Y-40767000D01*
X110363000Y-40767000D01*
X110363000Y-41974469D01*
X110595027Y-42094968D01*
X111087880Y-41863979D01*
X111262674Y-42135617D01*
X111559753Y-42338603D01*
X111912400Y-42410016D01*
X113639600Y-42410016D01*
X113969044Y-42348027D01*
X114271617Y-42153326D01*
X114474603Y-41856247D01*
X114546016Y-41503600D01*
X114546016Y-39776400D01*
X114484027Y-39446956D01*
X114289326Y-39144383D01*
X114214153Y-39093019D01*
X114429526Y-38770691D01*
X114562935Y-38100000D01*
X114429526Y-37429309D01*
X114300629Y-37236400D01*
X117457584Y-37236400D01*
X117457584Y-38963600D01*
X117519573Y-39293044D01*
X117714274Y-39595617D01*
X118002855Y-39792796D01*
X117775291Y-40265209D01*
X117772642Y-40280974D01*
X117893783Y-40513000D01*
X119253000Y-40513000D01*
X119253000Y-40493000D01*
X119507000Y-40493000D01*
X119507000Y-40513000D01*
X120866217Y-40513000D01*
X120987358Y-40280974D01*
X120984709Y-40265209D01*
X120755244Y-39788851D01*
X121028017Y-39613326D01*
X121231003Y-39316247D01*
X121302416Y-38963600D01*
X121302416Y-37236400D01*
X121252483Y-36971025D01*
X193268581Y-36971025D01*
X193385601Y-37253446D01*
X194049663Y-37505018D01*
X194759448Y-37483314D01*
X195314399Y-37253446D01*
X195431419Y-36971025D01*
X198268581Y-36971025D01*
X198385601Y-37253446D01*
X199049663Y-37505018D01*
X199759448Y-37483314D01*
X200314399Y-37253446D01*
X200431419Y-36971025D01*
X199350000Y-35889605D01*
X198268581Y-36971025D01*
X195431419Y-36971025D01*
X194350000Y-35889605D01*
X193268581Y-36971025D01*
X121252483Y-36971025D01*
X121240427Y-36906956D01*
X121045726Y-36604383D01*
X120748647Y-36401397D01*
X120396000Y-36329984D01*
X118364000Y-36329984D01*
X118034556Y-36391973D01*
X117731983Y-36586674D01*
X117528997Y-36883753D01*
X117457584Y-37236400D01*
X114300629Y-37236400D01*
X114049610Y-36860725D01*
X113481026Y-36480809D01*
X112810335Y-36347400D01*
X112741665Y-36347400D01*
X112070974Y-36480809D01*
X111502390Y-36860725D01*
X111330152Y-37118497D01*
X111124490Y-36893179D01*
X110595027Y-36645032D01*
X110363000Y-36765531D01*
X110109000Y-36765531D01*
X109876973Y-36645032D01*
X109347510Y-36893179D01*
X108953312Y-37325053D01*
X108781042Y-37740974D01*
X94964000Y-37740974D01*
X94964000Y-32473117D01*
X100610586Y-32473117D01*
X100973524Y-33351492D01*
X101644973Y-34024114D01*
X102522714Y-34388584D01*
X103473117Y-34389414D01*
X104351492Y-34026476D01*
X105024114Y-33355027D01*
X105320153Y-32642086D01*
X162961320Y-32642086D01*
X162961320Y-34256434D01*
X163124117Y-35074871D01*
X163587725Y-35768709D01*
X164281563Y-36232317D01*
X165100000Y-36395114D01*
X165918437Y-36232317D01*
X166612275Y-35768709D01*
X167075883Y-35074871D01*
X167238680Y-34256434D01*
X167238680Y-32642086D01*
X175661320Y-32642086D01*
X175661320Y-34256434D01*
X175824117Y-35074871D01*
X176287725Y-35768709D01*
X176981563Y-36232317D01*
X177800000Y-36395114D01*
X178618437Y-36232317D01*
X179312275Y-35768709D01*
X179552182Y-35409663D01*
X192554982Y-35409663D01*
X192576686Y-36119448D01*
X192806554Y-36674399D01*
X193088975Y-36791419D01*
X194170395Y-35710000D01*
X194529605Y-35710000D01*
X195611025Y-36791419D01*
X195893446Y-36674399D01*
X196145018Y-36010337D01*
X196126651Y-35409663D01*
X197554982Y-35409663D01*
X197576686Y-36119448D01*
X197806554Y-36674399D01*
X198088975Y-36791419D01*
X199170395Y-35710000D01*
X199529605Y-35710000D01*
X200611025Y-36791419D01*
X200893446Y-36674399D01*
X201145018Y-36010337D01*
X201139813Y-35840090D01*
X215519000Y-35840090D01*
X215519000Y-36544250D01*
X215677750Y-36703000D01*
X217043000Y-36703000D01*
X217043000Y-35490150D01*
X217297000Y-35490150D01*
X217297000Y-36703000D01*
X218662250Y-36703000D01*
X218821000Y-36544250D01*
X218821000Y-35840090D01*
X218724327Y-35606701D01*
X218545698Y-35428073D01*
X218312309Y-35331400D01*
X217455750Y-35331400D01*
X217297000Y-35490150D01*
X217043000Y-35490150D01*
X216884250Y-35331400D01*
X216027691Y-35331400D01*
X215794302Y-35428073D01*
X215615673Y-35606701D01*
X215519000Y-35840090D01*
X201139813Y-35840090D01*
X201123314Y-35300552D01*
X200893446Y-34745601D01*
X200611025Y-34628581D01*
X199529605Y-35710000D01*
X199170395Y-35710000D01*
X198088975Y-34628581D01*
X197806554Y-34745601D01*
X197554982Y-35409663D01*
X196126651Y-35409663D01*
X196123314Y-35300552D01*
X195893446Y-34745601D01*
X195611025Y-34628581D01*
X194529605Y-35710000D01*
X194170395Y-35710000D01*
X193088975Y-34628581D01*
X192806554Y-34745601D01*
X192554982Y-35409663D01*
X179552182Y-35409663D01*
X179775883Y-35074871D01*
X179900381Y-34448975D01*
X193268581Y-34448975D01*
X194350000Y-35530395D01*
X195431419Y-34448975D01*
X198268581Y-34448975D01*
X199350000Y-35530395D01*
X200431419Y-34448975D01*
X200314399Y-34166554D01*
X199650337Y-33914982D01*
X198940552Y-33936686D01*
X198385601Y-34166554D01*
X198268581Y-34448975D01*
X195431419Y-34448975D01*
X195314399Y-34166554D01*
X194650337Y-33914982D01*
X193940552Y-33936686D01*
X193385601Y-34166554D01*
X193268581Y-34448975D01*
X179900381Y-34448975D01*
X179938680Y-34256434D01*
X179938680Y-32642086D01*
X179905071Y-32473117D01*
X225610586Y-32473117D01*
X225973524Y-33351492D01*
X226644973Y-34024114D01*
X227522714Y-34388584D01*
X228473117Y-34389414D01*
X229351492Y-34026476D01*
X230024114Y-33355027D01*
X230388584Y-32477286D01*
X230389414Y-31526883D01*
X230026476Y-30648508D01*
X229355027Y-29975886D01*
X228477286Y-29611416D01*
X227526883Y-29610586D01*
X226648508Y-29973524D01*
X225975886Y-30644973D01*
X225611416Y-31522714D01*
X225610586Y-32473117D01*
X179905071Y-32473117D01*
X179775883Y-31823649D01*
X179312275Y-31129811D01*
X178618437Y-30666203D01*
X177800000Y-30503406D01*
X176981563Y-30666203D01*
X176287725Y-31129811D01*
X175824117Y-31823649D01*
X175661320Y-32642086D01*
X167238680Y-32642086D01*
X167075883Y-31823649D01*
X166612275Y-31129811D01*
X165918437Y-30666203D01*
X165100000Y-30503406D01*
X164281563Y-30666203D01*
X163587725Y-31129811D01*
X163124117Y-31823649D01*
X162961320Y-32642086D01*
X105320153Y-32642086D01*
X105388584Y-32477286D01*
X105389414Y-31526883D01*
X105026476Y-30648508D01*
X104355027Y-29975886D01*
X103477286Y-29611416D01*
X102526883Y-29610586D01*
X101648508Y-29973524D01*
X100975886Y-30644973D01*
X100611416Y-31522714D01*
X100610586Y-32473117D01*
X94964000Y-32473117D01*
X94964000Y-28964000D01*
X234036000Y-28964000D01*
X234036000Y-54855309D01*
M02*
