G04 #@! TF.FileFunction,Copper,L2,Bot,Signal*
%FSLAX46Y46*%
G04 Gerber Fmt 4.6, Leading zero omitted, Abs format (unit mm)*
G04 Created by KiCad (PCBNEW no-vcs-found-product) date So 28 Aug 2016 22:52:49 CEST*
%MOMM*%
G01*
G04 APERTURE LIST*
%ADD10C,0.100000*%
%ADD11C,1.998980*%
%ADD12R,1.900000X2.000000*%
%ADD13C,1.900000*%
%ADD14R,1.727200X1.727200*%
%ADD15O,1.727200X1.727200*%
%ADD16O,2.499360X4.000500*%
%ADD17C,1.501140*%
%ADD18C,2.999740*%
%ADD19C,2.300000*%
%ADD20C,2.390000*%
%ADD21C,3.000000*%
%ADD22R,2.032000X1.727200*%
%ADD23O,2.032000X1.727200*%
%ADD24C,1.727200*%
%ADD25C,1.727000*%
%ADD26R,2.200000X3.500000*%
%ADD27C,1.524000*%
%ADD28C,0.600000*%
%ADD29C,0.250000*%
%ADD30C,0.500000*%
%ADD31C,0.750000*%
%ADD32C,0.254000*%
G04 APERTURE END LIST*
D10*
D11*
X144780000Y-55880000D03*
X154940000Y-55880000D03*
D12*
X217000000Y-55000000D03*
D13*
X214460000Y-55000000D03*
D14*
X132080000Y-77470000D03*
D15*
X134620000Y-77470000D03*
X132080000Y-80010000D03*
X134620000Y-80010000D03*
X132080000Y-82550000D03*
X134620000Y-82550000D03*
X132080000Y-85090000D03*
X134620000Y-85090000D03*
X132080000Y-87630000D03*
X134620000Y-87630000D03*
X132080000Y-90170000D03*
X134620000Y-90170000D03*
X132080000Y-92710000D03*
X134620000Y-92710000D03*
X132080000Y-95250000D03*
X134620000Y-95250000D03*
X132080000Y-97790000D03*
X134620000Y-97790000D03*
X132080000Y-100330000D03*
X134620000Y-100330000D03*
X132080000Y-102870000D03*
X134620000Y-102870000D03*
X132080000Y-105410000D03*
X134620000Y-105410000D03*
X132080000Y-107950000D03*
X134620000Y-107950000D03*
D16*
X177800000Y-55450740D03*
X177800000Y-33449260D03*
X165100000Y-33449260D03*
X165100000Y-55450740D03*
D17*
X143255140Y-45722120D03*
X145795140Y-45722120D03*
X147827140Y-45722120D03*
X150367140Y-45722120D03*
D18*
X140207140Y-43055120D03*
X153923140Y-43055120D03*
D19*
X196850000Y-45720000D03*
X204350000Y-45720000D03*
X189350000Y-45720000D03*
X191850000Y-48210000D03*
X201850000Y-48210000D03*
X199350000Y-35710000D03*
X194350000Y-35710000D03*
D20*
X204350000Y-40720000D03*
X189350000Y-40720000D03*
D21*
X228600000Y-68200000D03*
X228600000Y-84200000D03*
D22*
X119380000Y-38100000D03*
D23*
X119380000Y-40640000D03*
X119380000Y-43180000D03*
X119380000Y-45720000D03*
X119380000Y-48260000D03*
X119380000Y-50800000D03*
D22*
X217170000Y-36830000D03*
D23*
X217170000Y-39370000D03*
X217170000Y-41910000D03*
X217170000Y-44450000D03*
D11*
X154940000Y-50800000D03*
X144780000Y-50800000D03*
X123952000Y-78994000D03*
X113792000Y-78994000D03*
X123952000Y-82296000D03*
X113792000Y-82296000D03*
X123952000Y-85598000D03*
X113792000Y-85598000D03*
X123952000Y-88900000D03*
X113792000Y-88900000D03*
X123952000Y-92202000D03*
X113792000Y-92202000D03*
X220920000Y-55000000D03*
X231080000Y-55000000D03*
X139446000Y-100076000D03*
X149606000Y-100076000D03*
D24*
X173990000Y-90170000D03*
D25*
X176530000Y-90170000D03*
X179070000Y-90170000D03*
D24*
X181610000Y-90170000D03*
D25*
X173990000Y-87630000D03*
X176530000Y-87630000D03*
X179070000Y-87630000D03*
X181610000Y-87630000D03*
X208980000Y-74230000D03*
D10*
G36*
X194340000Y-94170000D02*
X194340000Y-91970000D01*
X197840000Y-91970000D01*
X197840000Y-94170000D01*
X194340000Y-94170000D01*
X194340000Y-94170000D01*
G37*
G36*
X194340000Y-67170000D02*
X194340000Y-64970000D01*
X197840000Y-64970000D01*
X197840000Y-67170000D01*
X194340000Y-67170000D01*
X194340000Y-67170000D01*
G37*
D26*
X170090000Y-79570000D03*
X222090000Y-79570000D03*
D14*
X205232000Y-114173000D03*
D15*
X205232000Y-116713000D03*
X202692000Y-114173000D03*
X202692000Y-116713000D03*
X200152000Y-114173000D03*
X200152000Y-116713000D03*
X197612000Y-114173000D03*
X197612000Y-116713000D03*
X195072000Y-114173000D03*
X195072000Y-116713000D03*
X192532000Y-114173000D03*
X192532000Y-116713000D03*
X189992000Y-114173000D03*
X189992000Y-116713000D03*
X187452000Y-114173000D03*
X187452000Y-116713000D03*
X184912000Y-114173000D03*
X184912000Y-116713000D03*
X182372000Y-114173000D03*
X182372000Y-116713000D03*
X179832000Y-114173000D03*
X179832000Y-116713000D03*
X177292000Y-114173000D03*
X177292000Y-116713000D03*
X174752000Y-114173000D03*
X174752000Y-116713000D03*
D27*
X188722000Y-106680000D03*
X188722000Y-109220000D03*
X188722000Y-104140000D03*
X199390000Y-106680000D03*
X199390000Y-109220000D03*
X199390000Y-104140000D03*
X204724000Y-106680000D03*
X204724000Y-109220000D03*
X204724000Y-104140000D03*
X194056000Y-106680000D03*
X194056000Y-109220000D03*
X194056000Y-104140000D03*
X209804000Y-106934000D03*
X209804000Y-109474000D03*
X209804000Y-104394000D03*
X149860000Y-116840000D03*
X149860000Y-119380000D03*
X149860000Y-114300000D03*
X156464000Y-76200000D03*
X159004000Y-76200000D03*
X153924000Y-76200000D03*
X145034000Y-116840000D03*
X145034000Y-119380000D03*
X145034000Y-114300000D03*
X156464000Y-87884000D03*
X159004000Y-87884000D03*
X153924000Y-87884000D03*
X156464000Y-82296000D03*
X159004000Y-82296000D03*
X153924000Y-82296000D03*
X156464000Y-70358000D03*
X159004000Y-70358000D03*
X153924000Y-70358000D03*
X156464000Y-99060000D03*
X159004000Y-99060000D03*
X153924000Y-99060000D03*
X156464000Y-93472000D03*
X159004000Y-93472000D03*
X153924000Y-93472000D03*
D14*
X112776000Y-40640000D03*
D15*
X110236000Y-40640000D03*
X112776000Y-38100000D03*
X110236000Y-38100000D03*
D14*
X102616000Y-77470000D03*
D15*
X105156000Y-77470000D03*
X102616000Y-80010000D03*
X105156000Y-80010000D03*
X102616000Y-82550000D03*
X105156000Y-82550000D03*
X102616000Y-85090000D03*
X105156000Y-85090000D03*
X102616000Y-87630000D03*
X105156000Y-87630000D03*
X102616000Y-90170000D03*
X105156000Y-90170000D03*
X102616000Y-92710000D03*
X105156000Y-92710000D03*
X102616000Y-95250000D03*
X105156000Y-95250000D03*
X102616000Y-97790000D03*
X105156000Y-97790000D03*
X102616000Y-100330000D03*
X105156000Y-100330000D03*
X102616000Y-102870000D03*
X105156000Y-102870000D03*
X102616000Y-105410000D03*
X105156000Y-105410000D03*
X102616000Y-107950000D03*
X105156000Y-107950000D03*
D11*
X174498000Y-106680000D03*
X184658000Y-106680000D03*
X188722000Y-100584000D03*
X198882000Y-100584000D03*
X196850000Y-97028000D03*
X207010000Y-97028000D03*
X183642000Y-97028000D03*
X193802000Y-97028000D03*
X201930000Y-100584000D03*
X212090000Y-100584000D03*
X123952000Y-95504000D03*
X113792000Y-95504000D03*
X139446000Y-80264000D03*
X149606000Y-80264000D03*
X123952000Y-98806000D03*
X113792000Y-98806000D03*
X139446000Y-86868000D03*
X149606000Y-86868000D03*
X139446000Y-83566000D03*
X149606000Y-83566000D03*
X139446000Y-76962000D03*
X149606000Y-76962000D03*
X139446000Y-93472000D03*
X149606000Y-93472000D03*
X139446000Y-90170000D03*
X149606000Y-90170000D03*
D28*
X176530000Y-60960000D03*
X189738000Y-60960000D03*
X130048000Y-60960000D03*
X128270000Y-75184000D03*
X139446000Y-74168000D03*
X177292000Y-103886000D03*
X156464000Y-106426000D03*
X127762000Y-80010000D03*
X128778000Y-82550000D03*
X156464000Y-105410000D03*
X180848000Y-101346000D03*
X179832000Y-95504000D03*
X159766000Y-102616000D03*
X131064000Y-61976000D03*
X122428000Y-59944000D03*
X122428000Y-66548000D03*
X156718000Y-113792000D03*
X113538000Y-109982000D03*
X168148000Y-107696000D03*
X156464000Y-107442000D03*
X156718000Y-115316000D03*
X167386000Y-108712000D03*
X156464000Y-108712000D03*
X160528000Y-121412000D03*
X166370000Y-76200000D03*
X161544000Y-93472000D03*
X165354000Y-70358000D03*
X162560000Y-87884000D03*
X127000000Y-121158000D03*
X125476000Y-120142000D03*
D29*
X217000000Y-55000000D02*
X220920000Y-55000000D01*
X176530000Y-60960000D02*
X189738000Y-60960000D01*
X130048000Y-97790000D02*
X130048000Y-60960000D01*
X132080000Y-97790000D02*
X130048000Y-97790000D01*
X119380000Y-48260000D02*
X122936000Y-48260000D01*
X128270000Y-53594000D02*
X128270000Y-75184000D01*
X122936000Y-48260000D02*
X128270000Y-53594000D01*
X149606000Y-100076000D02*
X144526000Y-100076000D01*
X144526000Y-74168000D02*
X139446000Y-74168000D01*
X144526000Y-100076000D02*
X144526000Y-74168000D01*
X119380000Y-48260000D02*
X114554000Y-48260000D01*
X114554000Y-48260000D02*
X112776000Y-46482000D01*
X112776000Y-46482000D02*
X112776000Y-40640000D01*
X177292000Y-114173000D02*
X177292000Y-110998000D01*
X177292000Y-110998000D02*
X177292000Y-103886000D01*
X127762000Y-102362000D02*
X127762000Y-113284000D01*
X128524000Y-113284000D02*
X138176000Y-113284000D01*
X138176000Y-113284000D02*
X138176000Y-106680000D01*
X138176000Y-106680000D02*
X138430000Y-106426000D01*
X138430000Y-106426000D02*
X156464000Y-106426000D01*
X127762000Y-102362000D02*
X127762000Y-80010000D01*
X127762000Y-113284000D02*
X128524000Y-113284000D01*
X180848000Y-104140000D02*
X180848000Y-101346000D01*
X182372000Y-112268000D02*
X180848000Y-110744000D01*
X180848000Y-110744000D02*
X180848000Y-104140000D01*
X128778000Y-82550000D02*
X128778000Y-112268000D01*
X137160000Y-112268000D02*
X129286000Y-112268000D01*
X137160000Y-105410000D02*
X137160000Y-112268000D01*
X156464000Y-105410000D02*
X137160000Y-105410000D01*
X129286000Y-112268000D02*
X128778000Y-112268000D01*
X182372000Y-112268000D02*
X182372000Y-114173000D01*
X124206000Y-92202000D02*
X123952000Y-92202000D01*
X132080000Y-92710000D02*
X131572000Y-92710000D01*
X201930000Y-100584000D02*
X201930000Y-90424000D01*
X179832000Y-95504000D02*
X181610000Y-93726000D01*
X181610000Y-93726000D02*
X188976000Y-93726000D01*
X188976000Y-93726000D02*
X192278000Y-90424000D01*
X192278000Y-90424000D02*
X201930000Y-90424000D01*
X134874000Y-95250000D02*
X134620000Y-95250000D01*
X195072000Y-121412000D02*
X195072000Y-122428000D01*
X195072000Y-122428000D02*
X160020000Y-122428000D01*
X160020000Y-122428000D02*
X159766000Y-122174000D01*
X159766000Y-122174000D02*
X159766000Y-102616000D01*
X195072000Y-121412000D02*
X195072000Y-116713000D01*
D30*
X177800000Y-33449260D02*
X187373260Y-33449260D01*
X201850000Y-43608000D02*
X201850000Y-48210000D01*
X200152000Y-41910000D02*
X201850000Y-43608000D01*
X195834000Y-41910000D02*
X200152000Y-41910000D01*
X187373260Y-33449260D02*
X195834000Y-41910000D01*
D31*
X204350000Y-45720000D02*
X209804000Y-45720000D01*
X209804000Y-45720000D02*
X213614000Y-41910000D01*
X213614000Y-41910000D02*
X217170000Y-41910000D01*
D29*
X208980000Y-74230000D02*
X228600000Y-68200000D01*
X131064000Y-49530000D02*
X119634000Y-38100000D01*
X131064000Y-61976000D02*
X131064000Y-49530000D01*
X119634000Y-38100000D02*
X119380000Y-38100000D01*
X176784000Y-90424000D02*
X176530000Y-90170000D01*
X97028000Y-59944000D02*
X97028000Y-91694000D01*
X97790000Y-92710000D02*
X97028000Y-91694000D01*
X102870000Y-92710000D02*
X97790000Y-92710000D01*
X97028000Y-59944000D02*
X122428000Y-59944000D01*
X105156000Y-92710000D02*
X109728000Y-92710000D01*
X110490000Y-66548000D02*
X122428000Y-66548000D01*
X110490000Y-91948000D02*
X110490000Y-66548000D01*
X109728000Y-92710000D02*
X110490000Y-91948000D01*
X156718000Y-113792000D02*
X155448000Y-115062000D01*
X155448000Y-115062000D02*
X155448000Y-122174000D01*
X155448000Y-122174000D02*
X125730000Y-122174000D01*
X125730000Y-122174000D02*
X113538000Y-109982000D01*
X114046000Y-106172000D02*
X122174000Y-114300000D01*
X105664000Y-97790000D02*
X114046000Y-106172000D01*
X122174000Y-114300000D02*
X138938000Y-114300000D01*
X168148000Y-107696000D02*
X168402000Y-107442000D01*
X168402000Y-107442000D02*
X168402000Y-98044000D01*
X168402000Y-98044000D02*
X181864000Y-98044000D01*
X181864000Y-98044000D02*
X182880000Y-97028000D01*
X138938000Y-107442000D02*
X156464000Y-107442000D01*
X138938000Y-107950000D02*
X138938000Y-107442000D01*
X138938000Y-114300000D02*
X138938000Y-107950000D01*
X182880000Y-97028000D02*
X183642000Y-97028000D01*
X105156000Y-97790000D02*
X105664000Y-97790000D01*
X102616000Y-100330000D02*
X100330000Y-102616000D01*
X100330000Y-109982000D02*
X100330000Y-102616000D01*
X100584000Y-110236000D02*
X100330000Y-109982000D01*
X111760000Y-110236000D02*
X100584000Y-110236000D01*
X124968000Y-123444000D02*
X111760000Y-110236000D01*
X156718000Y-123444000D02*
X124968000Y-123444000D01*
X156718000Y-115316000D02*
X156718000Y-123444000D01*
X113030000Y-106934000D02*
X122174000Y-116078000D01*
X167386000Y-97282000D02*
X167640000Y-97028000D01*
X167640000Y-97028000D02*
X180086000Y-97028000D01*
X180086000Y-97028000D02*
X182118000Y-94996000D01*
X182118000Y-94996000D02*
X194818000Y-94996000D01*
X196850000Y-97028000D02*
X194818000Y-94996000D01*
X167386000Y-98806000D02*
X167386000Y-108712000D01*
X156464000Y-108712000D02*
X139700000Y-108712000D01*
X139700000Y-108712000D02*
X139700000Y-115316000D01*
X113030000Y-106934000D02*
X106456000Y-100360000D01*
X106456000Y-100360000D02*
X105040000Y-100360000D01*
X167386000Y-98806000D02*
X167386000Y-97282000D01*
X139700000Y-116078000D02*
X139700000Y-115316000D01*
X122174000Y-116078000D02*
X139700000Y-116078000D01*
D30*
X191262000Y-87376000D02*
X191262000Y-59611260D01*
X191262000Y-59611260D02*
X185420000Y-53769260D01*
X220345000Y-116713000D02*
X205232000Y-116713000D01*
X165100000Y-33449260D02*
X185420000Y-53769260D01*
X220218000Y-87376000D02*
X191262000Y-87376000D01*
X220218000Y-116586000D02*
X220218000Y-87376000D01*
X220345000Y-116713000D02*
X220218000Y-116586000D01*
X164084000Y-72136000D02*
X164084000Y-60452000D01*
X164084000Y-60452000D02*
X159766000Y-56134000D01*
X159766000Y-56134000D02*
X159766000Y-38783260D01*
X159766000Y-38783260D02*
X165100000Y-33449260D01*
X174752000Y-114173000D02*
X163957000Y-114173000D01*
X164084000Y-114046000D02*
X164084000Y-72136000D01*
X163957000Y-114173000D02*
X164084000Y-114046000D01*
X112776000Y-38100000D02*
X112776000Y-36830000D01*
X112776000Y-36830000D02*
X114554000Y-35052000D01*
X114554000Y-35052000D02*
X124714000Y-35052000D01*
X124714000Y-35052000D02*
X136144000Y-46482000D01*
X136144000Y-46482000D02*
X136144000Y-50546000D01*
X136144000Y-50546000D02*
X136398000Y-50800000D01*
X136398000Y-50800000D02*
X144780000Y-50800000D01*
X150367140Y-45722120D02*
X150367140Y-38862860D01*
X155780740Y-33449260D02*
X165100000Y-33449260D01*
X150367140Y-38862860D02*
X155780740Y-33449260D01*
D29*
X144780000Y-50800000D02*
X145289260Y-50800000D01*
D30*
X145289260Y-50800000D02*
X150367140Y-45722120D01*
D29*
X200152000Y-122936000D02*
X200152000Y-121920000D01*
X200152000Y-122936000D02*
X199644000Y-123444000D01*
X199644000Y-123444000D02*
X159004000Y-123444000D01*
X159004000Y-99060000D02*
X159004000Y-123444000D01*
X200152000Y-121920000D02*
X200152000Y-116713000D01*
X160528000Y-121412000D02*
X160528000Y-84074000D01*
X160528000Y-84074000D02*
X159004000Y-82550000D01*
X159004000Y-82550000D02*
X159004000Y-82296000D01*
X181864000Y-100838000D02*
X181864000Y-99822000D01*
X183642000Y-112014000D02*
X181864000Y-110236000D01*
X181864000Y-110236000D02*
X181864000Y-100838000D01*
X184912000Y-114173000D02*
X184912000Y-112014000D01*
X184912000Y-112014000D02*
X183642000Y-112014000D01*
X166370000Y-109982000D02*
X166370000Y-76200000D01*
X169672000Y-109982000D02*
X166370000Y-109982000D01*
X169672000Y-99822000D02*
X169672000Y-109982000D01*
X181864000Y-99822000D02*
X169672000Y-99822000D01*
X167386000Y-120396000D02*
X162560000Y-120396000D01*
X184912000Y-120396000D02*
X167386000Y-120396000D01*
X184912000Y-116713000D02*
X184912000Y-120396000D01*
X161544000Y-119380000D02*
X161544000Y-93472000D01*
X162560000Y-119380000D02*
X161544000Y-119380000D01*
X162560000Y-120396000D02*
X162560000Y-119380000D01*
X178054000Y-102616000D02*
X179324000Y-102616000D01*
X165354000Y-111252000D02*
X170434000Y-111252000D01*
X170434000Y-111252000D02*
X170688000Y-110998000D01*
X170688000Y-110998000D02*
X170688000Y-102870000D01*
X170688000Y-102870000D02*
X170942000Y-102616000D01*
X170942000Y-102616000D02*
X178054000Y-102616000D01*
X165354000Y-110236000D02*
X165354000Y-70358000D01*
X165354000Y-110236000D02*
X165354000Y-111252000D01*
X179832000Y-103124000D02*
X179832000Y-114173000D01*
X179324000Y-102616000D02*
X179832000Y-103124000D01*
X167640000Y-119380000D02*
X163322000Y-119380000D01*
X179832000Y-119380000D02*
X167640000Y-119380000D01*
X179832000Y-116713000D02*
X179832000Y-119380000D01*
X162560000Y-118364000D02*
X162560000Y-87884000D01*
X163322000Y-118364000D02*
X162560000Y-118364000D01*
X163322000Y-119380000D02*
X163322000Y-118364000D01*
X145288000Y-121158000D02*
X127000000Y-121158000D01*
X145288000Y-121158000D02*
X147574000Y-121158000D01*
X147574000Y-121158000D02*
X147574000Y-117856000D01*
X147574000Y-117856000D02*
X148590000Y-116840000D01*
X149860000Y-116840000D02*
X148590000Y-116840000D01*
X149606000Y-80264000D02*
X152400000Y-80264000D01*
X152400000Y-80264000D02*
X156464000Y-76200000D01*
X150368000Y-80010000D02*
X150368000Y-80772000D01*
X142494000Y-119126000D02*
X144780000Y-116840000D01*
X142494000Y-120142000D02*
X142494000Y-119126000D01*
X125476000Y-120142000D02*
X142494000Y-120142000D01*
X144780000Y-116840000D02*
X145034000Y-116840000D01*
X149606000Y-86868000D02*
X150622000Y-86868000D01*
X154432000Y-85852000D02*
X156464000Y-87884000D01*
X151638000Y-85852000D02*
X154432000Y-85852000D01*
X150622000Y-86868000D02*
X151638000Y-85852000D01*
X149606000Y-83566000D02*
X151384000Y-83566000D01*
X154432000Y-84328000D02*
X156464000Y-82296000D01*
X152146000Y-84328000D02*
X154432000Y-84328000D01*
X151384000Y-83566000D02*
X152146000Y-84328000D01*
X149606000Y-76962000D02*
X149860000Y-76962000D01*
X149860000Y-76962000D02*
X156464000Y-70358000D01*
X149606000Y-93472000D02*
X150876000Y-93472000D01*
X150876000Y-93472000D02*
X156464000Y-99060000D01*
X149606000Y-90170000D02*
X153162000Y-90170000D01*
X153162000Y-90170000D02*
X156464000Y-93472000D01*
D32*
G36*
X233798000Y-54898728D02*
X232719148Y-55095546D01*
X232701341Y-54614623D01*
X232498965Y-54126042D01*
X232232163Y-54027443D01*
X231259605Y-55000000D01*
X231273748Y-55014143D01*
X231094143Y-55193748D01*
X231080000Y-55179605D01*
X231065858Y-55193748D01*
X230886253Y-55014143D01*
X230900395Y-55000000D01*
X229927837Y-54027443D01*
X229661035Y-54126042D01*
X229434599Y-54735582D01*
X229458659Y-55385377D01*
X229576113Y-55668937D01*
X197081207Y-61597062D01*
X197034395Y-61615773D01*
X196998551Y-61651222D01*
X196977000Y-61722000D01*
X196977000Y-64322560D01*
X196217000Y-64322560D01*
X196217000Y-65943000D01*
X196237000Y-65943000D01*
X196237000Y-66197000D01*
X196217000Y-66197000D01*
X196217000Y-67817440D01*
X196977000Y-67817440D01*
X196977000Y-80772000D01*
X196987006Y-80821410D01*
X197015447Y-80863035D01*
X197062278Y-80891951D01*
X208746278Y-84955951D01*
X208796233Y-84962733D01*
X208838028Y-84952731D01*
X211489964Y-83816187D01*
X226457277Y-83816187D01*
X226473503Y-84665387D01*
X226767261Y-85374582D01*
X227086030Y-85534365D01*
X228420395Y-84200000D01*
X228779605Y-84200000D01*
X230113970Y-85534365D01*
X230432739Y-85374582D01*
X230742723Y-84583813D01*
X230726497Y-83734613D01*
X230432739Y-83025418D01*
X230113970Y-82865635D01*
X228779605Y-84200000D01*
X228420395Y-84200000D01*
X227086030Y-82865635D01*
X226767261Y-83025418D01*
X226457277Y-83816187D01*
X211489964Y-83816187D01*
X214126997Y-82686030D01*
X227265635Y-82686030D01*
X228600000Y-84020395D01*
X229934365Y-82686030D01*
X229774582Y-82367261D01*
X228983813Y-82057277D01*
X228134613Y-82073503D01*
X227425418Y-82367261D01*
X227265635Y-82686030D01*
X214126997Y-82686030D01*
X219482067Y-80391000D01*
X220355000Y-80391000D01*
X220355000Y-81446310D01*
X220451673Y-81679699D01*
X220630302Y-81858327D01*
X220863691Y-81955000D01*
X221804250Y-81955000D01*
X221963000Y-81796250D01*
X221963000Y-80391000D01*
X222217000Y-80391000D01*
X222217000Y-81796250D01*
X222375750Y-81955000D01*
X223316309Y-81955000D01*
X223549698Y-81858327D01*
X223728327Y-81679699D01*
X223825000Y-81446310D01*
X223825000Y-80391000D01*
X231521000Y-80391000D01*
X231521000Y-86741000D01*
X222504000Y-86741000D01*
X222454590Y-86751006D01*
X222412965Y-86779447D01*
X222385685Y-86821841D01*
X222377000Y-86868000D01*
X222377000Y-123798000D01*
X201052865Y-123798000D01*
X201308697Y-123415120D01*
X201404000Y-122936000D01*
X201404000Y-118263512D01*
X201422000Y-118251484D01*
X201930230Y-118591073D01*
X202692000Y-118742598D01*
X203453770Y-118591073D01*
X203962000Y-118251484D01*
X204470230Y-118591073D01*
X205232000Y-118742598D01*
X205993770Y-118591073D01*
X206639567Y-118159565D01*
X206686049Y-118090000D01*
X220345000Y-118090000D01*
X220871955Y-117985182D01*
X221318686Y-117686686D01*
X221617182Y-117239955D01*
X221722000Y-116713000D01*
X221617182Y-116186045D01*
X221595000Y-116152847D01*
X221595000Y-87376000D01*
X221490182Y-86849045D01*
X221191686Y-86402314D01*
X220744955Y-86103818D01*
X220218000Y-85999000D01*
X192639000Y-85999000D01*
X192639000Y-85713970D01*
X227265635Y-85713970D01*
X227425418Y-86032739D01*
X228216187Y-86342723D01*
X229065387Y-86326497D01*
X229774582Y-86032739D01*
X229934365Y-85713970D01*
X228600000Y-84379605D01*
X227265635Y-85713970D01*
X192639000Y-85713970D01*
X192639000Y-66197000D01*
X193692560Y-66197000D01*
X193692560Y-67170000D01*
X193736838Y-67405317D01*
X193875910Y-67621441D01*
X194088110Y-67766431D01*
X194340000Y-67817440D01*
X195963000Y-67817440D01*
X195963000Y-66197000D01*
X193692560Y-66197000D01*
X192639000Y-66197000D01*
X192639000Y-64970000D01*
X193692560Y-64970000D01*
X193692560Y-65943000D01*
X195963000Y-65943000D01*
X195963000Y-64322560D01*
X194340000Y-64322560D01*
X194104683Y-64366838D01*
X193888559Y-64505910D01*
X193743569Y-64718110D01*
X193692560Y-64970000D01*
X192639000Y-64970000D01*
X192639000Y-59611260D01*
X192534182Y-59084305D01*
X192235686Y-58637574D01*
X189009440Y-55411328D01*
X212382640Y-55411328D01*
X212698178Y-56174989D01*
X213281938Y-56759768D01*
X214045047Y-57076639D01*
X214871328Y-57077360D01*
X215344399Y-56881891D01*
X215602944Y-57058548D01*
X216050000Y-57149079D01*
X217950000Y-57149079D01*
X218367641Y-57070494D01*
X218751219Y-56823669D01*
X219008548Y-56447056D01*
X219048048Y-56252000D01*
X219165128Y-56252000D01*
X219713868Y-56801699D01*
X220495159Y-57126120D01*
X221341129Y-57126858D01*
X222122986Y-56803801D01*
X222721699Y-56206132D01*
X223046120Y-55424841D01*
X223046858Y-54578871D01*
X222744801Y-53847837D01*
X230107443Y-53847837D01*
X231080000Y-54820395D01*
X232052557Y-53847837D01*
X231953958Y-53581035D01*
X231344418Y-53354599D01*
X230694623Y-53378659D01*
X230206042Y-53581035D01*
X230107443Y-53847837D01*
X222744801Y-53847837D01*
X222723801Y-53797014D01*
X222126132Y-53198301D01*
X221344841Y-52873880D01*
X220498871Y-52873142D01*
X219717014Y-53196199D01*
X219164249Y-53748000D01*
X219051662Y-53748000D01*
X219020494Y-53582359D01*
X218773669Y-53198781D01*
X218397056Y-52941452D01*
X217950000Y-52850921D01*
X216050000Y-52850921D01*
X215632359Y-52929506D01*
X215341103Y-53116924D01*
X214874953Y-52923361D01*
X214048672Y-52922640D01*
X213285011Y-53238178D01*
X212700232Y-53821938D01*
X212383361Y-54585047D01*
X212382640Y-55411328D01*
X189009440Y-55411328D01*
X179769048Y-46170936D01*
X187072606Y-46170936D01*
X187418528Y-47008132D01*
X188058499Y-47649221D01*
X188895090Y-47996604D01*
X189573185Y-47997195D01*
X189572606Y-48660936D01*
X189918528Y-49498132D01*
X190558499Y-50139221D01*
X191395090Y-50486604D01*
X192300936Y-50487394D01*
X193138132Y-50141472D01*
X193779221Y-49501501D01*
X194126604Y-48664910D01*
X194127394Y-47759064D01*
X193805916Y-46981025D01*
X195768581Y-46981025D01*
X195885601Y-47263446D01*
X196549663Y-47515018D01*
X197259448Y-47493314D01*
X197814399Y-47263446D01*
X197931419Y-46981025D01*
X196850000Y-45899605D01*
X195768581Y-46981025D01*
X193805916Y-46981025D01*
X193781472Y-46921868D01*
X193141501Y-46280779D01*
X192304910Y-45933396D01*
X191626815Y-45932805D01*
X191627262Y-45419663D01*
X195054982Y-45419663D01*
X195076686Y-46129448D01*
X195306554Y-46684399D01*
X195588975Y-46801419D01*
X196670395Y-45720000D01*
X197029605Y-45720000D01*
X198111025Y-46801419D01*
X198393446Y-46684399D01*
X198645018Y-46020337D01*
X198623314Y-45310552D01*
X198393446Y-44755601D01*
X198111025Y-44638581D01*
X197029605Y-45720000D01*
X196670395Y-45720000D01*
X195588975Y-44638581D01*
X195306554Y-44755601D01*
X195054982Y-45419663D01*
X191627262Y-45419663D01*
X191627394Y-45269064D01*
X191292673Y-44458975D01*
X195768581Y-44458975D01*
X196850000Y-45540395D01*
X197931419Y-44458975D01*
X197814399Y-44176554D01*
X197150337Y-43924982D01*
X196440552Y-43946686D01*
X195885601Y-44176554D01*
X195768581Y-44458975D01*
X191292673Y-44458975D01*
X191281472Y-44431868D01*
X190641501Y-43790779D01*
X189804910Y-43443396D01*
X188899064Y-43442606D01*
X188061868Y-43788528D01*
X187420779Y-44428499D01*
X187073396Y-45265090D01*
X187072606Y-46170936D01*
X179769048Y-46170936D01*
X174777960Y-41179848D01*
X187027597Y-41179848D01*
X187380356Y-42033589D01*
X188032975Y-42687348D01*
X188886099Y-43041596D01*
X189809848Y-43042403D01*
X190663589Y-42689644D01*
X191317348Y-42037025D01*
X191671596Y-41183901D01*
X191672403Y-40260152D01*
X191319644Y-39406411D01*
X190667025Y-38752652D01*
X189813901Y-38398404D01*
X188890152Y-38397597D01*
X188036411Y-38750356D01*
X187382652Y-39402975D01*
X187028404Y-40256099D01*
X187027597Y-41179848D01*
X174777960Y-41179848D01*
X167476680Y-33878568D01*
X167476680Y-32637424D01*
X175423320Y-32637424D01*
X175423320Y-34261096D01*
X175604234Y-35170612D01*
X176119433Y-35941663D01*
X176890484Y-36456862D01*
X177800000Y-36637776D01*
X178709516Y-36456862D01*
X179480567Y-35941663D01*
X179995766Y-35170612D01*
X180064262Y-34826260D01*
X186802888Y-34826260D01*
X194860314Y-42883686D01*
X195307045Y-43182182D01*
X195834000Y-43287000D01*
X199581628Y-43287000D01*
X200473000Y-44178372D01*
X200473000Y-46367241D01*
X199920779Y-46918499D01*
X199573396Y-47755090D01*
X199572606Y-48660936D01*
X199918528Y-49498132D01*
X200558499Y-50139221D01*
X201395090Y-50486604D01*
X202300936Y-50487394D01*
X203138132Y-50141472D01*
X203779221Y-49501501D01*
X204126604Y-48664910D01*
X204127187Y-47996806D01*
X204800936Y-47997394D01*
X205638132Y-47651472D01*
X206068354Y-47222000D01*
X209804000Y-47222000D01*
X210378791Y-47107667D01*
X210866074Y-46782074D01*
X214236149Y-43412000D01*
X215321112Y-43412000D01*
X215136541Y-43688230D01*
X214985016Y-44450000D01*
X215136541Y-45211770D01*
X215568049Y-45857567D01*
X216213846Y-46289075D01*
X216975616Y-46440600D01*
X217364384Y-46440600D01*
X218126154Y-46289075D01*
X218771951Y-45857567D01*
X219203459Y-45211770D01*
X219354984Y-44450000D01*
X219203459Y-43688230D01*
X218863870Y-43180000D01*
X219203459Y-42671770D01*
X219354984Y-41910000D01*
X219203459Y-41148230D01*
X218863870Y-40640000D01*
X219203459Y-40131770D01*
X219354984Y-39370000D01*
X219203459Y-38608230D01*
X218771951Y-37962433D01*
X218764130Y-37957207D01*
X218821000Y-37819910D01*
X218821000Y-37115750D01*
X218662250Y-36957000D01*
X217297000Y-36957000D01*
X217297000Y-36977000D01*
X217043000Y-36977000D01*
X217043000Y-36957000D01*
X215677750Y-36957000D01*
X215519000Y-37115750D01*
X215519000Y-37819910D01*
X215575870Y-37957207D01*
X215568049Y-37962433D01*
X215136541Y-38608230D01*
X214985016Y-39370000D01*
X215136541Y-40131770D01*
X215321112Y-40408000D01*
X213614000Y-40408000D01*
X213039210Y-40522332D01*
X212551926Y-40847925D01*
X209181852Y-44218000D01*
X206067977Y-44218000D01*
X205641501Y-43790779D01*
X204804910Y-43443396D01*
X203899064Y-43442606D01*
X203227000Y-43720297D01*
X203227000Y-43608000D01*
X203122182Y-43081045D01*
X202823686Y-42634314D01*
X201369220Y-41179848D01*
X202027597Y-41179848D01*
X202380356Y-42033589D01*
X203032975Y-42687348D01*
X203886099Y-43041596D01*
X204809848Y-43042403D01*
X205663589Y-42689644D01*
X206317348Y-42037025D01*
X206671596Y-41183901D01*
X206672403Y-40260152D01*
X206319644Y-39406411D01*
X205667025Y-38752652D01*
X204813901Y-38398404D01*
X203890152Y-38397597D01*
X203036411Y-38750356D01*
X202382652Y-39402975D01*
X202028404Y-40256099D01*
X202027597Y-41179848D01*
X201369220Y-41179848D01*
X201125686Y-40936314D01*
X200678955Y-40637818D01*
X200152000Y-40533000D01*
X196404372Y-40533000D01*
X192842397Y-36971025D01*
X193268581Y-36971025D01*
X193385601Y-37253446D01*
X194049663Y-37505018D01*
X194759448Y-37483314D01*
X195314399Y-37253446D01*
X195431419Y-36971025D01*
X198268581Y-36971025D01*
X198385601Y-37253446D01*
X199049663Y-37505018D01*
X199759448Y-37483314D01*
X200314399Y-37253446D01*
X200431419Y-36971025D01*
X199350000Y-35889605D01*
X198268581Y-36971025D01*
X195431419Y-36971025D01*
X194350000Y-35889605D01*
X193268581Y-36971025D01*
X192842397Y-36971025D01*
X191281035Y-35409663D01*
X192554982Y-35409663D01*
X192576686Y-36119448D01*
X192806554Y-36674399D01*
X193088975Y-36791419D01*
X194170395Y-35710000D01*
X194529605Y-35710000D01*
X195611025Y-36791419D01*
X195893446Y-36674399D01*
X196145018Y-36010337D01*
X196126651Y-35409663D01*
X197554982Y-35409663D01*
X197576686Y-36119448D01*
X197806554Y-36674399D01*
X198088975Y-36791419D01*
X199170395Y-35710000D01*
X199529605Y-35710000D01*
X200611025Y-36791419D01*
X200893446Y-36674399D01*
X201145018Y-36010337D01*
X201139813Y-35840090D01*
X215519000Y-35840090D01*
X215519000Y-36544250D01*
X215677750Y-36703000D01*
X217043000Y-36703000D01*
X217043000Y-35490150D01*
X217297000Y-35490150D01*
X217297000Y-36703000D01*
X218662250Y-36703000D01*
X218821000Y-36544250D01*
X218821000Y-35840090D01*
X218724327Y-35606701D01*
X218545698Y-35428073D01*
X218312309Y-35331400D01*
X217455750Y-35331400D01*
X217297000Y-35490150D01*
X217043000Y-35490150D01*
X216884250Y-35331400D01*
X216027691Y-35331400D01*
X215794302Y-35428073D01*
X215615673Y-35606701D01*
X215519000Y-35840090D01*
X201139813Y-35840090D01*
X201123314Y-35300552D01*
X200893446Y-34745601D01*
X200611025Y-34628581D01*
X199529605Y-35710000D01*
X199170395Y-35710000D01*
X198088975Y-34628581D01*
X197806554Y-34745601D01*
X197554982Y-35409663D01*
X196126651Y-35409663D01*
X196123314Y-35300552D01*
X195893446Y-34745601D01*
X195611025Y-34628581D01*
X194529605Y-35710000D01*
X194170395Y-35710000D01*
X193088975Y-34628581D01*
X192806554Y-34745601D01*
X192554982Y-35409663D01*
X191281035Y-35409663D01*
X190320347Y-34448975D01*
X193268581Y-34448975D01*
X194350000Y-35530395D01*
X195431419Y-34448975D01*
X198268581Y-34448975D01*
X199350000Y-35530395D01*
X200431419Y-34448975D01*
X200314399Y-34166554D01*
X199650337Y-33914982D01*
X198940552Y-33936686D01*
X198385601Y-34166554D01*
X198268581Y-34448975D01*
X195431419Y-34448975D01*
X195314399Y-34166554D01*
X194650337Y-33914982D01*
X193940552Y-33936686D01*
X193385601Y-34166554D01*
X193268581Y-34448975D01*
X190320347Y-34448975D01*
X188391622Y-32520250D01*
X225372545Y-32520250D01*
X225771639Y-33486132D01*
X226509981Y-34225764D01*
X227475165Y-34626543D01*
X228520250Y-34627455D01*
X229486132Y-34228361D01*
X230225764Y-33490019D01*
X230626543Y-32524835D01*
X230627455Y-31479750D01*
X230228361Y-30513868D01*
X229490019Y-29774236D01*
X228524835Y-29373457D01*
X227479750Y-29372545D01*
X226513868Y-29771639D01*
X225774236Y-30509981D01*
X225373457Y-31475165D01*
X225372545Y-32520250D01*
X188391622Y-32520250D01*
X188346946Y-32475574D01*
X187900215Y-32177078D01*
X187373260Y-32072260D01*
X180064262Y-32072260D01*
X179995766Y-31727908D01*
X179480567Y-30956857D01*
X178709516Y-30441658D01*
X177800000Y-30260744D01*
X176890484Y-30441658D01*
X176119433Y-30956857D01*
X175604234Y-31727908D01*
X175423320Y-32637424D01*
X167476680Y-32637424D01*
X167295766Y-31727908D01*
X166780567Y-30956857D01*
X166009516Y-30441658D01*
X165100000Y-30260744D01*
X164190484Y-30441658D01*
X163419433Y-30956857D01*
X162904234Y-31727908D01*
X162835738Y-32072260D01*
X155780740Y-32072260D01*
X155253785Y-32177078D01*
X154807054Y-32475574D01*
X149393454Y-37889174D01*
X149094958Y-38335905D01*
X148990140Y-38862860D01*
X148990140Y-44229546D01*
X148892087Y-44131322D01*
X148202250Y-43844876D01*
X147455307Y-43844225D01*
X146810405Y-44110692D01*
X146170250Y-43844876D01*
X145423307Y-43844225D01*
X144732971Y-44129465D01*
X144204342Y-44657173D01*
X144198536Y-44671154D01*
X144162517Y-44635135D01*
X144047464Y-44750188D01*
X143979405Y-44509189D01*
X143460106Y-44324353D01*
X142909602Y-44352315D01*
X142530875Y-44509189D01*
X142462815Y-44750190D01*
X143255140Y-45542515D01*
X143269283Y-45528373D01*
X143448888Y-45707978D01*
X143434745Y-45722120D01*
X143448888Y-45736263D01*
X143269283Y-45915868D01*
X143255140Y-45901725D01*
X142462815Y-46694050D01*
X142530875Y-46935051D01*
X143050174Y-47119887D01*
X143600678Y-47091925D01*
X143979405Y-46935051D01*
X144047464Y-46694052D01*
X144162517Y-46809105D01*
X144198055Y-46773567D01*
X144202485Y-46784289D01*
X144730193Y-47312918D01*
X145420030Y-47599364D01*
X146166973Y-47600015D01*
X146805851Y-47336037D01*
X145390794Y-48751094D01*
X145204841Y-48673880D01*
X144358871Y-48673142D01*
X143577014Y-48996199D01*
X143149467Y-49423000D01*
X137521000Y-49423000D01*
X137521000Y-46482000D01*
X137416182Y-45955045D01*
X137123593Y-45517154D01*
X141857373Y-45517154D01*
X141885335Y-46067658D01*
X142042209Y-46446385D01*
X142283210Y-46514445D01*
X143075535Y-45722120D01*
X142283210Y-44929795D01*
X142042209Y-44997855D01*
X141857373Y-45517154D01*
X137123593Y-45517154D01*
X137117686Y-45508314D01*
X136178369Y-44568997D01*
X138872868Y-44568997D01*
X139032635Y-44887752D01*
X139823357Y-45197715D01*
X140672506Y-45181487D01*
X141381645Y-44887752D01*
X141541412Y-44568997D01*
X140207140Y-43234725D01*
X138872868Y-44568997D01*
X136178369Y-44568997D01*
X134280709Y-42671337D01*
X138064545Y-42671337D01*
X138080773Y-43520486D01*
X138374508Y-44229625D01*
X138693263Y-44389392D01*
X140027535Y-43055120D01*
X140386745Y-43055120D01*
X141721017Y-44389392D01*
X142039772Y-44229625D01*
X142349735Y-43438903D01*
X142333507Y-42589754D01*
X142039772Y-41880615D01*
X141721017Y-41720848D01*
X140386745Y-43055120D01*
X140027535Y-43055120D01*
X138693263Y-41720848D01*
X138374508Y-41880615D01*
X138064545Y-42671337D01*
X134280709Y-42671337D01*
X133150615Y-41541243D01*
X138872868Y-41541243D01*
X140207140Y-42875515D01*
X141541412Y-41541243D01*
X141381645Y-41222488D01*
X140590923Y-40912525D01*
X139741774Y-40928753D01*
X139032635Y-41222488D01*
X138872868Y-41541243D01*
X133150615Y-41541243D01*
X125687686Y-34078314D01*
X125240955Y-33779818D01*
X124714000Y-33675000D01*
X114554000Y-33675000D01*
X114027045Y-33779818D01*
X113580314Y-34078314D01*
X111802314Y-35856314D01*
X111503818Y-36303045D01*
X111441221Y-36617740D01*
X111329435Y-36692433D01*
X111165373Y-36937969D01*
X111124490Y-36893179D01*
X110595027Y-36645032D01*
X110363000Y-36765531D01*
X110363000Y-37973000D01*
X110383000Y-37973000D01*
X110383000Y-38227000D01*
X110363000Y-38227000D01*
X110363000Y-40513000D01*
X110383000Y-40513000D01*
X110383000Y-40767000D01*
X110363000Y-40767000D01*
X110363000Y-41974469D01*
X110595027Y-42094968D01*
X110870590Y-41965818D01*
X111088731Y-42304819D01*
X111465344Y-42562148D01*
X111524000Y-42574026D01*
X111524000Y-46482000D01*
X111619303Y-46961120D01*
X111854367Y-47312918D01*
X111890702Y-47367298D01*
X113668700Y-49145295D01*
X113668702Y-49145298D01*
X114074880Y-49416697D01*
X114154372Y-49432509D01*
X114554000Y-49512001D01*
X114554005Y-49512000D01*
X117674102Y-49512000D01*
X117778049Y-49667567D01*
X118069314Y-49862184D01*
X118029268Y-49897964D01*
X117775291Y-50425209D01*
X117772642Y-50440974D01*
X117893783Y-50673000D01*
X119253000Y-50673000D01*
X119253000Y-50653000D01*
X119507000Y-50653000D01*
X119507000Y-50673000D01*
X120866217Y-50673000D01*
X120987358Y-50440974D01*
X120984709Y-50425209D01*
X120730732Y-49897964D01*
X120690686Y-49862184D01*
X120981951Y-49667567D01*
X121085898Y-49512000D01*
X122417404Y-49512000D01*
X127018000Y-54112596D01*
X127018000Y-74478057D01*
X126843248Y-74898907D01*
X126842752Y-75466603D01*
X127059543Y-75991275D01*
X127460614Y-76393047D01*
X127984907Y-76610752D01*
X128552603Y-76611248D01*
X128796000Y-76510678D01*
X128796000Y-79025960D01*
X128571386Y-78800953D01*
X128047093Y-78583248D01*
X127479397Y-78582752D01*
X126954725Y-78799543D01*
X126552953Y-79200614D01*
X126335248Y-79724907D01*
X126334752Y-80292603D01*
X126510000Y-80716734D01*
X126510000Y-113048000D01*
X122692596Y-113048000D01*
X107123771Y-97479175D01*
X107034073Y-97028230D01*
X106694484Y-96520000D01*
X107034073Y-96011770D01*
X107185598Y-95250000D01*
X107034073Y-94488230D01*
X106694484Y-93980000D01*
X106706512Y-93962000D01*
X109728000Y-93962000D01*
X110207120Y-93866697D01*
X110613298Y-93595298D01*
X111375298Y-92833298D01*
X111483480Y-92671392D01*
X111646697Y-92427120D01*
X111665395Y-92333119D01*
X111665142Y-92623129D01*
X111988199Y-93404986D01*
X112435688Y-93853257D01*
X111990301Y-94297868D01*
X111665880Y-95079159D01*
X111665142Y-95925129D01*
X111988199Y-96706986D01*
X112435688Y-97155257D01*
X111990301Y-97599868D01*
X111665880Y-98381159D01*
X111665142Y-99227129D01*
X111988199Y-100008986D01*
X112585868Y-100607699D01*
X113367159Y-100932120D01*
X114213129Y-100932858D01*
X114994986Y-100609801D01*
X115593699Y-100012132D01*
X115918120Y-99230841D01*
X115918858Y-98384871D01*
X115595801Y-97603014D01*
X115148312Y-97154743D01*
X115593699Y-96710132D01*
X115918120Y-95928841D01*
X115918858Y-95082871D01*
X115595801Y-94301014D01*
X115148312Y-93852743D01*
X115593699Y-93408132D01*
X115918120Y-92626841D01*
X115918858Y-91780871D01*
X115595801Y-90999014D01*
X115148312Y-90550743D01*
X115593699Y-90106132D01*
X115918120Y-89324841D01*
X115918858Y-88478871D01*
X115595801Y-87697014D01*
X115148312Y-87248743D01*
X115593699Y-86804132D01*
X115918120Y-86022841D01*
X115918858Y-85176871D01*
X115595801Y-84395014D01*
X115148312Y-83946743D01*
X115593699Y-83502132D01*
X115918120Y-82720841D01*
X115918858Y-81874871D01*
X115595801Y-81093014D01*
X115148312Y-80644743D01*
X115593699Y-80200132D01*
X115918120Y-79418841D01*
X115918123Y-79415129D01*
X121825142Y-79415129D01*
X122148199Y-80196986D01*
X122595688Y-80645257D01*
X122150301Y-81089868D01*
X121825880Y-81871159D01*
X121825142Y-82717129D01*
X122148199Y-83498986D01*
X122595688Y-83947257D01*
X122150301Y-84391868D01*
X121825880Y-85173159D01*
X121825142Y-86019129D01*
X122148199Y-86800986D01*
X122595688Y-87249257D01*
X122150301Y-87693868D01*
X121825880Y-88475159D01*
X121825142Y-89321129D01*
X122148199Y-90102986D01*
X122595688Y-90551257D01*
X122150301Y-90995868D01*
X121825880Y-91777159D01*
X121825142Y-92623129D01*
X122148199Y-93404986D01*
X122595688Y-93853257D01*
X122150301Y-94297868D01*
X121825880Y-95079159D01*
X121825142Y-95925129D01*
X122148199Y-96706986D01*
X122595688Y-97155257D01*
X122150301Y-97599868D01*
X121825880Y-98381159D01*
X121825142Y-99227129D01*
X122148199Y-100008986D01*
X122745868Y-100607699D01*
X123527159Y-100932120D01*
X124373129Y-100932858D01*
X125154986Y-100609801D01*
X125753699Y-100012132D01*
X126078120Y-99230841D01*
X126078858Y-98384871D01*
X125755801Y-97603014D01*
X125308312Y-97154743D01*
X125753699Y-96710132D01*
X126078120Y-95928841D01*
X126078858Y-95082871D01*
X125755801Y-94301014D01*
X125308312Y-93852743D01*
X125753699Y-93408132D01*
X126078120Y-92626841D01*
X126078858Y-91780871D01*
X125755801Y-90999014D01*
X125308312Y-90550743D01*
X125753699Y-90106132D01*
X126078120Y-89324841D01*
X126078858Y-88478871D01*
X125755801Y-87697014D01*
X125308312Y-87248743D01*
X125753699Y-86804132D01*
X126078120Y-86022841D01*
X126078858Y-85176871D01*
X125755801Y-84395014D01*
X125308312Y-83946743D01*
X125753699Y-83502132D01*
X126078120Y-82720841D01*
X126078858Y-81874871D01*
X125755801Y-81093014D01*
X125308312Y-80644743D01*
X125753699Y-80200132D01*
X126078120Y-79418841D01*
X126078858Y-78572871D01*
X125755801Y-77791014D01*
X125158132Y-77192301D01*
X124376841Y-76867880D01*
X123530871Y-76867142D01*
X122749014Y-77190199D01*
X122150301Y-77787868D01*
X121825880Y-78569159D01*
X121825142Y-79415129D01*
X115918123Y-79415129D01*
X115918858Y-78572871D01*
X115595801Y-77791014D01*
X114998132Y-77192301D01*
X114216841Y-76867880D01*
X113370871Y-76867142D01*
X112589014Y-77190199D01*
X111990301Y-77787868D01*
X111742000Y-78385842D01*
X111742000Y-67800000D01*
X121722057Y-67800000D01*
X122142907Y-67974752D01*
X122710603Y-67975248D01*
X123235275Y-67758457D01*
X123637047Y-67357386D01*
X123854752Y-66833093D01*
X123855248Y-66265397D01*
X123638457Y-65740725D01*
X123237386Y-65338953D01*
X122713093Y-65121248D01*
X122145397Y-65120752D01*
X121721266Y-65296000D01*
X110490000Y-65296000D01*
X110010880Y-65391303D01*
X109604702Y-65662702D01*
X109333303Y-66068880D01*
X109238000Y-66548000D01*
X109238000Y-91429404D01*
X109209404Y-91458000D01*
X106706512Y-91458000D01*
X106694484Y-91440000D01*
X107034073Y-90931770D01*
X107185598Y-90170000D01*
X107034073Y-89408230D01*
X106694484Y-88900000D01*
X107034073Y-88391770D01*
X107185598Y-87630000D01*
X107034073Y-86868230D01*
X106694484Y-86360000D01*
X107034073Y-85851770D01*
X107185598Y-85090000D01*
X107034073Y-84328230D01*
X106694484Y-83820000D01*
X107034073Y-83311770D01*
X107185598Y-82550000D01*
X107034073Y-81788230D01*
X106694484Y-81280000D01*
X107034073Y-80771770D01*
X107185598Y-80010000D01*
X107034073Y-79248230D01*
X106694484Y-78740000D01*
X107034073Y-78231770D01*
X107185598Y-77470000D01*
X107034073Y-76708230D01*
X106602565Y-76062433D01*
X105956768Y-75630925D01*
X105194998Y-75479400D01*
X105117002Y-75479400D01*
X104355232Y-75630925D01*
X104200020Y-75734634D01*
X103926656Y-75547852D01*
X103479600Y-75457321D01*
X101752400Y-75457321D01*
X101334759Y-75535906D01*
X100951181Y-75782731D01*
X100693852Y-76159344D01*
X100603321Y-76606400D01*
X100603321Y-78333600D01*
X100681906Y-78751241D01*
X100872301Y-79047125D01*
X100737927Y-79248230D01*
X100586402Y-80010000D01*
X100737927Y-80771770D01*
X101077516Y-81280000D01*
X100737927Y-81788230D01*
X100586402Y-82550000D01*
X100737927Y-83311770D01*
X101077516Y-83820000D01*
X100737927Y-84328230D01*
X100586402Y-85090000D01*
X100737927Y-85851770D01*
X101077516Y-86360000D01*
X100737927Y-86868230D01*
X100586402Y-87630000D01*
X100737927Y-88391770D01*
X101077516Y-88900000D01*
X100737927Y-89408230D01*
X100586402Y-90170000D01*
X100737927Y-90931770D01*
X101077516Y-91440000D01*
X101065488Y-91458000D01*
X98416000Y-91458000D01*
X98280000Y-91276667D01*
X98280000Y-61196000D01*
X121722057Y-61196000D01*
X122142907Y-61370752D01*
X122710603Y-61371248D01*
X123235275Y-61154457D01*
X123637047Y-60753386D01*
X123854752Y-60229093D01*
X123855248Y-59661397D01*
X123638457Y-59136725D01*
X123237386Y-58734953D01*
X122713093Y-58517248D01*
X122145397Y-58516752D01*
X121721266Y-58692000D01*
X97028000Y-58692000D01*
X96548880Y-58787303D01*
X96142702Y-59058702D01*
X95871303Y-59464880D01*
X95776000Y-59944000D01*
X95776000Y-91694000D01*
X95806626Y-91847967D01*
X95815170Y-92004722D01*
X95853851Y-92085384D01*
X95871303Y-92173120D01*
X95958520Y-92303649D01*
X96026400Y-92445200D01*
X96788400Y-93461200D01*
X96855002Y-93520917D01*
X96904702Y-93595298D01*
X97035233Y-93682516D01*
X97152114Y-93787314D01*
X97236501Y-93816998D01*
X97310880Y-93866697D01*
X97464848Y-93897323D01*
X97612940Y-93949417D01*
X97702264Y-93944548D01*
X97790000Y-93962000D01*
X101065488Y-93962000D01*
X101077516Y-93980000D01*
X100737927Y-94488230D01*
X100586402Y-95250000D01*
X100737927Y-96011770D01*
X101077516Y-96520000D01*
X100737927Y-97028230D01*
X100586402Y-97790000D01*
X100737927Y-98551770D01*
X101077516Y-99060000D01*
X100737927Y-99568230D01*
X100586402Y-100330000D01*
X100629373Y-100546031D01*
X99444702Y-101730702D01*
X99173303Y-102136880D01*
X99078000Y-102616000D01*
X99078000Y-109982000D01*
X99173303Y-110461120D01*
X99343020Y-110715120D01*
X99444702Y-110867298D01*
X99698702Y-111121298D01*
X100104880Y-111392697D01*
X100584000Y-111488000D01*
X111241404Y-111488000D01*
X123551404Y-123798000D01*
X95202000Y-123798000D01*
X95202000Y-116520250D01*
X100372545Y-116520250D01*
X100771639Y-117486132D01*
X101509981Y-118225764D01*
X102475165Y-118626543D01*
X103520250Y-118627455D01*
X104486132Y-118228361D01*
X105225764Y-117490019D01*
X105626543Y-116524835D01*
X105627455Y-115479750D01*
X105228361Y-114513868D01*
X104490019Y-113774236D01*
X103524835Y-113373457D01*
X102479750Y-113372545D01*
X101513868Y-113771639D01*
X100774236Y-114509981D01*
X100373457Y-115475165D01*
X100372545Y-116520250D01*
X95202000Y-116520250D01*
X95202000Y-51159026D01*
X117772642Y-51159026D01*
X117775291Y-51174791D01*
X118029268Y-51702036D01*
X118465680Y-52091954D01*
X119018087Y-52285184D01*
X119253000Y-52140924D01*
X119253000Y-50927000D01*
X119507000Y-50927000D01*
X119507000Y-52140924D01*
X119741913Y-52285184D01*
X120294320Y-52091954D01*
X120730732Y-51702036D01*
X120984709Y-51174791D01*
X120987358Y-51159026D01*
X120866217Y-50927000D01*
X119507000Y-50927000D01*
X119253000Y-50927000D01*
X117893783Y-50927000D01*
X117772642Y-51159026D01*
X95202000Y-51159026D01*
X95202000Y-40999026D01*
X108781042Y-40999026D01*
X108953312Y-41414947D01*
X109347510Y-41846821D01*
X109876973Y-42094968D01*
X110109000Y-41974469D01*
X110109000Y-40767000D01*
X108902183Y-40767000D01*
X108781042Y-40999026D01*
X95202000Y-40999026D01*
X95202000Y-38459026D01*
X108781042Y-38459026D01*
X108953312Y-38874947D01*
X109347510Y-39306821D01*
X109482313Y-39370000D01*
X109347510Y-39433179D01*
X108953312Y-39865053D01*
X108781042Y-40280974D01*
X108902183Y-40513000D01*
X110109000Y-40513000D01*
X110109000Y-38227000D01*
X108902183Y-38227000D01*
X108781042Y-38459026D01*
X95202000Y-38459026D01*
X95202000Y-37740974D01*
X108781042Y-37740974D01*
X108902183Y-37973000D01*
X110109000Y-37973000D01*
X110109000Y-36765531D01*
X109876973Y-36645032D01*
X109347510Y-36893179D01*
X108953312Y-37325053D01*
X108781042Y-37740974D01*
X95202000Y-37740974D01*
X95202000Y-32520250D01*
X100372545Y-32520250D01*
X100771639Y-33486132D01*
X101509981Y-34225764D01*
X102475165Y-34626543D01*
X103520250Y-34627455D01*
X104486132Y-34228361D01*
X105225764Y-33490019D01*
X105626543Y-32524835D01*
X105627455Y-31479750D01*
X105228361Y-30513868D01*
X104490019Y-29774236D01*
X103524835Y-29373457D01*
X102479750Y-29372545D01*
X101513868Y-29771639D01*
X100774236Y-30509981D01*
X100373457Y-31475165D01*
X100372545Y-32520250D01*
X95202000Y-32520250D01*
X95202000Y-29202000D01*
X233798000Y-29202000D01*
X233798000Y-54898728D01*
X233798000Y-54898728D01*
G37*
X233798000Y-54898728D02*
X232719148Y-55095546D01*
X232701341Y-54614623D01*
X232498965Y-54126042D01*
X232232163Y-54027443D01*
X231259605Y-55000000D01*
X231273748Y-55014143D01*
X231094143Y-55193748D01*
X231080000Y-55179605D01*
X231065858Y-55193748D01*
X230886253Y-55014143D01*
X230900395Y-55000000D01*
X229927837Y-54027443D01*
X229661035Y-54126042D01*
X229434599Y-54735582D01*
X229458659Y-55385377D01*
X229576113Y-55668937D01*
X197081207Y-61597062D01*
X197034395Y-61615773D01*
X196998551Y-61651222D01*
X196977000Y-61722000D01*
X196977000Y-64322560D01*
X196217000Y-64322560D01*
X196217000Y-65943000D01*
X196237000Y-65943000D01*
X196237000Y-66197000D01*
X196217000Y-66197000D01*
X196217000Y-67817440D01*
X196977000Y-67817440D01*
X196977000Y-80772000D01*
X196987006Y-80821410D01*
X197015447Y-80863035D01*
X197062278Y-80891951D01*
X208746278Y-84955951D01*
X208796233Y-84962733D01*
X208838028Y-84952731D01*
X211489964Y-83816187D01*
X226457277Y-83816187D01*
X226473503Y-84665387D01*
X226767261Y-85374582D01*
X227086030Y-85534365D01*
X228420395Y-84200000D01*
X228779605Y-84200000D01*
X230113970Y-85534365D01*
X230432739Y-85374582D01*
X230742723Y-84583813D01*
X230726497Y-83734613D01*
X230432739Y-83025418D01*
X230113970Y-82865635D01*
X228779605Y-84200000D01*
X228420395Y-84200000D01*
X227086030Y-82865635D01*
X226767261Y-83025418D01*
X226457277Y-83816187D01*
X211489964Y-83816187D01*
X214126997Y-82686030D01*
X227265635Y-82686030D01*
X228600000Y-84020395D01*
X229934365Y-82686030D01*
X229774582Y-82367261D01*
X228983813Y-82057277D01*
X228134613Y-82073503D01*
X227425418Y-82367261D01*
X227265635Y-82686030D01*
X214126997Y-82686030D01*
X219482067Y-80391000D01*
X220355000Y-80391000D01*
X220355000Y-81446310D01*
X220451673Y-81679699D01*
X220630302Y-81858327D01*
X220863691Y-81955000D01*
X221804250Y-81955000D01*
X221963000Y-81796250D01*
X221963000Y-80391000D01*
X222217000Y-80391000D01*
X222217000Y-81796250D01*
X222375750Y-81955000D01*
X223316309Y-81955000D01*
X223549698Y-81858327D01*
X223728327Y-81679699D01*
X223825000Y-81446310D01*
X223825000Y-80391000D01*
X231521000Y-80391000D01*
X231521000Y-86741000D01*
X222504000Y-86741000D01*
X222454590Y-86751006D01*
X222412965Y-86779447D01*
X222385685Y-86821841D01*
X222377000Y-86868000D01*
X222377000Y-123798000D01*
X201052865Y-123798000D01*
X201308697Y-123415120D01*
X201404000Y-122936000D01*
X201404000Y-118263512D01*
X201422000Y-118251484D01*
X201930230Y-118591073D01*
X202692000Y-118742598D01*
X203453770Y-118591073D01*
X203962000Y-118251484D01*
X204470230Y-118591073D01*
X205232000Y-118742598D01*
X205993770Y-118591073D01*
X206639567Y-118159565D01*
X206686049Y-118090000D01*
X220345000Y-118090000D01*
X220871955Y-117985182D01*
X221318686Y-117686686D01*
X221617182Y-117239955D01*
X221722000Y-116713000D01*
X221617182Y-116186045D01*
X221595000Y-116152847D01*
X221595000Y-87376000D01*
X221490182Y-86849045D01*
X221191686Y-86402314D01*
X220744955Y-86103818D01*
X220218000Y-85999000D01*
X192639000Y-85999000D01*
X192639000Y-85713970D01*
X227265635Y-85713970D01*
X227425418Y-86032739D01*
X228216187Y-86342723D01*
X229065387Y-86326497D01*
X229774582Y-86032739D01*
X229934365Y-85713970D01*
X228600000Y-84379605D01*
X227265635Y-85713970D01*
X192639000Y-85713970D01*
X192639000Y-66197000D01*
X193692560Y-66197000D01*
X193692560Y-67170000D01*
X193736838Y-67405317D01*
X193875910Y-67621441D01*
X194088110Y-67766431D01*
X194340000Y-67817440D01*
X195963000Y-67817440D01*
X195963000Y-66197000D01*
X193692560Y-66197000D01*
X192639000Y-66197000D01*
X192639000Y-64970000D01*
X193692560Y-64970000D01*
X193692560Y-65943000D01*
X195963000Y-65943000D01*
X195963000Y-64322560D01*
X194340000Y-64322560D01*
X194104683Y-64366838D01*
X193888559Y-64505910D01*
X193743569Y-64718110D01*
X193692560Y-64970000D01*
X192639000Y-64970000D01*
X192639000Y-59611260D01*
X192534182Y-59084305D01*
X192235686Y-58637574D01*
X189009440Y-55411328D01*
X212382640Y-55411328D01*
X212698178Y-56174989D01*
X213281938Y-56759768D01*
X214045047Y-57076639D01*
X214871328Y-57077360D01*
X215344399Y-56881891D01*
X215602944Y-57058548D01*
X216050000Y-57149079D01*
X217950000Y-57149079D01*
X218367641Y-57070494D01*
X218751219Y-56823669D01*
X219008548Y-56447056D01*
X219048048Y-56252000D01*
X219165128Y-56252000D01*
X219713868Y-56801699D01*
X220495159Y-57126120D01*
X221341129Y-57126858D01*
X222122986Y-56803801D01*
X222721699Y-56206132D01*
X223046120Y-55424841D01*
X223046858Y-54578871D01*
X222744801Y-53847837D01*
X230107443Y-53847837D01*
X231080000Y-54820395D01*
X232052557Y-53847837D01*
X231953958Y-53581035D01*
X231344418Y-53354599D01*
X230694623Y-53378659D01*
X230206042Y-53581035D01*
X230107443Y-53847837D01*
X222744801Y-53847837D01*
X222723801Y-53797014D01*
X222126132Y-53198301D01*
X221344841Y-52873880D01*
X220498871Y-52873142D01*
X219717014Y-53196199D01*
X219164249Y-53748000D01*
X219051662Y-53748000D01*
X219020494Y-53582359D01*
X218773669Y-53198781D01*
X218397056Y-52941452D01*
X217950000Y-52850921D01*
X216050000Y-52850921D01*
X215632359Y-52929506D01*
X215341103Y-53116924D01*
X214874953Y-52923361D01*
X214048672Y-52922640D01*
X213285011Y-53238178D01*
X212700232Y-53821938D01*
X212383361Y-54585047D01*
X212382640Y-55411328D01*
X189009440Y-55411328D01*
X179769048Y-46170936D01*
X187072606Y-46170936D01*
X187418528Y-47008132D01*
X188058499Y-47649221D01*
X188895090Y-47996604D01*
X189573185Y-47997195D01*
X189572606Y-48660936D01*
X189918528Y-49498132D01*
X190558499Y-50139221D01*
X191395090Y-50486604D01*
X192300936Y-50487394D01*
X193138132Y-50141472D01*
X193779221Y-49501501D01*
X194126604Y-48664910D01*
X194127394Y-47759064D01*
X193805916Y-46981025D01*
X195768581Y-46981025D01*
X195885601Y-47263446D01*
X196549663Y-47515018D01*
X197259448Y-47493314D01*
X197814399Y-47263446D01*
X197931419Y-46981025D01*
X196850000Y-45899605D01*
X195768581Y-46981025D01*
X193805916Y-46981025D01*
X193781472Y-46921868D01*
X193141501Y-46280779D01*
X192304910Y-45933396D01*
X191626815Y-45932805D01*
X191627262Y-45419663D01*
X195054982Y-45419663D01*
X195076686Y-46129448D01*
X195306554Y-46684399D01*
X195588975Y-46801419D01*
X196670395Y-45720000D01*
X197029605Y-45720000D01*
X198111025Y-46801419D01*
X198393446Y-46684399D01*
X198645018Y-46020337D01*
X198623314Y-45310552D01*
X198393446Y-44755601D01*
X198111025Y-44638581D01*
X197029605Y-45720000D01*
X196670395Y-45720000D01*
X195588975Y-44638581D01*
X195306554Y-44755601D01*
X195054982Y-45419663D01*
X191627262Y-45419663D01*
X191627394Y-45269064D01*
X191292673Y-44458975D01*
X195768581Y-44458975D01*
X196850000Y-45540395D01*
X197931419Y-44458975D01*
X197814399Y-44176554D01*
X197150337Y-43924982D01*
X196440552Y-43946686D01*
X195885601Y-44176554D01*
X195768581Y-44458975D01*
X191292673Y-44458975D01*
X191281472Y-44431868D01*
X190641501Y-43790779D01*
X189804910Y-43443396D01*
X188899064Y-43442606D01*
X188061868Y-43788528D01*
X187420779Y-44428499D01*
X187073396Y-45265090D01*
X187072606Y-46170936D01*
X179769048Y-46170936D01*
X174777960Y-41179848D01*
X187027597Y-41179848D01*
X187380356Y-42033589D01*
X188032975Y-42687348D01*
X188886099Y-43041596D01*
X189809848Y-43042403D01*
X190663589Y-42689644D01*
X191317348Y-42037025D01*
X191671596Y-41183901D01*
X191672403Y-40260152D01*
X191319644Y-39406411D01*
X190667025Y-38752652D01*
X189813901Y-38398404D01*
X188890152Y-38397597D01*
X188036411Y-38750356D01*
X187382652Y-39402975D01*
X187028404Y-40256099D01*
X187027597Y-41179848D01*
X174777960Y-41179848D01*
X167476680Y-33878568D01*
X167476680Y-32637424D01*
X175423320Y-32637424D01*
X175423320Y-34261096D01*
X175604234Y-35170612D01*
X176119433Y-35941663D01*
X176890484Y-36456862D01*
X177800000Y-36637776D01*
X178709516Y-36456862D01*
X179480567Y-35941663D01*
X179995766Y-35170612D01*
X180064262Y-34826260D01*
X186802888Y-34826260D01*
X194860314Y-42883686D01*
X195307045Y-43182182D01*
X195834000Y-43287000D01*
X199581628Y-43287000D01*
X200473000Y-44178372D01*
X200473000Y-46367241D01*
X199920779Y-46918499D01*
X199573396Y-47755090D01*
X199572606Y-48660936D01*
X199918528Y-49498132D01*
X200558499Y-50139221D01*
X201395090Y-50486604D01*
X202300936Y-50487394D01*
X203138132Y-50141472D01*
X203779221Y-49501501D01*
X204126604Y-48664910D01*
X204127187Y-47996806D01*
X204800936Y-47997394D01*
X205638132Y-47651472D01*
X206068354Y-47222000D01*
X209804000Y-47222000D01*
X210378791Y-47107667D01*
X210866074Y-46782074D01*
X214236149Y-43412000D01*
X215321112Y-43412000D01*
X215136541Y-43688230D01*
X214985016Y-44450000D01*
X215136541Y-45211770D01*
X215568049Y-45857567D01*
X216213846Y-46289075D01*
X216975616Y-46440600D01*
X217364384Y-46440600D01*
X218126154Y-46289075D01*
X218771951Y-45857567D01*
X219203459Y-45211770D01*
X219354984Y-44450000D01*
X219203459Y-43688230D01*
X218863870Y-43180000D01*
X219203459Y-42671770D01*
X219354984Y-41910000D01*
X219203459Y-41148230D01*
X218863870Y-40640000D01*
X219203459Y-40131770D01*
X219354984Y-39370000D01*
X219203459Y-38608230D01*
X218771951Y-37962433D01*
X218764130Y-37957207D01*
X218821000Y-37819910D01*
X218821000Y-37115750D01*
X218662250Y-36957000D01*
X217297000Y-36957000D01*
X217297000Y-36977000D01*
X217043000Y-36977000D01*
X217043000Y-36957000D01*
X215677750Y-36957000D01*
X215519000Y-37115750D01*
X215519000Y-37819910D01*
X215575870Y-37957207D01*
X215568049Y-37962433D01*
X215136541Y-38608230D01*
X214985016Y-39370000D01*
X215136541Y-40131770D01*
X215321112Y-40408000D01*
X213614000Y-40408000D01*
X213039210Y-40522332D01*
X212551926Y-40847925D01*
X209181852Y-44218000D01*
X206067977Y-44218000D01*
X205641501Y-43790779D01*
X204804910Y-43443396D01*
X203899064Y-43442606D01*
X203227000Y-43720297D01*
X203227000Y-43608000D01*
X203122182Y-43081045D01*
X202823686Y-42634314D01*
X201369220Y-41179848D01*
X202027597Y-41179848D01*
X202380356Y-42033589D01*
X203032975Y-42687348D01*
X203886099Y-43041596D01*
X204809848Y-43042403D01*
X205663589Y-42689644D01*
X206317348Y-42037025D01*
X206671596Y-41183901D01*
X206672403Y-40260152D01*
X206319644Y-39406411D01*
X205667025Y-38752652D01*
X204813901Y-38398404D01*
X203890152Y-38397597D01*
X203036411Y-38750356D01*
X202382652Y-39402975D01*
X202028404Y-40256099D01*
X202027597Y-41179848D01*
X201369220Y-41179848D01*
X201125686Y-40936314D01*
X200678955Y-40637818D01*
X200152000Y-40533000D01*
X196404372Y-40533000D01*
X192842397Y-36971025D01*
X193268581Y-36971025D01*
X193385601Y-37253446D01*
X194049663Y-37505018D01*
X194759448Y-37483314D01*
X195314399Y-37253446D01*
X195431419Y-36971025D01*
X198268581Y-36971025D01*
X198385601Y-37253446D01*
X199049663Y-37505018D01*
X199759448Y-37483314D01*
X200314399Y-37253446D01*
X200431419Y-36971025D01*
X199350000Y-35889605D01*
X198268581Y-36971025D01*
X195431419Y-36971025D01*
X194350000Y-35889605D01*
X193268581Y-36971025D01*
X192842397Y-36971025D01*
X191281035Y-35409663D01*
X192554982Y-35409663D01*
X192576686Y-36119448D01*
X192806554Y-36674399D01*
X193088975Y-36791419D01*
X194170395Y-35710000D01*
X194529605Y-35710000D01*
X195611025Y-36791419D01*
X195893446Y-36674399D01*
X196145018Y-36010337D01*
X196126651Y-35409663D01*
X197554982Y-35409663D01*
X197576686Y-36119448D01*
X197806554Y-36674399D01*
X198088975Y-36791419D01*
X199170395Y-35710000D01*
X199529605Y-35710000D01*
X200611025Y-36791419D01*
X200893446Y-36674399D01*
X201145018Y-36010337D01*
X201139813Y-35840090D01*
X215519000Y-35840090D01*
X215519000Y-36544250D01*
X215677750Y-36703000D01*
X217043000Y-36703000D01*
X217043000Y-35490150D01*
X217297000Y-35490150D01*
X217297000Y-36703000D01*
X218662250Y-36703000D01*
X218821000Y-36544250D01*
X218821000Y-35840090D01*
X218724327Y-35606701D01*
X218545698Y-35428073D01*
X218312309Y-35331400D01*
X217455750Y-35331400D01*
X217297000Y-35490150D01*
X217043000Y-35490150D01*
X216884250Y-35331400D01*
X216027691Y-35331400D01*
X215794302Y-35428073D01*
X215615673Y-35606701D01*
X215519000Y-35840090D01*
X201139813Y-35840090D01*
X201123314Y-35300552D01*
X200893446Y-34745601D01*
X200611025Y-34628581D01*
X199529605Y-35710000D01*
X199170395Y-35710000D01*
X198088975Y-34628581D01*
X197806554Y-34745601D01*
X197554982Y-35409663D01*
X196126651Y-35409663D01*
X196123314Y-35300552D01*
X195893446Y-34745601D01*
X195611025Y-34628581D01*
X194529605Y-35710000D01*
X194170395Y-35710000D01*
X193088975Y-34628581D01*
X192806554Y-34745601D01*
X192554982Y-35409663D01*
X191281035Y-35409663D01*
X190320347Y-34448975D01*
X193268581Y-34448975D01*
X194350000Y-35530395D01*
X195431419Y-34448975D01*
X198268581Y-34448975D01*
X199350000Y-35530395D01*
X200431419Y-34448975D01*
X200314399Y-34166554D01*
X199650337Y-33914982D01*
X198940552Y-33936686D01*
X198385601Y-34166554D01*
X198268581Y-34448975D01*
X195431419Y-34448975D01*
X195314399Y-34166554D01*
X194650337Y-33914982D01*
X193940552Y-33936686D01*
X193385601Y-34166554D01*
X193268581Y-34448975D01*
X190320347Y-34448975D01*
X188391622Y-32520250D01*
X225372545Y-32520250D01*
X225771639Y-33486132D01*
X226509981Y-34225764D01*
X227475165Y-34626543D01*
X228520250Y-34627455D01*
X229486132Y-34228361D01*
X230225764Y-33490019D01*
X230626543Y-32524835D01*
X230627455Y-31479750D01*
X230228361Y-30513868D01*
X229490019Y-29774236D01*
X228524835Y-29373457D01*
X227479750Y-29372545D01*
X226513868Y-29771639D01*
X225774236Y-30509981D01*
X225373457Y-31475165D01*
X225372545Y-32520250D01*
X188391622Y-32520250D01*
X188346946Y-32475574D01*
X187900215Y-32177078D01*
X187373260Y-32072260D01*
X180064262Y-32072260D01*
X179995766Y-31727908D01*
X179480567Y-30956857D01*
X178709516Y-30441658D01*
X177800000Y-30260744D01*
X176890484Y-30441658D01*
X176119433Y-30956857D01*
X175604234Y-31727908D01*
X175423320Y-32637424D01*
X167476680Y-32637424D01*
X167295766Y-31727908D01*
X166780567Y-30956857D01*
X166009516Y-30441658D01*
X165100000Y-30260744D01*
X164190484Y-30441658D01*
X163419433Y-30956857D01*
X162904234Y-31727908D01*
X162835738Y-32072260D01*
X155780740Y-32072260D01*
X155253785Y-32177078D01*
X154807054Y-32475574D01*
X149393454Y-37889174D01*
X149094958Y-38335905D01*
X148990140Y-38862860D01*
X148990140Y-44229546D01*
X148892087Y-44131322D01*
X148202250Y-43844876D01*
X147455307Y-43844225D01*
X146810405Y-44110692D01*
X146170250Y-43844876D01*
X145423307Y-43844225D01*
X144732971Y-44129465D01*
X144204342Y-44657173D01*
X144198536Y-44671154D01*
X144162517Y-44635135D01*
X144047464Y-44750188D01*
X143979405Y-44509189D01*
X143460106Y-44324353D01*
X142909602Y-44352315D01*
X142530875Y-44509189D01*
X142462815Y-44750190D01*
X143255140Y-45542515D01*
X143269283Y-45528373D01*
X143448888Y-45707978D01*
X143434745Y-45722120D01*
X143448888Y-45736263D01*
X143269283Y-45915868D01*
X143255140Y-45901725D01*
X142462815Y-46694050D01*
X142530875Y-46935051D01*
X143050174Y-47119887D01*
X143600678Y-47091925D01*
X143979405Y-46935051D01*
X144047464Y-46694052D01*
X144162517Y-46809105D01*
X144198055Y-46773567D01*
X144202485Y-46784289D01*
X144730193Y-47312918D01*
X145420030Y-47599364D01*
X146166973Y-47600015D01*
X146805851Y-47336037D01*
X145390794Y-48751094D01*
X145204841Y-48673880D01*
X144358871Y-48673142D01*
X143577014Y-48996199D01*
X143149467Y-49423000D01*
X137521000Y-49423000D01*
X137521000Y-46482000D01*
X137416182Y-45955045D01*
X137123593Y-45517154D01*
X141857373Y-45517154D01*
X141885335Y-46067658D01*
X142042209Y-46446385D01*
X142283210Y-46514445D01*
X143075535Y-45722120D01*
X142283210Y-44929795D01*
X142042209Y-44997855D01*
X141857373Y-45517154D01*
X137123593Y-45517154D01*
X137117686Y-45508314D01*
X136178369Y-44568997D01*
X138872868Y-44568997D01*
X139032635Y-44887752D01*
X139823357Y-45197715D01*
X140672506Y-45181487D01*
X141381645Y-44887752D01*
X141541412Y-44568997D01*
X140207140Y-43234725D01*
X138872868Y-44568997D01*
X136178369Y-44568997D01*
X134280709Y-42671337D01*
X138064545Y-42671337D01*
X138080773Y-43520486D01*
X138374508Y-44229625D01*
X138693263Y-44389392D01*
X140027535Y-43055120D01*
X140386745Y-43055120D01*
X141721017Y-44389392D01*
X142039772Y-44229625D01*
X142349735Y-43438903D01*
X142333507Y-42589754D01*
X142039772Y-41880615D01*
X141721017Y-41720848D01*
X140386745Y-43055120D01*
X140027535Y-43055120D01*
X138693263Y-41720848D01*
X138374508Y-41880615D01*
X138064545Y-42671337D01*
X134280709Y-42671337D01*
X133150615Y-41541243D01*
X138872868Y-41541243D01*
X140207140Y-42875515D01*
X141541412Y-41541243D01*
X141381645Y-41222488D01*
X140590923Y-40912525D01*
X139741774Y-40928753D01*
X139032635Y-41222488D01*
X138872868Y-41541243D01*
X133150615Y-41541243D01*
X125687686Y-34078314D01*
X125240955Y-33779818D01*
X124714000Y-33675000D01*
X114554000Y-33675000D01*
X114027045Y-33779818D01*
X113580314Y-34078314D01*
X111802314Y-35856314D01*
X111503818Y-36303045D01*
X111441221Y-36617740D01*
X111329435Y-36692433D01*
X111165373Y-36937969D01*
X111124490Y-36893179D01*
X110595027Y-36645032D01*
X110363000Y-36765531D01*
X110363000Y-37973000D01*
X110383000Y-37973000D01*
X110383000Y-38227000D01*
X110363000Y-38227000D01*
X110363000Y-40513000D01*
X110383000Y-40513000D01*
X110383000Y-40767000D01*
X110363000Y-40767000D01*
X110363000Y-41974469D01*
X110595027Y-42094968D01*
X110870590Y-41965818D01*
X111088731Y-42304819D01*
X111465344Y-42562148D01*
X111524000Y-42574026D01*
X111524000Y-46482000D01*
X111619303Y-46961120D01*
X111854367Y-47312918D01*
X111890702Y-47367298D01*
X113668700Y-49145295D01*
X113668702Y-49145298D01*
X114074880Y-49416697D01*
X114154372Y-49432509D01*
X114554000Y-49512001D01*
X114554005Y-49512000D01*
X117674102Y-49512000D01*
X117778049Y-49667567D01*
X118069314Y-49862184D01*
X118029268Y-49897964D01*
X117775291Y-50425209D01*
X117772642Y-50440974D01*
X117893783Y-50673000D01*
X119253000Y-50673000D01*
X119253000Y-50653000D01*
X119507000Y-50653000D01*
X119507000Y-50673000D01*
X120866217Y-50673000D01*
X120987358Y-50440974D01*
X120984709Y-50425209D01*
X120730732Y-49897964D01*
X120690686Y-49862184D01*
X120981951Y-49667567D01*
X121085898Y-49512000D01*
X122417404Y-49512000D01*
X127018000Y-54112596D01*
X127018000Y-74478057D01*
X126843248Y-74898907D01*
X126842752Y-75466603D01*
X127059543Y-75991275D01*
X127460614Y-76393047D01*
X127984907Y-76610752D01*
X128552603Y-76611248D01*
X128796000Y-76510678D01*
X128796000Y-79025960D01*
X128571386Y-78800953D01*
X128047093Y-78583248D01*
X127479397Y-78582752D01*
X126954725Y-78799543D01*
X126552953Y-79200614D01*
X126335248Y-79724907D01*
X126334752Y-80292603D01*
X126510000Y-80716734D01*
X126510000Y-113048000D01*
X122692596Y-113048000D01*
X107123771Y-97479175D01*
X107034073Y-97028230D01*
X106694484Y-96520000D01*
X107034073Y-96011770D01*
X107185598Y-95250000D01*
X107034073Y-94488230D01*
X106694484Y-93980000D01*
X106706512Y-93962000D01*
X109728000Y-93962000D01*
X110207120Y-93866697D01*
X110613298Y-93595298D01*
X111375298Y-92833298D01*
X111483480Y-92671392D01*
X111646697Y-92427120D01*
X111665395Y-92333119D01*
X111665142Y-92623129D01*
X111988199Y-93404986D01*
X112435688Y-93853257D01*
X111990301Y-94297868D01*
X111665880Y-95079159D01*
X111665142Y-95925129D01*
X111988199Y-96706986D01*
X112435688Y-97155257D01*
X111990301Y-97599868D01*
X111665880Y-98381159D01*
X111665142Y-99227129D01*
X111988199Y-100008986D01*
X112585868Y-100607699D01*
X113367159Y-100932120D01*
X114213129Y-100932858D01*
X114994986Y-100609801D01*
X115593699Y-100012132D01*
X115918120Y-99230841D01*
X115918858Y-98384871D01*
X115595801Y-97603014D01*
X115148312Y-97154743D01*
X115593699Y-96710132D01*
X115918120Y-95928841D01*
X115918858Y-95082871D01*
X115595801Y-94301014D01*
X115148312Y-93852743D01*
X115593699Y-93408132D01*
X115918120Y-92626841D01*
X115918858Y-91780871D01*
X115595801Y-90999014D01*
X115148312Y-90550743D01*
X115593699Y-90106132D01*
X115918120Y-89324841D01*
X115918858Y-88478871D01*
X115595801Y-87697014D01*
X115148312Y-87248743D01*
X115593699Y-86804132D01*
X115918120Y-86022841D01*
X115918858Y-85176871D01*
X115595801Y-84395014D01*
X115148312Y-83946743D01*
X115593699Y-83502132D01*
X115918120Y-82720841D01*
X115918858Y-81874871D01*
X115595801Y-81093014D01*
X115148312Y-80644743D01*
X115593699Y-80200132D01*
X115918120Y-79418841D01*
X115918123Y-79415129D01*
X121825142Y-79415129D01*
X122148199Y-80196986D01*
X122595688Y-80645257D01*
X122150301Y-81089868D01*
X121825880Y-81871159D01*
X121825142Y-82717129D01*
X122148199Y-83498986D01*
X122595688Y-83947257D01*
X122150301Y-84391868D01*
X121825880Y-85173159D01*
X121825142Y-86019129D01*
X122148199Y-86800986D01*
X122595688Y-87249257D01*
X122150301Y-87693868D01*
X121825880Y-88475159D01*
X121825142Y-89321129D01*
X122148199Y-90102986D01*
X122595688Y-90551257D01*
X122150301Y-90995868D01*
X121825880Y-91777159D01*
X121825142Y-92623129D01*
X122148199Y-93404986D01*
X122595688Y-93853257D01*
X122150301Y-94297868D01*
X121825880Y-95079159D01*
X121825142Y-95925129D01*
X122148199Y-96706986D01*
X122595688Y-97155257D01*
X122150301Y-97599868D01*
X121825880Y-98381159D01*
X121825142Y-99227129D01*
X122148199Y-100008986D01*
X122745868Y-100607699D01*
X123527159Y-100932120D01*
X124373129Y-100932858D01*
X125154986Y-100609801D01*
X125753699Y-100012132D01*
X126078120Y-99230841D01*
X126078858Y-98384871D01*
X125755801Y-97603014D01*
X125308312Y-97154743D01*
X125753699Y-96710132D01*
X126078120Y-95928841D01*
X126078858Y-95082871D01*
X125755801Y-94301014D01*
X125308312Y-93852743D01*
X125753699Y-93408132D01*
X126078120Y-92626841D01*
X126078858Y-91780871D01*
X125755801Y-90999014D01*
X125308312Y-90550743D01*
X125753699Y-90106132D01*
X126078120Y-89324841D01*
X126078858Y-88478871D01*
X125755801Y-87697014D01*
X125308312Y-87248743D01*
X125753699Y-86804132D01*
X126078120Y-86022841D01*
X126078858Y-85176871D01*
X125755801Y-84395014D01*
X125308312Y-83946743D01*
X125753699Y-83502132D01*
X126078120Y-82720841D01*
X126078858Y-81874871D01*
X125755801Y-81093014D01*
X125308312Y-80644743D01*
X125753699Y-80200132D01*
X126078120Y-79418841D01*
X126078858Y-78572871D01*
X125755801Y-77791014D01*
X125158132Y-77192301D01*
X124376841Y-76867880D01*
X123530871Y-76867142D01*
X122749014Y-77190199D01*
X122150301Y-77787868D01*
X121825880Y-78569159D01*
X121825142Y-79415129D01*
X115918123Y-79415129D01*
X115918858Y-78572871D01*
X115595801Y-77791014D01*
X114998132Y-77192301D01*
X114216841Y-76867880D01*
X113370871Y-76867142D01*
X112589014Y-77190199D01*
X111990301Y-77787868D01*
X111742000Y-78385842D01*
X111742000Y-67800000D01*
X121722057Y-67800000D01*
X122142907Y-67974752D01*
X122710603Y-67975248D01*
X123235275Y-67758457D01*
X123637047Y-67357386D01*
X123854752Y-66833093D01*
X123855248Y-66265397D01*
X123638457Y-65740725D01*
X123237386Y-65338953D01*
X122713093Y-65121248D01*
X122145397Y-65120752D01*
X121721266Y-65296000D01*
X110490000Y-65296000D01*
X110010880Y-65391303D01*
X109604702Y-65662702D01*
X109333303Y-66068880D01*
X109238000Y-66548000D01*
X109238000Y-91429404D01*
X109209404Y-91458000D01*
X106706512Y-91458000D01*
X106694484Y-91440000D01*
X107034073Y-90931770D01*
X107185598Y-90170000D01*
X107034073Y-89408230D01*
X106694484Y-88900000D01*
X107034073Y-88391770D01*
X107185598Y-87630000D01*
X107034073Y-86868230D01*
X106694484Y-86360000D01*
X107034073Y-85851770D01*
X107185598Y-85090000D01*
X107034073Y-84328230D01*
X106694484Y-83820000D01*
X107034073Y-83311770D01*
X107185598Y-82550000D01*
X107034073Y-81788230D01*
X106694484Y-81280000D01*
X107034073Y-80771770D01*
X107185598Y-80010000D01*
X107034073Y-79248230D01*
X106694484Y-78740000D01*
X107034073Y-78231770D01*
X107185598Y-77470000D01*
X107034073Y-76708230D01*
X106602565Y-76062433D01*
X105956768Y-75630925D01*
X105194998Y-75479400D01*
X105117002Y-75479400D01*
X104355232Y-75630925D01*
X104200020Y-75734634D01*
X103926656Y-75547852D01*
X103479600Y-75457321D01*
X101752400Y-75457321D01*
X101334759Y-75535906D01*
X100951181Y-75782731D01*
X100693852Y-76159344D01*
X100603321Y-76606400D01*
X100603321Y-78333600D01*
X100681906Y-78751241D01*
X100872301Y-79047125D01*
X100737927Y-79248230D01*
X100586402Y-80010000D01*
X100737927Y-80771770D01*
X101077516Y-81280000D01*
X100737927Y-81788230D01*
X100586402Y-82550000D01*
X100737927Y-83311770D01*
X101077516Y-83820000D01*
X100737927Y-84328230D01*
X100586402Y-85090000D01*
X100737927Y-85851770D01*
X101077516Y-86360000D01*
X100737927Y-86868230D01*
X100586402Y-87630000D01*
X100737927Y-88391770D01*
X101077516Y-88900000D01*
X100737927Y-89408230D01*
X100586402Y-90170000D01*
X100737927Y-90931770D01*
X101077516Y-91440000D01*
X101065488Y-91458000D01*
X98416000Y-91458000D01*
X98280000Y-91276667D01*
X98280000Y-61196000D01*
X121722057Y-61196000D01*
X122142907Y-61370752D01*
X122710603Y-61371248D01*
X123235275Y-61154457D01*
X123637047Y-60753386D01*
X123854752Y-60229093D01*
X123855248Y-59661397D01*
X123638457Y-59136725D01*
X123237386Y-58734953D01*
X122713093Y-58517248D01*
X122145397Y-58516752D01*
X121721266Y-58692000D01*
X97028000Y-58692000D01*
X96548880Y-58787303D01*
X96142702Y-59058702D01*
X95871303Y-59464880D01*
X95776000Y-59944000D01*
X95776000Y-91694000D01*
X95806626Y-91847967D01*
X95815170Y-92004722D01*
X95853851Y-92085384D01*
X95871303Y-92173120D01*
X95958520Y-92303649D01*
X96026400Y-92445200D01*
X96788400Y-93461200D01*
X96855002Y-93520917D01*
X96904702Y-93595298D01*
X97035233Y-93682516D01*
X97152114Y-93787314D01*
X97236501Y-93816998D01*
X97310880Y-93866697D01*
X97464848Y-93897323D01*
X97612940Y-93949417D01*
X97702264Y-93944548D01*
X97790000Y-93962000D01*
X101065488Y-93962000D01*
X101077516Y-93980000D01*
X100737927Y-94488230D01*
X100586402Y-95250000D01*
X100737927Y-96011770D01*
X101077516Y-96520000D01*
X100737927Y-97028230D01*
X100586402Y-97790000D01*
X100737927Y-98551770D01*
X101077516Y-99060000D01*
X100737927Y-99568230D01*
X100586402Y-100330000D01*
X100629373Y-100546031D01*
X99444702Y-101730702D01*
X99173303Y-102136880D01*
X99078000Y-102616000D01*
X99078000Y-109982000D01*
X99173303Y-110461120D01*
X99343020Y-110715120D01*
X99444702Y-110867298D01*
X99698702Y-111121298D01*
X100104880Y-111392697D01*
X100584000Y-111488000D01*
X111241404Y-111488000D01*
X123551404Y-123798000D01*
X95202000Y-123798000D01*
X95202000Y-116520250D01*
X100372545Y-116520250D01*
X100771639Y-117486132D01*
X101509981Y-118225764D01*
X102475165Y-118626543D01*
X103520250Y-118627455D01*
X104486132Y-118228361D01*
X105225764Y-117490019D01*
X105626543Y-116524835D01*
X105627455Y-115479750D01*
X105228361Y-114513868D01*
X104490019Y-113774236D01*
X103524835Y-113373457D01*
X102479750Y-113372545D01*
X101513868Y-113771639D01*
X100774236Y-114509981D01*
X100373457Y-115475165D01*
X100372545Y-116520250D01*
X95202000Y-116520250D01*
X95202000Y-51159026D01*
X117772642Y-51159026D01*
X117775291Y-51174791D01*
X118029268Y-51702036D01*
X118465680Y-52091954D01*
X119018087Y-52285184D01*
X119253000Y-52140924D01*
X119253000Y-50927000D01*
X119507000Y-50927000D01*
X119507000Y-52140924D01*
X119741913Y-52285184D01*
X120294320Y-52091954D01*
X120730732Y-51702036D01*
X120984709Y-51174791D01*
X120987358Y-51159026D01*
X120866217Y-50927000D01*
X119507000Y-50927000D01*
X119253000Y-50927000D01*
X117893783Y-50927000D01*
X117772642Y-51159026D01*
X95202000Y-51159026D01*
X95202000Y-40999026D01*
X108781042Y-40999026D01*
X108953312Y-41414947D01*
X109347510Y-41846821D01*
X109876973Y-42094968D01*
X110109000Y-41974469D01*
X110109000Y-40767000D01*
X108902183Y-40767000D01*
X108781042Y-40999026D01*
X95202000Y-40999026D01*
X95202000Y-38459026D01*
X108781042Y-38459026D01*
X108953312Y-38874947D01*
X109347510Y-39306821D01*
X109482313Y-39370000D01*
X109347510Y-39433179D01*
X108953312Y-39865053D01*
X108781042Y-40280974D01*
X108902183Y-40513000D01*
X110109000Y-40513000D01*
X110109000Y-38227000D01*
X108902183Y-38227000D01*
X108781042Y-38459026D01*
X95202000Y-38459026D01*
X95202000Y-37740974D01*
X108781042Y-37740974D01*
X108902183Y-37973000D01*
X110109000Y-37973000D01*
X110109000Y-36765531D01*
X109876973Y-36645032D01*
X109347510Y-36893179D01*
X108953312Y-37325053D01*
X108781042Y-37740974D01*
X95202000Y-37740974D01*
X95202000Y-32520250D01*
X100372545Y-32520250D01*
X100771639Y-33486132D01*
X101509981Y-34225764D01*
X102475165Y-34626543D01*
X103520250Y-34627455D01*
X104486132Y-34228361D01*
X105225764Y-33490019D01*
X105626543Y-32524835D01*
X105627455Y-31479750D01*
X105228361Y-30513868D01*
X104490019Y-29774236D01*
X103524835Y-29373457D01*
X102479750Y-29372545D01*
X101513868Y-29771639D01*
X100774236Y-30509981D01*
X100373457Y-31475165D01*
X100372545Y-32520250D01*
X95202000Y-32520250D01*
X95202000Y-29202000D01*
X233798000Y-29202000D01*
X233798000Y-54898728D01*
G36*
X157752000Y-112807960D02*
X157527386Y-112582953D01*
X157003093Y-112365248D01*
X156435397Y-112364752D01*
X155910725Y-112581543D01*
X155508953Y-112982614D01*
X155332966Y-113406438D01*
X154562702Y-114176702D01*
X154291303Y-114582880D01*
X154196000Y-115062000D01*
X154196000Y-120922000D01*
X150989090Y-120922000D01*
X151460483Y-120451430D01*
X151748672Y-119757394D01*
X151749327Y-119005903D01*
X151462350Y-118311365D01*
X151261451Y-118110115D01*
X151460483Y-117911430D01*
X151748672Y-117217394D01*
X151749327Y-116465903D01*
X151462350Y-115771365D01*
X150931430Y-115239517D01*
X150931357Y-115239487D01*
X150955226Y-115215618D01*
X150840215Y-115100607D01*
X151082397Y-115031143D01*
X151269144Y-114507698D01*
X151241362Y-113952632D01*
X151082397Y-113568857D01*
X150840213Y-113499392D01*
X150039605Y-114300000D01*
X150053748Y-114314143D01*
X149874143Y-114493748D01*
X149860000Y-114479605D01*
X149845858Y-114493748D01*
X149666253Y-114314143D01*
X149680395Y-114300000D01*
X148879787Y-113499392D01*
X148637603Y-113568857D01*
X148450856Y-114092302D01*
X148478638Y-114647368D01*
X148637603Y-115031143D01*
X148879785Y-115100607D01*
X148764774Y-115215618D01*
X148789084Y-115239928D01*
X148403176Y-115625162D01*
X148110880Y-115683303D01*
X147768263Y-115912232D01*
X147704702Y-115954702D01*
X146923091Y-116736313D01*
X146923327Y-116465903D01*
X146636350Y-115771365D01*
X146105430Y-115239517D01*
X146105357Y-115239487D01*
X146129226Y-115215618D01*
X146014215Y-115100607D01*
X146256397Y-115031143D01*
X146443144Y-114507698D01*
X146415362Y-113952632D01*
X146256397Y-113568857D01*
X146014213Y-113499392D01*
X145213605Y-114300000D01*
X145227748Y-114314143D01*
X145048143Y-114493748D01*
X145034000Y-114479605D01*
X145019858Y-114493748D01*
X144840253Y-114314143D01*
X144854395Y-114300000D01*
X144053787Y-113499392D01*
X143811603Y-113568857D01*
X143624856Y-114092302D01*
X143652638Y-114647368D01*
X143811603Y-115031143D01*
X144053785Y-115100607D01*
X143938774Y-115215618D01*
X143963084Y-115239928D01*
X143433517Y-115768570D01*
X143145328Y-116462606D01*
X143145117Y-116704287D01*
X141608702Y-118240702D01*
X141337303Y-118646880D01*
X141288943Y-118890000D01*
X126181943Y-118890000D01*
X125761093Y-118715248D01*
X125193397Y-118714752D01*
X124668725Y-118931543D01*
X124463253Y-119136657D01*
X122656596Y-117330000D01*
X139700000Y-117330000D01*
X140179120Y-117234697D01*
X140585298Y-116963298D01*
X140856697Y-116557120D01*
X140952000Y-116078000D01*
X140952000Y-113319787D01*
X144233392Y-113319787D01*
X145034000Y-114120395D01*
X145834608Y-113319787D01*
X149059392Y-113319787D01*
X149860000Y-114120395D01*
X150660608Y-113319787D01*
X150591143Y-113077603D01*
X150067698Y-112890856D01*
X149512632Y-112918638D01*
X149128857Y-113077603D01*
X149059392Y-113319787D01*
X145834608Y-113319787D01*
X145765143Y-113077603D01*
X145241698Y-112890856D01*
X144686632Y-112918638D01*
X144302857Y-113077603D01*
X144233392Y-113319787D01*
X140952000Y-113319787D01*
X140952000Y-109964000D01*
X155758057Y-109964000D01*
X156178907Y-110138752D01*
X156746603Y-110139248D01*
X157271275Y-109922457D01*
X157673047Y-109521386D01*
X157752000Y-109331246D01*
X157752000Y-112807960D01*
X157752000Y-112807960D01*
G37*
X157752000Y-112807960D02*
X157527386Y-112582953D01*
X157003093Y-112365248D01*
X156435397Y-112364752D01*
X155910725Y-112581543D01*
X155508953Y-112982614D01*
X155332966Y-113406438D01*
X154562702Y-114176702D01*
X154291303Y-114582880D01*
X154196000Y-115062000D01*
X154196000Y-120922000D01*
X150989090Y-120922000D01*
X151460483Y-120451430D01*
X151748672Y-119757394D01*
X151749327Y-119005903D01*
X151462350Y-118311365D01*
X151261451Y-118110115D01*
X151460483Y-117911430D01*
X151748672Y-117217394D01*
X151749327Y-116465903D01*
X151462350Y-115771365D01*
X150931430Y-115239517D01*
X150931357Y-115239487D01*
X150955226Y-115215618D01*
X150840215Y-115100607D01*
X151082397Y-115031143D01*
X151269144Y-114507698D01*
X151241362Y-113952632D01*
X151082397Y-113568857D01*
X150840213Y-113499392D01*
X150039605Y-114300000D01*
X150053748Y-114314143D01*
X149874143Y-114493748D01*
X149860000Y-114479605D01*
X149845858Y-114493748D01*
X149666253Y-114314143D01*
X149680395Y-114300000D01*
X148879787Y-113499392D01*
X148637603Y-113568857D01*
X148450856Y-114092302D01*
X148478638Y-114647368D01*
X148637603Y-115031143D01*
X148879785Y-115100607D01*
X148764774Y-115215618D01*
X148789084Y-115239928D01*
X148403176Y-115625162D01*
X148110880Y-115683303D01*
X147768263Y-115912232D01*
X147704702Y-115954702D01*
X146923091Y-116736313D01*
X146923327Y-116465903D01*
X146636350Y-115771365D01*
X146105430Y-115239517D01*
X146105357Y-115239487D01*
X146129226Y-115215618D01*
X146014215Y-115100607D01*
X146256397Y-115031143D01*
X146443144Y-114507698D01*
X146415362Y-113952632D01*
X146256397Y-113568857D01*
X146014213Y-113499392D01*
X145213605Y-114300000D01*
X145227748Y-114314143D01*
X145048143Y-114493748D01*
X145034000Y-114479605D01*
X145019858Y-114493748D01*
X144840253Y-114314143D01*
X144854395Y-114300000D01*
X144053787Y-113499392D01*
X143811603Y-113568857D01*
X143624856Y-114092302D01*
X143652638Y-114647368D01*
X143811603Y-115031143D01*
X144053785Y-115100607D01*
X143938774Y-115215618D01*
X143963084Y-115239928D01*
X143433517Y-115768570D01*
X143145328Y-116462606D01*
X143145117Y-116704287D01*
X141608702Y-118240702D01*
X141337303Y-118646880D01*
X141288943Y-118890000D01*
X126181943Y-118890000D01*
X125761093Y-118715248D01*
X125193397Y-118714752D01*
X124668725Y-118931543D01*
X124463253Y-119136657D01*
X122656596Y-117330000D01*
X139700000Y-117330000D01*
X140179120Y-117234697D01*
X140585298Y-116963298D01*
X140856697Y-116557120D01*
X140952000Y-116078000D01*
X140952000Y-113319787D01*
X144233392Y-113319787D01*
X145034000Y-114120395D01*
X145834608Y-113319787D01*
X149059392Y-113319787D01*
X149860000Y-114120395D01*
X150660608Y-113319787D01*
X150591143Y-113077603D01*
X150067698Y-112890856D01*
X149512632Y-112918638D01*
X149128857Y-113077603D01*
X149059392Y-113319787D01*
X145834608Y-113319787D01*
X145765143Y-113077603D01*
X145241698Y-112890856D01*
X144686632Y-112918638D01*
X144302857Y-113077603D01*
X144233392Y-113319787D01*
X140952000Y-113319787D01*
X140952000Y-109964000D01*
X155758057Y-109964000D01*
X156178907Y-110138752D01*
X156746603Y-110139248D01*
X157271275Y-109922457D01*
X157673047Y-109521386D01*
X157752000Y-109331246D01*
X157752000Y-112807960D01*
G36*
X163957000Y-115550000D02*
X173297951Y-115550000D01*
X173344433Y-115619565D01*
X173589969Y-115783627D01*
X173545179Y-115824510D01*
X173297032Y-116353973D01*
X173417531Y-116586000D01*
X174625000Y-116586000D01*
X174625000Y-116566000D01*
X174879000Y-116566000D01*
X174879000Y-116586000D01*
X174899000Y-116586000D01*
X174899000Y-116840000D01*
X174879000Y-116840000D01*
X174879000Y-116860000D01*
X174625000Y-116860000D01*
X174625000Y-116840000D01*
X173417531Y-116840000D01*
X173297032Y-117072027D01*
X173545179Y-117601490D01*
X173977053Y-117995688D01*
X174296501Y-118128000D01*
X164527057Y-118128000D01*
X164478697Y-117884880D01*
X164207298Y-117478702D01*
X163812000Y-117214573D01*
X163812000Y-115521158D01*
X163957000Y-115550000D01*
X163957000Y-115550000D01*
G37*
X163957000Y-115550000D02*
X173297951Y-115550000D01*
X173344433Y-115619565D01*
X173589969Y-115783627D01*
X173545179Y-115824510D01*
X173297032Y-116353973D01*
X173417531Y-116586000D01*
X174625000Y-116586000D01*
X174625000Y-116566000D01*
X174879000Y-116566000D01*
X174879000Y-116586000D01*
X174899000Y-116586000D01*
X174899000Y-116840000D01*
X174879000Y-116840000D01*
X174879000Y-116860000D01*
X174625000Y-116860000D01*
X174625000Y-116840000D01*
X173417531Y-116840000D01*
X173297032Y-117072027D01*
X173545179Y-117601490D01*
X173977053Y-117995688D01*
X174296501Y-118128000D01*
X164527057Y-118128000D01*
X164478697Y-117884880D01*
X164207298Y-117478702D01*
X163812000Y-117214573D01*
X163812000Y-115521158D01*
X163957000Y-115550000D01*
G36*
X189300233Y-59596865D02*
X189031266Y-59708000D01*
X177235943Y-59708000D01*
X176815093Y-59533248D01*
X176247397Y-59532752D01*
X175722725Y-59749543D01*
X175320953Y-60150614D01*
X175103248Y-60674907D01*
X175102752Y-61242603D01*
X175319543Y-61767275D01*
X175720614Y-62169047D01*
X176244907Y-62386752D01*
X176812603Y-62387248D01*
X177236734Y-62212000D01*
X189032057Y-62212000D01*
X189452907Y-62386752D01*
X189885000Y-62387130D01*
X189885000Y-87376000D01*
X189989818Y-87902955D01*
X190288314Y-88349686D01*
X190735045Y-88648182D01*
X191262000Y-88753000D01*
X218841000Y-88753000D01*
X218841000Y-115336000D01*
X206686049Y-115336000D01*
X206669291Y-115310921D01*
X206730600Y-115162909D01*
X206730600Y-114458750D01*
X206571850Y-114300000D01*
X205359000Y-114300000D01*
X205359000Y-114320000D01*
X205105000Y-114320000D01*
X205105000Y-114300000D01*
X205085000Y-114300000D01*
X205085000Y-114046000D01*
X205105000Y-114046000D01*
X205105000Y-112833150D01*
X205359000Y-112833150D01*
X205359000Y-114046000D01*
X206571850Y-114046000D01*
X206730600Y-113887250D01*
X206730600Y-113183091D01*
X206633927Y-112949702D01*
X206455299Y-112771073D01*
X206221910Y-112674400D01*
X205517750Y-112674400D01*
X205359000Y-112833150D01*
X205105000Y-112833150D01*
X204946250Y-112674400D01*
X204242090Y-112674400D01*
X204103230Y-112731918D01*
X204099567Y-112726435D01*
X203453770Y-112294927D01*
X202692000Y-112143402D01*
X201930230Y-112294927D01*
X201422000Y-112634516D01*
X200913770Y-112294927D01*
X200152000Y-112143402D01*
X199390230Y-112294927D01*
X198882000Y-112634516D01*
X198373770Y-112294927D01*
X197612000Y-112143402D01*
X196850230Y-112294927D01*
X196342000Y-112634516D01*
X195833770Y-112294927D01*
X195072000Y-112143402D01*
X194310230Y-112294927D01*
X193802000Y-112634516D01*
X193293770Y-112294927D01*
X192532000Y-112143402D01*
X191770230Y-112294927D01*
X191262000Y-112634516D01*
X190753770Y-112294927D01*
X189992000Y-112143402D01*
X189230230Y-112294927D01*
X188722000Y-112634516D01*
X188213770Y-112294927D01*
X187452000Y-112143402D01*
X186690230Y-112294927D01*
X186182000Y-112634516D01*
X186164000Y-112622488D01*
X186164000Y-112014000D01*
X186068697Y-111534880D01*
X185797298Y-111128702D01*
X185391120Y-110857303D01*
X184912000Y-110762000D01*
X184160595Y-110762000D01*
X183116000Y-109717404D01*
X183116000Y-108145244D01*
X183451868Y-108481699D01*
X184233159Y-108806120D01*
X185079129Y-108806858D01*
X185860986Y-108483801D01*
X186459699Y-107886132D01*
X186784120Y-107104841D01*
X186784164Y-107054097D01*
X186832673Y-107054097D01*
X187119650Y-107748635D01*
X187320549Y-107949885D01*
X187121517Y-108148570D01*
X186833328Y-108842606D01*
X186832673Y-109594097D01*
X187119650Y-110288635D01*
X187650570Y-110820483D01*
X188344606Y-111108672D01*
X189096097Y-111109327D01*
X189790635Y-110822350D01*
X190322483Y-110291430D01*
X190610672Y-109597394D01*
X190611327Y-108845903D01*
X190324350Y-108151365D01*
X190123451Y-107950115D01*
X190322483Y-107751430D01*
X190610672Y-107057394D01*
X190610674Y-107054097D01*
X192166673Y-107054097D01*
X192453650Y-107748635D01*
X192654549Y-107949885D01*
X192455517Y-108148570D01*
X192167328Y-108842606D01*
X192166673Y-109594097D01*
X192453650Y-110288635D01*
X192984570Y-110820483D01*
X193678606Y-111108672D01*
X194430097Y-111109327D01*
X195124635Y-110822350D01*
X195656483Y-110291430D01*
X195944672Y-109597394D01*
X195945327Y-108845903D01*
X195658350Y-108151365D01*
X195457451Y-107950115D01*
X195656483Y-107751430D01*
X195944672Y-107057394D01*
X195944674Y-107054097D01*
X197500673Y-107054097D01*
X197787650Y-107748635D01*
X197988549Y-107949885D01*
X197789517Y-108148570D01*
X197501328Y-108842606D01*
X197500673Y-109594097D01*
X197787650Y-110288635D01*
X198318570Y-110820483D01*
X199012606Y-111108672D01*
X199764097Y-111109327D01*
X200458635Y-110822350D01*
X200990483Y-110291430D01*
X201278672Y-109597394D01*
X201279327Y-108845903D01*
X200992350Y-108151365D01*
X200791451Y-107950115D01*
X200990483Y-107751430D01*
X201278672Y-107057394D01*
X201278674Y-107054097D01*
X202834673Y-107054097D01*
X203121650Y-107748635D01*
X203322549Y-107949885D01*
X203123517Y-108148570D01*
X202835328Y-108842606D01*
X202834673Y-109594097D01*
X203121650Y-110288635D01*
X203652570Y-110820483D01*
X204346606Y-111108672D01*
X205098097Y-111109327D01*
X205792635Y-110822350D01*
X206324483Y-110291430D01*
X206612672Y-109597394D01*
X206613327Y-108845903D01*
X206326350Y-108151365D01*
X206125451Y-107950115D01*
X206324483Y-107751430D01*
X206508570Y-107308097D01*
X207914673Y-107308097D01*
X208201650Y-108002635D01*
X208402549Y-108203885D01*
X208203517Y-108402570D01*
X207915328Y-109096606D01*
X207914673Y-109848097D01*
X208201650Y-110542635D01*
X208732570Y-111074483D01*
X209426606Y-111362672D01*
X210178097Y-111363327D01*
X210872635Y-111076350D01*
X211404483Y-110545430D01*
X211692672Y-109851394D01*
X211693327Y-109099903D01*
X211406350Y-108405365D01*
X211205451Y-108204115D01*
X211404483Y-108005430D01*
X211692672Y-107311394D01*
X211693327Y-106559903D01*
X211406350Y-105865365D01*
X210875430Y-105333517D01*
X210875357Y-105333487D01*
X210899226Y-105309618D01*
X210784215Y-105194607D01*
X211026397Y-105125143D01*
X211213144Y-104601698D01*
X211185362Y-104046632D01*
X211026397Y-103662857D01*
X210784213Y-103593392D01*
X209983605Y-104394000D01*
X209997748Y-104408143D01*
X209818143Y-104587748D01*
X209804000Y-104573605D01*
X209789858Y-104587748D01*
X209610253Y-104408143D01*
X209624395Y-104394000D01*
X208823787Y-103593392D01*
X208581603Y-103662857D01*
X208394856Y-104186302D01*
X208422638Y-104741368D01*
X208581603Y-105125143D01*
X208823785Y-105194607D01*
X208708774Y-105309618D01*
X208733084Y-105333928D01*
X208203517Y-105862570D01*
X207915328Y-106556606D01*
X207914673Y-107308097D01*
X206508570Y-107308097D01*
X206612672Y-107057394D01*
X206613327Y-106305903D01*
X206326350Y-105611365D01*
X205795430Y-105079517D01*
X205795357Y-105079487D01*
X205819226Y-105055618D01*
X205704215Y-104940607D01*
X205946397Y-104871143D01*
X206133144Y-104347698D01*
X206105362Y-103792632D01*
X205948440Y-103413787D01*
X209003392Y-103413787D01*
X209804000Y-104214395D01*
X210604608Y-103413787D01*
X210535143Y-103171603D01*
X210011698Y-102984856D01*
X209456632Y-103012638D01*
X209072857Y-103171603D01*
X209003392Y-103413787D01*
X205948440Y-103413787D01*
X205946397Y-103408857D01*
X205704213Y-103339392D01*
X204903605Y-104140000D01*
X204917748Y-104154143D01*
X204738143Y-104333748D01*
X204724000Y-104319605D01*
X204709858Y-104333748D01*
X204530253Y-104154143D01*
X204544395Y-104140000D01*
X203743787Y-103339392D01*
X203501603Y-103408857D01*
X203314856Y-103932302D01*
X203342638Y-104487368D01*
X203501603Y-104871143D01*
X203743785Y-104940607D01*
X203628774Y-105055618D01*
X203653084Y-105079928D01*
X203123517Y-105608570D01*
X202835328Y-106302606D01*
X202834673Y-107054097D01*
X201278674Y-107054097D01*
X201279327Y-106305903D01*
X200992350Y-105611365D01*
X200461430Y-105079517D01*
X200461357Y-105079487D01*
X200485226Y-105055618D01*
X200370215Y-104940607D01*
X200612397Y-104871143D01*
X200799144Y-104347698D01*
X200771362Y-103792632D01*
X200612397Y-103408857D01*
X200370213Y-103339392D01*
X199569605Y-104140000D01*
X199583748Y-104154143D01*
X199404143Y-104333748D01*
X199390000Y-104319605D01*
X199375858Y-104333748D01*
X199196253Y-104154143D01*
X199210395Y-104140000D01*
X198409787Y-103339392D01*
X198167603Y-103408857D01*
X197980856Y-103932302D01*
X198008638Y-104487368D01*
X198167603Y-104871143D01*
X198409785Y-104940607D01*
X198294774Y-105055618D01*
X198319084Y-105079928D01*
X197789517Y-105608570D01*
X197501328Y-106302606D01*
X197500673Y-107054097D01*
X195944674Y-107054097D01*
X195945327Y-106305903D01*
X195658350Y-105611365D01*
X195127430Y-105079517D01*
X195127357Y-105079487D01*
X195151226Y-105055618D01*
X195036215Y-104940607D01*
X195278397Y-104871143D01*
X195465144Y-104347698D01*
X195437362Y-103792632D01*
X195278397Y-103408857D01*
X195036213Y-103339392D01*
X194235605Y-104140000D01*
X194249748Y-104154143D01*
X194070143Y-104333748D01*
X194056000Y-104319605D01*
X194041858Y-104333748D01*
X193862253Y-104154143D01*
X193876395Y-104140000D01*
X193075787Y-103339392D01*
X192833603Y-103408857D01*
X192646856Y-103932302D01*
X192674638Y-104487368D01*
X192833603Y-104871143D01*
X193075785Y-104940607D01*
X192960774Y-105055618D01*
X192985084Y-105079928D01*
X192455517Y-105608570D01*
X192167328Y-106302606D01*
X192166673Y-107054097D01*
X190610674Y-107054097D01*
X190611327Y-106305903D01*
X190324350Y-105611365D01*
X189793430Y-105079517D01*
X189793357Y-105079487D01*
X189817226Y-105055618D01*
X189702215Y-104940607D01*
X189944397Y-104871143D01*
X190131144Y-104347698D01*
X190103362Y-103792632D01*
X189944397Y-103408857D01*
X189702213Y-103339392D01*
X188901605Y-104140000D01*
X188915748Y-104154143D01*
X188736143Y-104333748D01*
X188722000Y-104319605D01*
X188707858Y-104333748D01*
X188528253Y-104154143D01*
X188542395Y-104140000D01*
X187741787Y-103339392D01*
X187499603Y-103408857D01*
X187312856Y-103932302D01*
X187340638Y-104487368D01*
X187499603Y-104871143D01*
X187741785Y-104940607D01*
X187626774Y-105055618D01*
X187651084Y-105079928D01*
X187121517Y-105608570D01*
X186833328Y-106302606D01*
X186832673Y-107054097D01*
X186784164Y-107054097D01*
X186784858Y-106258871D01*
X186461801Y-105477014D01*
X185864132Y-104878301D01*
X185082841Y-104553880D01*
X184236871Y-104553142D01*
X183455014Y-104876199D01*
X183116000Y-105214622D01*
X183116000Y-103159787D01*
X187921392Y-103159787D01*
X188722000Y-103960395D01*
X189522608Y-103159787D01*
X193255392Y-103159787D01*
X194056000Y-103960395D01*
X194856608Y-103159787D01*
X198589392Y-103159787D01*
X199390000Y-103960395D01*
X200190608Y-103159787D01*
X203923392Y-103159787D01*
X204724000Y-103960395D01*
X205524608Y-103159787D01*
X205455143Y-102917603D01*
X204931698Y-102730856D01*
X204376632Y-102758638D01*
X203992857Y-102917603D01*
X203923392Y-103159787D01*
X200190608Y-103159787D01*
X200121143Y-102917603D01*
X199597698Y-102730856D01*
X199042632Y-102758638D01*
X198658857Y-102917603D01*
X198589392Y-103159787D01*
X194856608Y-103159787D01*
X194787143Y-102917603D01*
X194263698Y-102730856D01*
X193708632Y-102758638D01*
X193324857Y-102917603D01*
X193255392Y-103159787D01*
X189522608Y-103159787D01*
X189453143Y-102917603D01*
X188929698Y-102730856D01*
X188374632Y-102758638D01*
X187990857Y-102917603D01*
X187921392Y-103159787D01*
X183116000Y-103159787D01*
X183116000Y-101005129D01*
X186595142Y-101005129D01*
X186918199Y-101786986D01*
X187515868Y-102385699D01*
X188297159Y-102710120D01*
X189143129Y-102710858D01*
X189924986Y-102387801D01*
X190523699Y-101790132D01*
X190848120Y-101008841D01*
X190848858Y-100162871D01*
X190525801Y-99381014D01*
X189928132Y-98782301D01*
X189146841Y-98457880D01*
X188300871Y-98457142D01*
X187519014Y-98780199D01*
X186920301Y-99377868D01*
X186595880Y-100159159D01*
X186595142Y-101005129D01*
X183116000Y-101005129D01*
X183116000Y-99822000D01*
X183020697Y-99342880D01*
X182770701Y-98968734D01*
X183217159Y-99154120D01*
X184063129Y-99154858D01*
X184844986Y-98831801D01*
X185443699Y-98234132D01*
X185768120Y-97452841D01*
X185768858Y-96606871D01*
X185620575Y-96248000D01*
X191823355Y-96248000D01*
X191675880Y-96603159D01*
X191675142Y-97449129D01*
X191998199Y-98230986D01*
X192595868Y-98829699D01*
X193377159Y-99154120D01*
X194223129Y-99154858D01*
X195004986Y-98831801D01*
X195326036Y-98511311D01*
X195643868Y-98829699D01*
X196425159Y-99154120D01*
X197271129Y-99154858D01*
X197326704Y-99131895D01*
X197080301Y-99377868D01*
X196755880Y-100159159D01*
X196755142Y-101005129D01*
X197078199Y-101786986D01*
X197675868Y-102385699D01*
X198457159Y-102710120D01*
X199303129Y-102710858D01*
X200084986Y-102387801D01*
X200406036Y-102067311D01*
X200723868Y-102385699D01*
X201505159Y-102710120D01*
X202351129Y-102710858D01*
X203132986Y-102387801D01*
X203731699Y-101790132D01*
X204056120Y-101008841D01*
X204056123Y-101005129D01*
X209963142Y-101005129D01*
X210286199Y-101786986D01*
X210883868Y-102385699D01*
X211665159Y-102710120D01*
X212511129Y-102710858D01*
X213292986Y-102387801D01*
X213891699Y-101790132D01*
X214216120Y-101008841D01*
X214216858Y-100162871D01*
X213893801Y-99381014D01*
X213296132Y-98782301D01*
X212514841Y-98457880D01*
X211668871Y-98457142D01*
X210887014Y-98780199D01*
X210288301Y-99377868D01*
X209963880Y-100159159D01*
X209963142Y-101005129D01*
X204056123Y-101005129D01*
X204056858Y-100162871D01*
X203733801Y-99381014D01*
X203182000Y-98828249D01*
X203182000Y-97449129D01*
X204883142Y-97449129D01*
X205206199Y-98230986D01*
X205803868Y-98829699D01*
X206585159Y-99154120D01*
X207431129Y-99154858D01*
X208212986Y-98831801D01*
X208811699Y-98234132D01*
X209136120Y-97452841D01*
X209136858Y-96606871D01*
X208813801Y-95825014D01*
X208216132Y-95226301D01*
X207434841Y-94901880D01*
X206588871Y-94901142D01*
X205807014Y-95224199D01*
X205208301Y-95821868D01*
X204883880Y-96603159D01*
X204883142Y-97449129D01*
X203182000Y-97449129D01*
X203182000Y-90424000D01*
X203086697Y-89944880D01*
X202815298Y-89538702D01*
X202409120Y-89267303D01*
X201930000Y-89172000D01*
X192278000Y-89172000D01*
X191798880Y-89267303D01*
X191392702Y-89538702D01*
X188457404Y-92474000D01*
X181610005Y-92474000D01*
X181610000Y-92473999D01*
X181210372Y-92553491D01*
X181130880Y-92569303D01*
X180724702Y-92840702D01*
X180724700Y-92840705D01*
X179445880Y-94119525D01*
X179024725Y-94293543D01*
X178622953Y-94694614D01*
X178405248Y-95218907D01*
X178404761Y-95776000D01*
X167640000Y-95776000D01*
X167622000Y-95779580D01*
X167622000Y-90564218D01*
X171999055Y-90564218D01*
X172301468Y-91296111D01*
X172860944Y-91856564D01*
X173592308Y-92160254D01*
X174384218Y-92160945D01*
X175116111Y-91858532D01*
X175259830Y-91715064D01*
X175401000Y-91856480D01*
X176132328Y-92160154D01*
X176924198Y-92160845D01*
X177656055Y-91858448D01*
X177799760Y-91714993D01*
X177941000Y-91856480D01*
X178672328Y-92160154D01*
X179464198Y-92160845D01*
X180196055Y-91858448D01*
X180756480Y-91299000D01*
X180758559Y-91293994D01*
X180817741Y-91476516D01*
X181378030Y-91680248D01*
X181973635Y-91654058D01*
X182402259Y-91476516D01*
X182484200Y-91223805D01*
X181610000Y-90349605D01*
X181595858Y-90363748D01*
X181416253Y-90184143D01*
X181430395Y-90170000D01*
X181416253Y-90155858D01*
X181595858Y-89976253D01*
X181610000Y-89990395D01*
X181624143Y-89976253D01*
X181803748Y-90155858D01*
X181789605Y-90170000D01*
X182663805Y-91044200D01*
X182916516Y-90962259D01*
X183120248Y-90401970D01*
X183094058Y-89806365D01*
X182916516Y-89377741D01*
X182734999Y-89318884D01*
X182736055Y-89318448D01*
X183296480Y-88759000D01*
X183600154Y-88027672D01*
X183600845Y-87235802D01*
X183298448Y-86503945D01*
X182739000Y-85943520D01*
X182007672Y-85639846D01*
X181215802Y-85639155D01*
X180483945Y-85941552D01*
X180340240Y-86085007D01*
X180199000Y-85943520D01*
X179467672Y-85639846D01*
X178675802Y-85639155D01*
X177943945Y-85941552D01*
X177800240Y-86085007D01*
X177659000Y-85943520D01*
X176927672Y-85639846D01*
X176135802Y-85639155D01*
X175403945Y-85941552D01*
X175260240Y-86085007D01*
X175119000Y-85943520D01*
X174387672Y-85639846D01*
X173595802Y-85639155D01*
X172863945Y-85941552D01*
X172303520Y-86501000D01*
X171999846Y-87232328D01*
X171999155Y-88024198D01*
X172301552Y-88756055D01*
X172444937Y-88899690D01*
X172303436Y-89040944D01*
X171999746Y-89772308D01*
X171999055Y-90564218D01*
X167622000Y-90564218D01*
X167622000Y-79855750D01*
X168355000Y-79855750D01*
X168355000Y-81446310D01*
X168451673Y-81679699D01*
X168630302Y-81858327D01*
X168863691Y-81955000D01*
X169804250Y-81955000D01*
X169963000Y-81796250D01*
X169963000Y-79697000D01*
X170217000Y-79697000D01*
X170217000Y-81796250D01*
X170375750Y-81955000D01*
X171316309Y-81955000D01*
X171549698Y-81858327D01*
X171728327Y-81679699D01*
X171825000Y-81446310D01*
X171825000Y-79855750D01*
X171666250Y-79697000D01*
X170217000Y-79697000D01*
X169963000Y-79697000D01*
X168513750Y-79697000D01*
X168355000Y-79855750D01*
X167622000Y-79855750D01*
X167622000Y-77693690D01*
X168355000Y-77693690D01*
X168355000Y-79284250D01*
X168513750Y-79443000D01*
X169963000Y-79443000D01*
X169963000Y-77343750D01*
X170217000Y-77343750D01*
X170217000Y-79443000D01*
X171666250Y-79443000D01*
X171825000Y-79284250D01*
X171825000Y-77693690D01*
X171728327Y-77460301D01*
X171549698Y-77281673D01*
X171316309Y-77185000D01*
X170375750Y-77185000D01*
X170217000Y-77343750D01*
X169963000Y-77343750D01*
X169804250Y-77185000D01*
X168863691Y-77185000D01*
X168630302Y-77281673D01*
X168451673Y-77460301D01*
X168355000Y-77693690D01*
X167622000Y-77693690D01*
X167622000Y-76905943D01*
X167796752Y-76485093D01*
X167797248Y-75917397D01*
X167580457Y-75392725D01*
X167179386Y-74990953D01*
X166655093Y-74773248D01*
X166606000Y-74773205D01*
X166606000Y-71063943D01*
X166780752Y-70643093D01*
X166781248Y-70075397D01*
X166564457Y-69550725D01*
X166163386Y-69148953D01*
X165639093Y-68931248D01*
X165461000Y-68931092D01*
X165461000Y-60452000D01*
X165356182Y-59925045D01*
X165057686Y-59478314D01*
X163730087Y-58150715D01*
X164190484Y-58458342D01*
X165100000Y-58639256D01*
X166009516Y-58458342D01*
X166780567Y-57943143D01*
X167295766Y-57172092D01*
X167476680Y-56262576D01*
X167476680Y-54638904D01*
X175423320Y-54638904D01*
X175423320Y-56262576D01*
X175604234Y-57172092D01*
X176119433Y-57943143D01*
X176890484Y-58458342D01*
X177800000Y-58639256D01*
X178709516Y-58458342D01*
X179480567Y-57943143D01*
X179995766Y-57172092D01*
X180176680Y-56262576D01*
X180176680Y-54638904D01*
X179995766Y-53729388D01*
X179480567Y-52958337D01*
X178709516Y-52443138D01*
X177800000Y-52262224D01*
X176890484Y-52443138D01*
X176119433Y-52958337D01*
X175604234Y-53729388D01*
X175423320Y-54638904D01*
X167476680Y-54638904D01*
X167295766Y-53729388D01*
X166780567Y-52958337D01*
X166009516Y-52443138D01*
X165100000Y-52262224D01*
X164190484Y-52443138D01*
X163419433Y-52958337D01*
X162904234Y-53729388D01*
X162723320Y-54638904D01*
X162723320Y-56262576D01*
X162904234Y-57172092D01*
X163211861Y-57632489D01*
X161143000Y-55563628D01*
X161143000Y-39353632D01*
X164100138Y-36396494D01*
X164190484Y-36456862D01*
X165100000Y-36637776D01*
X166009516Y-36456862D01*
X166099862Y-36396494D01*
X189300233Y-59596865D01*
X189300233Y-59596865D01*
G37*
X189300233Y-59596865D02*
X189031266Y-59708000D01*
X177235943Y-59708000D01*
X176815093Y-59533248D01*
X176247397Y-59532752D01*
X175722725Y-59749543D01*
X175320953Y-60150614D01*
X175103248Y-60674907D01*
X175102752Y-61242603D01*
X175319543Y-61767275D01*
X175720614Y-62169047D01*
X176244907Y-62386752D01*
X176812603Y-62387248D01*
X177236734Y-62212000D01*
X189032057Y-62212000D01*
X189452907Y-62386752D01*
X189885000Y-62387130D01*
X189885000Y-87376000D01*
X189989818Y-87902955D01*
X190288314Y-88349686D01*
X190735045Y-88648182D01*
X191262000Y-88753000D01*
X218841000Y-88753000D01*
X218841000Y-115336000D01*
X206686049Y-115336000D01*
X206669291Y-115310921D01*
X206730600Y-115162909D01*
X206730600Y-114458750D01*
X206571850Y-114300000D01*
X205359000Y-114300000D01*
X205359000Y-114320000D01*
X205105000Y-114320000D01*
X205105000Y-114300000D01*
X205085000Y-114300000D01*
X205085000Y-114046000D01*
X205105000Y-114046000D01*
X205105000Y-112833150D01*
X205359000Y-112833150D01*
X205359000Y-114046000D01*
X206571850Y-114046000D01*
X206730600Y-113887250D01*
X206730600Y-113183091D01*
X206633927Y-112949702D01*
X206455299Y-112771073D01*
X206221910Y-112674400D01*
X205517750Y-112674400D01*
X205359000Y-112833150D01*
X205105000Y-112833150D01*
X204946250Y-112674400D01*
X204242090Y-112674400D01*
X204103230Y-112731918D01*
X204099567Y-112726435D01*
X203453770Y-112294927D01*
X202692000Y-112143402D01*
X201930230Y-112294927D01*
X201422000Y-112634516D01*
X200913770Y-112294927D01*
X200152000Y-112143402D01*
X199390230Y-112294927D01*
X198882000Y-112634516D01*
X198373770Y-112294927D01*
X197612000Y-112143402D01*
X196850230Y-112294927D01*
X196342000Y-112634516D01*
X195833770Y-112294927D01*
X195072000Y-112143402D01*
X194310230Y-112294927D01*
X193802000Y-112634516D01*
X193293770Y-112294927D01*
X192532000Y-112143402D01*
X191770230Y-112294927D01*
X191262000Y-112634516D01*
X190753770Y-112294927D01*
X189992000Y-112143402D01*
X189230230Y-112294927D01*
X188722000Y-112634516D01*
X188213770Y-112294927D01*
X187452000Y-112143402D01*
X186690230Y-112294927D01*
X186182000Y-112634516D01*
X186164000Y-112622488D01*
X186164000Y-112014000D01*
X186068697Y-111534880D01*
X185797298Y-111128702D01*
X185391120Y-110857303D01*
X184912000Y-110762000D01*
X184160595Y-110762000D01*
X183116000Y-109717404D01*
X183116000Y-108145244D01*
X183451868Y-108481699D01*
X184233159Y-108806120D01*
X185079129Y-108806858D01*
X185860986Y-108483801D01*
X186459699Y-107886132D01*
X186784120Y-107104841D01*
X186784164Y-107054097D01*
X186832673Y-107054097D01*
X187119650Y-107748635D01*
X187320549Y-107949885D01*
X187121517Y-108148570D01*
X186833328Y-108842606D01*
X186832673Y-109594097D01*
X187119650Y-110288635D01*
X187650570Y-110820483D01*
X188344606Y-111108672D01*
X189096097Y-111109327D01*
X189790635Y-110822350D01*
X190322483Y-110291430D01*
X190610672Y-109597394D01*
X190611327Y-108845903D01*
X190324350Y-108151365D01*
X190123451Y-107950115D01*
X190322483Y-107751430D01*
X190610672Y-107057394D01*
X190610674Y-107054097D01*
X192166673Y-107054097D01*
X192453650Y-107748635D01*
X192654549Y-107949885D01*
X192455517Y-108148570D01*
X192167328Y-108842606D01*
X192166673Y-109594097D01*
X192453650Y-110288635D01*
X192984570Y-110820483D01*
X193678606Y-111108672D01*
X194430097Y-111109327D01*
X195124635Y-110822350D01*
X195656483Y-110291430D01*
X195944672Y-109597394D01*
X195945327Y-108845903D01*
X195658350Y-108151365D01*
X195457451Y-107950115D01*
X195656483Y-107751430D01*
X195944672Y-107057394D01*
X195944674Y-107054097D01*
X197500673Y-107054097D01*
X197787650Y-107748635D01*
X197988549Y-107949885D01*
X197789517Y-108148570D01*
X197501328Y-108842606D01*
X197500673Y-109594097D01*
X197787650Y-110288635D01*
X198318570Y-110820483D01*
X199012606Y-111108672D01*
X199764097Y-111109327D01*
X200458635Y-110822350D01*
X200990483Y-110291430D01*
X201278672Y-109597394D01*
X201279327Y-108845903D01*
X200992350Y-108151365D01*
X200791451Y-107950115D01*
X200990483Y-107751430D01*
X201278672Y-107057394D01*
X201278674Y-107054097D01*
X202834673Y-107054097D01*
X203121650Y-107748635D01*
X203322549Y-107949885D01*
X203123517Y-108148570D01*
X202835328Y-108842606D01*
X202834673Y-109594097D01*
X203121650Y-110288635D01*
X203652570Y-110820483D01*
X204346606Y-111108672D01*
X205098097Y-111109327D01*
X205792635Y-110822350D01*
X206324483Y-110291430D01*
X206612672Y-109597394D01*
X206613327Y-108845903D01*
X206326350Y-108151365D01*
X206125451Y-107950115D01*
X206324483Y-107751430D01*
X206508570Y-107308097D01*
X207914673Y-107308097D01*
X208201650Y-108002635D01*
X208402549Y-108203885D01*
X208203517Y-108402570D01*
X207915328Y-109096606D01*
X207914673Y-109848097D01*
X208201650Y-110542635D01*
X208732570Y-111074483D01*
X209426606Y-111362672D01*
X210178097Y-111363327D01*
X210872635Y-111076350D01*
X211404483Y-110545430D01*
X211692672Y-109851394D01*
X211693327Y-109099903D01*
X211406350Y-108405365D01*
X211205451Y-108204115D01*
X211404483Y-108005430D01*
X211692672Y-107311394D01*
X211693327Y-106559903D01*
X211406350Y-105865365D01*
X210875430Y-105333517D01*
X210875357Y-105333487D01*
X210899226Y-105309618D01*
X210784215Y-105194607D01*
X211026397Y-105125143D01*
X211213144Y-104601698D01*
X211185362Y-104046632D01*
X211026397Y-103662857D01*
X210784213Y-103593392D01*
X209983605Y-104394000D01*
X209997748Y-104408143D01*
X209818143Y-104587748D01*
X209804000Y-104573605D01*
X209789858Y-104587748D01*
X209610253Y-104408143D01*
X209624395Y-104394000D01*
X208823787Y-103593392D01*
X208581603Y-103662857D01*
X208394856Y-104186302D01*
X208422638Y-104741368D01*
X208581603Y-105125143D01*
X208823785Y-105194607D01*
X208708774Y-105309618D01*
X208733084Y-105333928D01*
X208203517Y-105862570D01*
X207915328Y-106556606D01*
X207914673Y-107308097D01*
X206508570Y-107308097D01*
X206612672Y-107057394D01*
X206613327Y-106305903D01*
X206326350Y-105611365D01*
X205795430Y-105079517D01*
X205795357Y-105079487D01*
X205819226Y-105055618D01*
X205704215Y-104940607D01*
X205946397Y-104871143D01*
X206133144Y-104347698D01*
X206105362Y-103792632D01*
X205948440Y-103413787D01*
X209003392Y-103413787D01*
X209804000Y-104214395D01*
X210604608Y-103413787D01*
X210535143Y-103171603D01*
X210011698Y-102984856D01*
X209456632Y-103012638D01*
X209072857Y-103171603D01*
X209003392Y-103413787D01*
X205948440Y-103413787D01*
X205946397Y-103408857D01*
X205704213Y-103339392D01*
X204903605Y-104140000D01*
X204917748Y-104154143D01*
X204738143Y-104333748D01*
X204724000Y-104319605D01*
X204709858Y-104333748D01*
X204530253Y-104154143D01*
X204544395Y-104140000D01*
X203743787Y-103339392D01*
X203501603Y-103408857D01*
X203314856Y-103932302D01*
X203342638Y-104487368D01*
X203501603Y-104871143D01*
X203743785Y-104940607D01*
X203628774Y-105055618D01*
X203653084Y-105079928D01*
X203123517Y-105608570D01*
X202835328Y-106302606D01*
X202834673Y-107054097D01*
X201278674Y-107054097D01*
X201279327Y-106305903D01*
X200992350Y-105611365D01*
X200461430Y-105079517D01*
X200461357Y-105079487D01*
X200485226Y-105055618D01*
X200370215Y-104940607D01*
X200612397Y-104871143D01*
X200799144Y-104347698D01*
X200771362Y-103792632D01*
X200612397Y-103408857D01*
X200370213Y-103339392D01*
X199569605Y-104140000D01*
X199583748Y-104154143D01*
X199404143Y-104333748D01*
X199390000Y-104319605D01*
X199375858Y-104333748D01*
X199196253Y-104154143D01*
X199210395Y-104140000D01*
X198409787Y-103339392D01*
X198167603Y-103408857D01*
X197980856Y-103932302D01*
X198008638Y-104487368D01*
X198167603Y-104871143D01*
X198409785Y-104940607D01*
X198294774Y-105055618D01*
X198319084Y-105079928D01*
X197789517Y-105608570D01*
X197501328Y-106302606D01*
X197500673Y-107054097D01*
X195944674Y-107054097D01*
X195945327Y-106305903D01*
X195658350Y-105611365D01*
X195127430Y-105079517D01*
X195127357Y-105079487D01*
X195151226Y-105055618D01*
X195036215Y-104940607D01*
X195278397Y-104871143D01*
X195465144Y-104347698D01*
X195437362Y-103792632D01*
X195278397Y-103408857D01*
X195036213Y-103339392D01*
X194235605Y-104140000D01*
X194249748Y-104154143D01*
X194070143Y-104333748D01*
X194056000Y-104319605D01*
X194041858Y-104333748D01*
X193862253Y-104154143D01*
X193876395Y-104140000D01*
X193075787Y-103339392D01*
X192833603Y-103408857D01*
X192646856Y-103932302D01*
X192674638Y-104487368D01*
X192833603Y-104871143D01*
X193075785Y-104940607D01*
X192960774Y-105055618D01*
X192985084Y-105079928D01*
X192455517Y-105608570D01*
X192167328Y-106302606D01*
X192166673Y-107054097D01*
X190610674Y-107054097D01*
X190611327Y-106305903D01*
X190324350Y-105611365D01*
X189793430Y-105079517D01*
X189793357Y-105079487D01*
X189817226Y-105055618D01*
X189702215Y-104940607D01*
X189944397Y-104871143D01*
X190131144Y-104347698D01*
X190103362Y-103792632D01*
X189944397Y-103408857D01*
X189702213Y-103339392D01*
X188901605Y-104140000D01*
X188915748Y-104154143D01*
X188736143Y-104333748D01*
X188722000Y-104319605D01*
X188707858Y-104333748D01*
X188528253Y-104154143D01*
X188542395Y-104140000D01*
X187741787Y-103339392D01*
X187499603Y-103408857D01*
X187312856Y-103932302D01*
X187340638Y-104487368D01*
X187499603Y-104871143D01*
X187741785Y-104940607D01*
X187626774Y-105055618D01*
X187651084Y-105079928D01*
X187121517Y-105608570D01*
X186833328Y-106302606D01*
X186832673Y-107054097D01*
X186784164Y-107054097D01*
X186784858Y-106258871D01*
X186461801Y-105477014D01*
X185864132Y-104878301D01*
X185082841Y-104553880D01*
X184236871Y-104553142D01*
X183455014Y-104876199D01*
X183116000Y-105214622D01*
X183116000Y-103159787D01*
X187921392Y-103159787D01*
X188722000Y-103960395D01*
X189522608Y-103159787D01*
X193255392Y-103159787D01*
X194056000Y-103960395D01*
X194856608Y-103159787D01*
X198589392Y-103159787D01*
X199390000Y-103960395D01*
X200190608Y-103159787D01*
X203923392Y-103159787D01*
X204724000Y-103960395D01*
X205524608Y-103159787D01*
X205455143Y-102917603D01*
X204931698Y-102730856D01*
X204376632Y-102758638D01*
X203992857Y-102917603D01*
X203923392Y-103159787D01*
X200190608Y-103159787D01*
X200121143Y-102917603D01*
X199597698Y-102730856D01*
X199042632Y-102758638D01*
X198658857Y-102917603D01*
X198589392Y-103159787D01*
X194856608Y-103159787D01*
X194787143Y-102917603D01*
X194263698Y-102730856D01*
X193708632Y-102758638D01*
X193324857Y-102917603D01*
X193255392Y-103159787D01*
X189522608Y-103159787D01*
X189453143Y-102917603D01*
X188929698Y-102730856D01*
X188374632Y-102758638D01*
X187990857Y-102917603D01*
X187921392Y-103159787D01*
X183116000Y-103159787D01*
X183116000Y-101005129D01*
X186595142Y-101005129D01*
X186918199Y-101786986D01*
X187515868Y-102385699D01*
X188297159Y-102710120D01*
X189143129Y-102710858D01*
X189924986Y-102387801D01*
X190523699Y-101790132D01*
X190848120Y-101008841D01*
X190848858Y-100162871D01*
X190525801Y-99381014D01*
X189928132Y-98782301D01*
X189146841Y-98457880D01*
X188300871Y-98457142D01*
X187519014Y-98780199D01*
X186920301Y-99377868D01*
X186595880Y-100159159D01*
X186595142Y-101005129D01*
X183116000Y-101005129D01*
X183116000Y-99822000D01*
X183020697Y-99342880D01*
X182770701Y-98968734D01*
X183217159Y-99154120D01*
X184063129Y-99154858D01*
X184844986Y-98831801D01*
X185443699Y-98234132D01*
X185768120Y-97452841D01*
X185768858Y-96606871D01*
X185620575Y-96248000D01*
X191823355Y-96248000D01*
X191675880Y-96603159D01*
X191675142Y-97449129D01*
X191998199Y-98230986D01*
X192595868Y-98829699D01*
X193377159Y-99154120D01*
X194223129Y-99154858D01*
X195004986Y-98831801D01*
X195326036Y-98511311D01*
X195643868Y-98829699D01*
X196425159Y-99154120D01*
X197271129Y-99154858D01*
X197326704Y-99131895D01*
X197080301Y-99377868D01*
X196755880Y-100159159D01*
X196755142Y-101005129D01*
X197078199Y-101786986D01*
X197675868Y-102385699D01*
X198457159Y-102710120D01*
X199303129Y-102710858D01*
X200084986Y-102387801D01*
X200406036Y-102067311D01*
X200723868Y-102385699D01*
X201505159Y-102710120D01*
X202351129Y-102710858D01*
X203132986Y-102387801D01*
X203731699Y-101790132D01*
X204056120Y-101008841D01*
X204056123Y-101005129D01*
X209963142Y-101005129D01*
X210286199Y-101786986D01*
X210883868Y-102385699D01*
X211665159Y-102710120D01*
X212511129Y-102710858D01*
X213292986Y-102387801D01*
X213891699Y-101790132D01*
X214216120Y-101008841D01*
X214216858Y-100162871D01*
X213893801Y-99381014D01*
X213296132Y-98782301D01*
X212514841Y-98457880D01*
X211668871Y-98457142D01*
X210887014Y-98780199D01*
X210288301Y-99377868D01*
X209963880Y-100159159D01*
X209963142Y-101005129D01*
X204056123Y-101005129D01*
X204056858Y-100162871D01*
X203733801Y-99381014D01*
X203182000Y-98828249D01*
X203182000Y-97449129D01*
X204883142Y-97449129D01*
X205206199Y-98230986D01*
X205803868Y-98829699D01*
X206585159Y-99154120D01*
X207431129Y-99154858D01*
X208212986Y-98831801D01*
X208811699Y-98234132D01*
X209136120Y-97452841D01*
X209136858Y-96606871D01*
X208813801Y-95825014D01*
X208216132Y-95226301D01*
X207434841Y-94901880D01*
X206588871Y-94901142D01*
X205807014Y-95224199D01*
X205208301Y-95821868D01*
X204883880Y-96603159D01*
X204883142Y-97449129D01*
X203182000Y-97449129D01*
X203182000Y-90424000D01*
X203086697Y-89944880D01*
X202815298Y-89538702D01*
X202409120Y-89267303D01*
X201930000Y-89172000D01*
X192278000Y-89172000D01*
X191798880Y-89267303D01*
X191392702Y-89538702D01*
X188457404Y-92474000D01*
X181610005Y-92474000D01*
X181610000Y-92473999D01*
X181210372Y-92553491D01*
X181130880Y-92569303D01*
X180724702Y-92840702D01*
X180724700Y-92840705D01*
X179445880Y-94119525D01*
X179024725Y-94293543D01*
X178622953Y-94694614D01*
X178405248Y-95218907D01*
X178404761Y-95776000D01*
X167640000Y-95776000D01*
X167622000Y-95779580D01*
X167622000Y-90564218D01*
X171999055Y-90564218D01*
X172301468Y-91296111D01*
X172860944Y-91856564D01*
X173592308Y-92160254D01*
X174384218Y-92160945D01*
X175116111Y-91858532D01*
X175259830Y-91715064D01*
X175401000Y-91856480D01*
X176132328Y-92160154D01*
X176924198Y-92160845D01*
X177656055Y-91858448D01*
X177799760Y-91714993D01*
X177941000Y-91856480D01*
X178672328Y-92160154D01*
X179464198Y-92160845D01*
X180196055Y-91858448D01*
X180756480Y-91299000D01*
X180758559Y-91293994D01*
X180817741Y-91476516D01*
X181378030Y-91680248D01*
X181973635Y-91654058D01*
X182402259Y-91476516D01*
X182484200Y-91223805D01*
X181610000Y-90349605D01*
X181595858Y-90363748D01*
X181416253Y-90184143D01*
X181430395Y-90170000D01*
X181416253Y-90155858D01*
X181595858Y-89976253D01*
X181610000Y-89990395D01*
X181624143Y-89976253D01*
X181803748Y-90155858D01*
X181789605Y-90170000D01*
X182663805Y-91044200D01*
X182916516Y-90962259D01*
X183120248Y-90401970D01*
X183094058Y-89806365D01*
X182916516Y-89377741D01*
X182734999Y-89318884D01*
X182736055Y-89318448D01*
X183296480Y-88759000D01*
X183600154Y-88027672D01*
X183600845Y-87235802D01*
X183298448Y-86503945D01*
X182739000Y-85943520D01*
X182007672Y-85639846D01*
X181215802Y-85639155D01*
X180483945Y-85941552D01*
X180340240Y-86085007D01*
X180199000Y-85943520D01*
X179467672Y-85639846D01*
X178675802Y-85639155D01*
X177943945Y-85941552D01*
X177800240Y-86085007D01*
X177659000Y-85943520D01*
X176927672Y-85639846D01*
X176135802Y-85639155D01*
X175403945Y-85941552D01*
X175260240Y-86085007D01*
X175119000Y-85943520D01*
X174387672Y-85639846D01*
X173595802Y-85639155D01*
X172863945Y-85941552D01*
X172303520Y-86501000D01*
X171999846Y-87232328D01*
X171999155Y-88024198D01*
X172301552Y-88756055D01*
X172444937Y-88899690D01*
X172303436Y-89040944D01*
X171999746Y-89772308D01*
X171999055Y-90564218D01*
X167622000Y-90564218D01*
X167622000Y-79855750D01*
X168355000Y-79855750D01*
X168355000Y-81446310D01*
X168451673Y-81679699D01*
X168630302Y-81858327D01*
X168863691Y-81955000D01*
X169804250Y-81955000D01*
X169963000Y-81796250D01*
X169963000Y-79697000D01*
X170217000Y-79697000D01*
X170217000Y-81796250D01*
X170375750Y-81955000D01*
X171316309Y-81955000D01*
X171549698Y-81858327D01*
X171728327Y-81679699D01*
X171825000Y-81446310D01*
X171825000Y-79855750D01*
X171666250Y-79697000D01*
X170217000Y-79697000D01*
X169963000Y-79697000D01*
X168513750Y-79697000D01*
X168355000Y-79855750D01*
X167622000Y-79855750D01*
X167622000Y-77693690D01*
X168355000Y-77693690D01*
X168355000Y-79284250D01*
X168513750Y-79443000D01*
X169963000Y-79443000D01*
X169963000Y-77343750D01*
X170217000Y-77343750D01*
X170217000Y-79443000D01*
X171666250Y-79443000D01*
X171825000Y-79284250D01*
X171825000Y-77693690D01*
X171728327Y-77460301D01*
X171549698Y-77281673D01*
X171316309Y-77185000D01*
X170375750Y-77185000D01*
X170217000Y-77343750D01*
X169963000Y-77343750D01*
X169804250Y-77185000D01*
X168863691Y-77185000D01*
X168630302Y-77281673D01*
X168451673Y-77460301D01*
X168355000Y-77693690D01*
X167622000Y-77693690D01*
X167622000Y-76905943D01*
X167796752Y-76485093D01*
X167797248Y-75917397D01*
X167580457Y-75392725D01*
X167179386Y-74990953D01*
X166655093Y-74773248D01*
X166606000Y-74773205D01*
X166606000Y-71063943D01*
X166780752Y-70643093D01*
X166781248Y-70075397D01*
X166564457Y-69550725D01*
X166163386Y-69148953D01*
X165639093Y-68931248D01*
X165461000Y-68931092D01*
X165461000Y-60452000D01*
X165356182Y-59925045D01*
X165057686Y-59478314D01*
X163730087Y-58150715D01*
X164190484Y-58458342D01*
X165100000Y-58639256D01*
X166009516Y-58458342D01*
X166780567Y-57943143D01*
X167295766Y-57172092D01*
X167476680Y-56262576D01*
X167476680Y-54638904D01*
X175423320Y-54638904D01*
X175423320Y-56262576D01*
X175604234Y-57172092D01*
X176119433Y-57943143D01*
X176890484Y-58458342D01*
X177800000Y-58639256D01*
X178709516Y-58458342D01*
X179480567Y-57943143D01*
X179995766Y-57172092D01*
X180176680Y-56262576D01*
X180176680Y-54638904D01*
X179995766Y-53729388D01*
X179480567Y-52958337D01*
X178709516Y-52443138D01*
X177800000Y-52262224D01*
X176890484Y-52443138D01*
X176119433Y-52958337D01*
X175604234Y-53729388D01*
X175423320Y-54638904D01*
X167476680Y-54638904D01*
X167295766Y-53729388D01*
X166780567Y-52958337D01*
X166009516Y-52443138D01*
X165100000Y-52262224D01*
X164190484Y-52443138D01*
X163419433Y-52958337D01*
X162904234Y-53729388D01*
X162723320Y-54638904D01*
X162723320Y-56262576D01*
X162904234Y-57172092D01*
X163211861Y-57632489D01*
X161143000Y-55563628D01*
X161143000Y-39353632D01*
X164100138Y-36396494D01*
X164190484Y-36456862D01*
X165100000Y-36637776D01*
X166009516Y-36456862D01*
X166099862Y-36396494D01*
X189300233Y-59596865D01*
G36*
X130048000Y-99042000D02*
X130529488Y-99042000D01*
X130541516Y-99060000D01*
X130201927Y-99568230D01*
X130050402Y-100330000D01*
X130201927Y-101091770D01*
X130541516Y-101600000D01*
X130201927Y-102108230D01*
X130050402Y-102870000D01*
X130201927Y-103631770D01*
X130541516Y-104140000D01*
X130201927Y-104648230D01*
X130050402Y-105410000D01*
X130201927Y-106171770D01*
X130633435Y-106817567D01*
X130937914Y-107021013D01*
X130797312Y-107175053D01*
X130625042Y-107590974D01*
X130746183Y-107823000D01*
X131953000Y-107823000D01*
X131953000Y-107803000D01*
X132207000Y-107803000D01*
X132207000Y-107823000D01*
X134493000Y-107823000D01*
X134493000Y-107803000D01*
X134747000Y-107803000D01*
X134747000Y-107823000D01*
X134767000Y-107823000D01*
X134767000Y-108077000D01*
X134747000Y-108077000D01*
X134747000Y-109284469D01*
X134979027Y-109404968D01*
X135508490Y-109156821D01*
X135902688Y-108724947D01*
X135908000Y-108712122D01*
X135908000Y-111016000D01*
X130030000Y-111016000D01*
X130030000Y-108309026D01*
X130625042Y-108309026D01*
X130797312Y-108724947D01*
X131191510Y-109156821D01*
X131720973Y-109404968D01*
X131953000Y-109284469D01*
X131953000Y-108077000D01*
X132207000Y-108077000D01*
X132207000Y-109284469D01*
X132439027Y-109404968D01*
X132968490Y-109156821D01*
X133350000Y-108738848D01*
X133731510Y-109156821D01*
X134260973Y-109404968D01*
X134493000Y-109284469D01*
X134493000Y-108077000D01*
X132207000Y-108077000D01*
X131953000Y-108077000D01*
X130746183Y-108077000D01*
X130625042Y-108309026D01*
X130030000Y-108309026D01*
X130030000Y-99038420D01*
X130048000Y-99042000D01*
X130048000Y-99042000D01*
G37*
X130048000Y-99042000D02*
X130529488Y-99042000D01*
X130541516Y-99060000D01*
X130201927Y-99568230D01*
X130050402Y-100330000D01*
X130201927Y-101091770D01*
X130541516Y-101600000D01*
X130201927Y-102108230D01*
X130050402Y-102870000D01*
X130201927Y-103631770D01*
X130541516Y-104140000D01*
X130201927Y-104648230D01*
X130050402Y-105410000D01*
X130201927Y-106171770D01*
X130633435Y-106817567D01*
X130937914Y-107021013D01*
X130797312Y-107175053D01*
X130625042Y-107590974D01*
X130746183Y-107823000D01*
X131953000Y-107823000D01*
X131953000Y-107803000D01*
X132207000Y-107803000D01*
X132207000Y-107823000D01*
X134493000Y-107823000D01*
X134493000Y-107803000D01*
X134747000Y-107803000D01*
X134747000Y-107823000D01*
X134767000Y-107823000D01*
X134767000Y-108077000D01*
X134747000Y-108077000D01*
X134747000Y-109284469D01*
X134979027Y-109404968D01*
X135508490Y-109156821D01*
X135902688Y-108724947D01*
X135908000Y-108712122D01*
X135908000Y-111016000D01*
X130030000Y-111016000D01*
X130030000Y-108309026D01*
X130625042Y-108309026D01*
X130797312Y-108724947D01*
X131191510Y-109156821D01*
X131720973Y-109404968D01*
X131953000Y-109284469D01*
X131953000Y-108077000D01*
X132207000Y-108077000D01*
X132207000Y-109284469D01*
X132439027Y-109404968D01*
X132968490Y-109156821D01*
X133350000Y-108738848D01*
X133731510Y-109156821D01*
X134260973Y-109404968D01*
X134493000Y-109284469D01*
X134493000Y-108077000D01*
X132207000Y-108077000D01*
X131953000Y-108077000D01*
X130746183Y-108077000D01*
X130625042Y-108309026D01*
X130030000Y-108309026D01*
X130030000Y-99038420D01*
X130048000Y-99042000D01*
G36*
X112989870Y-108664466D02*
X112730725Y-108771543D01*
X112348928Y-109152674D01*
X112239120Y-109079303D01*
X111760000Y-108984000D01*
X106202234Y-108984000D01*
X106438688Y-108724947D01*
X106610958Y-108309026D01*
X106489817Y-108077000D01*
X105283000Y-108077000D01*
X105283000Y-108097000D01*
X105029000Y-108097000D01*
X105029000Y-108077000D01*
X102743000Y-108077000D01*
X102743000Y-108097000D01*
X102489000Y-108097000D01*
X102489000Y-108077000D01*
X102469000Y-108077000D01*
X102469000Y-107823000D01*
X102489000Y-107823000D01*
X102489000Y-107803000D01*
X102743000Y-107803000D01*
X102743000Y-107823000D01*
X105029000Y-107823000D01*
X105029000Y-107803000D01*
X105283000Y-107803000D01*
X105283000Y-107823000D01*
X106489817Y-107823000D01*
X106610958Y-107590974D01*
X106438688Y-107175053D01*
X106298086Y-107021013D01*
X106602565Y-106817567D01*
X107034073Y-106171770D01*
X107185598Y-105410000D01*
X107034073Y-104648230D01*
X106694484Y-104140000D01*
X107034073Y-103631770D01*
X107185598Y-102870000D01*
X107183163Y-102857759D01*
X112989870Y-108664466D01*
X112989870Y-108664466D01*
G37*
X112989870Y-108664466D02*
X112730725Y-108771543D01*
X112348928Y-109152674D01*
X112239120Y-109079303D01*
X111760000Y-108984000D01*
X106202234Y-108984000D01*
X106438688Y-108724947D01*
X106610958Y-108309026D01*
X106489817Y-108077000D01*
X105283000Y-108077000D01*
X105283000Y-108097000D01*
X105029000Y-108097000D01*
X105029000Y-108077000D01*
X102743000Y-108077000D01*
X102743000Y-108097000D01*
X102489000Y-108097000D01*
X102489000Y-108077000D01*
X102469000Y-108077000D01*
X102469000Y-107823000D01*
X102489000Y-107823000D01*
X102489000Y-107803000D01*
X102743000Y-107803000D01*
X102743000Y-107823000D01*
X105029000Y-107823000D01*
X105029000Y-107803000D01*
X105283000Y-107803000D01*
X105283000Y-107823000D01*
X106489817Y-107823000D01*
X106610958Y-107590974D01*
X106438688Y-107175053D01*
X106298086Y-107021013D01*
X106602565Y-106817567D01*
X107034073Y-106171770D01*
X107185598Y-105410000D01*
X107034073Y-104648230D01*
X106694484Y-104140000D01*
X107034073Y-103631770D01*
X107185598Y-102870000D01*
X107183163Y-102857759D01*
X112989870Y-108664466D01*
G36*
X158792314Y-37809574D02*
X158493818Y-38256305D01*
X158389000Y-38783260D01*
X158389000Y-56134000D01*
X158493818Y-56660955D01*
X158792314Y-57107686D01*
X162707000Y-61022372D01*
X162707000Y-86457127D01*
X162277397Y-86456752D01*
X161780000Y-86662273D01*
X161780000Y-84074000D01*
X161684697Y-83594880D01*
X161413298Y-83188702D01*
X161413295Y-83188700D01*
X160892677Y-82668081D01*
X160893327Y-81921903D01*
X160606350Y-81227365D01*
X160075430Y-80695517D01*
X159381394Y-80407328D01*
X158629903Y-80406673D01*
X157935365Y-80693650D01*
X157734115Y-80894549D01*
X157535430Y-80695517D01*
X156841394Y-80407328D01*
X156089903Y-80406673D01*
X155395365Y-80693650D01*
X154863517Y-81224570D01*
X154863487Y-81224643D01*
X154839618Y-81200774D01*
X154724607Y-81315785D01*
X154655143Y-81073603D01*
X154131698Y-80886856D01*
X153576632Y-80914638D01*
X153479883Y-80954713D01*
X156345698Y-78088898D01*
X156838097Y-78089327D01*
X157532635Y-77802350D01*
X157733885Y-77601451D01*
X157932570Y-77800483D01*
X158626606Y-78088672D01*
X159378097Y-78089327D01*
X160072635Y-77802350D01*
X160604483Y-77271430D01*
X160892672Y-76577394D01*
X160893327Y-75825903D01*
X160606350Y-75131365D01*
X160075430Y-74599517D01*
X159381394Y-74311328D01*
X158629903Y-74310673D01*
X157935365Y-74597650D01*
X157734115Y-74798549D01*
X157535430Y-74599517D01*
X156841394Y-74311328D01*
X156089903Y-74310673D01*
X155395365Y-74597650D01*
X154863517Y-75128570D01*
X154863487Y-75128643D01*
X154839618Y-75104774D01*
X154724607Y-75219785D01*
X154655143Y-74977603D01*
X154131698Y-74790856D01*
X153784354Y-74808241D01*
X156345697Y-72246898D01*
X156838097Y-72247327D01*
X157532635Y-71960350D01*
X157733885Y-71759451D01*
X157932570Y-71958483D01*
X158626606Y-72246672D01*
X159378097Y-72247327D01*
X160072635Y-71960350D01*
X160604483Y-71429430D01*
X160892672Y-70735394D01*
X160893327Y-69983903D01*
X160606350Y-69289365D01*
X160075430Y-68757517D01*
X159381394Y-68469328D01*
X158629903Y-68468673D01*
X157935365Y-68755650D01*
X157734115Y-68956549D01*
X157535430Y-68757517D01*
X156841394Y-68469328D01*
X156089903Y-68468673D01*
X155395365Y-68755650D01*
X154863517Y-69286570D01*
X154863487Y-69286643D01*
X154839618Y-69262774D01*
X154724607Y-69377785D01*
X154655143Y-69135603D01*
X154131698Y-68948856D01*
X153576632Y-68976638D01*
X153192857Y-69135603D01*
X153123392Y-69377787D01*
X153924000Y-70178395D01*
X153938143Y-70164253D01*
X154117748Y-70343858D01*
X154103605Y-70358000D01*
X154117748Y-70372143D01*
X153938143Y-70551748D01*
X153924000Y-70537605D01*
X153123392Y-71338213D01*
X153192857Y-71580397D01*
X153397867Y-71653538D01*
X150161337Y-74890067D01*
X150030841Y-74835880D01*
X149184871Y-74835142D01*
X148403014Y-75158199D01*
X147804301Y-75755868D01*
X147479880Y-76537159D01*
X147479142Y-77383129D01*
X147802199Y-78164986D01*
X148249688Y-78613257D01*
X147804301Y-79057868D01*
X147479880Y-79839159D01*
X147479142Y-80685129D01*
X147802199Y-81466986D01*
X148249688Y-81915257D01*
X147804301Y-82359868D01*
X147479880Y-83141159D01*
X147479142Y-83987129D01*
X147802199Y-84768986D01*
X148249688Y-85217257D01*
X147804301Y-85661868D01*
X147479880Y-86443159D01*
X147479142Y-87289129D01*
X147802199Y-88070986D01*
X148249688Y-88519257D01*
X147804301Y-88963868D01*
X147479880Y-89745159D01*
X147479142Y-90591129D01*
X147802199Y-91372986D01*
X148249688Y-91821257D01*
X147804301Y-92265868D01*
X147479880Y-93047159D01*
X147479142Y-93893129D01*
X147802199Y-94674986D01*
X148399868Y-95273699D01*
X149181159Y-95598120D01*
X150027129Y-95598858D01*
X150808986Y-95275801D01*
X150859139Y-95225735D01*
X153389539Y-97756135D01*
X153192857Y-97837603D01*
X153123392Y-98079787D01*
X153924000Y-98880395D01*
X153938143Y-98866253D01*
X154117748Y-99045858D01*
X154103605Y-99060000D01*
X154117748Y-99074143D01*
X153938143Y-99253748D01*
X153924000Y-99239605D01*
X153123392Y-100040213D01*
X153192857Y-100282397D01*
X153716302Y-100469144D01*
X154271368Y-100441362D01*
X154655143Y-100282397D01*
X154724607Y-100040215D01*
X154839618Y-100155226D01*
X154863928Y-100130916D01*
X155392570Y-100660483D01*
X156086606Y-100948672D01*
X156838097Y-100949327D01*
X157532635Y-100662350D01*
X157733885Y-100461451D01*
X157752000Y-100479597D01*
X157752000Y-104790393D01*
X157674457Y-104602725D01*
X157273386Y-104200953D01*
X156749093Y-103983248D01*
X156181397Y-103982752D01*
X155757266Y-104158000D01*
X137160000Y-104158000D01*
X136680880Y-104253303D01*
X136372065Y-104459646D01*
X136158484Y-104140000D01*
X136498073Y-103631770D01*
X136649598Y-102870000D01*
X136498073Y-102108230D01*
X136158484Y-101600000D01*
X136498073Y-101091770D01*
X136616354Y-100497129D01*
X137319142Y-100497129D01*
X137642199Y-101278986D01*
X138239868Y-101877699D01*
X139021159Y-102202120D01*
X139867129Y-102202858D01*
X140648986Y-101879801D01*
X141247699Y-101282132D01*
X141572120Y-100500841D01*
X141572858Y-99654871D01*
X141249801Y-98873014D01*
X140652132Y-98274301D01*
X139870841Y-97949880D01*
X139024871Y-97949142D01*
X138243014Y-98272199D01*
X137644301Y-98869868D01*
X137319880Y-99651159D01*
X137319142Y-100497129D01*
X136616354Y-100497129D01*
X136649598Y-100330000D01*
X136498073Y-99568230D01*
X136158484Y-99060000D01*
X136498073Y-98551770D01*
X136649598Y-97790000D01*
X136498073Y-97028230D01*
X136158484Y-96520000D01*
X136498073Y-96011770D01*
X136649598Y-95250000D01*
X136498073Y-94488230D01*
X136158484Y-93980000D01*
X136498073Y-93471770D01*
X136649598Y-92710000D01*
X136498073Y-91948230D01*
X136158484Y-91440000D01*
X136498073Y-90931770D01*
X136649598Y-90170000D01*
X136498073Y-89408230D01*
X136158484Y-88900000D01*
X136498073Y-88391770D01*
X136649598Y-87630000D01*
X136498073Y-86868230D01*
X136158484Y-86360000D01*
X136498073Y-85851770D01*
X136649598Y-85090000D01*
X136498073Y-84328230D01*
X136158484Y-83820000D01*
X136498073Y-83311770D01*
X136649598Y-82550000D01*
X136498073Y-81788230D01*
X136158484Y-81280000D01*
X136498073Y-80771770D01*
X136649598Y-80010000D01*
X136498073Y-79248230D01*
X136158484Y-78740000D01*
X136498073Y-78231770D01*
X136649598Y-77470000D01*
X136632319Y-77383129D01*
X137319142Y-77383129D01*
X137642199Y-78164986D01*
X138089688Y-78613257D01*
X137644301Y-79057868D01*
X137319880Y-79839159D01*
X137319142Y-80685129D01*
X137642199Y-81466986D01*
X138089688Y-81915257D01*
X137644301Y-82359868D01*
X137319880Y-83141159D01*
X137319142Y-83987129D01*
X137642199Y-84768986D01*
X138089688Y-85217257D01*
X137644301Y-85661868D01*
X137319880Y-86443159D01*
X137319142Y-87289129D01*
X137642199Y-88070986D01*
X138089688Y-88519257D01*
X137644301Y-88963868D01*
X137319880Y-89745159D01*
X137319142Y-90591129D01*
X137642199Y-91372986D01*
X138089688Y-91821257D01*
X137644301Y-92265868D01*
X137319880Y-93047159D01*
X137319142Y-93893129D01*
X137642199Y-94674986D01*
X138239868Y-95273699D01*
X139021159Y-95598120D01*
X139867129Y-95598858D01*
X140648986Y-95275801D01*
X141247699Y-94678132D01*
X141572120Y-93896841D01*
X141572858Y-93050871D01*
X141249801Y-92269014D01*
X140802312Y-91820743D01*
X141247699Y-91376132D01*
X141572120Y-90594841D01*
X141572858Y-89748871D01*
X141249801Y-88967014D01*
X140802312Y-88518743D01*
X141247699Y-88074132D01*
X141572120Y-87292841D01*
X141572858Y-86446871D01*
X141249801Y-85665014D01*
X140802312Y-85216743D01*
X141247699Y-84772132D01*
X141572120Y-83990841D01*
X141572858Y-83144871D01*
X141249801Y-82363014D01*
X140802312Y-81914743D01*
X141247699Y-81470132D01*
X141572120Y-80688841D01*
X141572858Y-79842871D01*
X141249801Y-79061014D01*
X140802312Y-78612743D01*
X141247699Y-78168132D01*
X141572120Y-77386841D01*
X141572858Y-76540871D01*
X141249801Y-75759014D01*
X140911378Y-75420000D01*
X143274000Y-75420000D01*
X143274000Y-100076000D01*
X143369303Y-100555120D01*
X143640702Y-100961298D01*
X144046880Y-101232697D01*
X144526000Y-101328000D01*
X147851128Y-101328000D01*
X148399868Y-101877699D01*
X149181159Y-102202120D01*
X150027129Y-102202858D01*
X150808986Y-101879801D01*
X151407699Y-101282132D01*
X151732120Y-100500841D01*
X151732858Y-99654871D01*
X151409801Y-98873014D01*
X151389126Y-98852302D01*
X152514856Y-98852302D01*
X152542638Y-99407368D01*
X152701603Y-99791143D01*
X152943787Y-99860608D01*
X153744395Y-99060000D01*
X152943787Y-98259392D01*
X152701603Y-98328857D01*
X152514856Y-98852302D01*
X151389126Y-98852302D01*
X150812132Y-98274301D01*
X150030841Y-97949880D01*
X149184871Y-97949142D01*
X148403014Y-98272199D01*
X147850249Y-98824000D01*
X145778000Y-98824000D01*
X145778000Y-74168000D01*
X145682697Y-73688880D01*
X145411298Y-73282702D01*
X145005120Y-73011303D01*
X144526000Y-72916000D01*
X140151943Y-72916000D01*
X139731093Y-72741248D01*
X139163397Y-72740752D01*
X138638725Y-72957543D01*
X138236953Y-73358614D01*
X138019248Y-73882907D01*
X138018752Y-74450603D01*
X138235543Y-74975275D01*
X138367005Y-75106967D01*
X138243014Y-75158199D01*
X137644301Y-75755868D01*
X137319880Y-76537159D01*
X137319142Y-77383129D01*
X136632319Y-77383129D01*
X136498073Y-76708230D01*
X136066565Y-76062433D01*
X135420768Y-75630925D01*
X134658998Y-75479400D01*
X134581002Y-75479400D01*
X133819232Y-75630925D01*
X133664020Y-75734634D01*
X133390656Y-75547852D01*
X132943600Y-75457321D01*
X131300000Y-75457321D01*
X131300000Y-70150302D01*
X152514856Y-70150302D01*
X152542638Y-70705368D01*
X152701603Y-71089143D01*
X152943787Y-71158608D01*
X153744395Y-70358000D01*
X152943787Y-69557392D01*
X152701603Y-69626857D01*
X152514856Y-70150302D01*
X131300000Y-70150302D01*
X131300000Y-63403207D01*
X131346603Y-63403248D01*
X131871275Y-63186457D01*
X132273047Y-62785386D01*
X132490752Y-62261093D01*
X132491248Y-61693397D01*
X132316000Y-61269266D01*
X132316000Y-57032163D01*
X143807443Y-57032163D01*
X143906042Y-57298965D01*
X144515582Y-57525401D01*
X145165377Y-57501341D01*
X145653958Y-57298965D01*
X145752557Y-57032163D01*
X144780000Y-56059605D01*
X143807443Y-57032163D01*
X132316000Y-57032163D01*
X132316000Y-55615582D01*
X143134599Y-55615582D01*
X143158659Y-56265377D01*
X143361035Y-56753958D01*
X143627837Y-56852557D01*
X144600395Y-55880000D01*
X144959605Y-55880000D01*
X145932163Y-56852557D01*
X146198965Y-56753958D01*
X146367184Y-56301129D01*
X152813142Y-56301129D01*
X153136199Y-57082986D01*
X153733868Y-57681699D01*
X154515159Y-58006120D01*
X155361129Y-58006858D01*
X156142986Y-57683801D01*
X156741699Y-57086132D01*
X157066120Y-56304841D01*
X157066858Y-55458871D01*
X156743801Y-54677014D01*
X156146132Y-54078301D01*
X155364841Y-53753880D01*
X154518871Y-53753142D01*
X153737014Y-54076199D01*
X153138301Y-54673868D01*
X152813880Y-55455159D01*
X152813142Y-56301129D01*
X146367184Y-56301129D01*
X146425401Y-56144418D01*
X146401341Y-55494623D01*
X146198965Y-55006042D01*
X145932163Y-54907443D01*
X144959605Y-55880000D01*
X144600395Y-55880000D01*
X143627837Y-54907443D01*
X143361035Y-55006042D01*
X143134599Y-55615582D01*
X132316000Y-55615582D01*
X132316000Y-54727837D01*
X143807443Y-54727837D01*
X144780000Y-55700395D01*
X145752557Y-54727837D01*
X145653958Y-54461035D01*
X145044418Y-54234599D01*
X144394623Y-54258659D01*
X143906042Y-54461035D01*
X143807443Y-54727837D01*
X132316000Y-54727837D01*
X132316000Y-49530000D01*
X132220697Y-49050880D01*
X131949298Y-48644702D01*
X121545079Y-38240483D01*
X121545079Y-37236400D01*
X121466494Y-36818759D01*
X121219669Y-36435181D01*
X121210623Y-36429000D01*
X124143628Y-36429000D01*
X134767000Y-47052372D01*
X134767000Y-50546000D01*
X134871818Y-51072955D01*
X135170314Y-51519686D01*
X135424314Y-51773686D01*
X135871045Y-52072182D01*
X136398000Y-52177000D01*
X143149910Y-52177000D01*
X143573868Y-52601699D01*
X144355159Y-52926120D01*
X145201129Y-52926858D01*
X145982986Y-52603801D01*
X146581699Y-52006132D01*
X146906120Y-51224841D01*
X146906123Y-51221129D01*
X152813142Y-51221129D01*
X153136199Y-52002986D01*
X153733868Y-52601699D01*
X154515159Y-52926120D01*
X155361129Y-52926858D01*
X156142986Y-52603801D01*
X156741699Y-52006132D01*
X157066120Y-51224841D01*
X157066858Y-50378871D01*
X156743801Y-49597014D01*
X156146132Y-48998301D01*
X155364841Y-48673880D01*
X154518871Y-48673142D01*
X153737014Y-48996199D01*
X153138301Y-49593868D01*
X152813880Y-50375159D01*
X152813142Y-51221129D01*
X146906123Y-51221129D01*
X146906202Y-51130430D01*
X150436880Y-47599752D01*
X150738973Y-47600015D01*
X151429309Y-47314775D01*
X151957938Y-46787067D01*
X152244384Y-46097230D01*
X152245035Y-45350287D01*
X151959795Y-44659951D01*
X151869000Y-44568997D01*
X152588868Y-44568997D01*
X152748635Y-44887752D01*
X153539357Y-45197715D01*
X154388506Y-45181487D01*
X155097645Y-44887752D01*
X155257412Y-44568997D01*
X153923140Y-43234725D01*
X152588868Y-44568997D01*
X151869000Y-44568997D01*
X151744140Y-44443920D01*
X151744140Y-42671337D01*
X151780545Y-42671337D01*
X151796773Y-43520486D01*
X152090508Y-44229625D01*
X152409263Y-44389392D01*
X153743535Y-43055120D01*
X154102745Y-43055120D01*
X155437017Y-44389392D01*
X155755772Y-44229625D01*
X156065735Y-43438903D01*
X156049507Y-42589754D01*
X155755772Y-41880615D01*
X155437017Y-41720848D01*
X154102745Y-43055120D01*
X153743535Y-43055120D01*
X152409263Y-41720848D01*
X152090508Y-41880615D01*
X151780545Y-42671337D01*
X151744140Y-42671337D01*
X151744140Y-41541243D01*
X152588868Y-41541243D01*
X153923140Y-42875515D01*
X155257412Y-41541243D01*
X155097645Y-41222488D01*
X154306923Y-40912525D01*
X153457774Y-40928753D01*
X152748635Y-41222488D01*
X152588868Y-41541243D01*
X151744140Y-41541243D01*
X151744140Y-39433232D01*
X156351112Y-34826260D01*
X161775628Y-34826260D01*
X158792314Y-37809574D01*
X158792314Y-37809574D01*
G37*
X158792314Y-37809574D02*
X158493818Y-38256305D01*
X158389000Y-38783260D01*
X158389000Y-56134000D01*
X158493818Y-56660955D01*
X158792314Y-57107686D01*
X162707000Y-61022372D01*
X162707000Y-86457127D01*
X162277397Y-86456752D01*
X161780000Y-86662273D01*
X161780000Y-84074000D01*
X161684697Y-83594880D01*
X161413298Y-83188702D01*
X161413295Y-83188700D01*
X160892677Y-82668081D01*
X160893327Y-81921903D01*
X160606350Y-81227365D01*
X160075430Y-80695517D01*
X159381394Y-80407328D01*
X158629903Y-80406673D01*
X157935365Y-80693650D01*
X157734115Y-80894549D01*
X157535430Y-80695517D01*
X156841394Y-80407328D01*
X156089903Y-80406673D01*
X155395365Y-80693650D01*
X154863517Y-81224570D01*
X154863487Y-81224643D01*
X154839618Y-81200774D01*
X154724607Y-81315785D01*
X154655143Y-81073603D01*
X154131698Y-80886856D01*
X153576632Y-80914638D01*
X153479883Y-80954713D01*
X156345698Y-78088898D01*
X156838097Y-78089327D01*
X157532635Y-77802350D01*
X157733885Y-77601451D01*
X157932570Y-77800483D01*
X158626606Y-78088672D01*
X159378097Y-78089327D01*
X160072635Y-77802350D01*
X160604483Y-77271430D01*
X160892672Y-76577394D01*
X160893327Y-75825903D01*
X160606350Y-75131365D01*
X160075430Y-74599517D01*
X159381394Y-74311328D01*
X158629903Y-74310673D01*
X157935365Y-74597650D01*
X157734115Y-74798549D01*
X157535430Y-74599517D01*
X156841394Y-74311328D01*
X156089903Y-74310673D01*
X155395365Y-74597650D01*
X154863517Y-75128570D01*
X154863487Y-75128643D01*
X154839618Y-75104774D01*
X154724607Y-75219785D01*
X154655143Y-74977603D01*
X154131698Y-74790856D01*
X153784354Y-74808241D01*
X156345697Y-72246898D01*
X156838097Y-72247327D01*
X157532635Y-71960350D01*
X157733885Y-71759451D01*
X157932570Y-71958483D01*
X158626606Y-72246672D01*
X159378097Y-72247327D01*
X160072635Y-71960350D01*
X160604483Y-71429430D01*
X160892672Y-70735394D01*
X160893327Y-69983903D01*
X160606350Y-69289365D01*
X160075430Y-68757517D01*
X159381394Y-68469328D01*
X158629903Y-68468673D01*
X157935365Y-68755650D01*
X157734115Y-68956549D01*
X157535430Y-68757517D01*
X156841394Y-68469328D01*
X156089903Y-68468673D01*
X155395365Y-68755650D01*
X154863517Y-69286570D01*
X154863487Y-69286643D01*
X154839618Y-69262774D01*
X154724607Y-69377785D01*
X154655143Y-69135603D01*
X154131698Y-68948856D01*
X153576632Y-68976638D01*
X153192857Y-69135603D01*
X153123392Y-69377787D01*
X153924000Y-70178395D01*
X153938143Y-70164253D01*
X154117748Y-70343858D01*
X154103605Y-70358000D01*
X154117748Y-70372143D01*
X153938143Y-70551748D01*
X153924000Y-70537605D01*
X153123392Y-71338213D01*
X153192857Y-71580397D01*
X153397867Y-71653538D01*
X150161337Y-74890067D01*
X150030841Y-74835880D01*
X149184871Y-74835142D01*
X148403014Y-75158199D01*
X147804301Y-75755868D01*
X147479880Y-76537159D01*
X147479142Y-77383129D01*
X147802199Y-78164986D01*
X148249688Y-78613257D01*
X147804301Y-79057868D01*
X147479880Y-79839159D01*
X147479142Y-80685129D01*
X147802199Y-81466986D01*
X148249688Y-81915257D01*
X147804301Y-82359868D01*
X147479880Y-83141159D01*
X147479142Y-83987129D01*
X147802199Y-84768986D01*
X148249688Y-85217257D01*
X147804301Y-85661868D01*
X147479880Y-86443159D01*
X147479142Y-87289129D01*
X147802199Y-88070986D01*
X148249688Y-88519257D01*
X147804301Y-88963868D01*
X147479880Y-89745159D01*
X147479142Y-90591129D01*
X147802199Y-91372986D01*
X148249688Y-91821257D01*
X147804301Y-92265868D01*
X147479880Y-93047159D01*
X147479142Y-93893129D01*
X147802199Y-94674986D01*
X148399868Y-95273699D01*
X149181159Y-95598120D01*
X150027129Y-95598858D01*
X150808986Y-95275801D01*
X150859139Y-95225735D01*
X153389539Y-97756135D01*
X153192857Y-97837603D01*
X153123392Y-98079787D01*
X153924000Y-98880395D01*
X153938143Y-98866253D01*
X154117748Y-99045858D01*
X154103605Y-99060000D01*
X154117748Y-99074143D01*
X153938143Y-99253748D01*
X153924000Y-99239605D01*
X153123392Y-100040213D01*
X153192857Y-100282397D01*
X153716302Y-100469144D01*
X154271368Y-100441362D01*
X154655143Y-100282397D01*
X154724607Y-100040215D01*
X154839618Y-100155226D01*
X154863928Y-100130916D01*
X155392570Y-100660483D01*
X156086606Y-100948672D01*
X156838097Y-100949327D01*
X157532635Y-100662350D01*
X157733885Y-100461451D01*
X157752000Y-100479597D01*
X157752000Y-104790393D01*
X157674457Y-104602725D01*
X157273386Y-104200953D01*
X156749093Y-103983248D01*
X156181397Y-103982752D01*
X155757266Y-104158000D01*
X137160000Y-104158000D01*
X136680880Y-104253303D01*
X136372065Y-104459646D01*
X136158484Y-104140000D01*
X136498073Y-103631770D01*
X136649598Y-102870000D01*
X136498073Y-102108230D01*
X136158484Y-101600000D01*
X136498073Y-101091770D01*
X136616354Y-100497129D01*
X137319142Y-100497129D01*
X137642199Y-101278986D01*
X138239868Y-101877699D01*
X139021159Y-102202120D01*
X139867129Y-102202858D01*
X140648986Y-101879801D01*
X141247699Y-101282132D01*
X141572120Y-100500841D01*
X141572858Y-99654871D01*
X141249801Y-98873014D01*
X140652132Y-98274301D01*
X139870841Y-97949880D01*
X139024871Y-97949142D01*
X138243014Y-98272199D01*
X137644301Y-98869868D01*
X137319880Y-99651159D01*
X137319142Y-100497129D01*
X136616354Y-100497129D01*
X136649598Y-100330000D01*
X136498073Y-99568230D01*
X136158484Y-99060000D01*
X136498073Y-98551770D01*
X136649598Y-97790000D01*
X136498073Y-97028230D01*
X136158484Y-96520000D01*
X136498073Y-96011770D01*
X136649598Y-95250000D01*
X136498073Y-94488230D01*
X136158484Y-93980000D01*
X136498073Y-93471770D01*
X136649598Y-92710000D01*
X136498073Y-91948230D01*
X136158484Y-91440000D01*
X136498073Y-90931770D01*
X136649598Y-90170000D01*
X136498073Y-89408230D01*
X136158484Y-88900000D01*
X136498073Y-88391770D01*
X136649598Y-87630000D01*
X136498073Y-86868230D01*
X136158484Y-86360000D01*
X136498073Y-85851770D01*
X136649598Y-85090000D01*
X136498073Y-84328230D01*
X136158484Y-83820000D01*
X136498073Y-83311770D01*
X136649598Y-82550000D01*
X136498073Y-81788230D01*
X136158484Y-81280000D01*
X136498073Y-80771770D01*
X136649598Y-80010000D01*
X136498073Y-79248230D01*
X136158484Y-78740000D01*
X136498073Y-78231770D01*
X136649598Y-77470000D01*
X136632319Y-77383129D01*
X137319142Y-77383129D01*
X137642199Y-78164986D01*
X138089688Y-78613257D01*
X137644301Y-79057868D01*
X137319880Y-79839159D01*
X137319142Y-80685129D01*
X137642199Y-81466986D01*
X138089688Y-81915257D01*
X137644301Y-82359868D01*
X137319880Y-83141159D01*
X137319142Y-83987129D01*
X137642199Y-84768986D01*
X138089688Y-85217257D01*
X137644301Y-85661868D01*
X137319880Y-86443159D01*
X137319142Y-87289129D01*
X137642199Y-88070986D01*
X138089688Y-88519257D01*
X137644301Y-88963868D01*
X137319880Y-89745159D01*
X137319142Y-90591129D01*
X137642199Y-91372986D01*
X138089688Y-91821257D01*
X137644301Y-92265868D01*
X137319880Y-93047159D01*
X137319142Y-93893129D01*
X137642199Y-94674986D01*
X138239868Y-95273699D01*
X139021159Y-95598120D01*
X139867129Y-95598858D01*
X140648986Y-95275801D01*
X141247699Y-94678132D01*
X141572120Y-93896841D01*
X141572858Y-93050871D01*
X141249801Y-92269014D01*
X140802312Y-91820743D01*
X141247699Y-91376132D01*
X141572120Y-90594841D01*
X141572858Y-89748871D01*
X141249801Y-88967014D01*
X140802312Y-88518743D01*
X141247699Y-88074132D01*
X141572120Y-87292841D01*
X141572858Y-86446871D01*
X141249801Y-85665014D01*
X140802312Y-85216743D01*
X141247699Y-84772132D01*
X141572120Y-83990841D01*
X141572858Y-83144871D01*
X141249801Y-82363014D01*
X140802312Y-81914743D01*
X141247699Y-81470132D01*
X141572120Y-80688841D01*
X141572858Y-79842871D01*
X141249801Y-79061014D01*
X140802312Y-78612743D01*
X141247699Y-78168132D01*
X141572120Y-77386841D01*
X141572858Y-76540871D01*
X141249801Y-75759014D01*
X140911378Y-75420000D01*
X143274000Y-75420000D01*
X143274000Y-100076000D01*
X143369303Y-100555120D01*
X143640702Y-100961298D01*
X144046880Y-101232697D01*
X144526000Y-101328000D01*
X147851128Y-101328000D01*
X148399868Y-101877699D01*
X149181159Y-102202120D01*
X150027129Y-102202858D01*
X150808986Y-101879801D01*
X151407699Y-101282132D01*
X151732120Y-100500841D01*
X151732858Y-99654871D01*
X151409801Y-98873014D01*
X151389126Y-98852302D01*
X152514856Y-98852302D01*
X152542638Y-99407368D01*
X152701603Y-99791143D01*
X152943787Y-99860608D01*
X153744395Y-99060000D01*
X152943787Y-98259392D01*
X152701603Y-98328857D01*
X152514856Y-98852302D01*
X151389126Y-98852302D01*
X150812132Y-98274301D01*
X150030841Y-97949880D01*
X149184871Y-97949142D01*
X148403014Y-98272199D01*
X147850249Y-98824000D01*
X145778000Y-98824000D01*
X145778000Y-74168000D01*
X145682697Y-73688880D01*
X145411298Y-73282702D01*
X145005120Y-73011303D01*
X144526000Y-72916000D01*
X140151943Y-72916000D01*
X139731093Y-72741248D01*
X139163397Y-72740752D01*
X138638725Y-72957543D01*
X138236953Y-73358614D01*
X138019248Y-73882907D01*
X138018752Y-74450603D01*
X138235543Y-74975275D01*
X138367005Y-75106967D01*
X138243014Y-75158199D01*
X137644301Y-75755868D01*
X137319880Y-76537159D01*
X137319142Y-77383129D01*
X136632319Y-77383129D01*
X136498073Y-76708230D01*
X136066565Y-76062433D01*
X135420768Y-75630925D01*
X134658998Y-75479400D01*
X134581002Y-75479400D01*
X133819232Y-75630925D01*
X133664020Y-75734634D01*
X133390656Y-75547852D01*
X132943600Y-75457321D01*
X131300000Y-75457321D01*
X131300000Y-70150302D01*
X152514856Y-70150302D01*
X152542638Y-70705368D01*
X152701603Y-71089143D01*
X152943787Y-71158608D01*
X153744395Y-70358000D01*
X152943787Y-69557392D01*
X152701603Y-69626857D01*
X152514856Y-70150302D01*
X131300000Y-70150302D01*
X131300000Y-63403207D01*
X131346603Y-63403248D01*
X131871275Y-63186457D01*
X132273047Y-62785386D01*
X132490752Y-62261093D01*
X132491248Y-61693397D01*
X132316000Y-61269266D01*
X132316000Y-57032163D01*
X143807443Y-57032163D01*
X143906042Y-57298965D01*
X144515582Y-57525401D01*
X145165377Y-57501341D01*
X145653958Y-57298965D01*
X145752557Y-57032163D01*
X144780000Y-56059605D01*
X143807443Y-57032163D01*
X132316000Y-57032163D01*
X132316000Y-55615582D01*
X143134599Y-55615582D01*
X143158659Y-56265377D01*
X143361035Y-56753958D01*
X143627837Y-56852557D01*
X144600395Y-55880000D01*
X144959605Y-55880000D01*
X145932163Y-56852557D01*
X146198965Y-56753958D01*
X146367184Y-56301129D01*
X152813142Y-56301129D01*
X153136199Y-57082986D01*
X153733868Y-57681699D01*
X154515159Y-58006120D01*
X155361129Y-58006858D01*
X156142986Y-57683801D01*
X156741699Y-57086132D01*
X157066120Y-56304841D01*
X157066858Y-55458871D01*
X156743801Y-54677014D01*
X156146132Y-54078301D01*
X155364841Y-53753880D01*
X154518871Y-53753142D01*
X153737014Y-54076199D01*
X153138301Y-54673868D01*
X152813880Y-55455159D01*
X152813142Y-56301129D01*
X146367184Y-56301129D01*
X146425401Y-56144418D01*
X146401341Y-55494623D01*
X146198965Y-55006042D01*
X145932163Y-54907443D01*
X144959605Y-55880000D01*
X144600395Y-55880000D01*
X143627837Y-54907443D01*
X143361035Y-55006042D01*
X143134599Y-55615582D01*
X132316000Y-55615582D01*
X132316000Y-54727837D01*
X143807443Y-54727837D01*
X144780000Y-55700395D01*
X145752557Y-54727837D01*
X145653958Y-54461035D01*
X145044418Y-54234599D01*
X144394623Y-54258659D01*
X143906042Y-54461035D01*
X143807443Y-54727837D01*
X132316000Y-54727837D01*
X132316000Y-49530000D01*
X132220697Y-49050880D01*
X131949298Y-48644702D01*
X121545079Y-38240483D01*
X121545079Y-37236400D01*
X121466494Y-36818759D01*
X121219669Y-36435181D01*
X121210623Y-36429000D01*
X124143628Y-36429000D01*
X134767000Y-47052372D01*
X134767000Y-50546000D01*
X134871818Y-51072955D01*
X135170314Y-51519686D01*
X135424314Y-51773686D01*
X135871045Y-52072182D01*
X136398000Y-52177000D01*
X143149910Y-52177000D01*
X143573868Y-52601699D01*
X144355159Y-52926120D01*
X145201129Y-52926858D01*
X145982986Y-52603801D01*
X146581699Y-52006132D01*
X146906120Y-51224841D01*
X146906123Y-51221129D01*
X152813142Y-51221129D01*
X153136199Y-52002986D01*
X153733868Y-52601699D01*
X154515159Y-52926120D01*
X155361129Y-52926858D01*
X156142986Y-52603801D01*
X156741699Y-52006132D01*
X157066120Y-51224841D01*
X157066858Y-50378871D01*
X156743801Y-49597014D01*
X156146132Y-48998301D01*
X155364841Y-48673880D01*
X154518871Y-48673142D01*
X153737014Y-48996199D01*
X153138301Y-49593868D01*
X152813880Y-50375159D01*
X152813142Y-51221129D01*
X146906123Y-51221129D01*
X146906202Y-51130430D01*
X150436880Y-47599752D01*
X150738973Y-47600015D01*
X151429309Y-47314775D01*
X151957938Y-46787067D01*
X152244384Y-46097230D01*
X152245035Y-45350287D01*
X151959795Y-44659951D01*
X151869000Y-44568997D01*
X152588868Y-44568997D01*
X152748635Y-44887752D01*
X153539357Y-45197715D01*
X154388506Y-45181487D01*
X155097645Y-44887752D01*
X155257412Y-44568997D01*
X153923140Y-43234725D01*
X152588868Y-44568997D01*
X151869000Y-44568997D01*
X151744140Y-44443920D01*
X151744140Y-42671337D01*
X151780545Y-42671337D01*
X151796773Y-43520486D01*
X152090508Y-44229625D01*
X152409263Y-44389392D01*
X153743535Y-43055120D01*
X154102745Y-43055120D01*
X155437017Y-44389392D01*
X155755772Y-44229625D01*
X156065735Y-43438903D01*
X156049507Y-42589754D01*
X155755772Y-41880615D01*
X155437017Y-41720848D01*
X154102745Y-43055120D01*
X153743535Y-43055120D01*
X152409263Y-41720848D01*
X152090508Y-41880615D01*
X151780545Y-42671337D01*
X151744140Y-42671337D01*
X151744140Y-41541243D01*
X152588868Y-41541243D01*
X153923140Y-42875515D01*
X155257412Y-41541243D01*
X155097645Y-41222488D01*
X154306923Y-40912525D01*
X153457774Y-40928753D01*
X152748635Y-41222488D01*
X152588868Y-41541243D01*
X151744140Y-41541243D01*
X151744140Y-39433232D01*
X156351112Y-34826260D01*
X161775628Y-34826260D01*
X158792314Y-37809574D01*
G36*
X193743569Y-91718110D02*
X193692560Y-91970000D01*
X193692560Y-92943000D01*
X195963000Y-92943000D01*
X195963000Y-92923000D01*
X196217000Y-92923000D01*
X196217000Y-92943000D01*
X198487440Y-92943000D01*
X198487440Y-91970000D01*
X198443162Y-91734683D01*
X198405401Y-91676000D01*
X200678000Y-91676000D01*
X200678000Y-98829128D01*
X200405964Y-99100689D01*
X200088132Y-98782301D01*
X199306841Y-98457880D01*
X198460871Y-98457142D01*
X198405296Y-98480105D01*
X198651699Y-98234132D01*
X198976120Y-97452841D01*
X198976858Y-96606871D01*
X198653801Y-95825014D01*
X198056132Y-95226301D01*
X197274841Y-94901880D01*
X196493795Y-94901199D01*
X196410036Y-94817440D01*
X197840000Y-94817440D01*
X198075317Y-94773162D01*
X198291441Y-94634090D01*
X198436431Y-94421890D01*
X198487440Y-94170000D01*
X198487440Y-93197000D01*
X196217000Y-93197000D01*
X196217000Y-93217000D01*
X195963000Y-93217000D01*
X195963000Y-93197000D01*
X193692560Y-93197000D01*
X193692560Y-93744000D01*
X190728596Y-93744000D01*
X192796596Y-91676000D01*
X193772342Y-91676000D01*
X193743569Y-91718110D01*
X193743569Y-91718110D01*
G37*
X193743569Y-91718110D02*
X193692560Y-91970000D01*
X193692560Y-92943000D01*
X195963000Y-92943000D01*
X195963000Y-92923000D01*
X196217000Y-92923000D01*
X196217000Y-92943000D01*
X198487440Y-92943000D01*
X198487440Y-91970000D01*
X198443162Y-91734683D01*
X198405401Y-91676000D01*
X200678000Y-91676000D01*
X200678000Y-98829128D01*
X200405964Y-99100689D01*
X200088132Y-98782301D01*
X199306841Y-98457880D01*
X198460871Y-98457142D01*
X198405296Y-98480105D01*
X198651699Y-98234132D01*
X198976120Y-97452841D01*
X198976858Y-96606871D01*
X198653801Y-95825014D01*
X198056132Y-95226301D01*
X197274841Y-94901880D01*
X196493795Y-94901199D01*
X196410036Y-94817440D01*
X197840000Y-94817440D01*
X198075317Y-94773162D01*
X198291441Y-94634090D01*
X198436431Y-94421890D01*
X198487440Y-94170000D01*
X198487440Y-93197000D01*
X196217000Y-93197000D01*
X196217000Y-93217000D01*
X195963000Y-93217000D01*
X195963000Y-93197000D01*
X193692560Y-93197000D01*
X193692560Y-93744000D01*
X190728596Y-93744000D01*
X192796596Y-91676000D01*
X193772342Y-91676000D01*
X193743569Y-91718110D01*
G36*
X153389539Y-92168135D02*
X153192857Y-92249603D01*
X153123392Y-92491787D01*
X153924000Y-93292395D01*
X153938143Y-93278253D01*
X154117748Y-93457858D01*
X154103605Y-93472000D01*
X154117748Y-93486143D01*
X153938143Y-93665748D01*
X153924000Y-93651605D01*
X153909858Y-93665748D01*
X153730253Y-93486143D01*
X153744395Y-93472000D01*
X152943787Y-92671392D01*
X152701603Y-92740857D01*
X152514856Y-93264302D01*
X152518858Y-93344262D01*
X151761298Y-92586702D01*
X151750217Y-92579298D01*
X151457076Y-92383428D01*
X151409801Y-92269014D01*
X150962312Y-91820743D01*
X151361751Y-91422000D01*
X152643404Y-91422000D01*
X153389539Y-92168135D01*
X153389539Y-92168135D01*
G37*
X153389539Y-92168135D02*
X153192857Y-92249603D01*
X153123392Y-92491787D01*
X153924000Y-93292395D01*
X153938143Y-93278253D01*
X154117748Y-93457858D01*
X154103605Y-93472000D01*
X154117748Y-93486143D01*
X153938143Y-93665748D01*
X153924000Y-93651605D01*
X153909858Y-93665748D01*
X153730253Y-93486143D01*
X153744395Y-93472000D01*
X152943787Y-92671392D01*
X152701603Y-92740857D01*
X152514856Y-93264302D01*
X152518858Y-93344262D01*
X151761298Y-92586702D01*
X151750217Y-92579298D01*
X151457076Y-92383428D01*
X151409801Y-92269014D01*
X150962312Y-91820743D01*
X151361751Y-91422000D01*
X152643404Y-91422000D01*
X153389539Y-92168135D01*
G36*
X152701603Y-87152857D02*
X152514856Y-87676302D01*
X152542638Y-88231368D01*
X152701603Y-88615143D01*
X152943787Y-88684608D01*
X153744395Y-87884000D01*
X153730253Y-87869858D01*
X153909858Y-87690253D01*
X153924000Y-87704395D01*
X153938143Y-87690253D01*
X154117748Y-87869858D01*
X154103605Y-87884000D01*
X154117748Y-87898143D01*
X153938143Y-88077748D01*
X153924000Y-88063605D01*
X153123392Y-88864213D01*
X153138820Y-88918000D01*
X151360872Y-88918000D01*
X150962312Y-88518743D01*
X151407699Y-88074132D01*
X151564797Y-87695799D01*
X152156596Y-87104000D01*
X152871939Y-87104000D01*
X152701603Y-87152857D01*
X152701603Y-87152857D01*
G37*
X152701603Y-87152857D02*
X152514856Y-87676302D01*
X152542638Y-88231368D01*
X152701603Y-88615143D01*
X152943787Y-88684608D01*
X153744395Y-87884000D01*
X153730253Y-87869858D01*
X153909858Y-87690253D01*
X153924000Y-87704395D01*
X153938143Y-87690253D01*
X154117748Y-87869858D01*
X154103605Y-87884000D01*
X154117748Y-87898143D01*
X153938143Y-88077748D01*
X153924000Y-88063605D01*
X153123392Y-88864213D01*
X153138820Y-88918000D01*
X151360872Y-88918000D01*
X150962312Y-88518743D01*
X151407699Y-88074132D01*
X151564797Y-87695799D01*
X152156596Y-87104000D01*
X152871939Y-87104000D01*
X152701603Y-87152857D01*
G36*
X154117748Y-82281858D02*
X154103605Y-82296000D01*
X154117748Y-82310143D01*
X153938143Y-82489748D01*
X153924000Y-82475605D01*
X153909858Y-82489748D01*
X153730253Y-82310143D01*
X153744395Y-82296000D01*
X153730253Y-82281858D01*
X153909858Y-82102253D01*
X153924000Y-82116395D01*
X153938143Y-82102253D01*
X154117748Y-82281858D01*
X154117748Y-82281858D01*
G37*
X154117748Y-82281858D02*
X154103605Y-82296000D01*
X154117748Y-82310143D01*
X153938143Y-82489748D01*
X153924000Y-82475605D01*
X153909858Y-82489748D01*
X153730253Y-82310143D01*
X153744395Y-82296000D01*
X153730253Y-82281858D01*
X153909858Y-82102253D01*
X153924000Y-82116395D01*
X153938143Y-82102253D01*
X154117748Y-82281858D01*
G36*
X154117748Y-76185858D02*
X154103605Y-76200000D01*
X154117748Y-76214143D01*
X153938143Y-76393748D01*
X153924000Y-76379605D01*
X153123392Y-77180213D01*
X153192857Y-77422397D01*
X153397867Y-77495537D01*
X151881404Y-79012000D01*
X151360872Y-79012000D01*
X150962312Y-78612743D01*
X151407699Y-78168132D01*
X151732120Y-77386841D01*
X151732580Y-76860016D01*
X152518928Y-76073667D01*
X152542638Y-76547368D01*
X152701603Y-76931143D01*
X152943787Y-77000608D01*
X153744395Y-76200000D01*
X153730253Y-76185858D01*
X153909858Y-76006253D01*
X153924000Y-76020395D01*
X153938143Y-76006253D01*
X154117748Y-76185858D01*
X154117748Y-76185858D01*
G37*
X154117748Y-76185858D02*
X154103605Y-76200000D01*
X154117748Y-76214143D01*
X153938143Y-76393748D01*
X153924000Y-76379605D01*
X153123392Y-77180213D01*
X153192857Y-77422397D01*
X153397867Y-77495537D01*
X151881404Y-79012000D01*
X151360872Y-79012000D01*
X150962312Y-78612743D01*
X151407699Y-78168132D01*
X151732120Y-77386841D01*
X151732580Y-76860016D01*
X152518928Y-76073667D01*
X152542638Y-76547368D01*
X152701603Y-76931143D01*
X152943787Y-77000608D01*
X153744395Y-76200000D01*
X153730253Y-76185858D01*
X153909858Y-76006253D01*
X153924000Y-76020395D01*
X153938143Y-76006253D01*
X154117748Y-76185858D01*
G36*
X117305452Y-36789344D02*
X117214921Y-37236400D01*
X117214921Y-38963600D01*
X117293506Y-39381241D01*
X117540331Y-39764819D01*
X117898459Y-40009518D01*
X117775291Y-40265209D01*
X117772642Y-40280974D01*
X117893783Y-40513000D01*
X119253000Y-40513000D01*
X119253000Y-40493000D01*
X119507000Y-40493000D01*
X119507000Y-40513000D01*
X119527000Y-40513000D01*
X119527000Y-40767000D01*
X119507000Y-40767000D01*
X119507000Y-40787000D01*
X119253000Y-40787000D01*
X119253000Y-40767000D01*
X117893783Y-40767000D01*
X117772642Y-40999026D01*
X117775291Y-41014791D01*
X118029268Y-41542036D01*
X118069314Y-41577816D01*
X117778049Y-41772433D01*
X117346541Y-42418230D01*
X117195016Y-43180000D01*
X117346541Y-43941770D01*
X117686130Y-44450000D01*
X117346541Y-44958230D01*
X117195016Y-45720000D01*
X117346541Y-46481770D01*
X117686130Y-46990000D01*
X117674102Y-47008000D01*
X115072595Y-47008000D01*
X114028000Y-45963404D01*
X114028000Y-42579596D01*
X114057241Y-42574094D01*
X114440819Y-42327269D01*
X114698148Y-41950656D01*
X114788679Y-41503600D01*
X114788679Y-39776400D01*
X114710094Y-39358759D01*
X114519699Y-39062875D01*
X114654073Y-38861770D01*
X114805598Y-38100000D01*
X114654073Y-37338230D01*
X114478262Y-37075110D01*
X115124372Y-36429000D01*
X117551665Y-36429000D01*
X117305452Y-36789344D01*
X117305452Y-36789344D01*
G37*
X117305452Y-36789344D02*
X117214921Y-37236400D01*
X117214921Y-38963600D01*
X117293506Y-39381241D01*
X117540331Y-39764819D01*
X117898459Y-40009518D01*
X117775291Y-40265209D01*
X117772642Y-40280974D01*
X117893783Y-40513000D01*
X119253000Y-40513000D01*
X119253000Y-40493000D01*
X119507000Y-40493000D01*
X119507000Y-40513000D01*
X119527000Y-40513000D01*
X119527000Y-40767000D01*
X119507000Y-40767000D01*
X119507000Y-40787000D01*
X119253000Y-40787000D01*
X119253000Y-40767000D01*
X117893783Y-40767000D01*
X117772642Y-40999026D01*
X117775291Y-41014791D01*
X118029268Y-41542036D01*
X118069314Y-41577816D01*
X117778049Y-41772433D01*
X117346541Y-42418230D01*
X117195016Y-43180000D01*
X117346541Y-43941770D01*
X117686130Y-44450000D01*
X117346541Y-44958230D01*
X117195016Y-45720000D01*
X117346541Y-46481770D01*
X117686130Y-46990000D01*
X117674102Y-47008000D01*
X115072595Y-47008000D01*
X114028000Y-45963404D01*
X114028000Y-42579596D01*
X114057241Y-42574094D01*
X114440819Y-42327269D01*
X114698148Y-41950656D01*
X114788679Y-41503600D01*
X114788679Y-39776400D01*
X114710094Y-39358759D01*
X114519699Y-39062875D01*
X114654073Y-38861770D01*
X114805598Y-38100000D01*
X114654073Y-37338230D01*
X114478262Y-37075110D01*
X115124372Y-36429000D01*
X117551665Y-36429000D01*
X117305452Y-36789344D01*
M02*
