M48
;DRILL file {KiCad no-vcs-found-product} date So 28 Aug 2016 22:53:04 CEST
;FORMAT={-:-/ absolute / inch / decimal}
FMAT,2
INCH,TZ
T1C0.016
T2C0.031
T3C0.039
T4C0.040
T5C0.053
T6C0.059
T7C0.059
T8C0.071
T9C0.091
T10C0.094
T11C0.118
%
G90
G05
M72
T1
X4.47Y-4.33
X4.82Y-2.36
X4.82Y-2.62
X4.94Y-4.73
X5.Y-4.77
X5.03Y-3.15
X5.05Y-2.96
X5.07Y-3.25
X5.12Y-2.4
X5.16Y-2.44
X5.49Y-2.92
X6.16Y-4.15
X6.16Y-4.19
X6.16Y-4.23
X6.16Y-4.28
X6.17Y-4.48
X6.17Y-4.54
X6.29Y-4.04
X6.32Y-4.78
X6.36Y-3.68
X6.4Y-3.46
X6.51Y-2.77
X6.55Y-3.
X6.59Y-4.28
X6.62Y-4.24
X6.95Y-2.4
X6.98Y-4.09
X7.08Y-3.76
X7.12Y-3.99
X7.47Y-2.4
T2
X5.71Y-4.5
X5.71Y-4.6
X5.71Y-4.7
X5.9Y-4.5
X5.9Y-4.6
X5.9Y-4.7
X6.06Y-2.77
X6.06Y-3.
X6.06Y-3.24
X6.06Y-3.46
X6.06Y-3.68
X6.06Y-3.9
X6.16Y-2.77
X6.16Y-3.
X6.16Y-3.24
X6.16Y-3.46
X6.16Y-3.68
X6.16Y-3.9
X6.26Y-2.77
X6.26Y-3.
X6.26Y-3.24
X6.26Y-3.46
X6.26Y-3.68
X6.26Y-3.9
X7.43Y-4.1
X7.43Y-4.2
X7.43Y-4.3
X7.64Y-4.1
X7.64Y-4.2
X7.64Y-4.3
X7.85Y-4.1
X7.85Y-4.2
X7.85Y-4.3
X8.06Y-4.1
X8.06Y-4.2
X8.06Y-4.3
X8.26Y-4.11
X8.26Y-4.21
X8.26Y-4.31
T3
X4.48Y-3.11
X4.48Y-3.24
X4.48Y-3.37
X4.48Y-3.5
X4.48Y-3.63
X4.48Y-3.76
X4.48Y-3.89
X4.88Y-3.11
X4.88Y-3.24
X4.88Y-3.37
X4.88Y-3.5
X4.88Y-3.63
X4.88Y-3.76
X4.88Y-3.89
X5.49Y-3.03
X5.49Y-3.16
X5.49Y-3.29
X5.49Y-3.42
X5.49Y-3.55
X5.49Y-3.68
X5.49Y-3.94
X5.64Y-1.8001
X5.7Y-2.
X5.7Y-2.2
X5.74Y-1.8001
X5.82Y-1.8001
X5.89Y-3.03
X5.89Y-3.16
X5.89Y-3.29
X5.89Y-3.42
X5.89Y-3.55
X5.89Y-3.68
X5.89Y-3.94
X5.92Y-1.8001
X6.1Y-2.
X6.1Y-2.2
X6.87Y-4.2
X7.23Y-3.82
X7.27Y-4.2
X7.43Y-3.96
X7.63Y-3.82
X7.75Y-3.82
X7.83Y-3.96
X7.95Y-3.96
X8.15Y-3.82
X8.35Y-3.96
X8.4433Y-2.1654
X8.5433Y-2.1654
X8.6976Y-2.1654
X9.0976Y-2.1654
T4
X4.04Y-3.05
X4.04Y-3.15
X4.04Y-3.25
X4.04Y-3.35
X4.04Y-3.45
X4.04Y-3.55
X4.04Y-3.65
X4.04Y-3.75
X4.04Y-3.85
X4.04Y-3.95
X4.04Y-4.05
X4.04Y-4.15
X4.04Y-4.25
X4.14Y-3.05
X4.14Y-3.15
X4.14Y-3.25
X4.14Y-3.35
X4.14Y-3.45
X4.14Y-3.55
X4.14Y-3.65
X4.14Y-3.75
X4.14Y-3.85
X4.14Y-3.95
X4.14Y-4.05
X4.14Y-4.15
X4.14Y-4.25
X4.34Y-1.5
X4.34Y-1.6
X4.44Y-1.5
X4.44Y-1.6
X4.7Y-1.5
X4.7Y-1.6
X4.7Y-1.7
X4.7Y-1.8
X4.7Y-1.9
X4.7Y-2.
X5.2Y-3.05
X5.2Y-3.15
X5.2Y-3.25
X5.2Y-3.35
X5.2Y-3.45
X5.2Y-3.55
X5.2Y-3.65
X5.2Y-3.75
X5.2Y-3.85
X5.2Y-3.95
X5.2Y-4.05
X5.2Y-4.15
X5.2Y-4.25
X5.3Y-3.05
X5.3Y-3.15
X5.3Y-3.25
X5.3Y-3.35
X5.3Y-3.45
X5.3Y-3.55
X5.3Y-3.65
X5.3Y-3.75
X5.3Y-3.85
X5.3Y-3.95
X5.3Y-4.05
X5.3Y-4.15
X5.3Y-4.25
X6.85Y-3.45
X6.85Y-3.55
X6.88Y-4.495
X6.88Y-4.595
X6.95Y-3.45
X6.95Y-3.55
X6.98Y-4.495
X6.98Y-4.595
X7.05Y-3.45
X7.05Y-3.55
X7.08Y-4.495
X7.08Y-4.595
X7.15Y-3.45
X7.15Y-3.55
X7.18Y-4.495
X7.18Y-4.595
X7.28Y-4.495
X7.28Y-4.595
X7.38Y-4.495
X7.38Y-4.595
X7.48Y-4.495
X7.48Y-4.595
X7.58Y-4.495
X7.58Y-4.595
X7.68Y-4.495
X7.68Y-4.595
X7.78Y-4.495
X7.78Y-4.595
X7.88Y-4.495
X7.88Y-4.595
X7.98Y-4.495
X7.98Y-4.595
X8.08Y-4.495
X8.08Y-4.595
X8.2276Y-2.9224
X8.55Y-1.45
X8.55Y-1.55
X8.55Y-1.65
X8.55Y-1.75
T5
X7.4547Y-1.8
X7.5531Y-1.898
X7.6516Y-1.4059
X7.75Y-1.8
X7.8484Y-1.4059
X7.9469Y-1.898
X8.0453Y-1.8
T6
X9.Y-2.685
X9.Y-3.315
T7
X6.5Y-1.3169
X6.5Y-2.1831
X7.Y-1.3169
X7.Y-2.1831
T8
X6.6965Y-3.1327
X7.7201Y-2.6012
X7.7201Y-3.6642
X8.7437Y-3.1327
T9
X5.52Y-1.6951
X6.06Y-1.6951
T10
X7.4547Y-1.6031
X8.0453Y-1.6031
T11
X4.0551Y-1.2598
X4.0551Y-4.5669
X8.9764Y-1.2598
X8.9764Y-4.5669
T0
M30
